<svg enable-background="new 0 0 1494 100" viewBox="0 0 1494 100" xmlns="http://www.w3.org/2000/svg"><path d="m900.5 3.1h10.5c.8 0 1.5.7 1.5 1.5v19.8c0 .8-.7 1.5-1.5 1.5h-10.5c-.8 0-1.5-.7-1.5-1.5v-19.8c0-.9.7-1.5 1.5-1.5z" fill="#1f7acc"/><path d="m919.7 3.1h10.5c.8 0 1.5.7 1.5 1.5v19.8c0 .8-.7 1.5-1.5 1.5h-10.5c-.8 0-1.5-.7-1.5-1.5v-19.8c0-.9.7-1.5 1.5-1.5z" fill="#1f7acc"/><path d="m597.9 30.8c7.7 0 13.9-6.2 13.9-13.9s-6.2-13.9-13.9-13.9-13.9 6.2-13.9 13.9c.1 7.7 6.3 13.9 13.9 13.9z" fill="#1f7acc"/><path d="m754.7 3.1c-7.7 0-13.9 6.2-13.9 13.9s6.2 13.9 13.9 13.9 13.9-6.2 13.9-13.9c0-7.7-6.2-13.9-13.9-13.9z" fill="#1f7acc"/><path d="m1286.9 34.4c8.6 0 15.6-7 15.6-15.6s-7-15.6-15.6-15.6-15.6 7-15.6 15.6c0 8.6 7 15.6 15.6 15.6" fill="#1f7acc"/><path d="m232.3 90.2h6.3c.4 0 .7-.2.9-.5l26-42.5 14.1 48.6c.1.3.4.5.7.6h27.3c.2 0 .4-.1.4-.3 0-.1 0-.1 0-.2l-28.7-91c-.1-.3-.4-.5-.8-.6h-10.2c-.4 0-.7.2-.9.5l-35 54.3-35-54.3c-.2-.3-.5-.5-.9-.5h-10.2c-.3 0-.6.2-.8.6l-28.7 91c-.1.2 0 .4.2.5h.2 27.2c.3 0 .6-.2.7-.6l14.1-48.6 26 42.5c.2.3.5.5.9.5z" fill="#005bac"/><path d="m157.9 44.9c-.1-.3-.3-.5-.6-.5h-77.6c-4.1 0-7.4 3.3-7.4 7.4s3.3 7.4 7.4 7.4h46.1c-5.5 14.5-24.1 25.2-46.1 25.2-26.4 0-47.8-15.3-47.8-34.1s21.4-34.1 47.8-34.1c14.4 0 27.3 4.6 36.1 11.8 0 0 .1 0 .1.1.1.1.2.1.3.1h31.8c.3 0 .6-.3.6-.6 0-.1 0-.3-.1-.4 0 0 0 0 0-.1-13.6-14.3-39.3-24-68.8-24-43.4 0-78.7 21.2-78.7 47.3s35.3 47.3 78.7 47.3c43.5 0 78.7-21.2 78.7-47.3.1-1.9-.1-3.7-.5-5.5" fill="#005bac"/><path d="m384.9 3.1c-43.5 0-78.7 21.2-78.7 47.3s35.2 47.3 78.7 47.3 78.7-21.2 78.7-47.3c.1-26.1-35.2-47.3-78.7-47.3m0 81.4c-26.4 0-47.8-15.3-47.8-34.1s21.4-34.1 47.8-34.1 47.8 15.3 47.8 34.1-21.4 34.1-47.8 34.1" fill="#005bac"/><g fill="#393c41"><path d="m931.4 95.4c0 .5.3.9.8 1h.1 16.8c.6 0 1-.4 1.1-1l1.8-27.5c0-.5-.3-.9-.8-1h-.1-16.8c-.6 0-1 .4-1.1 1z"/><path d="m988.3 95.4c0 .5.3.9.8 1h.1 16.8c.6 0 1-.4 1.1-1l1.8-27.5c0-.5-.3-.9-.8-1h-.1-16.8c-.6 0-1 .4-1.1 1z"/><path d="m1045.6 66.9c-.5 0-.9.4-.9.9v.1l1.8 27.5c0 .6.5 1 1.1 1h16.8c.5 0 .9-.4.9-.9v-.1l-1.8-27.5c0-.6-.5-1-1.1-1z"/><path d="m1037.1 44.8c-.5 0-1-.4-1-1v-9c0-.5.4-1 1-1h20.6c.5 0 1-.4 1-1v-8.3c0-.5-.4-1-1-1h-20.6c-.5 0-1-.4-1-1v-17.2c0-.5-.4-1-1-1h-16.8c-.5 0-1 .4-1 1v17.2c0 .5-.4 1-1 1h-7.8c-.5 0-.9-.4-.9-.9v-.1l1.2-17.2c0-.5-.3-.9-.8-1h-.1-16.8c-.6 0-1 .4-1.1 1l-1.8 27.5c0 .5.3.9.8 1h.1 27.1c.5 0 1 .4 1 1v9c0 .5-.4 1-1 1h-27.1c-.5 0-1 .4-1 1v8.3c0 .5.4 1 1 1h27.1c.5 0 1 .4 1 1v39.3c0 .5.4 1 1 1h16.8c.5 0 1-.4 1-1v-39.3c0-.5.4-1 1-1h27.1c.5 0 1-.4 1-1v-8.3c0-.5-.4-1-1-1z"/><path d="m960.4 22.5c0 .5-.4 1-1 1h-16.8c-.5 0-1 .4-1 1v8.3c0 .5.4 1 1 1h16.8c.5 0 1 .4 1 1v60.6c0 .5.4 1 1 1h16.8c.5 0 1-.4 1-1v-90.1c0-.5-.4-1-1-1h-16.8c-.5 0-1 .4-1 1z"/><path d="m778.8 94.9c-.1.7.5 1.4 1.2 1.5h.1 16.4c.8 0 1.5-.6 1.6-1.5l2.8-37.7c.1-.7-.5-1.4-1.2-1.5h-.1-16.4c-.8 0-1.5.6-1.6 1.5z"/><path d="m872.6 55.8c-.7 0-1.4.6-1.4 1.3v.1l2.9 37.7c.1.8.8 1.5 1.6 1.5h16.4c.7 0 1.4-.6 1.4-1.3v-.1l-2.9-37.7c-.1-.8-.8-1.5-1.6-1.5z"/><path d="m890 37.2c.8 0 1.5-.7 1.5-1.5v-15.8c0-.8-.7-1.5-1.5-1.5h-43.1c-.8 0-1.5-.7-1.5-1.5v-11.1c0-.8-.7-1.5-1.5-1.5h-15.8c-.8 0-1.5.7-1.5 1.5v11.2c0 .8-.7 1.5-1.5 1.5h-43.1c-.8 0-1.5.7-1.5 1.5v15.8c0 .8.7 1.5 1.5 1.5h43.1c.8 0 1.5.7 1.5 1.5v56.3c0 .8.7 1.5 1.5 1.5h15.9c.8 0 1.5-.7 1.5-1.5v-56.5c0-.8.7-1.5 1.5-1.5z"/><path d="m538.6 15.8-.7.7-.7.7-51.5 51.5c-.4.4-.4 1 0 1.4l11.9 11.9c.4.4 1 .4 1.4 0l43-43c.4-.4 1-.4 1.4 0l56.2 56.3c.4.4 1 .4 1.4 0l11.9-11.9c.4-.4.4-1 0-1.4l-69.4-69.6c-.4-.4-1-.4-1.4 0z"/><path d="m636.1 95.4c-.1.5.3.9.7 1h.1 18.2c.6 0 1-.4 1.1-1l9.9-82c.1-.5-.3-.9-.7-1h-.1-18.3c-.6 0-1 .4-1.1 1z"/><path d="m710.2 12.5c-.5 0-.9.4-.9.8v.1l9.9 82c.1.6.5 1 1.1 1h18.2c.5 0 .9-.4.9-.8v-.1l-9.9-82c-.1-.6-.5-1-1.1-1z"/><path d="m1336 5.3c-.1-.6-.6-1-1.2-1h-16.8c-.4 0-.8.3-.8.8v.2l15.4 90.1c.1.6.6 1 1.2 1h16.8c.4 0 .8-.3.8-.8 0-.1 0-.1 0-.2z"/><path d="m1239 4.3c-.6 0-1 .4-1.2 1l-15.4 90.1c-.1.4.2.9.6 1h.2 16.8c.6 0 1-.4 1.2-1l15.4-90.1c.1-.4-.2-.9-.6-1-.1 0-.1 0-.2 0z"/><path d="m1295.1 66.9c-.4 0-.8.3-.8.7v.3l3.8 17.2c.1.4-.1.8-.5.9-.1 0-.2 0-.3 0h-22.3c-.4 0-.8-.3-.8-.7 0-.1 0-.2 0-.2l6.8-31.5c.1-.6.6-1 1.2-1h36.6c.5 0 1-.4 1-1 0 0-1.4-7.9-1.5-8.6-.1-.6-.4-1-1-1h-60.9c-.5 0-1 .4-1 1l-1.6 8.6c0 .5.4 1 1 1h8.2c.4 0 .8.3.8.8v.2l-9 41.8c-.1.4.2.9.6 1h.2 62.5c.4 0 .8-.3.8-.7 0-.1 0-.2 0-.2l-6-27.5c-.1-.6-.6-.9-1.2-1z"/><path d="m1465.7 86.1c-.5 0-1-.4-1-1v-31.5c0-.5.4-1 1-1h20.7c.5 0 1-.4 1-1v-8.3c0-.5-.4-1-1-1h-20.7c-.5 0-1-.4-1-1v-36c0-.5-.4-1-1-1h-16.7c-.5 0-1 .4-1 1v36c0 .5-.4 1-1 1h-20.7c-.5 0-1 .4-1 1v8.3c0 .5.4 1 1 1h20.7c.5 0 1 .4 1 1v31.5c0 .5-.4 1-1 1h-26.7c-.5 0-1 .4-1 1v8.3c0 .5.4 1 1 1h73.9c.5 0 1-.4 1-1v-8.3c0-.5-.4-1-1-1z"/><path d="m1422.9 35.1c.4-.5.7-1.1.7-1.7v-8c0-.5-.4-1-1-1h-14.2c-.6 0-1-.4-1.1-1l-2.3-17.5c-.1-.6-.6-1-1.1-1h-16.8c-.5 0-.9.4-.9.8v.2l2.3 17.5c.1.5-.2.9-.7 1-.1 0-.1 0-.2 0h-20.2c-.5 0-1 .4-1 1v8c0 .5.4 1 1 1h27.8c.5 0 .7.3.3.7l-30.3 30.3c-.4.4-.4 1 0 1.4l12.3 12.2c.4.4 1 .4 1.4 0l8.6-8.6c.4-.4.7-.3.7.3v24.7c0 .5.4 1 1 1h16.8c.5 0 1-.4 1-1v-43.4c0-.6.3-1.2.7-1.7z"/><path d="m1184.3 5.3c-.1-.6-.6-1-1.2-1h-16.8c-.4 0-.8.3-.8.8v.2l3 17.2c.1.4-.2.9-.6 1-.1 0-.1 0-.2 0h-85.1c-.5 0-1 .4-1 1v8.3c0 .5.4 1 1 1h86.9c.6 0 1 .4 1.2 1l10.4 60.7c.1.6.6 1 1.2 1h16.8c.4 0 .8-.3.8-.8 0-.1 0-.1 0-.2l-10.4-60.7c-.1-.4.2-.9.6-1h.2 8.7c.5 0 1-.4 1-1v-8.3c0-.5-.4-1-1-1h-10.5c-.6 0-1-.4-1.2-1z"/><path d="m1087.8 54.1c0 .5.4 1 1 1h23.8c.5 0 1 .4 1 1v29c0 .5-.4 1-1 1h-23.8c-.5 0-1 .4-1 1v8.3c0 .5.4 1 1 1h68.3c.5 0 1-.4 1-1v-8.3c0-.5-.4-1-1-1h-23.8c-.5 0-1-.4-1-1v-29c0-.5.4-1 1-1h23.8c.5 0 1-.4 1-1v-8.3c0-.5-.4-1-1-1h-68.3c-.5 0-1 .4-1 1z"/><path d="m1199.5 3.1c-.5 0-1 .4-1 1l2.3 13.3c0 .5.5 1 1 1h14.9c.5 0 1-.4 1-1l-2.3-13.3c-.1-.5-.5-.9-1-1h-14.9z"/></g></svg>