<svg id="レイヤー_1" data-name="レイヤー 1" xmlns="http://www.w3.org/2000/svg" viewBox="0 0 402.52 26.93"><defs><style>.cls-1{fill:#1f7acc;}.cls-2{fill:#005aac;}.cls-3{fill:#393c41;}</style></defs><title>アートボード 1</title><path class="cls-1" d="M178.92,8.7a.26.26,0,0,0,.21.3h2.16a.27.27,0,0,0,.3-.22v-4a.27.27,0,0,0-.22-.3h-2.15a.25.25,0,0,0-.3.21.14.14,0,0,0,0,.09Zm3.84,0A.27.27,0,0,0,183,9h2.15a.27.27,0,0,0,.3-.22.11.11,0,0,0,0-.08V4.76a.26.26,0,0,0-.21-.3h-2.16a.25.25,0,0,0-.3.21v4ZM119.28,10a2.76,2.76,0,1,0-2.76-2.76A2.83,2.83,0,0,0,119.28,10m31.05-5.52a2.76,2.76,0,0,0-2.76,2.75h0A2.71,2.71,0,0,0,150.21,10h.12a2.76,2.76,0,0,0,2.76-2.75h0a2.7,2.7,0,0,0-2.64-2.76h-.12M255.8,10.67a3.06,3.06,0,1,0-3.06-3.06h0a3.08,3.08,0,0,0,3.06,3.06"/><path class="cls-2" d="M46.83,21.71h1.29c.1,0,.1,0,.2-.1l5.12-8.38,2.76,9.66a.1.1,0,0,0,.1.1h5.42c.1,0,.1,0,.1-.1l-5.72-18c0-.1-.1-.1-.2-.1H53.83c-.1,0-.1,0-.2.1L46.73,15.6,39.84,4.85c0-.1-.1-.1-.2-.1H37.57c-.1,0-.1.1-.2.1l-5.72,18c0,.1,0,.1.1.1h5.42c.1,0,.1,0,.1-.1L40,13.23l5.12,8.38c0,.1.1.1.2.1Zm-14.68-9a.1.1,0,0,0-.1-.1H16.67a1.48,1.48,0,0,0,0,2.95h9.17c-1.08,2.86-4.73,5-9.17,5-5.22,0-9.46-3.05-9.46-6.8S11.45,7,16.67,7a11.28,11.28,0,0,1,7.2,2.37h6.41a.11.11,0,0,0,.1-.1h0v-.1c-2.86-2.86-7.89-4.73-13.81-4.73C8,4.46,1,8.7,1,13.82s7,9.37,15.57,9.37S32.15,19,32.15,13.82a3.91,3.91,0,0,0,0-1.08M77.1,4.46c-8.58,0-15.58,4.24-15.58,9.36s7,9.37,15.58,9.37,15.57-4.14,15.57-9.37-7-9.36-15.57-9.36m0,16.16c-5.23,0-9.47-3.05-9.47-6.8S71.87,7,77.1,7s9.46,3.06,9.46,6.8-4.24,6.8-9.46,6.8"/><path class="cls-3" d="M185.42,22.79a.21.21,0,0,0,.2.2H189a.2.2,0,0,0,.2-.2l.4-5.42a.22.22,0,0,0-.2-.2H186a.21.21,0,0,0-.2.2Zm11.24,0a.2.2,0,0,0,.2.2h3.35a.21.21,0,0,0,.2-.2l.39-5.42a.21.21,0,0,0-.2-.2h-3.35a.22.22,0,0,0-.2.2ZM208,17.07a.21.21,0,0,0-.2.2l.39,5.43a.22.22,0,0,0,.2.2h3.35a.21.21,0,0,0,.2-.2l-.4-5.43a.21.21,0,0,0-.2-.2Z"/><path class="cls-3" d="M206.32,12.74a.21.21,0,0,1-.2-.2V10.77a.2.2,0,0,1,.2-.2h4a.22.22,0,0,0,.2-.2V8.7a.21.21,0,0,0-.2-.2h-4a.21.21,0,0,1-.2-.2V4.85a.22.22,0,0,0-.2-.2h-3.35a.21.21,0,0,0-.2.2V8.3a.21.21,0,0,1-.2.2h-1.58a.21.21,0,0,1-.2-.2l.2-3.45a.21.21,0,0,0-.2-.2H197a.22.22,0,0,0-.2.2l-.2,5.52a.21.21,0,0,0,.2.2h5.42a.21.21,0,0,1,.2.2v1.77a.2.2,0,0,1-.2.2h-5.4a.21.21,0,0,0-.2.2v1.68a.21.21,0,0,0,.2.2h5.42a.21.21,0,0,1,.2.2V22.8a.21.21,0,0,0,.2.2H206a.2.2,0,0,0,.2-.2V15a.22.22,0,0,1,.2-.2h5.42a.2.2,0,0,0,.2-.2V12.93a.21.21,0,0,0-.2-.2h-5.53ZM191.14,8.3a.21.21,0,0,1-.2.2h-3.35a.22.22,0,0,0-.2.2v1.67a.21.21,0,0,0,.2.2h3.35a.21.21,0,0,1,.2.2v12a.21.21,0,0,0,.2.2h3.36a.21.21,0,0,0,.2-.2V4.85a.23.23,0,0,0-.2-.2h-3.36a.23.23,0,0,0-.2.2Zm-36,14.39a.26.26,0,0,0,.22.3.11.11,0,0,0,.08,0h3.26a.26.26,0,0,0,.3-.21v-.09l.59-7.49a.27.27,0,0,0-.22-.3h-3.34a.27.27,0,0,0-.3.22v.08Zm18.54-7.78a.25.25,0,0,0-.3.21.14.14,0,0,0,0,.09L174,22.7a.32.32,0,0,0,.3.3h3.25a.27.27,0,0,0,.3-.22.11.11,0,0,0,0-.08l-.59-7.49a.31.31,0,0,0-.3-.3Z"/><path class="cls-3" d="M177.14,11.25a.25.25,0,0,0,.3-.21.14.14,0,0,0,0-.09V7.81a.25.25,0,0,0-.21-.3h-8.66a.26.26,0,0,1-.3-.22.11.11,0,0,1,0-.08V5a.27.27,0,0,0-.22-.3h-3.24a.27.27,0,0,0-.3.22V7.12a.25.25,0,0,1-.21.3h-8.54a.26.26,0,0,0-.3.21.14.14,0,0,0,0,.09v3.14a.25.25,0,0,0,.21.3h8.66a.27.27,0,0,1,.3.22.11.11,0,0,1,0,.08V22.59a.26.26,0,0,0,.22.3h3.24a.26.26,0,0,0,.3-.21V11.45a.26.26,0,0,1,.21-.3h8.56ZM107.55,7l-.1.1-.1.1L97,17.47a.18.18,0,0,0,0,.26s0,0,0,0l2.36,2.36a.19.19,0,0,0,.26,0,.08.08,0,0,0,0,0l8.48-8.48a.19.19,0,0,1,.26,0l0,0,11.13,11.14a.19.19,0,0,0,.26,0s0,0,0,0l2.36-2.36a.18.18,0,0,0,.05-.26l-.05,0-13.8-13.8a.17.17,0,0,0-.25,0l0,0Zm19.32,15.77a.21.21,0,0,0,.2.2h3.65a.21.21,0,0,0,.2-.2l2-16.26a.21.21,0,0,0-.2-.2H129a.21.21,0,0,0-.2.2ZM141.56,6.33a.22.22,0,0,0-.2.2l2,16.26a.21.21,0,0,0,.2.2h3.65a.21.21,0,0,0,.2-.2l-2-16.26a.21.21,0,0,0-.2-.2Zm124-1.48a.22.22,0,0,0-.2-.2H262a.23.23,0,0,0-.2.2l3.06,17.85a.21.21,0,0,0,.2.2h3.34a.21.21,0,0,0,.2-.2Zm-19.22-.2a.21.21,0,0,0-.2.2l-3.06,17.84a.21.21,0,0,0,.2.2h3.36a.21.21,0,0,0,.2-.2l3-17.84a.21.21,0,0,0-.2-.2h-3.34Zm11.14,12.42a.21.21,0,0,0-.2.2l.78,3.45c0,.1,0,.2-.2.2h-4.43a.21.21,0,0,1-.2-.2l1.38-6.21a.23.23,0,0,1,.2-.2h7.3a.21.21,0,0,0,.2-.2s-.3-1.57-.3-1.67a.21.21,0,0,0-.2-.2h-12a.2.2,0,0,0-.2.2l-.3,1.67a.2.2,0,0,0,.2.2h1.57a.21.21,0,0,1,.2.2l-1.77,8.28a.21.21,0,0,0,.2.2h12.42a.2.2,0,0,0,.2-.2l-1.18-5.42a.22.22,0,0,0-.2-.2h-3.45Zm33.81,3.85a.21.21,0,0,1-.2-.2V14.51a.2.2,0,0,1,.2-.2h4.14a.22.22,0,0,0,.2-.2V12.44a.22.22,0,0,0-.2-.2h-4.14a.2.2,0,0,1-.2-.2V4.85a.23.23,0,0,0-.2-.2h-3.36a.23.23,0,0,0-.2.2V12a.2.2,0,0,1-.2.2H283a.23.23,0,0,0-.2.2V14a.22.22,0,0,0,.2.2h4.14a.2.2,0,0,1,.2.2v6.21a.21.21,0,0,1-.2.2h-5.3a.2.2,0,0,0-.2.2V22.7a.2.2,0,0,0,.2.2h14.68a.2.2,0,0,0,.2-.2V21a.2.2,0,0,0-.2-.2h-5.22Zm-8.48-10.15a.37.37,0,0,0,.1-.3V8.89a.22.22,0,0,0-.2-.2H280a.2.2,0,0,1-.2-.2l-.49-3.44a.21.21,0,0,0-.2-.2h-3.35a.22.22,0,0,0-.2.2L276,8.5a.2.2,0,0,1-.2.2h-4a.22.22,0,0,0-.2.2v1.57a.22.22,0,0,0,.2.2h5.52a.09.09,0,0,1,.1.1h0l-6,6a.18.18,0,0,0-.05.26l.05,0,2.46,2.46a.18.18,0,0,0,.26,0s0,0,0,0l1.68-1.67c.1-.1.1-.1.1.1v4.92a.2.2,0,0,0,.2.2h3.35a.21.21,0,0,0,.2-.2V14.12a.76.76,0,0,1,.1-.3ZM235.49,4.85a.21.21,0,0,0-.2-.2h-3.35a.22.22,0,0,0-.2.2l.59,3.45a.2.2,0,0,1-.2.2H215.29a.22.22,0,0,0-.2.2v1.67a.21.21,0,0,0,.2.2h17.25a.21.21,0,0,1,.2.2l2.07,12a.22.22,0,0,0,.2.2h3.35a.21.21,0,0,0,.2-.2l-2.08-12a.21.21,0,0,1,.2-.2h1.78a.23.23,0,0,0,.2-.2V8.7a.21.21,0,0,0-.2-.2h-2.07a.21.21,0,0,1-.2-.2Z"/><path class="cls-3" d="M216.37,14.61a.21.21,0,0,0,.2.2h4.73a.21.21,0,0,1,.2.2v5.72a.21.21,0,0,1-.2.2h-4.73a.21.21,0,0,0-.2.2V22.8a.21.21,0,0,0,.2.2h13.5a.2.2,0,0,0,.2-.2V21.12a.2.2,0,0,0-.2-.2h-4.73a.23.23,0,0,1-.2-.2V15a.23.23,0,0,1,.2-.2h4.73a.2.2,0,0,0,.2-.2V12.94a.2.2,0,0,0-.2-.2h-13.5a.21.21,0,0,0-.2.2ZM238.55,4.46a.21.21,0,0,0-.2.2l.5,2.66a.21.21,0,0,0,.2.2H242a.21.21,0,0,0,.2-.2l-.49-2.66a.21.21,0,0,0-.2-.2Z"/><path class="cls-3" d="M315,15.49c-.59.19-1.19.37-1.78.54v4.68c0,1-.16,1.57-.72,1.92a4.78,4.78,0,0,1-2.57.41,8.29,8.29,0,0,0-.55-2,13.73,13.73,0,0,0,1.53,0c.22,0,.31-.07.31-.31V16.62c-.61.19-1.22.35-1.75.5L308.94,15c.63-.13,1.4-.33,2.23-.53v-3.2h-1.94v-2h1.94V5.78h2V9.26h1.68v2h-1.68v2.66l1.5-.43Zm7.78,1.37a11.41,11.41,0,0,0,3.92,3.63,7.89,7.89,0,0,0-1.44,1.66,13.56,13.56,0,0,1-3.53-3.62v4.38h-2.07V18.43a12.68,12.68,0,0,1-4.07,3.81,10,10,0,0,0-1.46-1.72,11,11,0,0,0,4.36-3.66h-3.18V15h4.35V13.09h2.07V15h4.46v1.9Zm3.06-9.25A52.36,52.36,0,0,1,315.59,9,7.39,7.39,0,0,0,315,7.28a49,49,0,0,0,9.3-1.39Zm-9.38,5.81a16.34,16.34,0,0,0-1.13-3.55L317,9.43a14.42,14.42,0,0,1,1.26,3.45Zm3.16-.7a12,12,0,0,0-.74-3.4L320.66,9a11,11,0,0,1,.85,3.37Zm2.5.39a24.12,24.12,0,0,0,2.12-4.46l2.09.76a39.83,39.83,0,0,1-2.51,4.38Z"/><path class="cls-3" d="M345.54,20.43c0,1.18-.26,1.78-1,2.11a8.57,8.57,0,0,1-3.55.39,8.86,8.86,0,0,0-.7-2.11c1,.05,2.25,0,2.58,0s.48-.12.48-.45V17.64h-3.9V22.8h-2.22V17.64h-3.77a10.58,10.58,0,0,1-2.33,5.49,7.73,7.73,0,0,0-1.74-1.42c2-2.22,2.18-5.51,2.18-8.1V7h14Zm-8.31-4.86V13.29h-3.47v.33c0,.6,0,1.26-.06,2Zm-3.47-6.48v2.15h3.47V9.09Zm9.59,0h-3.9v2.15h3.9Zm0,6.48V13.29h-3.9v2.28Z"/><path class="cls-3" d="M363,10.37a11.12,11.12,0,0,0,2-.13V12.7c-.41,0-1.05-.06-2-.06h-1.37v.61c0,4.59-1.11,7.38-5.57,9.34l-2-1.86c3.57-1.24,5.14-2.85,5.14-7.38v-.71h-4.38v2.52c0,.81.06,1.57.07,1.94h-2.59a13.84,13.84,0,0,0,.12-1.94V12.64h-1.58c-.92,0-1.59,0-2,.08V10.2a11.53,11.53,0,0,0,2,.17h1.58V8.54a14.22,14.22,0,0,0-.12-1.67H355a12.48,12.48,0,0,0-.11,1.69v1.81h4.38V8.43a11.58,11.58,0,0,0-.11-1.72h2.63a15.2,15.2,0,0,0-.11,1.72v1.94Z"/><path class="cls-3" d="M377.86,19.82a12.61,12.61,0,0,0,.17,2.42H375.1a19.4,19.4,0,0,0,.13-2.42V13.75a35.11,35.11,0,0,1-6.36,2.52L367.54,14A28.42,28.42,0,0,0,376,10.67a19.68,19.68,0,0,0,4.83-4.18l2,1.79a30.56,30.56,0,0,1-4.9,4Z"/><path class="cls-3" d="M396.19,17.18a52.68,52.68,0,0,0-6.67-2.76v5.23c0,.54.09,1.83.16,2.57H386.8a19.93,19.93,0,0,0,.18-2.57V9a12.86,12.86,0,0,0-.18-2.24h2.88A21.23,21.23,0,0,0,389.52,9v2.72a60.4,60.4,0,0,1,7.73,2.86Z"/></svg>
