<svg xmlns="http://www.w3.org/2000/svg" xmlns:xlink="http://www.w3.org/1999/xlink" viewBox="0 0 1567.91 142.13"><defs><style>.cls-1{fill:#fff;}.cls-2{fill:url(#新規グラデーションスウォッチ_3);}.cls-3{fill:url(#新規グラデーションスウォッチ_3-2);}.cls-4{fill:url(#新規グラデーションスウォッチ_3-3);}.cls-5{fill:url(#新規グラデーションスウォッチ_3-4);}.cls-6{fill:url(#新規グラデーションスウォッチ_3-5);}.cls-7{fill:url(#新規グラデーションスウォッチ_3-6);}.cls-8{fill:url(#新規グラデーションスウォッチ_3-7);}.cls-9{fill:url(#新規グラデーションスウォッチ_3-8);}.cls-10{fill:url(#新規グラデーションスウォッチ_3-9);}.cls-11{fill:url(#新規グラデーションスウォッチ_3-10);}.cls-12{fill:url(#新規グラデーションスウォッチ_3-11);}.cls-13{fill:url(#新規グラデーションスウォッチ_3-12);}.cls-14{fill:url(#新規グラデーションスウォッチ_3-13);}.cls-15{fill:url(#新規グラデーションスウォッチ_3-14);}.cls-16{fill:url(#新規グラデーションスウォッチ_3-15);}.cls-17{fill:url(#新規グラデーションスウォッチ_3-16);}.cls-18{fill:url(#新規グラデーションスウォッチ_3-17);}.cls-19,.cls-21{fill:#2b2b2b;}.cls-19{fill-rule:evenodd;}.cls-20{fill:#00bda6;}</style><linearGradient id="新規グラデーションスウォッチ_3" x1="717.06" y1="56.31" x2="733.55" y2="56.31" gradientUnits="userSpaceOnUse"><stop offset="0" stop-color="#ff0d00"/><stop offset="1" stop-color="#ff2a00"/></linearGradient><linearGradient id="新規グラデーションスウォッチ_3-2" x1="735.13" y1="56.31" x2="768.73" y2="56.31" xlink:href="#新規グラデーションスウォッチ_3"/><linearGradient id="新規グラデーションスウォッチ_3-3" x1="773.78" y1="56.31" x2="790.26" y2="56.31" xlink:href="#新規グラデーションスウォッチ_3"/><linearGradient id="新規グラデーションスウォッチ_3-4" x1="796.52" y1="56.31" x2="803.56" y2="56.31" xlink:href="#新規グラデーションスウォッチ_3"/><linearGradient id="新規グラデーションスウォッチ_3-5" x1="811.11" y1="56.31" x2="832.81" y2="56.31" xlink:href="#新規グラデーションスウォッチ_3"/><linearGradient id="新規グラデーションスウォッチ_3-6" x1="835.67" y1="56.31" x2="869.27" y2="56.31" xlink:href="#新規グラデーションスウォッチ_3"/><linearGradient id="新規グラデーションスウォッチ_3-7" x1="873.53" y1="56.31" x2="895.23" y2="56.31" xlink:href="#新規グラデーションスウォッチ_3"/><linearGradient id="新規グラデーションスウォッチ_3-8" x1="898.99" y1="56.68" x2="907.31" y2="56.68" xlink:href="#新規グラデーションスウォッチ_3"/><linearGradient id="新規グラデーションスウォッチ_3-9" x1="717.25" y1="91.45" x2="736.66" y2="91.45" xlink:href="#新規グラデーションスウォッチ_3"/><linearGradient id="新規グラデーションスウォッチ_3-10" x1="741.42" y1="91.2" x2="763.07" y2="91.2" xlink:href="#新規グラデーションスウォッチ_3"/><linearGradient id="新規グラデーションスウォッチ_3-11" x1="766.83" y1="90.53" x2="788.61" y2="90.53" xlink:href="#新規グラデーションスウォッチ_3"/><linearGradient id="新規グラデーションスウォッチ_3-12" x1="791.51" y1="91.39" x2="815.63" y2="91.39" xlink:href="#新規グラデーションスウォッチ_3"/><linearGradient id="新規グラデーションスウォッチ_3-13" x1="818.66" y1="90.88" x2="840.82" y2="90.88" xlink:href="#新規グラデーションスウォッチ_3"/><linearGradient id="新規グラデーションスウォッチ_3-14" x1="845.24" y1="90.58" x2="862.25" y2="90.58" xlink:href="#新規グラデーションスウォッチ_3"/><linearGradient id="新規グラデーションスウォッチ_3-15" x1="865.37" y1="89.9" x2="890.05" y2="89.9" xlink:href="#新規グラデーションスウォッチ_3"/><linearGradient id="新規グラデーションスウォッチ_3-16" x1="892.47" y1="90.58" x2="909.48" y2="90.58" xlink:href="#新規グラデーションスウォッチ_3"/><linearGradient id="新規グラデーションスウォッチ_3-17" x1="668.75" y1="30.49" x2="668.75" y2="111.73" xlink:href="#新規グラデーションスウォッチ_3"/></defs><g id="レイヤー_2" data-name="レイヤー 2"><g id="Design"><path d="M.81,68.89A2.85,2.85,0,0,0,1,68.26c0-.17-.05-.13-.21-.39s-.13-.15-.2-.4,0-.17-.13-.34-.39-.27-.39-.47.06-.15,0-.44-.15-.39,0-.61a3.85,3.85,0,0,0,.23-.44.64.64,0,0,1,.27-.31.92.92,0,0,0,.26-.26c.09-.13.22-.29.36-.2s.31.37.46.3.18-.22.34-.3a.46.46,0,0,1,.33-.07.6.6,0,0,0,.51-.24c.14-.19.58-.32.64-.15s.27.33.41.15.28-.5.49-.58.6.05.81,0,.44,0,.58-.22a1.34,1.34,0,0,1,.38-.4c.11-.07.27,0,.26-.26s-.07-.4.07-.53.35-.21.51-.35a1.69,1.69,0,0,0,.26-.27c.16-.2.28-.08.37-.32s.12-.13.16-.38,0-.47.12-.61.21,0,.23-.3,0-.12,0-.48a2.47,2.47,0,0,1,.1-.69c.07-.26.15,0,.08-.39a1.83,1.83,0,0,1-.09-.67c0-.3,0-.26.06-.59s.3-.24,0-.55,0-.13-.22-.5a3,3,0,0,0-.33-.55,1,1,0,0,1-.23-.67,1.4,1.4,0,0,1,.15-.52c.13-.33.34-.36.34-.52s-.2-.11-.23-.36a1,1,0,0,1,.06-.87c.23-.44.38-.71.57-.68s.38,0,.47.32.18.33.34.22a5.82,5.82,0,0,1,.54-.4,1.67,1.67,0,0,1,.9-.07c.26.08.18.16.59.23a3.54,3.54,0,0,0,.89.13c.47,0,.45-.21.82-.27a1.65,1.65,0,0,1,.8.1c.27,0,.3-.07.68-.29s.42-.41.89-.19a4.62,4.62,0,0,0,.72.25c.54.19.58.28.66.28a.73.73,0,0,0,.65-.05c.41-.21.54-.49,1-.32s.53,0,.36.55-.29.49,0,.71.18.19,0,.54-.06,1-.31,1.36a1,1,0,0,0-.22.9,6,6,0,0,0,.17,1.08c.08.35.25.46.11.83s-.37,1.27-.14,1a6,6,0,0,1,1-.89c.52-.39.3-.45.82-.76a4.41,4.41,0,0,0,1-.64c.21-.22.22,0,.32-.26s-.07-.39.4-.45.69-.2.75-.31a1.23,1.23,0,0,1,.42-.3c.17-.1.23-.42.59-.44s.5-.26.7-.16.25,0,.3-.14a2.19,2.19,0,0,1,.43-.52c.14-.15.12-.31.23-.22s.39.14.46,0-.09-.09.21-.18.11-.4.61-.32.37.14.61,0,.67-.94.95-.93.22.43.44.26a1.64,1.64,0,0,1,.82-.37,2,2,0,0,0,.87-.34,1.22,1.22,0,0,1,.74-.36c.34,0,.71-.21.9-.11s.27.45.59.36.12-.15.44-.15a3.67,3.67,0,0,0,1,0,2,2,0,0,1,.91-.23c.28,0,.26-.11.65-.12s.46-.12.83.05.61.27.88.41a1.29,1.29,0,0,0,.74.22,3.86,3.86,0,0,1,1.45.36c.38.2.4.47.68.51a1.68,1.68,0,0,1,.65.13c.28.13.57.34.74.32s.32.15.52.3.1.29.44.33.29,0,.52.16a1.48,1.48,0,0,1,.5.33c.26.24.23.62.39.64s.24,0,.26.27,0,.32.31.4.39.28.58.55.16,0,.36.25.2.17.2.4.35.57.36.8,0,.17.26.35.53.28.57.44,0,.36.25.38a.38.38,0,0,1,.35.26c0,.08.14.53.23.58s0-.06.42-.05,1,.28,1,.08-.11-.16.1-.38a1.44,1.44,0,0,0,.38-.53c.22-.39.19-.12.4-.44s.17-.4.47-.69.07-.19.44-.37.73-.15.89-.43.15-.44.41-.61a6.87,6.87,0,0,0,.58-.44c.37-.27.47-.16.69-.47a5.51,5.51,0,0,1,.37-.44,2,2,0,0,1,.61-.5,1.91,1.91,0,0,0,.63-.56,1.4,1.4,0,0,1,.86-.67c.52-.1.44.08.69-.18s.14-.29.44-.43.49-.19.6,0,.05.12.22,0,0-.11.31-.16a1,1,0,0,0,.72-.28c.37-.31.48-.57.9-.4s.42.17.69.07.41,0,.72-.18.35-.29.69-.21.26,0,.73-.05a1.78,1.78,0,0,1,.91-.07c.48.08.55,0,.92.1s.4.36.62.05.44,0,.52-.17-.08-.43.33-.38.65.13.83.06a2.53,2.53,0,0,1,1.21.13c.27.13,0-.08.47.22s.29.36.77.43a3.92,3.92,0,0,0,.81.06,1.86,1.86,0,0,1,1,.4c.26.2,0,.33.45.4s.45,0,.63.08a2.85,2.85,0,0,1,1,.6c.18.26.14.06.42.37s.1.37.44.47.3,0,.48.24.12,0,.37.37-.14.72.28.71.33-.11.56.12a1.42,1.42,0,0,0,.53.38c.23.13,0,0,.29.52s.06.5.35.78.15.38.29.56.33,0,.5.47.44.61.49.93a1.48,1.48,0,0,1,0,.6,1.59,1.59,0,0,0,0,.62c.06.25-.2,0,.15.46A3.79,3.79,0,0,1,79,62a2.58,2.58,0,0,1,.07,1c0,.14-.28.35-.16.57s.28.32.3.54.29.39.18.67-.2,0-.09.51.13.57,0,.76-.07.14,0,.39.08.32.15.63.12.11.09.56.05.55-.08.81a3.7,3.7,0,0,0-.27.75c-.19.55-.22.46,0,.78a2.7,2.7,0,0,1,.35,1.23,3,3,0,0,1-.19,1c-.08.23-.12.24-.09.38s-.06.08,0,.32a1,1,0,0,1,0,.78c-.15.28-.15.49,0,.58s.22,0,.22.28-.06,0,.11.35.19.24.11.49a3.83,3.83,0,0,1-.2.74c-.09.14-.1,0-.07.33s-.15.55-.11.75.06-.06,0,.35-.12.37,0,.65a.73.73,0,0,1,0,.67c-.1.29-.24,0-.09.38s.25.31.25.55,0,.21,0,.58,0,.55,0,.69a.68.68,0,0,0-.16.61c.07.3.07,0,.09.4s.16.62,0,.79-.16-.09-.22.43-.1.36.09.66.52.5.54,1A5.07,5.07,0,0,1,79.7,86c0,.37-.15.63-.2.9s-.12,0-.08.59a4.19,4.19,0,0,1,0,.87c0,.51-.34.43-.27.9a1.65,1.65,0,0,0,.24.7c.13.27.26.13.1.59s-.2.32-.19.65-.21.53,0,.83.24.17.18.51-.15,0,0,.55a1.71,1.71,0,0,1,.14.77,2.6,2.6,0,0,1,0,.75c0,.41,0,.3.1.53s.39.62.29.85-.2.1-.33.5-.43,1.27-.87,1.19-.6-.2-.72-.41,0-.27-.31-.41a.64.64,0,0,0-.52-.09c-.25,0-.29-.15-.56,0s-.35.32-.51.3-.29-.18-.52,0-.13,0-.34,0-.11-.23-.41,0-.14.3-.67.21a4.83,4.83,0,0,1-.79-.25c-.15,0-.3-.35-.56-.2a1.43,1.43,0,0,1-.5.23c-.31.08.36.29-.51.2A6.15,6.15,0,0,1,70.77,97a3.1,3.1,0,0,1-.69-.19c-.33-.09-.55,0-.71-.37s-.06-.39-.21-.6-.25-.17-.25-.42,0-.21,0-.5.14-.12.08-.43-.12-.28,0-.43.21-.31.31-.35.36-.07.19-.29a1.8,1.8,0,0,1-.35-.59,1,1,0,0,1-.13-.65c0-.31-.24-.09,0-.56s.22-.16.23-.47,0-.12.12-.32.33,0,.27-.43a2,2,0,0,1,0-.77c0-.24-.19-.37-.17-.76s0-.23,0-.49-.29-.15-.18-.63.19-.26.16-.55-.13-.25,0-.58.38-.24.24-.59a1.44,1.44,0,0,1-.18-.68c0-.34-.13.07,0-.53a1.38,1.38,0,0,0,0-.89,4.4,4.4,0,0,1,0-.89c0-.43,0-.63.11-.86s.17-.14.18-.52.13-.41.09-.74-.23-.26-.19-.44.23-.25.26-.5.09.14,0-.4a2.62,2.62,0,0,0-.21-.75c-.07-.28.14,0,0-.5s-.25-.11-.19-.52a3.55,3.55,0,0,1,.17-.64c.1-.4,0-.18.08-.65s.26-.3.18-.59-.43-.1-.27-.61.07-.45.21-.63.33-.21.25-.53.14-.39-.19-.54-.52-.31-.44-.54.4-.32.25-.6-.38-.49-.35-.7.13-.19.26-.69.26-.52.19-.75a3.09,3.09,0,0,0-.24-.53c-.15-.32-.57-.21-.41-.47s.34-.19.34-.6,0-.89,0-1.28.17-.22,0-.61-.14-.63-.24-.85a4.81,4.81,0,0,1-.44-.78c-.09-.36,0-.33-.12-.58a1.83,1.83,0,0,0-.49-.68c-.16-.15-.22-.1-.5-.72a1.82,1.82,0,0,0-.61-.83,1.11,1.11,0,0,1-.32-.48c-.11-.25,0,0-.25-.28s-.28-.12-.45-.31-.19-.14-.24-.27-.09-.09-.26-.22.13,0-.32-.28-.43-.19-.6-.43.14-.33-.24-.33-.2.06-.5,0-.33,0-.58,0-.13-.14-.35-.14-.09.11-.4,0a2.51,2.51,0,0,1-.37-.21c-.19-.11-.23-.22-.4-.17a2.58,2.58,0,0,1-.34.12c-.21.05-.24.16-.58.12a2.52,2.52,0,0,1-.62-.12c-.32-.11-.14-.16-.52-.15s-.4-.23-.56-.12a2.9,2.9,0,0,0-.27.22,1.3,1.3,0,0,1-.6.34c-.39.15-.35.19-.49.17s-.1-.1-.17-.18,0-.16-.24-.13-.45,0-.57.18-.18.17-.54.35-.34.2-.67.36-.1.2-.43.22a1.84,1.84,0,0,1-.57,0c-.09,0-.09-.21-.14,0a1.33,1.33,0,0,1-.3.55c-.14.14-.27.07-.34.16s0,.19-.07.31a.88.88,0,0,1-.36.47c-.21.17-.1.16-.47.33s-.32.21-.52.22-.51,0-.56.1-.13.18-.16.23,0,.11-.28.34-.12.21-.35.44-.41.26-.5.53,0,.16-.34.3-.46-.19-.54.25a5.15,5.15,0,0,0-.15.95c0,.37,0,.26,0,.55s-.08.48-.15.78a4.43,4.43,0,0,1-.27.78,1.23,1.23,0,0,0-.14.52c0,.15.2.29.05.62s-.28.09-.26.38-.13.19,0,.56.28.3.28.67-.14.38-.07.59.13.19,0,.43.13.07,0,.39.06.47-.36.67-.15.33,0,.57.32.44.28.77-.24.62-.24.76,0,0,.13.4.18.56.14.73,0,.51-.11.63-.11-.14,0,.21.16.47.06.72a1.67,1.67,0,0,0-.18.54c0,.15.16.3.12.7s-.12,0-.08.51.27.42.08.71-.35.2-.29.49.19.15.23.4a2.07,2.07,0,0,1,.16.9c-.05.39-.16.16-.05.48s.16.27.18.55a.86.86,0,0,1,0,.44c0,.09-.16.27-.18.39s0-.13.06.24.15.35.06.71-.07.72-.17,1a.5.5,0,0,0,0,.5,3.75,3.75,0,0,1,.22.48,2.11,2.11,0,0,1,0,.73c-.08.3-.17.23-.18.44a.88.88,0,0,0,.06.48.69.69,0,0,1,.07.51c-.06.22-.14.06-.17.43s-.13.24.06.44a1.33,1.33,0,0,1,.38.93c0,.4-.14.37,0,.62s0,.15,0,.47,0,.32,0,.6a3.67,3.67,0,0,1-.1.71,4.42,4.42,0,0,0-.09.8c0,.38.07.21.07.74s0,.54,0,.77,0,.5.06.7a1.56,1.56,0,0,1,0,.69c-.08.15,0,.43-.38.63s-.6.66-.89.27-.5-.58-.61-.6A.39.39,0,0,0,47,97c-.16.11-.27.09-.58,0s-.35-.15-.53-.07,0,.15-.44.18-.34-.09-.74-.09-.5-.18-.73,0-.13.33-.31.38-.08.25-.68.19-.43-.13-.76-.22-.32-.14-.53,0-.55-.08-.73.15a2,2,0,0,1-.36.41c-.16.12.08.2-.42.1s-.31.19-.74-.33-.55-.26-.61-.68-.14-.31-.1-.54.11,0,.12-.45,0-.21,0-.63.3-.12.14-.63-.34-.64-.23-.88.25,0,.21-.26a1,1,0,0,1,0-.51c.06-.29.2-.09.14-.72S39,91.08,39,90.57s.2-1.14.21-1.47,0,.07-.12-.4a2.25,2.25,0,0,1-.15-.82c0-.5-.13-.35-.1-.81s.16-.46.18-.63a1.29,1.29,0,0,0-.1-.83,1.89,1.89,0,0,1-.21-1.78c.15-.43.52-.67.42-1s-.3-.32-.24-.64.19-.22.16-.45a5,5,0,0,1-.2-.87,4.52,4.52,0,0,0-.15-.92,1.15,1.15,0,0,1,.18-.89,1,1,0,0,0,.23-.67c0-.24-.06-.73-.08-1.06a1.23,1.23,0,0,0-.18-.68c-.14-.25-.1-.1-.1-.57s0-.1,0-.66,0-.55.14-.77.17-.1.17-.76a9,9,0,0,0,0-.9c0-.28-.14-.06-.19-.7a7.66,7.66,0,0,0-.08-.85c0-.41-.16-.24,0-.54s.22-.36.18-.66a6.69,6.69,0,0,1-.07-1.16,6.86,6.86,0,0,0,.06-1,5.09,5.09,0,0,0-.08-.89,2.24,2.24,0,0,0-.28-.78c-.19-.29.1-.17-.1-.46s-.2-.1-.23-.44.2-.73-.13-1-.42-.25-.56-.5-.1,0-.17-.42.08-.32-.09-.65-.35-.61-.43-.73a9.73,9.73,0,0,0-1.09-.8c-.28-.2,0-.25-.37-.54s.2-.06-.5-.32-.71-.12-1-.32-.1-.12-.57-.46-.3-.36-.8-.46-.88-.25-1-.25-.49-.07-.69-.05,0-.06-.46-.15-.47-.24-.88,0-.35.29-.73.24A7.59,7.59,0,0,0,28,59c-.13,0,.07,0-.36.2s-.54.44-.78.47a2.88,2.88,0,0,0-.73.18c-.26.11-.25.19-.49.19s-.36-.09-.4.08.1.09-.13.5-.45.82-.76.93a1.81,1.81,0,0,1-.93.09c-.46,0-.08-.07-.52.19s-.68.46-.76.43-.21-.25-.35.08,0,.55-.27.69a3,3,0,0,0-.5.41c-.29.23-.54.18-.63.28s.18.08-.32.43-.29.31-.68.42-.47.14-.47.22.32.55,0,.7-.4.2-.56.25-.41.05-.25.34.81.07.63.37-.32.62-.5.72-.22.09-.17.24.22.35.08.68-.23.25-.2.53.09.14.18.42.23.33,0,.68a.86.86,0,0,0-.17.68,1.55,1.55,0,0,0,0,.61c.06.33.23.34.2.76A10.91,10.91,0,0,0,18,72.83a5.12,5.12,0,0,0,0,.63,6.09,6.09,0,0,1,0,1c0,.28-.22.1.06.44s.46.27.33.58-.2.11-.33.51a3.93,3.93,0,0,0-.19,1.19,2.83,2.83,0,0,0,0,.62c0,.26.08,1,.13,1.57a8.31,8.31,0,0,1,.12,1,15.19,15.19,0,0,1-.08,2c-.07.39-.06.14,0,.64a6.13,6.13,0,0,1,.18,1,10.7,10.7,0,0,1,.06,1.6c-.07.32-.14,0-.12.59a4.87,4.87,0,0,0,.18,1,1.4,1.4,0,0,0,.1.51c.07.2-.16.3.09.5s.33.06.35.28.12.87.1,1.2a3.74,3.74,0,0,1-.23.74c-.09.32-.31.49-.27.94a1,1,0,0,0,.11.52,2.11,2.11,0,0,1,.19,1.09,2,2,0,0,0-.08.59c0,.35-.11.09-.12.52s-.07.43-.05.73.12.22.09.52a3.45,3.45,0,0,0,.15.79,1.4,1.4,0,0,1-.14.72c-.17.36.24.65-.42.48a2.4,2.4,0,0,0-1-.17c-.37,0-.61.17-1,.07s-.36-.18-.81-.29a3.79,3.79,0,0,0-1-.12c-.13,0-.25.19-.66.18a1.51,1.51,0,0,0-.8.18,1.13,1.13,0,0,1-.72.1c-.11,0-.09-.17-.3-.32s-.46-.35-.59-.23-.25.12-.43.34a2.24,2.24,0,0,1-.55.5c-.18.1,0,.29-.42.22s-.63,0-.73-.18-.3-.14-.54-.27-.39-.07-.47-.48a3.11,3.11,0,0,1-.13-.76c0-.37-.1-.52,0-.78s.25,0,.23-.39-.06.09-.09-.47,0-.45,0-.67.21-.1.17-.34,0-.43-.12-.84a1.26,1.26,0,0,1,0-.72.28.28,0,0,0,.17-.28c0-.2-.11,0-.08-.39a7.32,7.32,0,0,0,0-.74c0-.22,0,0,.13-.33s.2-.21.18-.5,0-.55,0-1A1.1,1.1,0,0,0,8.67,88c-.13-.36-.17-.22-.14-.57s0-.35,0-.44a.85.85,0,0,0,.19-.64,1.6,1.6,0,0,1,0-.65c.08-.16.21-.07,0-.32s-.25,0-.34-.45a4.64,4.64,0,0,1-.07-.76c-.05-.33-.3-.1-.13-.64s.18-.67.13-.9a2.07,2.07,0,0,1-.05-.81c.05-.17.21-.6.4-.56s.17,0,0-.22a.9.9,0,0,1-.21-.73c0-.49.12-.36,0-.7s.05-.28.05-.49-.12-.22,0-.38.46-.14.39-.38,0-.53-.1-.8.13,0-.16-.43-.21-.38-.18-.65,0-.28,0-.52.17-.08.11-.58-.11-.67,0-.87.34,0,.28-.39,0-.13-.05-.42-.09-.12-.12-.35a2,2,0,0,1,0-.81c.08-.4.29-.06,0-.44s0-.55-.37-.52-.26.14-.53-.07-.27-.33-.49-.32a1.16,1.16,0,0,0-.55.23,2.92,2.92,0,0,1-.47.31c-.3.15-.26.24-.67.34s-.45.21-.7.19-.27,0-.32,0-.13.38-.31.37-.3-.06-.42.13a1.26,1.26,0,0,1-.34.39c-.2.13-.23.22-.56.21a2.36,2.36,0,0,0-.85.16s-.12.24-.08-.07.29-.22,0-.45-.39-.22-.46-.39a2.56,2.56,0,0,1-.18-.44,1.76,1.76,0,0,0-.21-.44,1.21,1.21,0,0,1-.1-.43c0-.17-.16-.06,0-.53s.34-.35.17-.58-.29-.26-.39-.51S.64,69.41.81,68.89Z"/><path d="M102.36,97.08c.12,0,.14.11.49.11s.2-.09.47-.06a4.22,4.22,0,0,0,1,.19,1.37,1.37,0,0,0,.78-.22c.24-.12.31,0,.49-.24s.2,0,.49-.18.11.14.55.35a1.61,1.61,0,0,0,1,.13,5,5,0,0,0,1.08-.13c.34-.08.53-.17.78-.22s.38.14,1,.15a2.63,2.63,0,0,0,1.21-.21c.54-.17.17-.26,0-.49a2.6,2.6,0,0,0-.47-.73c-.19-.18-.33-.18,0-.37s.18-.4.33-.81a1.37,1.37,0,0,0,0-.93,5.42,5.42,0,0,1,0-.77,6.41,6.41,0,0,1,0-.76c0-.35-.44-.56-.69-.82s0-.32.14-.41a1.46,1.46,0,0,0,.47-.28c.2-.17.18-.42.24-.84a3,3,0,0,0,0-.93c0-.32,0-.67,0-1s-.09-.22-.1-.48-.08-.63-.08-.72,0-.32-.05-.5,0-.46,0-.68a3.65,3.65,0,0,1,.07-.46c0-.22,0-.26,0-.44s-.07-.45-.07-.71a4.47,4.47,0,0,0-.26-.94,1.55,1.55,0,0,1-.14-.58c0-.25,0-.36,0-.62a4.29,4.29,0,0,1,.16-.73,2.13,2.13,0,0,0,0-.58c0-.09-.15-.21-.2-.34s0-.2.11-.37a1.39,1.39,0,0,0,.15-.69.67.67,0,0,0-.12-.5,1.76,1.76,0,0,1-.1-.55c0-.34.16-.25.3-.47s.07-.39.11-.69,0-.2-.14-.61a2.5,2.5,0,0,1-.17-.61.84.84,0,0,1,0-.52,1.27,1.27,0,0,0,0-.49c0-.09-.09-.26-.14-.5s0-.21.15-.43,0-.26,0-.57a2.47,2.47,0,0,1,.13-1c.09-.13,0-.19,0-.44a1.85,1.85,0,0,1,.09-.68,2.24,2.24,0,0,0-.18-1.17c-.08-.19,0-.24.15-.29s0-.25,0-.39.07-.1.15-.35a.8.8,0,0,0,0-.58.67.67,0,0,1,0-.44,1.76,1.76,0,0,0,.22-.65,3.9,3.9,0,0,0,.09-.7,1.53,1.53,0,0,0-.12-.57c-.11-.31-.2-.21-.41-.51a1.42,1.42,0,0,1,0-1c0-.18,0-.21-.08-.6a2.45,2.45,0,0,1-.1-.53,7.49,7.49,0,0,1,0-.91c0-.62-.13-.33.14-.64a1.34,1.34,0,0,0,.31-1,1.66,1.66,0,0,0-.29-1c-.14-.22-.1-.22,0-.55a1.26,1.26,0,0,0,0-.7c-.06-.35-.11-.62-.13-.73s-.11-.22-.21-.53.12-.22.23-.46a3.43,3.43,0,0,0,.23-.82c.1-.49-.38-1.16-.38-1.23a1.25,1.25,0,0,1,.39-.62c.31-.32.22-.34.33-.7s0-.52-.09-.83a7.11,7.11,0,0,0-.26-.78c-.11-.36-.51-.13-.78-.25s-.42-.19-.5,0-.42.13-.66.23a1.77,1.77,0,0,1-.89.1,3.23,3.23,0,0,1-.61-.17c-.21,0-.37,0-.56,0s-.32-.27-.55-.36-.21,0-.47.17a1.17,1.17,0,0,1-.74.06c-.27,0-.41-.12-.66-.14a.93.93,0,0,0-.66.22c-.29.18-.29-.05-.62-.16a3.56,3.56,0,0,1-.94-.51c-.28-.21-.54.12-.73.22s-.32,0-.45-.15-.4,0-.49.22-.21-.07-.63.13-.42.25-.49.66a5.93,5.93,0,0,0,0,1.32c0,.68.11.24.26.67a4.17,4.17,0,0,1,.2.63c.07.28.18.13.34.36s0,.27,0,.54-.09.09-.2.43.16.42.22.8.09.16.17.47-.08.19-.35.59,0,.1,0,.46-.11.23-.08.68.18.39.27.61,0,.13.06.47-.06.3-.12.47a.65.65,0,0,0-.06.35c0,.26-.07.15-.18.42s0,.06.19.42.07.09.07.39,0,.12.21.35,0,.11.09.54,0,.21-.13.56-.05.23-.11.49,0,.21.14.43-.07.2-.1.38.06.15.09.48,0,.1-.15.49a1.11,1.11,0,0,0-.09.8,2,2,0,0,1,.08.45c0,.31,0,.27-.1.73a1.14,1.14,0,0,0,0,.53,2,2,0,0,0,.23.78,1.18,1.18,0,0,1,.18.71c0,.49-.08.46-.13.73a3.41,3.41,0,0,0,0,.83,7.33,7.33,0,0,0,0,1,3.46,3.46,0,0,1,.07.7c0,.33,0,.07.2.3s.07.09,0,.28a.73.73,0,0,0-.07.46c0,.22.08.3.12.64s-.08.13-.14.38a4.56,4.56,0,0,0-.13.68,3.24,3.24,0,0,0,0,.82,2.21,2.21,0,0,1,0,.6,4,4,0,0,1-.11.73,1.92,1.92,0,0,0,.23,1.15c.2.51-.14.53-.21.72a2,2,0,0,0-.26.68c0,.35.13.51.24.87s-.07.39-.18.65,0,.21.14.47.06.13,0,.42,0,.18.18.37,0,.25-.11.41,0,.13.13.37,0,.13,0,.46-.1.35-.2.73.12.46.12.57a.75.75,0,0,1-.19.6c-.23.31,0,.49,0,.8s0,.24,0,.55.06.33.11.53.13.17,0,.5.06.29.12.65.15.16.12.58a3.79,3.79,0,0,0,0,.62c0,.31,0,.17.13.44s.11.28.09.41-.12.15,0,.52.09.22-.14.55-.08.46-.07.61a1.6,1.6,0,0,1,0,.37,1.34,1.34,0,0,0,0,.65c.08.33,0,.25-.1.49s-.19.4-.29.72,0,.24,0,.41a3.81,3.81,0,0,0-.08.68c0,.33,0,.2.06.45s.22.26.39.42a.7.7,0,0,0,.53.24.74.74,0,0,0,.52-.18C101.92,97.24,102.19,97,102.36,97.08Z"/><path d="M101.91,34.13c.35-.38.41-.11.4-.45s0-.63.15-.66a4.81,4.81,0,0,1,.9,0c.31,0,.44.12.48,0s0-.35.28-.2.26.19.42.07.38-.07.65-.19.6-.34.87-.13.4.34.48.25.19-.4.33-.4.32-.21.6-.11.38.06.59.27a2.2,2.2,0,0,0,.66.42c.28.14.44,0,.62.28s.29.26.41.48,0,.09.12.44.1.42.26.53.43.09.54.26.23.18.28.44a4.93,4.93,0,0,1,.18.8,8.09,8.09,0,0,0,.25,1.09,1.57,1.57,0,0,1,.05.75c-.06.12-.3,0-.23.46a1.2,1.2,0,0,1-.08.84c-.09.16,0,.49,0,.66s0,.53-.22.55a.78.78,0,0,1-.36,0c-.07,0-.25,0-.16.11s.53.06.57.3,0,.62-.19.68-.58.07-.64.16a1.08,1.08,0,0,0-.13.37.4.4,0,0,1-.27.34c-.19.1-.22.27-.33.53s-.13.27-.38.36-.38.27-.53.17-.2-.19-.33-.1-.2.06-.44.21-.14.17-.34.15-.32-.11-.46,0-.18.1-.43.28a1,1,0,0,1-.67.28,2.2,2.2,0,0,1-.6,0c-.24-.06-.46-.13-.74-.19s-.17-.21-.66-.25-.3.09-.75-.16-.6-.44-.82-.54,0-.15-.42-.16-.55.31-.69,0-.07-.22-.2-.56-.2-.18-.23-.47.13-.07-.08-.6-.27-.41-.35-.72-.12-.24-.09-.59.26-.24.25-.55-.07.09-.08-.54.13-.61,0-.88-.2-.15-.17-.52a1,1,0,0,1,.17-.55c.09-.19.17-.07.24-.62a7.17,7.17,0,0,0,0-.91c0-.26,0-.37.22-.59s.54-.24.67-.34A1.07,1.07,0,0,0,101.91,34.13Z"/><path d="M131.46,72.81a5.09,5.09,0,0,1-.79-.33c-.15-.1,0,0-.29-.29s-.27-.32-.33-.48a.78.78,0,0,1,0-.57c.07-.37.15-.44.19-.64s.13-.3,0-.41-.26,0-.29-.34,0-.34-.1-.85.09-.23-.07-.56-.18-.3-.17-.53-.2-.32-.31-.57-.17-.15-.22-.55-.08-.35,0-.53.27-.12.14-.34a4.23,4.23,0,0,1-.24-.36.66.66,0,0,1,0-.85c.31-.49.41-.49.7-.45a3,3,0,0,0,1-.35c.21-.08.51,0,.68,0a5.76,5.76,0,0,1,.85-.4c.31,0,.82.06.93,0s.26-.21.44-.46a1.47,1.47,0,0,1,.65-.51c.27-.12.47,0,.62-.23a5.61,5.61,0,0,1,.63-.73,1.43,1.43,0,0,0,.38-.46c.08-.2,0-.32.16-.49s.18,0,.24-.34a2.81,2.81,0,0,0,.07-.47c0-.41,0-.42.14-.57s.35,0,.26-.57-.3-.61-.17-1.14a2.35,2.35,0,0,1,.25-.71c.19-.43.38-.58.39-.84a4.45,4.45,0,0,0,0-1c0-.31-.14-.51-.18-.88a1.12,1.12,0,0,1,0-.62c0-.11.16,0,.18-.28s.22-.4,0-.42-.2-.1-.2-.37-.13-.38.07-.57a1.29,1.29,0,0,1,.74-.4,2,2,0,0,1,1,.13c.27.15.43.32.57.25s.24-.3.43-.33a3,3,0,0,1,.79.14,1.06,1.06,0,0,0,.53,0,.74.74,0,0,1,.55,0,1.28,1.28,0,0,0,.66.12,1.4,1.4,0,0,1,.43,0,1.74,1.74,0,0,1,.62.15c.3.13.4.13.59,0a1.06,1.06,0,0,1,.82-.1c.14.08.46.28.69.19a1,1,0,0,1,.52-.1c.38,0,.68-.22,1.07-.18s.84-.1.85.23a4.44,4.44,0,0,1-.21,1.23c-.08.21.08.42-.12.49s-.36-.08-.33.18.12.27.09.51-.11.32,0,.53a2.16,2.16,0,0,1,.11.65c0,.21.13.07.14.32s.08.63-.07.83-.08.16-.07.44,0,1.12.14.93.1-.4.35-.62.39-.42.67-.71.21-.24.67-.43.7-.16.81-.28.37-.15.48-.48,0-.38.41-.49.55-.25.94-.4.6-.21.94-.35.69-.14.71-.4,0-.69.23-.86a1.81,1.81,0,0,1,1.07-.66,7.72,7.72,0,0,1,1.06.06c.12,0,.19-.23.43-.19a.91.91,0,0,0,.5,0,.86.86,0,0,0,.4-.4A1.66,1.66,0,0,1,158.3,51c.55-.16.68-.16.86-.05s.24.19.39.08a2.16,2.16,0,0,1,1.06-.61,1.39,1.39,0,0,1,.94.25c.14.07.24-.2.69-.24s.55-.18.79,0a1.06,1.06,0,0,0,.64.34,3.21,3.21,0,0,0,.61.07c.39,0,1-.34,1.26-.11s.39.32.6.34a2.43,2.43,0,0,1,1.22.08,5.67,5.67,0,0,0,.8.38c.41.16.58,0,.91.21s.5.47.77.57a8.06,8.06,0,0,1,1.35.58c.48.3.66.26.85.5s.23.57.64.88a4.25,4.25,0,0,1,.95.79c.33.38.17.35.49.59a2.35,2.35,0,0,1,.49.44,1.19,1.19,0,0,1,.2.53c0,.25-.14.21.15.53s.25,0,.43.41.47.54.64.88.27.4.54.88.11.31.42.68.45.34.45.49a2.44,2.44,0,0,0,0,.72,1.53,1.53,0,0,0,.27.52c.18.26.31.51.41.65a.73.73,0,0,1,.18.56c0,.27-.22.34-.13.64a2.3,2.3,0,0,0,.25.49c.06.13.12.07.1.44a4.09,4.09,0,0,1-.06.88c-.07.19.13.07.13.37a2.78,2.78,0,0,1,0,1c-.14.45-.18.45-.12.62s.18.19.4.49.43.58.52.76.15.32-.07.52a5.38,5.38,0,0,1-.69.5.52.52,0,0,0-.22.44,4,4,0,0,0,.16.41c0,.07.11.42.18.62a1.16,1.16,0,0,1,.13.54,2.52,2.52,0,0,1-.08.69c-.05,0-.18.18-.08.3s.33.43.28.65a2.23,2.23,0,0,1-.27.54,1.25,1.25,0,0,0-.07.41,1.8,1.8,0,0,1,.06.71c-.07.22-.19.22-.33.35s-.51,0-.3.42.35.23.27.55a2.78,2.78,0,0,0-.12.86c0,.09.35.14.4.31a.49.49,0,0,1,0,.44c-.08.27-.06.35.06.4a.32.32,0,0,1,.23.45,2.23,2.23,0,0,1-.23.59c-.17.35-.05.43-.23.75s-.25.31-.21.47.08.13,0,.67-.17.71,0,.88.19.09.22.26a1.79,1.79,0,0,1-.07.71,7.69,7.69,0,0,0-.11.78,2,2,0,0,1-.17.7c-.12.21-.29.59-.2.75s.43.27.43.27a.31.31,0,0,1,.12.37c-.1.24-.16.14-.12.37s.17.2.18.51a1.11,1.11,0,0,1-.08.55c-.06.16-.17.36-.09.44s.27,0,.31.12-.2.94-.2,1.13-.13.17-.16.36-.08.07,0,.38.31.51.28.62a13.84,13.84,0,0,0-.1,1.78c0,.37.1.2.09.59a2.67,2.67,0,0,1-.09.86c-.08.11-.29,0-.1.23s.35.23.36.39-.14.52,0,.76,0,.29-.1.36-.2,0-.21.19a2,2,0,0,1-.19.55c-.05.05-.17.07.11.14s.63.09.61.31,0,.69-.44.75-.73.18-.93,0-.2-.22-.32-.38.11-.27-.27-.21a3.46,3.46,0,0,1-.94.13,3.16,3.16,0,0,1-1.08,0,1.7,1.7,0,0,0-.79-.13c-.42,0-.49.15-.75.17s-.16-.06-.51,0-.34,0-.7.08-.41.08-.64,0a1.67,1.67,0,0,0-.61-.13c-.22,0-.22.06-.6.08s-.45.12-.72,0-.39-.25-.63-.17a2,2,0,0,1-.66.1c-.19,0-.58-.1-.61-.43a1.78,1.78,0,0,0-.08-.57.47.47,0,0,1,.1-.5c.14-.11.17-.15.18-.3s.07,0,.11-.31,0-.32-.08-.44-.09-.32-.06-.72-.06-.26,0-.54.17-.63,0-.82-.37-.27-.37-.55-.08-.15.1-.57.25-.41.26-.56.23-.21,0-.47-.5-.24-.37-.45a2.19,2.19,0,0,1,.27-.42c.07-.09.48-.49.29-.78s-.35-.23-.12-.51.42-.22.27-.61a5.64,5.64,0,0,0-.35-.77c-.09-.15-.07-.1,0-.67a3.1,3.1,0,0,0,0-1c-.06-.23-.15-.2,0-.48s.27-.08.05-.5-.45-.33-.41-.8a2.4,2.4,0,0,1,.32-1c.06-.13.19-.27.1-.5a.92.92,0,0,1-.11-.58c0-.17.26-.39.22-.71a2,2,0,0,1-.09-.84c.07-.47,0-.32,0-.81s0-.55.11-.77.34-.07.24-.54a3.51,3.51,0,0,0-.19-.74,4.4,4.4,0,0,1-.26-1.36,2.58,2.58,0,0,1,.15-1.2c.17-.36.37-.2.22-.61a10.93,10.93,0,0,1-.34-1.13,1.23,1.23,0,0,1,.14-.85c.24-.29.3-.39.25-.71a3.43,3.43,0,0,0-.27-.92c-.12-.25-.33-.85-.08-1.13s.27-.38.18-.56a1.22,1.22,0,0,1-.06-.78,1.17,1.17,0,0,0,.07-.43c0-.18.1-.51-.06-.75s0-.33-.28-.59a1.69,1.69,0,0,0-.56-.41c-.14,0-.34-.12-.2-.36s.58-.87.28-.95-.3-.08-.33-.36.06-.45-.1-.59-.22,0-.37-.25-.09-.46-.3-.53-.29-.31-.39-.43-.15-.13-.33-.21-.27.1-.26-.25.07-.36,0-.5,0,0-.25-.28-.27-.33-.38-.35a2.28,2.28,0,0,0-.39-.06c-.14,0,.29-.06-.21-.08s-.4.26-.75-.1-.38-.43-.54-.39.31,0-.33,0-.73.12-1,0-.3-.37-.52-.45-.44-.42-.65-.43-.58-.12-.77,0,.1.15-.38.22a7.63,7.63,0,0,1-1.59.11,1.34,1.34,0,0,0-.78,0c-.15.07-.61.07-.88.18s0-.05-.49.17a2.91,2.91,0,0,1-.85.2,1.09,1.09,0,0,0-.36.18c-.06.06-.25.64-.48.74a2.83,2.83,0,0,1-.68.13c-.31,0-.23-.28-.41.27s0,.7-.26.78-.43,0-.58.17-.39.63-.56.86a.6.6,0,0,1-.51.31c-.25,0-.52-.07-.67,0s-.37.28-.56.44-.52.72-.74.89-.27.27-.41.3-.34-.11-.28.1a1,1,0,0,1,.08.56,3.77,3.77,0,0,1-.35,1c-.16.29-.32,0-.47.3a1.27,1.27,0,0,0-.15.7c0,.36.18.61.18.89a4.84,4.84,0,0,1,.11.79c0,.38,0,.76,0,1.09s0,.19-.07.4-.09-.1-.07.31a4.88,4.88,0,0,0,0,.65c0,.32.11.22.12.5a4,4,0,0,1-.07.84c-.09.57-.14.37,0,.76a3.14,3.14,0,0,1,.09,1.26c-.08.25-.33-.18-.21.46a6.05,6.05,0,0,0,.21.95c.07.26.2.38,0,.47s-.16,0-.31.23-.35.75-.12.63.59-.4.52-.09a9.8,9.8,0,0,0-.13,1.07c0,.4.09.2-.07.73s-.35.69-.25.91,0,.3.24.36.37-.16.39.17.13.41.08.67-.12.22-.19.46-.16.31-.06.54a2,2,0,0,1,.21.86,3.45,3.45,0,0,1-.15.57c-.09.31-.27.54-.12.71a2.15,2.15,0,0,1,.36.8c0,.23.19.27-.07.29s-.35.12-.28.19.14.57.22.45.15-.2.16.09a2.39,2.39,0,0,1-.22.77c-.1.34-.12.36,0,.49s.37.14.26.35-.2.22-.2.32-.13.13-.05.38.35.09.28.34-.1.14-.27.49-.44.64,0,.63.58-.08.61.08,0-.1-.11.29a1.77,1.77,0,0,1-.28.73c-.1.11-.2.15-.19.34s.25.11.12.44-.22.06-.24.4-.09.45,0,.59.18,0,.22.24a2.15,2.15,0,0,0,0,.4,5.11,5.11,0,0,1,.17.7,1.94,1.94,0,0,1-.11.68.49.49,0,0,0,.12.52.63.63,0,0,1,.16.53c0,.28.1.21.13.54s.05.46-.25.51-.62.25-.9.08.06-.3-.45-.24-.55-.3-.83,0-.25.43-.68.44-.65.29-.94,0-.14-.42-.5-.45a1.3,1.3,0,0,0-.75.09,2.16,2.16,0,0,1-1,.11c-.35,0-.2.09-.68,0s-.21-.12-.63-.1-.19.14-.63.21-.67.19-.9.11-.05-.35-.58-.21-.61.23-.86.18-.19-.08-.55-.29-.5-.12-.39-.41.18-.3.21-.57.29-.37.29-.65-.06-.31,0-.58.13-.15,0-.49a1,1,0,0,1-.14-.62c0-.35-.11-.27,0-.57s0-.4,0-.82a2.91,2.91,0,0,1,.08-.77,3.12,3.12,0,0,0,0-.74,3,3,0,0,1,.12-.92,2.83,2.83,0,0,0-.13-.67,1.3,1.3,0,0,1-.06-1.1c.22-.61-.08-.5.09-.87a2.16,2.16,0,0,0,.18-.76c.06-.35.36-.42.1-.7s-.33-.26-.37-.34-.16-.19-.06-.63a1.87,1.87,0,0,0,0-.9c-.05-.34-.33-.43-.11-.75s.38,0,.26-.56-.26-1-.28-1.18a3.4,3.4,0,0,1,.14-1.32,2,2,0,0,0,.23-.85c0-.31.2-.38.11-.67s-.22-.27-.24-.49.14-.47.19-.86a1.08,1.08,0,0,0-.19-.83c-.19-.37-.53-.33-.45-.86s.05-.74.11-1.1.32-.22.27-.57-.09-.18-.23-.4-.48-.38-.37-.82a6.28,6.28,0,0,0,.23-1c0-.28-.17-1-.44-.65s-.23.62-.49.37-.43-.34-.63-.22a3.13,3.13,0,0,1-.51.28c-.39.18-.33,0-.59.06s-.48-.06-.6.07a3.68,3.68,0,0,0-.33.39c-.13.18-.23.32-.34.36s-.33,0-.42.07A1,1,0,0,1,131.46,72.81Z"/><path d="M195.63,68s.34-.44.19-.61a5.23,5.23,0,0,1-.44-.58,1.65,1.65,0,0,1-.14-.66c0-.22-.52-.42-.4-.74s.23-.34.06-.54-.5-.73-.15-.73.9.17,1.22-.18.42-.63.66-.46.13.25.62.17.34-.32,1.22-.49,1-.12,1.25-.34.78-.29.93-.52.29-.53.41-.76.93-.78,1-.92a.71.71,0,0,0,0-.32,1.94,1.94,0,0,1,0-.64c.07-.15.17-.09.37-.44a4.49,4.49,0,0,1,.29-.47c.14-.19.2-.19.27-.41a1.25,1.25,0,0,0,.09-.68c-.07-.2,0-.43-.12-.81s-.1,0-.07-.84-.19-1.22,0-1.56,0-.33-.14-.32-.3-.12-.2-.29.35-.32.44-.55.3-.22.1-.46-.25-.25-.25-.42-.39-.37-.26-.64.46-.6.68-.61.46-.14.64.08.22.31.39.37.2.14.42,0,.15-.18.48-.2.27-.08.59,0a2.59,2.59,0,0,0,1,.22,4.27,4.27,0,0,0,.78-.34,1.81,1.81,0,0,1,.9-.1c.25.07.33.12.64.22a2,2,0,0,0,.76,0,1.78,1.78,0,0,1,.9.05c.43.15.37.18.74.09a7.59,7.59,0,0,1,1-.34,2.12,2.12,0,0,1,1.19.09c.5.22.55.13.47.31a1.22,1.22,0,0,0-.19.7,1.71,1.71,0,0,1-.19,1.14c-.25.29-.35.2-.42.55s0,0-.11.67a5.56,5.56,0,0,0-.12,1.34c0,.29-.09,1.16.11,1s-.06-.42.64-.42.72.09.84-.11a2.93,2.93,0,0,1,.59-.52,5,5,0,0,1,.72-.47c.3-.17.59-.19.78-.39s.16-.45.41-.63a7,7,0,0,1,1.06-.47c.17-.07.32.06.47-.17s.21-.1.5-.38.42-.57.67-.7.46-.42.76-.51.11-.18.55-.17.63.06.69-.11a1.12,1.12,0,0,1,.42-.44,1.39,1.39,0,0,1,.69-.11c.26.05.37.13.48.07s.32-.35.54-.44a1.75,1.75,0,0,1,.8-.15c.39,0,.51.19.75.06s0,.06.37-.25.36-.35.65-.44.14-.22.62-.07.36.17.68.24a1.78,1.78,0,0,0,1,0c.68-.1.78-.41.9-.24s0,.28.37.29.1-.14.7-.19a2.59,2.59,0,0,1,1.47.06c.8.24.9,0,1.22.39s.13.4.45.52.43.07.55.14a8.6,8.6,0,0,1,1.21.41c.6.29.47.16.81.46s.18,0,.72.42.54.21.59.44a.7.7,0,0,0,.4.59,5.67,5.67,0,0,1,.79.31,9.69,9.69,0,0,1,1.25,1.18c.31.4.27.53.48.77s.3.27.31.49-.25.14,0,.39a2.87,2.87,0,0,1,.39.44c.12.13.81.58.82.92a2.17,2.17,0,0,0,.07.74c.09.29.65,1.57.77,1.92s.22.23.28.79.08.62.14,1.08a4.48,4.48,0,0,1,.08,1.66c-.15.39-.21.49-.12.6s.43.14.45.42-.29.35-.29.63.14.21.08.56-.5.36-.33.65.27.26.4.5-.17.55.06.84.12.37,0,.44a.4.4,0,0,0-.17.45c.05.29-.49.31-.06.7s.31.48.33.69.23,1-.07,1.43-.25.49-.2.67-.09.3-.09.52.48.28.33.43-.34.27-.29.38,0,.39.25.43,0,.34-.05.54-.28.33-.27.49a.73.73,0,0,0,.15.44c.13.23.05.16.15.37s.17.15.13.38-.11.27-.11.44-.23.7-.11.93a7.32,7.32,0,0,1,.32.85.42.42,0,0,1,0,.45c-.11.22,0,.42-.23.67a.47.47,0,0,0-.1.58c.06.14.34.34.38.52s.19.4.07.66-.25.67-.33.85a.68.68,0,0,0-.06.53c.07.24.19.24.26.56a2.94,2.94,0,0,0,.14.57,1.41,1.41,0,0,1,.09.55c0,.09-.06.67-.08.79a.61.61,0,0,0,0,.43c.06.32.16.28.09.48a4.15,4.15,0,0,0,0,.81.57.57,0,0,0,0,.44c.09.31.11.26,0,.56s-.27.34-.19.8,0,.71,0,.83a4,4,0,0,1,.37,1.15,8.26,8.26,0,0,1,0,.86c0,.35.12.38,0,.82s-.07.56-.18.74-.07-.1,0,.31a1.65,1.65,0,0,1,.1.67c0,.19,0,.25.22.43a3.11,3.11,0,0,1,.69.91c0,.13,0,.16-.2.24s-.41,0-.41.22,0,.54-.59.58-.59.27-1.14.06-.67-.42-.94-.4a4.09,4.09,0,0,1-.83.06,3,3,0,0,1-1-.12c-.11-.06-.16-.12-.54,0s-.28.23-.78,0-.23-.35-.71-.37a7,7,0,0,0-1.07,0c-.22,0-.53,0-.64,0a1.65,1.65,0,0,1-.86.26,5.1,5.1,0,0,0-1,0c-.57.09-1.26-.18-1.17-.6a3.2,3.2,0,0,1,.37-.8c.08-.21.19-.28,0-.52a1.93,1.93,0,0,1-.29-.9c0-.11.11-.26.3-.71s.32-.38.18-.6-.32,0-.27-.54.06-.82.23-1,.26-.23,0-.53.06-.21-.21-.47a1.14,1.14,0,0,1-.39-.78c0-.24.15-.17.11-.63s-.07-.94.09-1.09a1.45,1.45,0,0,1,.36-.29c.25-.15.57.09.28-.35a1,1,0,0,1-.17-1c.1-.25.08,0,.06-.31s-.07-.27-.09-.61-.16-.45-.28-.75-.16-.17-.14-.46-.06,0,0-.49.12-.43.21-.74a1.06,1.06,0,0,1,.23-.53c.22-.36.39-.35.12-.61s-.56-.32-.45-.54.19-.06.19-.27-.18-.11-.19-.3-.08-.2.13-.49.34-.48.33-.58.15-.17-.07-.78-.29-.51-.27-1a2.62,2.62,0,0,1,.16-1c.14-.26.25-.23.09-.44s-.24,0-.17-.39a2.36,2.36,0,0,0,.11-1.16,1.89,1.89,0,0,1-.18-.87,7.37,7.37,0,0,1,.12-.78c0-.15-.09-.25-.05-.58s.16-.32.13-.61,0-.4-.15-.51a.47.47,0,0,1,0-.54.88.88,0,0,0,.14-.57.56.56,0,0,0-.14-.44,1.2,1.2,0,0,1-.19-.69c0-.28-.14-.49-.18-.78a2,2,0,0,1,.07-.79c.06-.12.16-.09.06-.48s-.11-.48-.29-.66a1.05,1.05,0,0,1-.27-.46,5.16,5.16,0,0,1-.1-.61c-.06-.28-.11-.18-.18-.56s0-.9-.1-1.1-.31-.2-.55-.35-.32-.2-.42-.45a3.4,3.4,0,0,0-.31-.75,1.34,1.34,0,0,1-.17-.87c0-.15-.05-.13-.36-.32a1.85,1.85,0,0,0-.76-.26,1.08,1.08,0,0,1-.72-.34c-.36-.3-.22-.33-.42-.51s-.2-.31-.49-.26a1.54,1.54,0,0,1-.7-.06c-.22-.05-.35-.29-.8-.3s-.26.17-.82-.06a5.16,5.16,0,0,0-1-.41c-.16,0-.42.11-.75.15s-.31-.15-.84,0a9,9,0,0,0-1,.32,1.92,1.92,0,0,0-.51.18c-.15.11-.12,0-.41.27s-.42.7-.5.41.44-.52-.07-.49-.77.16-.91.5-.21.39-.48.48a9.77,9.77,0,0,0-1.07.49c-.42.2-.31,0-.65.22s-.49.15-.89.36-.25-.1-.55.33a6.66,6.66,0,0,1-1,1.07c-.55.53-.64.48-.71.77a1,1,0,0,1-.33.58,1.85,1.85,0,0,0-.3.36c-.1.14,0,.38-.21.48s-.81-.15-.66.31.44.44.32.82-.55.59-.6.91a6,6,0,0,0,0,.77,5.07,5.07,0,0,0,0,1,3,3,0,0,1-.05,1,1.2,1.2,0,0,0,0,.79,2.78,2.78,0,0,1,0,1.28c-.1.26.12.48.1.72s-.37.53-.36.92.48,1.42.42,1.69-.14.33-.2.64a3.64,3.64,0,0,0-.06,1.2,3.79,3.79,0,0,1,.08.93c0,.44-.18.35-.06.69s.13.4.19.51a1.92,1.92,0,0,1,.15.76c0,.42.2.44,0,.83s-.49.29-.42.76,0,.52.12.7a3.12,3.12,0,0,1,.14,1.36c-.09.3-.3-.1-.24.43a10.56,10.56,0,0,0,.34,1.19,9.83,9.83,0,0,1,.08,2.24c-.16.25-.41.06-.34.57s.07.44.18.61-.05.33,0,1-.17.68,0,.9.47.12.37.56-.47.55-.46.94-.31.67.06,1,.47-.16.45.68-.31,1.11-.16,1.43.25-.05.27.53.08,1-.57,1a11.64,11.64,0,0,0-1.34-.07c-.88,0-.22-.3-1.13-.16a11.3,11.3,0,0,1-1.6.07c-.53,0-.53-.09-1-.07s-1.23.09-1.26-.14.48-.46-.53-.12-1.14,0-1.43.2-.08.34-.58.34-1.24.09-1.53-.36-.58-.34-.31-.66.5-.4.58-.52.18-.2,0-.49-.36-.29-.24-.57.22,0,.14-.46-.21-.35-.07-.59a2.72,2.72,0,0,0,.24-.65c.13-.39.23,0,.15-.51s-.14-.35-.24-.69,0-.38.11-.67.1-.3,0-.52-.29-.26-.13-.5.35-.18.25-.53a2.45,2.45,0,0,0-.27-.6c-.11-.22-.34-.5,0-.73a.28.28,0,0,0,0-.51c-.11-.06-.13-.15-.18-.77s.16-1.43.13-1.67.1-.28,0-.77-.07-.5.06-.74.17-.18.27-.5,0-.36,0-.77-.15-.43-.08-.67a1.61,1.61,0,0,0,.13-.61c0-.29.1.15,0-.56a8.43,8.43,0,0,0-.21-1c-.13-.48-.09-.06-.08-.66a2.76,2.76,0,0,1,.08-1c.13-.54.28-.51.3-.9a3.24,3.24,0,0,0,0-.71c0-.36-.09-.5-.14-.88a2.12,2.12,0,0,1,0-.67c0-.32.14-.39,0-.71s-.29-.17-.25-.5.17-.26-.06-.55-.62-.29-.47-.58.43-.45,0-.53-.77-.09-.78-.36-.29.09-.36.19-.24,0-.45.23-.17.36-.43.48-.34.29-.65.23-.55-.1-.68,0,.07.13-.25.21-.65.11-.71.19a1.17,1.17,0,0,1-.4.27,1,1,0,0,1-.79-.12c-.17-.2-.33-.18-.19-.48a1.39,1.39,0,0,0,.16-.59,1,1,0,0,0-.12-.41,5.69,5.69,0,0,0-.24-.73c-.09-.14-.2-.23-.14-.42s.29-.21.17-.45-.05-.25-.29-.43A1.4,1.4,0,0,1,195.63,68Z"/><path d="M309.75,73.23c-.05-.18.14-.17.14-.69a2.23,2.23,0,0,0-.46-1.13c-.1-.19,0-.58,0-1s.08-.31.13-.8a4.94,4.94,0,0,0-.29-1.6,2.09,2.09,0,0,1,0-.9c0-.46-.19-.42-.24-.52a1.88,1.88,0,0,1-.1-.63c0-.34-.18-.37-.49-.83s-.17-.2-.17-.44A2.12,2.12,0,0,0,308,64a3.94,3.94,0,0,1-.31-.72c-.08-.29-.05-.51-.13-.82s-.26-.11-.36-.32,0-.15-.42-.49-.27-.35.1-.44,0-.49-.05-.94-.14-.49-.34-.78-.22-.15-.59-.56a3.12,3.12,0,0,0-.93-.69,1,1,0,0,1-.49-.53c-.14-.27-.27-.62-.52-1s-.65-.69-.76-.89-.46-.29-.82-.65-.27-.3-.38-.62-.49-.51-.88-.85-.82-.28-1.56-.54-.49.05-.88.1-.3-.25-.71-.67a4.9,4.9,0,0,0-1.2-.93c-.49-.29-.62-.07-.93-.12a3,3,0,0,1-1.05-.47c-.42-.27-.4.2-.66,0s-.65-.12-1.18-.42-.52.15-.74.2-.53.1-1.25-.35-.65-.29-1-.14a6,6,0,0,1-.61.19c-.32.11-.53.28-.9.08a8.12,8.12,0,0,0-.86-.34c-.44-.18-.36.22-.46.24a2.36,2.36,0,0,0-.81-.09,12.23,12.23,0,0,0-1.6.29c-.16.09-.43,0-.8-.08s-.69.33-.89.4-.46,0-.63.09a2.28,2.28,0,0,1-.79.3c-.24,0-.49-.07-.76.09a3.35,3.35,0,0,1-1.15.4c-.34,0-.38.26-1,.36a2.16,2.16,0,0,0-1.13.47c-.32.24-.91.66-.91.91s-.43.12-.76.22a1.23,1.23,0,0,0-.71.56,1.87,1.87,0,0,1-.46.47l-.3.31c-.09.08-.26-.1-.48,0s-.44.58-.81.83a3,3,0,0,0-1.06,1,14.2,14.2,0,0,1-1.15,1.3c-.11.17-.31.13-.53.52s-.52.68-.79,1.22a2.65,2.65,0,0,0-.22,1.3c0,.22-.15.27-.32.54a3.87,3.87,0,0,0-.31.93c-.05.17-.42.29-1,1a1.9,1.9,0,0,0-.48,1.48,6.81,6.81,0,0,0,0,1.5c.07.46-.11.39-.23,1.07a1.86,1.86,0,0,1-.31.86,1.29,1.29,0,0,1-.87.59c-.36.08-.29-.15-.48-.34s-.37.2-1,0-.44,0-.8,0-.47-.27-.72-.36-.49.07-.75.07-.18,0-.47-.39a.93.93,0,0,0-.73-.4c-.25,0-.61.3-.84.79s0,.74.13,1.2,0,.12-.13.46a4.57,4.57,0,0,0-.27.94c-.09.36,0,.14.18.48s.1.28-.05.6,0,0-.08.58,0,.41.13.79-.12.34-.35.55,0,.1.08.3.15.2.05.46-.27.53,0,.86.63.86.63.86a1.35,1.35,0,0,0,1,.34c.34,0,.25,0,.95,0a3.32,3.32,0,0,0,.91-.1c.34-.09.35.06.64.3a1.46,1.46,0,0,0,.95.3c.34,0,.15-.06.66-.15s.2.19.56.56,0,.32-.09.63,0,.28.1.72a4.68,4.68,0,0,0,.34.76c.14.32.05.32.15.54a1.54,1.54,0,0,1,.26.65c.1.5-.09.27.15.54s.32.67.72.84,0,.44,0,.64a2,2,0,0,0-.05.75c0,.49.5.79.71.95s.27.17.61.79,0,.27,0,.59.11.41.4.85a4.35,4.35,0,0,1,.39.93,1.13,1.13,0,0,0,.63.33c.25,0,.32.34.42.41a1.93,1.93,0,0,1,.35.66,6.34,6.34,0,0,1,.19.66c.1.39.32.22.62.42a3.35,3.35,0,0,1,.41.31,1.77,1.77,0,0,1,.3.66c.12.3.16.3.43.49a1.36,1.36,0,0,0,.74.28c.49.1.27.07.49.41s.09.49.29.78a1.06,1.06,0,0,0,.88.44c.34,0,.34-.14.89.47s.17.39.49.44.41.1.95.18.19.21.68.21a5,5,0,0,1,.88.08c.45.05.47.24.65.46a.79.79,0,0,0,.68.25,1.45,1.45,0,0,1,.74.21c.38.16.19.15.58.28s.08.2.56.42.64-.15,1-.25.39.19.83.49.32.41.78.44a1.54,1.54,0,0,0,.84-.07,10.56,10.56,0,0,1,1.18-.08,1.45,1.45,0,0,1,1,.12,6,6,0,0,0,1.43.06c.53,0,.68,0,1.51-.1s.37,0,.72-.06a4.52,4.52,0,0,0,.75-.11c.34,0,.42,0,.66-.06a2.59,2.59,0,0,1,.81,0c.3,0,.84,0,1.54,0a8.11,8.11,0,0,0,1.16-.21c.29,0,.54-.32.73-.45s.29.06.74,0a4.94,4.94,0,0,0,.92-.09,1.44,1.44,0,0,0,.72-.3c.14-.12.19-.24.76-.19s.88-.27,1.37-.35.41-.24.6-.41.4.17.48.34.12,0,.41-.58.32-.1.61-.35.62-.2,1.23-.49.68-.12,1.14-.22.33-.41.59-.71.42,0,.37.17.46.15.88-.25a1.7,1.7,0,0,0,.34-1.59c-.14-.48,0-.41.17-.61s-.28-.36-.38-.64.22-.39.31-.92A9.34,9.34,0,0,1,309,88c.11-.33,0-.27,0-.6s.1-.31.27-.71.14-.46.05-.65a.91.91,0,0,1-.13-.61c.05-.27.12-.43.18-.81s-.2-.28-.35-.45-.25-.17-.95-.1-.28.21-.5.43-.39.29-.46.46a.53.53,0,0,1-.44.39c-.27,0-.25.25-.63.42s-.38.14-.69.29a1,1,0,0,0-.42.36s-.8.15-1.27.21-.46.44-1.11.56-.61.43-.71.56-.19,0-.95,0a2.57,2.57,0,0,0-1.07.21,6.62,6.62,0,0,0-1,.4c-.49.21-.58.32-.88.19a2.11,2.11,0,0,0-1,0c-.3,0-.51.27-.91.37s-.56,0-1.32-.14-.41,0-.71.24-.51,0-1-.2-1.31.23-1.85.23-.46,0-.73-.07-.26-.15-.61-.32-.56-.06-1.08,0a3.72,3.72,0,0,1-.64,0c-.41,0-.26,0-.58-.14s-.3-.15-.57-.37-.38-.22-1-.42-.26.19-.48.19-.21,0-.68-.26-.47-.13-.91-.39a7.2,7.2,0,0,0-.87-.42c-.3-.13-.42-.22-1-.54s-.51-.42-.65-.83-.2-.22-.33-.45-.29-.39-.39-.61-.48-.34-.75-.59-.12-.36-.39-.55a1,1,0,0,1-.45-.67,1.8,1.8,0,0,0-.27-.65,4,4,0,0,1-.34-.5,1.3,1.3,0,0,1-.24-.63c-.12-.49-.42-1-.5-1.28a5.35,5.35,0,0,0-.66-1c-.27-.43.15-.37.39-.71s.3-.17.38-.21.26.06.51.06a5.85,5.85,0,0,0,.91-.12c.7-.1.58,0,.88,0s.49,0,1.07,0,.56,0,.72-.15.19.05.61,0,.29,0,.81,0,.36.07.87.12.28,0,.91-.09.29,0,.07.14.12.05,1,.08a4.27,4.27,0,0,0,.5,0l.23.06a1.82,1.82,0,0,0,.84.07,1.41,1.41,0,0,0,1-.37,1.26,1.26,0,0,1,.95,0,6.38,6.38,0,0,0,.83.32c.32.09.57-.17.76-.28s.69.17,1,.22.45-.12.76-.17a7.57,7.57,0,0,1,1.08,0,1.35,1.35,0,0,0,.9-.21c.47-.2.38-.08,1-.13a1.14,1.14,0,0,1,.71.07,5.47,5.47,0,0,0,.88.23c.29,0,.29-.12,1-.2s.42-.12.93-.24.42,0,.87.05.53-.06,1.1-.16.31-.11.6-.39.42.15.77.15a2.6,2.6,0,0,0,.64-.12l1.09-.1a9.79,9.79,0,0,1,1.1.07,2,2,0,0,0,1-.19c.49-.17.46.09.93,0a3.23,3.23,0,0,0,.88-.24c.27-.1.42.09.68.09s.27-.05.57-.24.17-.84.12-1.18.14-.39.15-.61A4.64,4.64,0,0,0,309.75,73.23Zm-11.07-3.38c-.24.1-.51,0-.86.12s-.29.24-.43.24-.4-.17-.43-.12a6.3,6.3,0,0,1-.67.27c-.32.13-.4.24-.54.29s-.33,0-.42,0a.22.22,0,0,1-.22,0,.61.61,0,0,0-.42-.08c-.27,0-.47-.21-.59-.16s0-.08-.37.07-.68,0-.85.07-.57.15-.66.3,0,.19-.37.19a1.44,1.44,0,0,1-.63-.1c-.21-.07-.32-.27-.67-.27a3.6,3.6,0,0,0-.73,0,1.1,1.1,0,0,1-.57,0c-.34,0-.43-.17-.49,0s0,.31-.21.22-.32-.23-.5-.06a1.12,1.12,0,0,1-.6.28c-.15,0-.13.17-.42,0a3.34,3.34,0,0,0-.47-.31c-.05,0,0-.28-.24-.3a1.71,1.71,0,0,0-.57-.09c-.46,0-.53.08-.73,0s-.07,0-.39.12-.62.16-.86.26-.31.18-.52.17a4.67,4.67,0,0,0-.82,0c-.12,0-.12,0-.23,0a.33.33,0,0,1-.3,0c-.17,0-.21-.07-.34,0s-.12.12-.33,0-.28-.22-.56-.14a1,1,0,0,1-.65,0c-.27-.07,0-.27-.45-.3s-.44-.12-1-.16-.33-.07-.71,0c-1,0-1-.1-1-.1a1,1,0,0,0-.1-.58.77.77,0,0,1-.18-.68c.05-.37,0-.48.11-.62a2.73,2.73,0,0,0,.44-.74c0-.16-.13-.11,0-.44s.14-.41.11-.55a1,1,0,0,1-.07-.49c0-.27-.07-.47,0-.59s.06-.17.53-.5.3-.31.52-.51.17-.34.26-.44a1.62,1.62,0,0,0,.3-.52c.07-.24.08-.34.3-.46a1.83,1.83,0,0,0,.51-.29,1.43,1.43,0,0,0,.37-.47,3.39,3.39,0,0,1,.19-.81c.18-.56,0-.43.34-.66s.32-.39.61-.49a3.11,3.11,0,0,0,1.16-.59,2.93,2.93,0,0,1,.49-.53,6.21,6.21,0,0,1,.76-.66c.19-.1.27-.22.39-.13s.54.15.61,0,.15-.35.29-.2a.48.48,0,0,0,.57.18c.34-.06,0-.16.65-.18s.62,0,.89-.19.71-.59.71-.4-.08.3.17.27a2.12,2.12,0,0,0,.66-.32.62.62,0,0,1,.62-.11,4.33,4.33,0,0,0,.75.19c.35.05.22,0,.4-.07a.85.85,0,0,1,.61,0c.24.08.24-.07.54.13s.53.37.71.51a4.05,4.05,0,0,0,1.14.52c.23,0,.57.05.64.29s.27.15.61.59a2.49,2.49,0,0,0,.76.71c.25.19.67.2.76.34s0,.14.13.32a3.26,3.26,0,0,0,.39.36c.19.15.27.11.32.37a9.5,9.5,0,0,0,.49,1c.07.19.51.24.58.47A1,1,0,0,1,298,64a2.74,2.74,0,0,0,.13,1,2.09,2.09,0,0,1,.24.56c0,.22.54.85,0,.88s-.28.22-.08.56.41.56.34.71,0,.44-.17.64a.84.84,0,0,0-.2.68c0,.28.05.47.17.55S298.92,69.75,298.68,69.85Z"/><polygon points="539.32 100.83 511.68 15.83 530.94 2.01 529.49 0 380.22 107.5 551.88 107.53 551.88 100.83 539.32 100.83"/><path class="cls-1" d="M466.4,97c-8.27,0-15-9.41-15-21s6.73-21,15-21,15,9.41,15,21-6.73,21-15,21"/><path class="cls-1" d="M502.15,88.73c-8.63,0-15.65-9.87-15.65-22s7-22,15.65-22,15.64,9.87,15.64,22-7,22-15.64,22"/><path d="M469.63,59.94c-3.31,0-6,3.7-6,8.26s2.69,8.26,6,8.26,6-3.7,6-8.26-2.68-8.26-6-8.26"/><path d="M504.79,48.8c-3.45,0-6.25,3.84-6.25,8.58s2.8,8.56,6.25,8.56S511,62.11,511,57.38s-2.8-8.58-6.25-8.58"/><path d="M486.13,133.13c0,2.14-2,3.18-3.84,3.18s-3.87-1-3.87-3.18v-17.2h-6.2v17.41c0,5.57,4.89,8.79,10.07,8.79s10.1-3.22,10.1-8.79V115.93h-6.26Z"/><path d="M404.18,126c-2.31-.26-4.21-.62-4.08-2.57.24-3.27,7.12-3.37,7.12,0h6.24c.15-11.08-19.81-11.12-19.59,0,.07,5.58,3.88,7.37,9.32,7.93,2.56.26,4.69.56,4.69,2.36,0,3.08-8,3-8-.31H393.5c-.15,11.3,20.77,11.2,20.77.31,0-6.29-5-7.17-10.09-7.72"/><path d="M433.7,133.13c0,2.14-1.95,3.18-3.83,3.18s-3.88-1-3.88-3.18v-17.2H419.8v17.41c0,5.57,4.89,8.79,10.07,8.79s10.1-3.22,10.1-8.79V115.93H433.7Z"/><polygon points="465.91 115.93 446.72 115.93 446.72 121.72 456.13 121.72 445.78 141.27 466.02 141.27 466.02 135.48 455.52 135.48 465.91 115.93"/><path d="M510.27,115.93H499.16v25.34h6.48v-7.46H509l4.34,7.46H521l-5.4-9c6.41-4.34,4.6-16.32-5.36-16.36m0,12.06h-4.63v-6.27c1.52,0,3.11,0,4.63,0,3.7,0,3.52,6.27,0,6.27"/><polygon points="539.22 121.58 539.22 115.93 526.62 115.93 526.62 121.58 529.71 121.58 529.71 135.59 526.62 135.59 526.62 141.27 539.22 141.27 539.22 135.59 536.12 135.59 536.12 121.58 539.22 121.58"/><path class="cls-2" d="M724.09,41.08V65.61h9.46v5.94H717.06V41.08Z"/><path class="cls-3" d="M763.92,44.67a16.43,16.43,0,0,1,0,23.23A16.48,16.48,0,0,1,752,72.44a17,17,0,0,1-12-4.54,15.75,15.75,0,0,1-4.81-11.47,17.28,17.28,0,0,1,4.76-11.72c2.09-2.08,5.93-4.53,12.09-4.53A16.49,16.49,0,0,1,763.92,44.67Zm-18.75,4.72a9.47,9.47,0,0,0-2.73,7,9.23,9.23,0,0,0,2.82,6.94,9.09,9.09,0,0,0,6.62,2.55,9.35,9.35,0,0,0,6.85-2.64,9.22,9.22,0,0,0,2.69-6.9,9.73,9.73,0,0,0-2.69-6.94,9.89,9.89,0,0,0-6.8-2.64A9.46,9.46,0,0,0,745.17,49.39Z"/><path class="cls-4" d="M780.81,41.08V65.61h9.45v5.94H773.78V41.08Z"/><path class="cls-5" d="M803.56,41.08V71.55h-7V41.08Z"/><path class="cls-6" d="M821.85,41.08c2.65,0,5.57.36,8,2.51a9.38,9.38,0,0,1,3,7.4,9.8,9.8,0,0,1-2.6,7.17c-2.43,2.47-5.62,2.7-7.77,2.7h-4.29V71.55h-7V41.08Zm-3.7,14h2.51A5.36,5.36,0,0,0,824.45,54a4.24,4.24,0,0,0,1.14-3,4,4,0,0,0-1.14-3,5.48,5.48,0,0,0-3.93-1.15h-2.37Z"/><path class="cls-7" d="M864.46,44.67a16.43,16.43,0,0,1,0,23.23,16.48,16.48,0,0,1-11.94,4.54,17,17,0,0,1-12-4.54,15.75,15.75,0,0,1-4.81-11.47,17.28,17.28,0,0,1,4.76-11.72c2.09-2.08,5.93-4.53,12.09-4.53A16.49,16.49,0,0,1,864.46,44.67Zm-18.75,4.72a9.47,9.47,0,0,0-2.73,7,9.23,9.23,0,0,0,2.82,6.94,9.09,9.09,0,0,0,6.62,2.55,9.35,9.35,0,0,0,6.85-2.64,9.22,9.22,0,0,0,2.69-6.9,9.73,9.73,0,0,0-2.69-6.94,9.89,9.89,0,0,0-6.8-2.64A9.46,9.46,0,0,0,845.71,49.39Z"/><path class="cls-8" d="M884.26,41.08c2.65,0,5.58.36,8,2.51a9.38,9.38,0,0,1,3,7.4,9.8,9.8,0,0,1-2.61,7.17c-2.42,2.47-5.62,2.7-7.76,2.7h-4.3V71.55h-7V41.08Zm-3.7,14h2.52A5.38,5.38,0,0,0,886.87,54a4.24,4.24,0,0,0,1.14-3,4,4,0,0,0-1.14-3,5.48,5.48,0,0,0-3.93-1.15h-2.38Z"/><path class="cls-9" d="M903.15,64A4.16,4.16,0,1,1,899,68.12,4.12,4.12,0,0,1,903.15,64Zm-3.38-2.24V41.08h6.76V61.72Z"/><path class="cls-10" d="M717.25,99.63a3.79,3.79,0,0,0,.38-1.88V83.94a16.69,16.69,0,0,0-.33-3.21h4.84a19.81,19.81,0,0,0-.28,3.21v13a30.05,30.05,0,0,0,12.61-8.28l2.19,3.51c-3.59,4.21-8.92,7.18-14.72,9.22a6.42,6.42,0,0,0-1.76.82Z"/><path class="cls-11" d="M751,94.38a24.57,24.57,0,0,0,9.72-10.18l2.4,4.35a27.52,27.52,0,0,1-9.91,9.65,27.18,27.18,0,0,1-9.12,3.37l-2.62-4.08A26.33,26.33,0,0,0,751,94.38Zm.56-8.07-3.16,3.23A53.39,53.39,0,0,0,742,84l2.93-3.14A51.68,51.68,0,0,1,751.51,86.31Z"/><path class="cls-12" d="M788.61,84.3a13.49,13.49,0,0,0-1,2.11,28.55,28.55,0,0,1-4.18,8.28,24,24,0,0,1-9.32,7.61l-3.56-3.15a20.79,20.79,0,0,0,7.76-4.92c-1.22-.89-2.69-1.91-4.3-2.88l2.62-2.95c1.56.86,3,1.78,4.33,2.65a17.92,17.92,0,0,0,2.17-4.92h-6.5a28.18,28.18,0,0,1-6.36,6.75l-3.47-2.55a24.65,24.65,0,0,0,7.67-8.78,12.9,12.9,0,0,0,1-2.8l4.56,1.4c-.51.91-.94,1.7-1.32,2.49h4.43a8.08,8.08,0,0,0,2.52-.35Z"/><path class="cls-13" d="M791.51,99a10.93,10.93,0,0,0,4.13-5.78c.71-2.09.74-6.52.74-9.71a10.27,10.27,0,0,0-.28-2.62h4.53a20.49,20.49,0,0,0-.2,2.57c0,3.14-.08,8.2-.74,10.78a15.35,15.35,0,0,1-4.56,7.48Zm11.72.74a10.32,10.32,0,0,0,.23-2.12V83.28a13.28,13.28,0,0,0-.23-2.37h4.58a15.8,15.8,0,0,0-.2,2.39V95.58a14.26,14.26,0,0,0,5.65-4.86l2.37,3.41A29.36,29.36,0,0,1,807,101a9.61,9.61,0,0,0-1.22.84Z"/><path class="cls-14" d="M837.79,84.71a20,20,0,0,0,3-.18v4a30,30,0,0,0-3-.08h-1.27v.61c0,5.88-1.86,10.09-8.1,12.81l-3.11-3.06c5-1.62,7.26-4,7.26-9.65v-.71h-5.53V91.2c0,1.2.08,2.19.13,2.83H823a23.94,23.94,0,0,0,.15-2.83V88.45h-1.65c-1.33,0-2.09,0-2.83.1V84.48a19.82,19.82,0,0,0,2.83.23h1.65V82.64a19.16,19.16,0,0,0-.18-2.49h4.28a20.7,20.7,0,0,0-.18,2.52v2h5.53V82.36a16.71,16.71,0,0,0-.15-2.47h4.28a19.53,19.53,0,0,0-.18,2.47v2.35Z"/><path class="cls-15" d="M845.24,93V88.16l.57,0c.73.06,2.34.14,3.29.14h10.24c.65,0,1.34-.06,1.89-.1l1-.08V93l-.56,0-.67,0c-.52,0-1.16-.08-1.68-.08H849.1c-1.09,0-2.53.06-3.29.11Z"/><path class="cls-16" d="M871.74,82.46l4.5,1c-.23.81-.58,2.34-.68,2.92a61.38,61.38,0,0,1-2.09,7.49,34.48,34.48,0,0,1-3.75,7.44l-4.35-1.83a31.09,31.09,0,0,0,4-7.16A37.27,37.27,0,0,0,871.74,82.46Zm6.52,1,4.12-1.32c1.1,2,2.91,6.19,3.8,8.5s2.19,6.35,2.9,9l-4.61,1.5A80.9,80.9,0,0,0,882,92,70.14,70.14,0,0,0,878.26,83.43Zm8.63-.18-2.42,1a34.28,34.28,0,0,0-2-3.54l2.39-1C885.54,80.71,886.43,82.36,886.89,83.25ZM890.05,82l-2.4,1a27.35,27.35,0,0,0-2-3.51l2.61-1A32.2,32.2,0,0,1,890.05,82Z"/><path class="cls-17" d="M892.47,93V88.16l.58,0c.73.06,2.33.14,3.29.14h10.24c.64,0,1.33-.06,1.89-.1l1-.08V93l-.56,0-.67,0c-.51,0-1.16-.08-1.67-.08H896.34c-1.1,0-2.54.06-3.3.11Z"/><path class="cls-18" d="M697.26,92.15a8.56,8.56,0,0,1-4.27,7.4l-18,10.39a13.31,13.31,0,0,1-13.34,0l-18-10.39a8.56,8.56,0,0,1-4.27-7.4V90.54a1.05,1.05,0,0,1,1.59-.9,12.76,12.76,0,0,0,14.26-.58,1.28,1.28,0,0,1,1.88.43,12.76,12.76,0,0,0,22.53-.21,1.27,1.27,0,0,1,1.69-.56,12.46,12.46,0,0,0,5.36,1.11c4.62,0,10.63-4.69,11-11.07C698.12,70.87,692.1,66,685.12,66c-18.77,0-27.23,17.52-38.66,20.19-7.44,1.74-12.92-3.74-10.82-15,4.27-22.84,27.44-42.9,36.66-40.55,6.63,1.69-1.37,13.59,4.4,15.48,28.53,9.38,29.63,34.73,20.56,42.31Z"/><path class="cls-1" d="M647.66,91.54a12.73,12.73,0,0,0,6.75-1.93c.27-.17.55-.36.81-.55a1.23,1.23,0,0,1,.77-.24,1.29,1.29,0,0,1,1.11.67,12.76,12.76,0,0,0,22.53-.21,1.64,1.64,0,0,1,.14-.22,1.29,1.29,0,0,1,1.07-.47,1.23,1.23,0,0,1,.48.13,12.46,12.46,0,0,0,5.36,1.11c4.62,0,10.63-4.69,11-11.07C698.12,70.87,692.1,66,685.12,66c-15.54,0-24,12-33,17.66-.34.21-.68.42-1,.61-.51.29-1,.56-1.53.8-.35.16-.69.31-1,.45s-.7.26-1.05.38-.71.21-1.06.29c-7.44,1.74-12.92-3.74-10.82-15-3.36,14.62,4.63,18,5.32,18.42A12.71,12.71,0,0,0,647.66,91.54Z"/><path class="cls-19" d="M1099.8,62.24,1094.38,53a.34.34,0,0,0-.46-.12.34.34,0,0,0-.17.29V66.48a1.08,1.08,0,0,1-1.08,1.08h-4.77a1.08,1.08,0,0,1-1.08-1.08V39.68a1.08,1.08,0,0,1,1.08-1.08h5.25a1.07,1.07,0,0,1,.92.51l7,11.36a.55.55,0,0,0,.77.18.45.45,0,0,0,.18-.18l7-11.36a1.07,1.07,0,0,1,.92-.51h5.25a1.08,1.08,0,0,1,1.08,1.08v26.8a1.08,1.08,0,0,1-1.08,1.08h-4.77a1.08,1.08,0,0,1-1.08-1.08V53.12a.34.34,0,0,0-.63-.17l-5.53,9.3a1.06,1.06,0,0,1-.92.51h-1.5A1.1,1.1,0,0,1,1099.8,62.24Zm82.76,0L1177.14,53a.34.34,0,0,0-.46-.12.34.34,0,0,0-.17.29V66.48a1.08,1.08,0,0,1-1.08,1.08h-4.77a1.08,1.08,0,0,1-1.08-1.08V39.68a1.08,1.08,0,0,1,1.08-1.08h5.25a1.07,1.07,0,0,1,.92.51l7,11.36a.55.55,0,0,0,.77.18.45.45,0,0,0,.18-.18l7-11.36a1.07,1.07,0,0,1,.92-.51h5.25a1.08,1.08,0,0,1,1.08,1.08v26.8a1.08,1.08,0,0,1-1.08,1.08h-4.77a1.08,1.08,0,0,1-1.08-1.08V53.12a.34.34,0,0,0-.63-.17l-5.53,9.3a1.06,1.06,0,0,1-.92.51h-1.5A1.1,1.1,0,0,1,1182.56,62.24Zm-54.41,5.32c-2.85,0-4.92-.91-6.11-2.55a10.19,10.19,0,0,1-1.78-6.12V47.17a1.08,1.08,0,0,1,1.08-1.08h4.83a1.08,1.08,0,0,1,1.08,1.08V58.71a3.12,3.12,0,0,0,.72,2.22,2.66,2.66,0,0,0,2,.76,5.52,5.52,0,0,0,1.91-.42,3.2,3.2,0,0,0,2-3V47.17a1.08,1.08,0,0,1,1.09-1.08h4.82a1.08,1.08,0,0,1,1.09,1.08V66.48a1.08,1.08,0,0,1-1.09,1.08H1135a1.08,1.08,0,0,1-1.09-1.08V66s-.25.11-1.5.58A12.58,12.58,0,0,1,1128.15,67.56Zm82.76,0c-2.85,0-4.92-.91-6.11-2.55a10.19,10.19,0,0,1-1.78-6.12V47.17a1.08,1.08,0,0,1,1.08-1.08h4.83a1.08,1.08,0,0,1,1.08,1.08V58.71a3.12,3.12,0,0,0,.72,2.22,2.68,2.68,0,0,0,2,.76,5.52,5.52,0,0,0,1.91-.42,3.2,3.2,0,0,0,2-3V47.17a1.08,1.08,0,0,1,1.09-1.08h4.83a1.08,1.08,0,0,1,1.08,1.08V66.48a1.08,1.08,0,0,1-1.08,1.08h-4.83a1.08,1.08,0,0,1-1.09-1.08V66s-.25.11-1.5.58A12.58,12.58,0,0,1,1210.91,67.56Zm-58,0c-2.85,0-4.93-.91-6.11-2.55a10.19,10.19,0,0,1-1.79-6.12V47.17a1.08,1.08,0,0,1,1.09-1.08h4.83a1.08,1.08,0,0,1,1.08,1.08V58.71a3.12,3.12,0,0,0,.72,2.22,2.66,2.66,0,0,0,2,.76,5.47,5.47,0,0,0,1.9-.42,3.19,3.19,0,0,0,2-3V47.17a1.08,1.08,0,0,1,1.08-1.08h4.83a1.08,1.08,0,0,1,1.08,1.08V66.48a1.08,1.08,0,0,1-1.08,1.08h-4.83a1.08,1.08,0,0,1-1.08-1.08V66s-.25.11-1.51.58A12.47,12.47,0,0,1,1152.87,67.56Zm82.76,0c-2.85,0-4.93-.91-6.11-2.55a10.19,10.19,0,0,1-1.79-6.12V47.17a1.08,1.08,0,0,1,1.09-1.08h4.83a1.08,1.08,0,0,1,1.08,1.08V58.71a3.12,3.12,0,0,0,.72,2.22,2.66,2.66,0,0,0,2,.76,5.47,5.47,0,0,0,1.9-.42,3.19,3.19,0,0,0,2-3V47.17a1.08,1.08,0,0,1,1.08-1.08h4.83a1.08,1.08,0,0,1,1.08,1.08V66.48a1.08,1.08,0,0,1-1.08,1.08h-4.83a1.08,1.08,0,0,1-1.08-1.08V66s-.25.11-1.51.58A12.47,12.47,0,0,1,1235.63,67.56ZM1100.5,105.38h-12.43a1.23,1.23,0,0,1-1.25-1.22v-30a1.23,1.23,0,0,1,1.25-1.21h12.43q7.79,0,11.76,4.5a16.79,16.79,0,0,1,4,11.52q0,7.55-4.31,12T1100.5,105.38Zm-.12-25.95h-5.29a.56.56,0,0,0-.55.56V98.33a.56.56,0,0,0,.55.56H1100a7.91,7.91,0,0,0,5.94-2.4c1.56-1.6,2.33-4.11,2.33-7.54a11.1,11.1,0,0,0-2-6.88A7,7,0,0,0,1100.38,79.43Zm30.78,25.95a12.14,12.14,0,1,1,12.36-12.13A12.14,12.14,0,0,1,1131.16,105.38Zm.06-6.38a5.72,5.72,0,1,0-5.26-5.7A5.45,5.45,0,0,0,1131.22,99ZM1176,81.14q4.59,0,6.65,2.79a11.31,11.31,0,0,1,2.06,6.91v13.34a1.23,1.23,0,0,1-1.22,1.23H1178a1.22,1.22,0,0,1-1.21-1.23V91a3.62,3.62,0,0,0-.79-2.5,2.77,2.77,0,0,0-2.13-.86,5.75,5.75,0,0,0-2.23.53,3.75,3.75,0,0,0-2.26,3.46l.08,12.52a1.22,1.22,0,0,1-1.21,1.23h-5.46a1.23,1.23,0,0,1-1.22-1.23V91a3.62,3.62,0,0,0-.78-2.5,2.77,2.77,0,0,0-2.13-.86,5.17,5.17,0,0,0-2,.46,3.49,3.49,0,0,0-2.15,3.22v12.83a1.23,1.23,0,0,1-1.22,1.23h-5.41a1.23,1.23,0,0,1-1.22-1.23V82.37a1.23,1.23,0,0,1,1.22-1.23h5.41a1.23,1.23,0,0,1,1.22,1.23v.49a5.21,5.21,0,0,1,1.55-.78,12,12,0,0,1,4.76-.94,9.17,9.17,0,0,1,4.07.82,7.59,7.59,0,0,1,2.72,2.16,16.29,16.29,0,0,1,3.68-2A12,12,0,0,1,1176,81.14Zm22.08,0a9.78,9.78,0,0,1,7.14,2.66,8.27,8.27,0,0,1,2.62,6.4v14a1.22,1.22,0,0,1-1.22,1.23h-5.43a1.22,1.22,0,0,1-1.22-1.23v-.12a5.71,5.71,0,0,1-3.72,1.35c-2.9,0-5.11-.7-6.52-2.14a7.73,7.73,0,0,1-2.13-5.67,6.41,6.41,0,0,1,2.48-5.55,10.83,10.83,0,0,1,6.5-1.8h3.39a3.39,3.39,0,0,0-1-1.75,3.19,3.19,0,0,0-2.21-.84,10.61,10.61,0,0,0-3.08.43c-.52.13-1.15.33-1.89.59a1.23,1.23,0,0,1-1.56-.75l-1.29-3.41a1.22,1.22,0,0,1,.71-1.55,27.07,27.07,0,0,1,3.31-1.1A22.25,22.25,0,0,1,1198.05,81.14Zm1.25,14h-2.76a2.16,2.16,0,0,0-1.73.78,2.87,2.87,0,0,0-.65,1.89,2.14,2.14,0,0,0,.58,1.5,1.86,1.86,0,0,0,1.43.64,3.75,3.75,0,0,0,1.85-.39c.27-.15.63-.38,1.07-.68a1.78,1.78,0,0,0,.77-1.47V95.71A.56.56,0,0,0,1199.3,95.15ZM1218.7,83a1.22,1.22,0,0,1,1.22,1.22v19.93a1.22,1.22,0,0,1-1.22,1.22h-5.39a1.22,1.22,0,0,1-1.22-1.22V84.24a1.22,1.22,0,0,1,1.22-1.22ZM1216,72.93a4,4,0,1,1-4,3.95A4,4,0,0,1,1216,72.93Zm23.43,8.21c3.23,0,5.53.93,6.92,2.79a11.19,11.19,0,0,1,2.08,6.91v13.34a1.22,1.22,0,0,1-1.22,1.23h-5.41a1.23,1.23,0,0,1-1.22-1.23V91a3.35,3.35,0,0,0-.89-2.5,3.27,3.27,0,0,0-2.37-.86,6.56,6.56,0,0,0-2.34.53,3.77,3.77,0,0,0-2.4,3.51v12.47a1.23,1.23,0,0,1-1.22,1.23h-5.41a1.22,1.22,0,0,1-1.22-1.23V82.37a1.22,1.22,0,0,1,1.22-1.23h5.41a1.23,1.23,0,0,1,1.22,1.23V83l1.89-.85A14.2,14.2,0,0,1,1239.42,81.14Z"/><path class="cls-20" d="M1047.25,93.57a11.85,11.85,0,0,0,23.69,0V48.83c0-10.7-11.28-15.38-19.07-9.39L1031.61,55a2.36,2.36,0,0,1-3.21,0l-20.26-15.58A11.84,11.84,0,0,0,993.7,58.22l29.08,22.36a11.19,11.19,0,0,0,14.45,0l7.9-6.07a1.25,1.25,0,0,1,2.12,1Z"/><circle class="cls-21" cx="1001.21" cy="93.23" r="12.13"/><path d="M1464.24,61.94V92.35h7.54V79.68a.3.3,0,0,1,.06-.18.27.27,0,0,1,.2,0h3.19a.82.82,0,0,1,.68.41l7,12.48h8.83l-8.55-13.74a8.55,8.55,0,0,0,5.06-3.07,9.68,9.68,0,0,0,1.91-6,10.38,10.38,0,0,0-1-4.9,8.55,8.55,0,0,0-2.87-3.15,12.14,12.14,0,0,0-4.14-1.65,24.33,24.33,0,0,0-4.91-.49H1466.8A2.45,2.45,0,0,0,1464.24,61.94Zm7.54,4.26c0-.09,0-.26.27-.26h4.9a15,15,0,0,1,2,.13,5.8,5.8,0,0,1,1.71.49,2.75,2.75,0,0,1,1.62,2.73,3.55,3.55,0,0,1-.51,2,3.11,3.11,0,0,1-1.31,1,6.73,6.73,0,0,1-1.89.39c-.73,0-1.41.06-2.07.06h-4.43a.34.34,0,0,1-.22,0,.22.22,0,0,1,0-.16Z"/><path d="M1552.59,66.16h15.32V59.3H1547.2a2,2,0,0,0-2,2V90.61a1.89,1.89,0,0,0,.52,1.28,1.72,1.72,0,0,0,1.24.45h21v-7h-15.25a.32.32,0,0,1-.36-.3v-5.9c0-.13,0-.31.35-.31h14.49v-6.6h-14.49c-.19,0-.35,0-.35-.38V66.49C1552.3,66.28,1552.38,66.16,1552.59,66.16Z"/><path d="M1536.21,59.3h-5.86a3,3,0,0,0-2.39,1.91L1521.63,74l-6.28-12.76a3,3,0,0,0-2.54-1.94h-5.52a2,2,0,0,0-2,2.16V92.34h7.34V69.52l5.75,11.9c.07.13.71,1.27,1.61,1.27h3.1a2,2,0,0,0,1.56-1.11l6.07-12.11V92.34h7.49V61.24A1.89,1.89,0,0,0,1536.21,59.3Z"/><path d="M1442.55,58.27c-9.37,0-15.92,7.22-15.92,17.55,0,10.51,6.4,17.56,15.92,17.56s15.92-7.22,15.92-17.56C1458.47,65.65,1451.78,58.27,1442.55,58.27Zm0,6.86c5.43,0,7.87,5.39,7.87,10.73,0,4.94-2.06,10.72-7.87,10.72-7.09,0-7.86-7.5-7.86-10.72C1434.69,70.91,1436.75,65.13,1442.55,65.13Z"/><path d="M1410.15,84.63c-.29,0-.38-.13-.39-.34v-25h-8.15V89.6a3.18,3.18,0,0,0,.79,2.12,2.22,2.22,0,0,0,1.65.62h19.32V84.63Z"/><path d="M1379.8,58.27c-9.37,0-15.92,7.22-15.92,17.55,0,10.51,6.4,17.56,15.92,17.56s15.92-7.22,15.92-17.56C1395.72,65.65,1389,58.27,1379.8,58.27Zm0,6.86c5.43,0,7.87,5.39,7.87,10.73,0,4.94-2.06,10.72-7.87,10.72-7.09,0-7.86-7.5-7.86-10.72C1371.94,70.91,1374,65.13,1379.8,65.13Z"/><path d="M1359.63,92.16l-.22-7a18.6,18.6,0,0,1-6.88,1.16,8.62,8.62,0,0,1-3.59-.75,8.81,8.81,0,0,1-2.91-2.11,9.93,9.93,0,0,1-2-3.21,12.74,12.74,0,0,1-.72-4.36,14.1,14.1,0,0,1,.72-4.56,9.79,9.79,0,0,1,2-3.23,9,9,0,0,1,3-2.11,12,12,0,0,1,3.75-.75,17.09,17.09,0,0,1,6.63,1.1l.23-7a22,22,0,0,0-6.6-1.07,21.68,21.68,0,0,0-7,1.21,17.31,17.31,0,0,0-5.93,3.54,16.17,16.17,0,0,0-3.91,5.57,19.81,19.81,0,0,0,0,14.58,16.08,16.08,0,0,0,3.91,5.57,17.31,17.31,0,0,0,5.93,3.54,21.79,21.79,0,0,0,7,1.21A17.25,17.25,0,0,0,1359.63,92.16Z"/><path d="M1550.65,37.71l-99.3-16.28-97.24,16.28a2.37,2.37,0,0,0-1.82,2.44V50.41l7.4,0V44.12a.35.35,0,0,1,.29-.33l91.37-15.32,93.44,15.32a.32.32,0,0,1,.29.33v6.25l7.4,0V40.15A2.37,2.37,0,0,0,1550.65,37.71Z"/><path d="M1545.44,107.88c-.12,1.91-1.09,9.19-9.38,9.47v3.39c11.33-.62,12.62-10.28,12.77-12.66a3.8,3.8,0,0,0,.59.06,3.48,3.48,0,1,0-3.42-4h-13.52v3.32h12.44C1545.56,107.43,1545.44,107.88,1545.44,107.88Zm4-1.88a1.34,1.34,0,1,1,1.34-1.34A1.34,1.34,0,0,1,1549.42,106Z"/><path d="M1527,110.06s.17,10.08-10.65,10.71v-2.84c8.13-.49,7.83-7.87,7.83-7.87v-2.38H1527Z"/><polygon points="1515.62 112.44 1512.77 112.44 1512.2 107.68 1515.04 107.68 1515.62 112.44"/><polygon points="1520.13 112.44 1517.29 112.44 1516.99 107.68 1519.83 107.68 1520.13 112.44"/><path d="M1504.28,107.68H1495v2.84h7.58c.78,0,.85.09.85.73V113h-7.59v2.41h7.59v2.43H1495v2.84h11.45V109.68C1506.49,107.77,1506.33,107.68,1504.28,107.68Z"/><polygon points="1472.4 102.01 1472.4 105.46 1479.52 106.81 1479.52 103.35 1472.4 102.01"/><polygon points="1471.29 107.89 1471.29 111.34 1478.41 112.69 1478.41 109.23 1471.29 107.89"/><path d="M1485.82,107.68h3.42s-1.41,12.34-16.84,13.06v-3.39s9.46.53,13.42-9.67"/><rect x="1446.66" y="109.16" width="17.54" height="3.42"/><polygon points="1439.69 104.29 1439.69 107.72 1426.46 105.25 1426.46 101.81 1439.69 104.29"/><polygon points="1438.69 110.81 1427.28 108.68 1427.28 111.84 1438.69 113.96 1438.69 110.81"/><polygon points="1425.24 114.49 1425.24 118.03 1440.05 120.78 1440.05 117.24 1425.24 114.49"/><rect x="1400.2" y="109.16" width="17.54" height="3.42"/><rect x="1378.31" y="101.81" width="13.66" height="3.43"/><path d="M1380.58,120.78v-3.43s6.35.05,8.65-5.64a.43.43,0,0,0-.48-.51h-12.39v-3.43h16.48a1,1,0,0,1,1,1S1392.86,120.14,1380.58,120.78Z"/><path d="M1366.12,109v6.91a1.27,1.27,0,0,1-1.33,1.29h-1.69v3.44h2.32a4.54,4.54,0,0,0,4.34-4.64v-10c0-1.13-.81-1.12-.81-1.12h-7.63v-3h-3.43v3h-6v3.42h6s.17,5.59-6,9.11v3.42a14,14,0,0,0,9.4-12.53h4.19S1366.12,108.16,1366.12,109Z"/></g></g></svg>