<svg xmlns="http://www.w3.org/2000/svg" viewBox="0 0 380.584 63.303"><g fill="#1f7acc" stroke="#1f7acc"><path d="M290.334 18.527c-.1-2.78-.2-5.351-.315-7.921-.011-.147-.158-.294-.273-.514-.745.388-1.437.766-2.151 1.123-.986.5-2 .965-2.979 1.5a41.274 41.274 0 0 0-6.232 3.756 28.888 28.888 0 0 1-2.696 1.947 14.256 14.256 0 0 0-2.843 2.6 21.81 21.81 0 0 0-.493.535 1.093 1.093 0 0 1-1.427.231 5.217 5.217 0 0 1-1.165-.86c-.472-.472-.43-.734.063-1.217a38.382 38.382 0 0 1 6.873-5.256c1.144-.713 2.4-1.259 3.525-1.983 2.77-1.784 5.8-3.043 8.708-4.532.944-.483 1.049-.65.881-1.71-.157-.965-.4-1.909-.566-2.875a6.145 6.145 0 0 1-.011-1.081 2.15 2.15 0 0 1 2.507 1.605c.189.734.315 1.49.494 2.361.44-.168.86-.294 1.259-.472 1.857-.881 3.693-1.8 5.55-2.675a1.813 1.813 0 0 1 2.633.671c.325.43.284.734-.22 1.007a14.448 14.448 0 0 1-1.427.64 74.128 74.128 0 0 0-7.281 3.431v5.361c0 .871-.021 1.742-.021 2.612 0 1.983-.042 3.976.032 5.949.063 1.532.283 3.053.419 4.585a17.312 17.312 0 0 1-.294 4.994c-.461 2.35-.9 4.7-1.427 7.029-.346 1.532-.808 3.032-1.217 4.543-.252.934-.566 1.867-.766 2.812a6.647 6.647 0 0 1-1.27 2.728 2.42 2.42 0 0 1-3.1.588c-.557-.378-.557-1.123.083-1.29.913-.241 1.186-.923 1.427-1.647a62.074 62.074 0 0 0 2.12-7.648c.356-1.773.787-3.536 1.154-5.3.2-.965.116-1.112-.86-1.2a3.683 3.683 0 0 1-2.78-1.668 17.59 17.59 0 0 1-2.917-7.218 6.817 6.817 0 0 1 .986-4.627 3.917 3.917 0 0 1 1.227-1.616 3.173 3.173 0 0 1 2.991-.21 11.959 11.959 0 0 1 1.799.912zm-.084 6.977a9.928 9.928 0 0 0-1.458-5.519c-.651-1.081-1.165-1.091-1.9-.094a6.388 6.388 0 0 0-1.3 3.662 11.634 11.634 0 0 0 1.511 5.246 13.081 13.081 0 0 0 .64 1.2c.231.409.388.986 1 .923s.619-.671.8-1.112a1.016 1.016 0 0 0 .084-.3c.192-1.341.412-2.674.622-4.006zM162.578 39.037a1.189 1.189 0 0 1-.021.189 6.166 6.166 0 0 1-2.749 3.263c-1.018.682-1.773 1.71-2.875 2.34a52.48 52.48 0 0 1-6 3.357c-2.822 1.154-5.7 2.256-8.8 1.784-3.347-.514-6.106-1.983-7.239-5.487a8.792 8.792 0 0 1-.01-4.427c.472-2.434 1.962-4.354 3.3-6.347.64-.944 1.228-1.909 1.868-2.917-.294-.22-.5-.4-.724-.546a4.481 4.481 0 0 1-2.088-4.291 12.739 12.739 0 0 1 1.07-4.018c.545-1.3 1.08-2.623 1.605-3.9-.252-.378-.514-.22-.766-.1a5.834 5.834 0 0 1-4.291.126 5.247 5.247 0 0 1-2.9-2.654c.682-.577.713-.619 1.364-.126a2.825 2.825 0 0 0 2.13.661 13.892 13.892 0 0 0 3.85-.892c1.081-.472 2.172-.955 3.221-1.511a3.974 3.974 0 0 0 .955-.923c.787-.881 1.542-1.794 2.329-2.665a3 3 0 0 1 2.193-.86 2.389 2.389 0 0 1 2.214 2.214c-.063.7-.693 1.112-1.217 1.5-.965.724-1.983 1.364-2.948 2.088a9.3 9.3 0 0 0-2.4 2.864 43.1 43.1 0 0 0-3.106 6.515 8.179 8.179 0 0 0-.661 3.462 2.749 2.749 0 0 0 .262 1 .925.925 0 0 0 1.553.262c.535-.5 1.018-1.06 1.553-1.563a12.119 12.119 0 0 1 2.109-1.857c1.458-.829 2.654-1.007 3.8-.063a1.477 1.477 0 0 1 .5 1.941 4.559 4.559 0 0 1-2.9 2.759 24.515 24.515 0 0 0-2.875 1.154 4.894 4.894 0 0 0-1.532 1.511q-1.936 2.786-3.735 5.665a8.052 8.052 0 0 0-1.165 5.015c.252 3.252 2.581 4.669 5.54 4.438a8.585 8.585 0 0 0 2.833-.588c.755-.346 1.563-.283 2.277-.64.776-.388 1.595-.7 2.371-1.091a44.524 44.524 0 0 0 2.193-1.207c1.91-1.1 3.84-2.182 5.718-3.326 1.007-.608 1.92-1.364 2.906-2.025.354-.273.794-.587 1.288-.084zm43.795-29.26c.944-.2 1.888-.43 2.833-.6a26.587 26.587 0 0 1 3.714-.525 5.566 5.566 0 0 1 4.26 1.679 2.286 2.286 0 0 1 .682 1.574 6.824 6.824 0 0 1-.818 3.934c-.766 1.322-1.5 2.675-2.34 3.955-.85 1.311-1.784 2.56-2.738 3.808a4.206 4.206 0 0 1-1.112.892 1.376 1.376 0 0 1-1.574-.084.826.826 0 0 0-1.039.073c-1.217.871-2.434 1.742-3.714 2.518-1.479.9-2.319.661-3.273-.808a3.733 3.733 0 0 1-.21-.472c1.721-1.112 3.441-2.235 5.235-3.4-.63-.546-1.521-.892-1.553-1.962-.766.22-1.427.713-2.151.262a3.9 3.9 0 0 1-1.605-1.658 83.15 83.15 0 0 1 1.783-1.007c.64-.346 1.49-.535 1.888-1.07.357-.472.252-1.311.325-1.993.052-.441.084-.871.136-1.448a9.809 9.809 0 0 0-3.682 2.361c-.693.713-.755.755-1.584.252-.524-.325-1-.734-1.563-1.165-.073.136-.231.283-.252.462a22.624 22.624 0 0 0-.241 2.906 19.959 19.959 0 0 0 .63 4.983c.189.661.409 1.322.629 1.983.147.441.325.881-.231 1.238a3.962 3.962 0 0 1-2.675-2.518 17.132 17.132 0 0 1-1.123-6.138 27.587 27.587 0 0 1 .252-4.05c.1-.892.609-1.228 1.469-.766a7.933 7.933 0 0 1 .881.577c.273.2.535.43.829.671a14.962 14.962 0 0 1 4.889-3.137c-.409-.273-.787-.535-1.154-.787 2.518-3.168 4.984-6.274 7.47-9.369.115-.147.357-.21.63-.367a17.346 17.346 0 0 1 1.689 1.112c.567.451.525.86.042 1.416-1.144 1.343-2.245 2.728-3.4 4.06-.661.755-1.4 1.448-2.1 2.172l-.252.283a1.411 1.411 0 0 1 .118.153zm8.907 1.123a19.905 19.905 0 0 0-9.086 2.077 2.067 2.067 0 0 1 1.658 2.833 11.843 11.843 0 0 1 1.269 1.07c.577.661.451.944-.336 1.29-.357.157-.881.409-.944.7a20.635 20.635 0 0 0-.283 2.654l1.658 1c.042-.031.157-.073.21-.157 1.049-1.479 2.119-2.938 3.127-4.448.5-.745.86-1.584 1.333-2.35a12.678 12.678 0 0 0 1.387-4.67zM40.166 27.413a17.1 17.1 0 0 0-2.749.021 47.631 47.631 0 0 0-5.3 1.154c-1.826.535-3.609 1.238-5.393 1.92q-2.046.787-4.029 1.731c-1.3.619-2.56 1.353-3.829 2.025-.986.525-1.993.986-2.959 1.553a117.844 117.844 0 0 0-4.553 2.843c-1.416.934-2.822 1.888-4.186 2.906-1.06.787-2.046 1.668-3.043 2.539-.65.556-.976.619-1.637.115-.546-.42-1.07-.871-1.721-1.4.766-.7 1.406-1.385 2.14-1.93a107.132 107.132 0 0 1 10.943-7.092 115.417 115.417 0 0 1 10.408-5.141 47.879 47.879 0 0 1 8.991-3 16.845 16.845 0 0 1 5.372-.535 5.354 5.354 0 0 1 4.2 2.78 3.427 3.427 0 0 1-.021 2.654c-.2.692-.514 1.353-.766 2.025a29.637 29.637 0 0 1-3.268 5.932c-1.123 1.71-2.235 3.441-3.452 5.078-1.144 1.542-2.392 2.99-3.63 4.459a76.283 76.283 0 0 1-2.9 3.284c-.923.986-1.92 1.909-2.885 2.875a1.966 1.966 0 0 1-2.319.388 12.694 12.694 0 0 1-1.207-.671c.231-.294.409-.577.629-.808.955-1.007 1.868-2.077 2.917-2.99a33.493 33.493 0 0 0 2.56-2.917 33.123 33.123 0 0 0 2.633-2.938 229.011 229.011 0 0 0 5.665-8.141c.839-1.27 1.479-2.675 2.2-4.029a10.865 10.865 0 0 0 1.189-4.69zm199.514-.409c.766-.65 1.479-1.249 2.193-1.857.052-.042.115-.073.168-.115a33.919 33.919 0 0 1 6.347-3.756 3.689 3.689 0 0 0 .441-.252 23.288 23.288 0 0 1 5.55-2.077 11.936 11.936 0 0 1 2.791-.325 5.365 5.365 0 0 1 4.134 1.92 3.151 3.151 0 0 1 .336 3 9.217 9.217 0 0 1-2.109 3.431 50.065 50.065 0 0 1-3.273 3.515 29.728 29.728 0 0 1-2.4 1.846 2.872 2.872 0 0 1-2.885.168 4.177 4.177 0 0 1-1.091-.619.663.663 0 0 1-.241-.514.573.573 0 0 1 .44-.346c2.1.094 3.378-1.343 4.679-2.6a43.356 43.356 0 0 0 3.126-3.651 6.974 6.974 0 0 0 1.217-3.4c.1-.546-.158-.776-.84-.755a12.345 12.345 0 0 0-3.8.608 33.024 33.024 0 0 0-7.375 3.441 49.968 49.968 0 0 0-5.309 3.693c-.619.535-.672.745-.084 1.353 1.542 1.595 3.084 3.21 4.679 4.753 1.374 1.322 2.9 2.507 4.26 3.85 1.889 1.857 3.683 3.808 5.5 5.728a4.03 4.03 0 0 1 .713 1.144c.252.588-.063.986-.692.892a2.044 2.044 0 0 1-1.269-.65c-1.458-1.595-2.917-3.2-4.448-4.721-1.626-1.626-3.357-3.147-5.015-4.742-1.784-1.71-3.525-3.462-5.288-5.193-.189-.189-.409-.346-.6-.514a21.566 21.566 0 0 0-4.218 4.249 26.152 26.152 0 0 1-2.256 2.455 4.435 4.435 0 0 0-.619.839c-.493.871-.955 1.773-1.437 2.644a.89.89 0 0 1-1.165.409 8.189 8.189 0 0 1-1.427-.86.8.8 0 0 1-.22-1.269c1.28-1.689 2.56-3.378 3.923-4.994a40.91 40.91 0 0 1 2.99-3.043c.8-.776 1.637-1.5 2.455-2.245a3.424 3.424 0 0 0 .262-.3c-.735-1.458-1.469-2.833-2.12-4.239a6.254 6.254 0 0 1-.44-1.7c-.074-.5.3-.776.8-.63a3.887 3.887 0 0 1 1.249.525 2.3 2.3 0 0 1 .84 1.123 11.2 11.2 0 0 0 1.528 3.781zm140.01-3.946c.735 1.018.7 1.154-.01 2.109a13.029 13.029 0 0 1-2.979 2.7 64.891 64.891 0 0 1-5.9 3.735c-1.049.609-2.172 1.1-3.263 1.626-.472.231-.955.42-1.427.629a19.174 19.174 0 0 1-3.336 1.416c-1.542.357-3.021 1.07-4.658.913a16.284 16.284 0 0 1-3.305-.42 7.029 7.029 0 0 1-5.192-5.481 14.5 14.5 0 0 1 .577-7.617 36.6 36.6 0 0 1 3.672-7.575 6.538 6.538 0 0 0 .378-.892c-.63-.451-1.186-.808-1.7-1.228a10.957 10.957 0 0 1-3.557-5.036c-.472-1.343-.5-2.738-.913-4.071a2.718 2.718 0 0 1 .126-1.06 2.789 2.789 0 0 1 1.941.692 1.394 1.394 0 0 1 .367.913c.147 1 .147 2.025.378 3a11.864 11.864 0 0 0 2.035 4.207 4.29 4.29 0 0 0 1.8 1.207c.409.2.692-.042.9-.315.325-.409.588-.871.9-1.29a24.549 24.549 0 0 1 4.144-4.522c2.015-1.647 5.183-.252 5.834 1.857a1.462 1.462 0 0 1-.336 1.542 13.263 13.263 0 0 1-2.245 1.867 14.363 14.363 0 0 1-3.924 2.308c-.661.189-1.333.378-2.014.5a1.475 1.475 0 0 0-1.133.64c-.7 1.123-1.469 2.2-2.13 3.347a24.1 24.1 0 0 0-2.413 5.54 12.569 12.569 0 0 0-.147 7.124 4.16 4.16 0 0 0 3.819 3.085 12.616 12.616 0 0 0 5.329-.871 46.989 46.989 0 0 0 8.352-3.84 90.149 90.149 0 0 0 6.882-4.364c1.071-.738 1.815-1.871 3.148-2.375zm-19.64-11.751a8.89 8.89 0 0 0 3.232-2.245c.23-.252.6-.514.314-1.133a9.783 9.783 0 0 0-3.546 3.379zM56.161 62.182a8.219 8.219 0 0 0 1.773-4.532 50.68 50.68 0 0 0 .367-6.421 9.77 9.77 0 0 0-.892-4.889c-.315-.535.063-.965.682-.871a.621.621 0 0 1 .2.052c.262.1.514.21.944.388.724-.451 1.584-.9 2.35-1.479a41.62 41.62 0 0 0 6.861-6.861 13.246 13.246 0 0 0 1.364-2.34 2.982 2.982 0 0 0 .157-.808 11.557 11.557 0 0 0-4.343.147 22.259 22.259 0 0 0-7.061 2.759 49.288 49.288 0 0 0-6.526 4.144c-.189.147-.409.262-.608.409a.95.95 0 0 1-1.332-.031c-.5-.577-1.322-.892-1.605-1.815 1.311-.818 2.591-1.658 3.913-2.413 2.088-1.186 4.165-2.392 6.326-3.441a15.332 15.332 0 0 1 5.351-1.637.963.963 0 0 0 .294-.094 7.84 7.84 0 0 1 4.333-.336 5.573 5.573 0 0 1 4.008 2.392 1.79 1.79 0 0 1 .115 1.847 15.333 15.333 0 0 1-3.966 5.1c-1.269 1.238-2.539 2.476-3.787 3.735a10.832 10.832 0 0 1-3.5 2.56c-.745.3-.766.4-.65 1.2a29.919 29.919 0 0 1-.734 11.006 6.819 6.819 0 0 1-.955 1.941c-.409.64-1.175.692-1.847.881a1.143 1.143 0 0 1-1.232-.593zm125.48-30.506a2.763 2.763 0 0 0 1.332-1.018c1.27-1.4 2.56-2.77 3.829-4.165.367-.409.651-.892 1.007-1.322a12.541 12.541 0 0 1 1.133-1.227 2.821 2.821 0 0 1 .8-.388 1.491 1.491 0 0 1 .084.273c.22 2.151-.094 2.235-1.049 3.693a26.879 26.879 0 0 1-1.763 2.193c-.063.084-.189.115-.241.2a24.4 24.4 0 0 1-3.064 3.892c-.64.713-1.049 1.637-1.626 2.413a49.125 49.125 0 0 0-4.134 6.379.891.891 0 0 1-1.217.441c-.672-.462-1.553-.692-1.92-1.647.713-1.028 1.458-2.109 2.214-3.168.241-.346.514-.661.787-.986a3.458 3.458 0 0 0 1.07-2.906 27.328 27.328 0 0 1 .126-4.134c.021-1.028-.032-2.056-.032-3.085-.01-1.248 0-2.5 0-3.9a7.942 7.942 0 0 0-2.151 1.3c-1.143.86-2.234 1.784-3.326 2.7-.336.283-.672.43-1.039.168-.65-.451-1.27-.934-1.993-1.479 2.413-2.759 5.624-4.207 8.614-6.18-.084-.745-.147-1.542-.252-2.329-.115-.9.21-1.207 1.049-.85s1.784.692 1.972 1.836c.85-.388 1.637-.755 2.434-1.1a2.569 2.569 0 0 1 2.875 1.259c.1.315-.021.525-.346.65-.745.294-1.5.577-2.224.913-.692.315-1.354.713-2.046 1.049a.986.986 0 0 0-.577 1.007c-.074 2.9-.157 5.781-.252 8.677-.011.219-.047.46-.074.841zm-64.208-8.208c.913 2-.283 3.326-1.574 4.6-.86.85-1.742 1.679-2.612 2.518a6.113 6.113 0 0 1-.472.42c-1.542 1.3-3.137 2.549-4.606 3.924-2.266 2.14-4.774 4-7.124 6.043-1.28 1.112-2.529 2.266-3.787 3.4-1.427 1.27-2.833 2.56-4.291 3.787a25.956 25.956 0 0 1-3.871 2.969 1.345 1.345 0 0 1-1.721-.063 8.6 8.6 0 0 1-1.353-1.259 1.1 1.1 0 0 1-.1-.955c.136-.283.525-.336.923-.294a1.7 1.7 0 0 0 1.144-.315c.986-.755 1.92-1.605 2.875-2.4.262-.22.546-.43.829-.629a15.377 15.377 0 0 0 1.28-.881c2.287-1.983 4.564-3.987 6.84-5.98a1.006 1.006 0 0 1 .241-.189 6.458 6.458 0 0 0 1.8-1.437c.871-.839 1.868-1.553 2.8-2.329 1.385-1.144 2.8-2.256 4.165-3.441 2.256-1.962 4.469-3.976 6.7-5.949.592-.533 1.232-.994 1.914-1.54zM213 30.372a13.6 13.6 0 0 0-4.858 3.231 5.627 5.627 0 0 0-.619.965c-.388.588-.64.7-1.312.525a2.62 2.62 0 0 1-1.752-1.427c.755-1.626 2.2-2.57 3.578-3.557a21.486 21.486 0 0 1 2.969-1.731 3.212 3.212 0 0 1 4.711 2.371 23.965 23.965 0 0 1 .336 4.889c-.178 3.231-.556 6.442-.86 9.663-.168 1.731-.325 3.462-.525 5.193-.115 1.007-.629 1.269-1.595.871-1.091-.441-1.332-.881-1.2-2.109.21-1.836.378-3.672.619-5.5.115-.871.4-1.721.535-2.591a20.231 20.231 0 0 0 .22-2.392c.074-1.742.126-3.483.147-5.225a11.3 11.3 0 0 0-.394-3.176zm-9.746 24.34a2.3 2.3 0 0 1-3.011-2.465 41.919 41.919 0 0 0 .1-4.438c.042-1.353.063-2.707.073-4.06.021-2.654.042-5.3.021-7.953-.01-.65-.2-1.3-.262-1.962-.084-.776.294-1.1 1.06-.881 1.595.451 1.91.9 1.857 2.382-.084 2.266.042 4.532.021 6.8-.01 2.34-.136 4.669-.126 7.008.01 1.532.178 3.053.273 4.574.004.345-.006.681-.006.995zm132.96-27.561c.735 1.406.493 1.836-.619 3.022a27.052 27.052 0 0 1-2.749 2.224 40.835 40.835 0 0 1-5.361 3.389 26.124 26.124 0 0 1-3.662 1.763 8.1 8.1 0 0 1-9.253-2.5 9.622 9.622 0 0 1-1.07-1.542 1.093 1.093 0 0 1 .325-1.595 2.5 2.5 0 0 1 2.34 1.721 4.327 4.327 0 0 0 .693 1.154 3.787 3.787 0 0 0 4.207 1.332 23.962 23.962 0 0 0 6.767-3.189c1.531-.892 2.99-1.9 4.438-2.917 1.112-.776 2.151-1.647 3.231-2.465.199-.135.44-.24.713-.397z"/><path d="M212.235 39.982c-1.248.692-2.434 1.332-3.6 1.993a9.27 9.27 0 0 0-.913.671 2.183 2.183 0 0 1-3.294-.713 6.01 6.01 0 0 1 2.056-1.521c1.039-.619 2.13-1.175 3.221-1.7 1.481-.724 2.246-.315 2.53 1.27zm114.306-26.963c-.535-.147-.945-.252-1.343-.367a19.249 19.249 0 0 0-6.421-.7 2.716 2.716 0 0 1-2.35-1.269c-.273-.357-.094-.661.378-.713a7.212 7.212 0 0 1 1.259-.021c1.7.126 3.41.22 5.109.441a7.164 7.164 0 0 1 3.641 1.721.734.734 0 0 1 .2.619c-.054.152-.358.226-.473.289zM203.705 51.89c.357-.22.651-.546.923-.535a3.665 3.665 0 0 0 1.92-.714c1.091-.619 2.151-1.269 3.231-1.9.231-.136.493-.241.745-.367.734.5.587 1.206.556 1.993-.944.734-1.9 1.521-2.9 2.245a3.829 3.829 0 0 1-2.413.787 2.134 2.134 0 0 1-2.062-1.509zM91.791 31.71c-1.133.42-1.679-.378-2.34-.839a22.241 22.241 0 0 0-2.6-1.9 8.489 8.489 0 0 1-2.193-1.532c-.262-.262-.472-.577-.724-.881a1.048 1.048 0 0 1 1.343-.294 13.777 13.777 0 0 1 4.856 3.346c.388.4.8.787 1.144 1.217a5.528 5.528 0 0 1 .514.883zM202.428 8.129a2.375 2.375 0 0 1-2.34-1.144c-.6-1.4-1.081-2.854-1.605-4.281a1.328 1.328 0 0 1-.052-.409c0-.462.231-.682.64-.483.965.451 1.9.913 2.14 2.161.231 1.144.671 2.256 1.007 3.378a4.991 4.991 0 0 1 .21.778zm49.129 7.963a3.378 3.378 0 0 1-1.029-.325 163.874 163.874 0 0 1-4.312-3.41c-.241-.2-.441-.546-.157-.818a.847.847 0 0 1 .734-.084 7.9 7.9 0 0 1 1.658.829 9.681 9.681 0 0 1 2.906 2.633 1.143 1.143 0 0 1 .2 1.175z"/></g></svg>
