<svg xmlns="http://www.w3.org/2000/svg" viewBox="0 0 369.912 61.875"><path d="M28.005 37.771c-.12 1.364-.2 2.706-.349 4.026-.164 1.364-.426 2.706-.611 4.07-.175 1.277-.24 2.586-.48 3.852-.349 1.768-.753 3.524-1.266 5.248-.491 1.659-1.135 3.273-1.735 4.9-.109.306-.306.567-.436.873a.96.96 0 0 1-1.026.633c-.709-.022-1.419-.044-2.281-.065.2-.524.327-.895.458-1.255.731-1.964 1.549-3.906 2.171-5.9a32.805 32.805 0 0 0 .84-4.245c.349-2.062.7-4.125.982-6.2.12-.884.087-1.8.131-2.7.076-1.375.24-2.75.207-4.125a33.378 33.378 0 0 0-.426-3.426 6.825 6.825 0 0 1 0-.818c1.953-.186 3.306.186 3.666 2.848a4.8 4.8 0 0 0 .8-.524c2.881-2.8 5.794-5.587 8.609-8.456a52.994 52.994 0 0 0 3.721-4.386c.666-.851 1.178-1.811 1.768-2.717a35.92 35.92 0 0 1 1.157-1.713 8.691 8.691 0 0 0 1.2-2.935C29.414 17.997 15.72 25.013 3.139 34.648c-.338-.153-.786-.382-1.255-.567-.426-.164-.884-.262-1.353-.4a1.371 1.371 0 0 1 .731-1.222c.993-.589 1.888-1.331 2.848-1.975 1.571-1.048 3.153-2.106 4.768-3.1 2.281-1.4 4.572-2.782 6.9-4.081a94.558 94.558 0 0 1 5.925-3.044 106.428 106.428 0 0 1 10.355-4.19 74.3 74.3 0 0 1 8.751-2.553 10.058 10.058 0 0 1 4.07-.4 6.148 6.148 0 0 1 2.892 1.408 1.427 1.427 0 0 1 .436 1.037 5.794 5.794 0 0 1-.491 1.746 10.317 10.317 0 0 1-2.03 3.3 8.928 8.928 0 0 0-1.386 2 15 15 0 0 1-1.87 2.376 190.39 190.39 0 0 1-3.983 4.43c-.687.742-1.462 1.408-2.215 2.1q-2.259 2.079-4.528 4.146a15.664 15.664 0 0 1-2 1.626 8.447 8.447 0 0 1-1.699.486zm255.954-.938a2.642 2.642 0 0 1-2.455-.644 14.052 14.052 0 0 0-1.266-.993c-.752.884-1.429 1.735-2.16 2.521a5.162 5.162 0 0 1-2.531 1.8 5.481 5.481 0 0 1-6.045-2.761 2.942 2.942 0 0 1 1.4-3.71 12.533 12.533 0 0 1 7.147-.851c.175.022.36.065.535.1a.6.6 0 0 0 .185-.011 12.187 12.187 0 0 0 1.942-3.012 38.456 38.456 0 0 0 1.855-5.085 6.492 6.492 0 0 0-.24-4.354c-.262-.786-.513-.927-1.4-.895a12.471 12.471 0 0 0-4.125.938 58.128 58.128 0 0 0-8.675 4.266 16.983 16.983 0 0 0-5.423 4.626c-.917 1.342-2.008 2.575-3.033 3.841-.8.982-1.615 1.942-2.444 2.892a.914.914 0 0 1-.622.349c-.851-.1-1.778-.109-2.226-1.124a17.91 17.91 0 0 1 4.626-6.732 20.48 20.48 0 0 1 1.713-1.517 11.116 11.116 0 0 0 2.575-3.186c1.637-2.6 3.23-5.238 4.659-7.954 1.364-2.6 2.553-5.292 3.732-7.976a19.7 19.7 0 0 0 .851-3c.022-.087-.055-.2-.1-.36a13.8 13.8 0 0 0-5.456 3.263 2.84 2.84 0 0 1-.633.578 1.022 1.022 0 0 1-.8.055c-.622-.327-1.2-.753-1.8-1.146a4.661 4.661 0 0 1 1.56-1.91c2.248-1.931 5.019-2.87 7.66-4.037a2.761 2.761 0 0 1 3.176.742 1.485 1.485 0 0 1 .207 1.1 15.485 15.485 0 0 1-.829 2.924c-1.3 2.99-2.619 5.98-4.07 8.9-1.058 2.128-2.335 4.135-3.5 6.2a7.542 7.542 0 0 0-.349 1c1.124-.589 2.019-1.048 2.9-1.506a32.969 32.969 0 0 1 6.983-2.717 7.635 7.635 0 0 1 6.525 1.255 2.447 2.447 0 0 1 .84 1.091 8.551 8.551 0 0 1 .371 5.019 23.9 23.9 0 0 1-1.669 4.332c-.535 1.255-1.277 2.433-1.931 3.634-.393.72-.371.917.284 1.462.556.458 1.135.906 1.68 1.386.343.301.67.617.376 1.207zm-6.274-3.121a8.744 8.744 0 0 0-5.1.873 1.93 1.93 0 0 0-.142 3.219 1.411 1.411 0 0 0 .895.262 2.5 2.5 0 0 0 1.222-.4 12.2 12.2 0 0 0 3.186-3.655 1.358 1.358 0 0 0-.062-.299zm-45.282 11.064a5.35 5.35 0 0 0 1.877-2.892c.7-2.477 1.4-4.954 2.052-7.442a16.5 16.5 0 0 0 .273-2.193 11.1 11.1 0 0 1-1.582-.295 9.475 9.475 0 0 1-1.855-.84 6.077 6.077 0 0 1-2.728-3.874 11.677 11.677 0 0 1 .066-5.914 6.524 6.524 0 0 1 3.044-4.2 2.1 2.1 0 0 1 1.964-.306 3.618 3.618 0 0 0 .884.142c.054-1.888.12-3.688.175-5.619a6.71 6.71 0 0 0-.917.284c-1.506.764-3.055 1.473-4.5 2.357a125.493 125.493 0 0 0-6.438 4.212c-1.211.851-2.335 1.844-3.459 2.8a.906.906 0 0 1-1.091.175c-.611-.295-1.211-.633-1.778-.927a.9.9 0 0 1 .447-1.058c1.495-1.091 2.924-2.281 4.463-3.3 2.2-1.451 4.463-2.837 6.765-4.135 1.768-.993 3.612-1.844 5.467-2.673a1.5 1.5 0 0 0 1.058-1.746c-.12-1.015-.153-2.03-.2-3.044-.033-.709.142-.851.818-.775a3.1 3.1 0 0 1 .535.109c1.517.4 1.506.4 1.615 1.975.033.491.076.993.12 1.6 1.1-.458 2.073-.862 3.033-1.266 1.244-.513 2.466-1.058 3.721-1.539a2.536 2.536 0 0 1 2.946.742.472.472 0 0 1-.207.8c-.426.2-.873.349-1.32.513-.469.175-.949.349-1.408.546-1.462.611-2.935 1.244-4.4 1.855a2.675 2.675 0 0 1-.316.087c-1.724.611-1.932.895-1.975 2.717-.055 2.39-.12 4.79-.142 7.18a4.905 4.905 0 0 0 .24 1.484 12.981 12.981 0 0 1 .764 4.594 53.606 53.606 0 0 1-.611 6.591c-.491 2.826-1.353 5.554-2 8.336a24.723 24.723 0 0 1-1.55 4.277 1.676 1.676 0 0 1-1.953 1.189 2.546 2.546 0 0 0-.753.065 1.068 1.068 0 0 1-1.144-.592zm3.274-25.969c-3.568 2.062-3.59 9.133-.949 11.152a18.488 18.488 0 0 0 1.08-2.739 23.474 23.474 0 0 0 .6-5.718c-.005-.938.139-1.92-.733-2.695zm132.965.033a2.133 2.133 0 0 1 .426 2.75 13.321 13.321 0 0 1-2.8 3.153 44.3 44.3 0 0 1-8.184 5.336c-2.521 1.266-5.041 2.542-7.627 3.677a19.6 19.6 0 0 1-5.521 1.6 8.011 8.011 0 0 1-6.2-1.779 6.392 6.392 0 0 1-2.27-3.721 10.8 10.8 0 0 1 1.266-7.223 67.83 67.83 0 0 1 4.048-6.951 4.075 4.075 0 0 0 .262-.589c-.338-.175-.633-.36-.949-.491a10.193 10.193 0 0 1-5.74-5.619 9.375 9.375 0 0 1-.535-2.215 22.765 22.765 0 0 1-.207-2.27 3.285 3.285 0 0 1 .142-.807 2.006 2.006 0 0 1 2.389 2.117 9.379 9.379 0 0 0 2.03 6.078 5.747 5.747 0 0 0 3.513 2.04.947.947 0 0 0 .72-.295c1.168-1.189 2.281-2.433 3.459-3.6.829-.807 1.735-1.528 2.619-2.281a1.8 1.8 0 0 1 2.04-.251 3.033 3.033 0 0 1 2.063 2.455 4.28 4.28 0 0 0 .175 1.069 1.983 1.983 0 0 1-.775 2.488c-1.768 1.484-3.655 2.684-6.089 2.411a2.993 2.993 0 0 0-3.175 1.746 3.612 3.612 0 0 1-.36.546 27.352 27.352 0 0 0-4.321 7.725 6.477 6.477 0 0 0 .611 6.427 3.325 3.325 0 0 0 2.88 1.495 15.625 15.625 0 0 0 4.572-.917 73.731 73.731 0 0 0 11.086-5.281 59.656 59.656 0 0 0 5.2-3.535 25.274 25.274 0 0 0 4.834-4.823 3.769 3.769 0 0 1 .418-.465zm-22-5.019l.153.251a4.559 4.559 0 0 0 .862-.229 61.666 61.666 0 0 0 3-1.669 1.35 1.35 0 0 0 .677-1.484c-.033-.2-.153-.491-.284-.524a.9.9 0 0 0-.655.175c-.589.469-1.178.949-1.724 1.473-.695.643-1.35 1.33-2.026 2.007zM63.599 30.002c-1.342-.709-2.2.087-3.023.633a39.838 39.838 0 0 0-4.114 3.186 1.367 1.367 0 0 1-1.637.371c-.284-.12-.589-.2-1.08-.36a8.442 8.442 0 0 0 1.015 2.182c.84 1.135 1.68 2.27 2.488 3.437a5.532 5.532 0 0 1 .469 1.124c-1.451.12-2.641-.044-3.5-1.091a23.36 23.36 0 0 1-3.612-5.554c-.109-.262-.185-.535-.273-.8a1.288 1.288 0 0 1 1.615-.327 1.545 1.545 0 0 0 1.811-.524 20.514 20.514 0 0 1 4.867-3.612c.6-.338 1.168-.709 1.8-1.1a13.07 13.07 0 0 0-.535-3.284c-.2-.851-.426-1.691-.622-2.531-.12-.513.1-.873.6-.895a4.46 4.46 0 0 1 2.444.764c.164.1.218.436.273.677.295 1.233.567 2.466.873 3.819.5-.12.906-.218 1.309-.327a36.041 36.041 0 0 1 6.711-1.353 6 6 0 0 1 3.437.84 3.446 3.446 0 0 1 1.615 3.044 9.541 9.541 0 0 1-.186 2.488 34.062 34.062 0 0 1-2.913 8.5c-.655 1.32-1.222 2.7-1.953 3.972a37.408 37.408 0 0 1-2.139 3.11 449.598 449.598 0 0 1-3.6 5 10.721 10.721 0 0 1-1.157 1.288.905.905 0 0 1-.589.229c-.72-.011-1.44-.065-2.368-.109a14.9 14.9 0 0 1 .8-1.615c1.768-2.6 3.612-5.139 5.314-7.769a29.02 29.02 0 0 0 2.7-5.074c.382-.96.677-2 1.015-3 .426-1.244.862-2.488 1.211-3.754a12.508 12.508 0 0 0 .415-3.972 4.5 4.5 0 0 0-.12-.753.6.6 0 0 0-.807-.5 41.029 41.029 0 0 0-7.1 1.964c-.733.261-1.432.531-1.454 1.676zM87.234 11.3c1 .306 1.79.524 2.564.8.5.185.5.644.48 1.1-.087 2.324-.2 4.648-.251 6.972-.076 3.339-.12 6.678-.153 10.028a13.265 13.265 0 0 0 .153 1.473c.6-.076 1.091-.1 1.571-.2a41.376 41.376 0 0 1 8.445-.611 28.394 28.394 0 0 0 3.034-.24 1.6 1.6 0 0 1 1.855 1.037 6.715 6.715 0 0 1-2.946.764 62.554 62.554 0 0 0-8.446.72c-1.124.229-2.27.426-3.492.644.065 1.113.109 2.117.2 3.121.153 1.724.284 3.459.491 5.183.218 1.79.524 3.568.753 5.358.218 1.768.393 3.535.578 5.3.055.491-.2.742-.709.709-.284-.022-.578-.022-.862-.044-1.157-.109-1.44-.469-1.528-1.648-.2-2.379-.436-4.757-.687-7.125-.382-3.688-.982-7.354-1.146-11.053-.207-4.714-.076-9.428-.076-14.152 0-2.215 0-4.43.022-6.645a8.807 8.807 0 0 1 .15-1.491zm102.928 33.585c.131-1.593.295-3 .338-4.408.076-2.5.12-5.008.109-7.507-.011-1.92-.12-3.83-.185-5.75-.033-1.146-.022-1.146-.949-1.768-.142-.6.262-.731.742-.818 0-1.386.011-2.761 0-4.146a584.099 584.099 0 0 0-.109-6.2c-.054-2.346-.142-4.7-.164-7.049a29.562 29.562 0 0 1 .218-3.252c.066-.753.284-.873.993-.666.175.055.338.12.513.175 1.364.48 1.538.666 1.386 2.117a69.133 69.133 0 0 0-.186 9.024c.055 2.761.065 5.51.12 8.271.011.567.087 1.146.142 1.855 1.757-.229 3.437-.426 5.107-.677.851-.131 1.7-.316 2.542-.524.906-.218 1.8-.546 2.717-.742a22.932 22.932 0 0 1 3.219-.491 4.973 4.973 0 0 1 1.888.371c.84.316.873.687.371 1.288a19.08 19.08 0 0 0-2.019.218c-2.411.524-4.79 1.146-7.212 1.615-1.451.284-2.935.338-4.408.513-.709.087-1.407.2-2.172.306.066 1.877.175 3.644.2 5.412.033 2.488-.076 4.987.022 7.463.066 1.637-.251 3.241-.272 4.867-.011.982-.142 1.113-1.081.982a11.774 11.774 0 0 1-1.87-.479zm-51.938-23.656a7.351 7.351 0 0 0-3.372.535 42.219 42.219 0 0 0-8.042 3.786 37.9 37.9 0 0 0-7.3 5.794c-.022.022-.066.044-.076.076-.982 1.549-1.473 1.4-3.448.295a3.093 3.093 0 0 1-.4-.36 4.009 4.009 0 0 1 .491-.786 34.662 34.662 0 0 1 7.311-5.969c1.615-.96 3.208-1.964 4.877-2.826 1.146-.589 2.444-.895 3.612-1.44a13.419 13.419 0 0 1 3.874-.993 6.2 6.2 0 0 1 4.637 1.048 2.926 2.926 0 0 1 1.1 3.143 19.526 19.526 0 0 1-1.058 3.721 29.1 29.1 0 0 1-1.462 3.132c-.568 1.124-1.222 2.193-1.757 3.328a18.952 18.952 0 0 1-2.444 3.754c-.589.72-1.08 1.528-1.669 2.248a28.168 28.168 0 0 1-2.008 2.27 2.9 2.9 0 0 1-3.983.273 2.072 2.072 0 0 1 .305-.6 34.081 34.081 0 0 0 6.067-7.223c.458-.731.917-1.473 1.32-2.248a45.188 45.188 0 0 0 3.35-8.129 6.656 6.656 0 0 0 .075-2.829zm14.928-10.682a10.754 10.754 0 0 1 3.557.96 2.634 2.634 0 0 1 1.528 3.033 18.351 18.351 0 0 1-2.346 6.591 14.608 14.608 0 0 1-2.03 2.881 2.7 2.7 0 0 1-1.931.851c-2.728.022-5.423-1.691-4.976-5.281a29.892 29.892 0 0 1 1.561-6.187 7.719 7.719 0 0 1 1.047-1.746 1.522 1.522 0 0 1 1.266-.7c.783-.053 1.547-.271 2.324-.402zm-2.739 12.483a5.565 5.565 0 0 0 2.019-2.008 20.066 20.066 0 0 0 2.662-6.154 5.867 5.867 0 0 0 .186-1.506c0-.687-.273-.906-.949-.851a1.791 1.791 0 0 0-.709.218c-1.3.709-2.422 1.56-2.608 3.186a8.561 8.561 0 0 1-.327 1.146 14.248 14.248 0 0 0-.731 4.485c.03.513-.025 1.08.455 1.484zm15.7 22.772c.688-.971 1.189-1.713 1.724-2.433a41.062 41.062 0 0 0 5.8-10.7c.742-2.03 1.178-4.168 1.811-6.241a11.36 11.36 0 0 0 .6-3.514.732.732 0 0 1 .949-.753 8.04 8.04 0 0 1 1.942.895 1.121 1.121 0 0 1 .283.851 20.472 20.472 0 0 1-1.135 4.965c-.218.72-.469 1.44-.666 2.171a43.888 43.888 0 0 1-3.481 8.293 38.81 38.81 0 0 1-4.528 6.329.868.868 0 0 1-.938.36c-.68-.136-1.379-.136-2.361-.223zM303.839 30.92a2.881 2.881 0 0 1 2.673.677 5.977 5.977 0 0 0 5.118 1.844 26.37 26.37 0 0 0 11.839-3.644 15.806 15.806 0 0 1 1.626-.775c.633 1.189.578 1.178-.305 1.975-2.673 2.4-5.958 3.273-9.351 3.939a13.221 13.221 0 0 1-6.46-.218 11.557 11.557 0 0 1-4.615-2.772 3.655 3.655 0 0 1-.415-.5 2.4 2.4 0 0 1-.11-.526zm15.45-21.18a6.951 6.951 0 0 1-2.891.349c-1.451-.022-2.9-.175-4.343-.087a10.765 10.765 0 0 0-3.165.655 2.328 2.328 0 0 1-2.52-.633c-.2-.153-.36-.338-.6-.567.153-.175.261-.382.414-.447a12.373 12.373 0 0 1 5.729-.927 38.828 38.828 0 0 0 3.906.087 4.3 4.3 0 0 1 3.47 1.57zM155.933 28.856c1.287.109 2.411.295 3.175 1.517a9.653 9.653 0 0 0 3.012 3.077 5.912 5.912 0 0 1 .927.895 1.974 1.974 0 0 1-2.073.055 7.121 7.121 0 0 1-2.117-1.277 27.581 27.581 0 0 1-2.521-2.531 1.531 1.531 0 0 1-.403-1.736zm13.46 2.368c-.327.109-.556.273-.764.251a4.962 4.962 0 0 1-3.088-1.4c-.677-.7-1.277-1.462-1.953-2.248.24-.186.426-.447.622-.458a3.606 3.606 0 0 1 2.608.84 30.3 30.3 0 0 1 2.237 2.477c.081.102.147.233.338.538zM39.55 32.293l.775.164-.033.2c-.262-.044-.535-.1-.8-.142a1.594 1.594 0 0 1 .058-.222z" fill="#1f7acc" stroke="#1f7acc"/></svg>
