<svg xmlns="http://www.w3.org/2000/svg" viewBox="0 0 209.4 67.107"><path d="M14.811 10.194a13.962 13.962 0 0 1-1.161-1.317c-.531-.772-.425-1.126.262-1.8a25.787 25.787 0 0 1 8.568-5.353 13.078 13.078 0 0 1 2.613-.658c2.634-.439 4.362 1.048 5.877 2.9a6.18 6.18 0 0 1 .906 6.479 31.565 31.565 0 0 1-4.064 7.293c-1.289 1.891-2.648 3.724-4.022 5.664 4.956 1.034 8.4 4.248 11.485 7.916a15.571 15.571 0 0 1 3.31 12.818 31.6 31.6 0 0 1-4.3 11.109 21.73 21.73 0 0 1-6.535 7.081 22.842 22.842 0 0 1-5.558 2.507 16.909 16.909 0 0 1-2.733.779 24.13 24.13 0 0 1-9.969-.064 11.881 11.881 0 0 1-5.544-2.832 10.238 10.238 0 0 1-2.733-4.383 1.82 1.82 0 0 1 .4-2.082c.425.538.843 1 1.168 1.508.673 1.048 1.267 2.124 1.954 3.179.991 1.515 2.761 1.869 4.206 2.7a.928.928 0 0 0 .446.057c1.544.035 3.08.078 4.624.1a21.879 21.879 0 0 0 12.745-4.149 19.636 19.636 0 0 0 3.611-3.731c1.8-2.124 2.754-4.709 3.93-7.18a21.461 21.461 0 0 0 1.912-8.072 13.432 13.432 0 0 0-4.553-10.678 12.8 12.8 0 0 0-6.55-3.689 6.316 6.316 0 0 0-5.4 1.6c-1.933 1.586-3.739 3.321-5.608 4.956a5.764 5.764 0 0 1-.963.708c-1.239.708-1.664.609-2.45-.368a1.883 1.883 0 0 1 .092-2.832 21.277 21.277 0 0 1 5.353-4.3 14.062 14.062 0 0 0 4.85-4.333 101.961 101.961 0 0 0 6.486-9.424 20.18 20.18 0 0 0 2.349-5.29c.538-2.195-.984-3.257-2.754-3.207a11.5 11.5 0 0 0-5.41 1.621c-2.209 1.267-4.489 2.443-6.2 4.418a2.974 2.974 0 0 1-.64.349zm102.52 27.512a14.164 14.164 0 0 1-.283 2.372 29.349 29.349 0 0 1-6.259 11.286c-1.487 1.629-3.137 3.236-5.523 3.646a4.022 4.022 0 0 1-4.043-1.876 6.791 6.791 0 0 1-.389-5.2 14.366 14.366 0 0 1 5.714-8.192 24.315 24.315 0 0 1 8.256-4.149 17.241 17.241 0 0 1 3.668-.538 5.565 5.565 0 0 1 4.036 1.367 28.321 28.321 0 0 1 2.96 3.165 3.477 3.477 0 0 1 .708 1.791 13.644 13.644 0 0 1-1.062 7.144 25.427 25.427 0 0 1-5.077 7.35 27.946 27.946 0 0 1-3.038 2.422 4.829 4.829 0 0 1-4.248.828 8.986 8.986 0 0 1-1.65-.864 20.272 20.272 0 0 0 6.1-3.639 16 16 0 0 0 1.494-1.416 21.05 21.05 0 0 0 4.956-9.58 5.516 5.516 0 0 0-.248-3.377 3.859 3.859 0 0 0-3.208-2.591 5.572 5.572 0 0 0-2.868.057zm-3.165 1.112a20.81 20.81 0 0 0-8.107 5.275 10.755 10.755 0 0 0-3.045 7.13 4.411 4.411 0 0 0 0 .751c.078.609.4.913 1.027.708a8.945 8.945 0 0 0 .963-.411 8.5 8.5 0 0 0 3.5-3.144c1.09-1.728 2.422-3.3 3.469-5.041a18.077 18.077 0 0 0 2.193-5.268zm69.078 3.286a10.352 10.352 0 0 1-2.407-10.536c1.076-.29 1.466.489 2.018.928s.531 1.083.361 1.855a7.487 7.487 0 0 0 1.416 6.833 24.267 24.267 0 0 1 2.457-1.494 25.49 25.49 0 0 1 4.4-1.806 5.487 5.487 0 0 1 5.735 1.671c.977 1.076 1.005 1.791-.227 2.577-2.924 1.876-6.089 3.059-9.637 2.259a2.379 2.379 0 0 0-2.315.489 18.65 18.65 0 0 0-6.245 10.154c-.474 2.025 1.119 3.774 3.54 4.149a23.557 23.557 0 0 0 7.017-.212 44.919 44.919 0 0 0 11.8-3.724c2.414-1.062 4.794-2.2 7.173-3.3.255 1.225.227 1.317-.659 2.252a14.041 14.041 0 0 1-4.248 2.733 48.347 48.347 0 0 1-10.387 3.767 23.445 23.445 0 0 1-10.394.5 9.913 9.913 0 0 1-5.459-3.243 5.653 5.653 0 0 1-.786-5.664 22.473 22.473 0 0 1 6.174-9.389c.184-.17.361-.347.538-.524.064-.049.064-.105.135-.275zm6.372-.29a6.214 6.214 0 0 0 4.333-1.572 7.47 7.47 0 0 0-4.355 1.572zM57.407 48.455c-1.7-.574-2.124-1.133-2.124-2.754a30.921 30.921 0 0 1 8.383-4.808c3.4-1.289 6.8-2.627 10.3-3.583a17.408 17.408 0 0 1 7.957-.784 11 11 0 0 1 8.256 6.472 4.726 4.726 0 0 1-.439 4.454 22.808 22.808 0 0 1-2.457 3.54 45.316 45.316 0 0 1-7.711 7.081c-1.968 1.416-3.908 2.889-5.884 4.3a4.864 4.864 0 0 1-5.105.666l4.68-3.342a60.318 60.318 0 0 0 7.463-5.948 48.855 48.855 0 0 0 4.772-5.148 19.74 19.74 0 0 0 2.308-4.631 2.565 2.565 0 0 0-1.239-3.193c-2.9-1.99-6.047-2.124-9.332-1.352a70.984 70.984 0 0 0-13.8 4.857 15.852 15.852 0 0 0-6.028 4.173zm105.083 3.944a1.9 1.9 0 0 1-.828 2.379 43.987 43.987 0 0 1-4.319 2.358 28.061 28.061 0 0 1-6.663 2.124 14.657 14.657 0 0 1-7.789-.581 8.036 8.036 0 0 1-3.767-3.087 4.914 4.914 0 0 1-.439-1.367 2.981 2.981 0 0 1 2.613 1.154 5.661 5.661 0 0 0 4.5 1.961 20.534 20.534 0 0 0 8.893-1.777c2.216-.9 4.425-1.834 6.634-2.747.336-.127.71-.247 1.165-.417zm-5.757-14.613a4.779 4.779 0 0 1-.977-.078 58.773 58.773 0 0 0-10.246-2 2.415 2.415 0 0 1-2.011-1.728c-.142-.651.1-.963.751-.949h.149c3.073.644 6.153 1.239 9.2 1.954a9.743 9.743 0 0 1 2.407 1.147 1.374 1.374 0 0 1 .727 1.654z" fill="#1f7acc" stroke="#1f7acc" stroke-miterlimit="10" stroke-width="2"/></svg>
