<svg height="180" viewBox="0 0 248 180" width="248" xmlns="http://www.w3.org/2000/svg"><path d="m129.0151 90.157-29.2951-29.2949a19.0044 19.0044 0 0 1 26.8763-26.8763l2.4186 2.4185 2.4185-2.4185a19.0044 19.0044 0 1 1 26.8766 26.8763z" fill="#1f7acc"/><path d="m129.0152 92.6572a2.4909 2.4909 0 0 1 -1.7676-.7324l-29.2949-29.2948a21.5042 21.5042 0 1 1 30.4116-30.4116l.6509.65.6508-.65a21.5045 21.5045 0 0 1 30.4122 30.4116l-29.2955 29.2948a2.4907 2.4907 0 0 1 -1.7675.7324zm-15.857-61.7378a16.5048 16.5048 0 0 0 -11.67 28.1753l27.5274 27.5269 27.5273-27.5269a16.5048 16.5048 0 0 0 -23.3413-23.3413l-2.4185 2.4185a2.4991 2.4991 0 0 1 -3.5351 0l-2.4185-2.4185a16.398 16.398 0 0 0 -11.6713-4.834z" fill="#393c41"/><path d="m92.596 177.5-38.683-32.762 12.805-14.923 38.683 32.761z" fill="none"/><path d="m196.5061 108.1285a11.28 11.28 0 0 0 -4.7363-7.6738 14.4949 14.4949 0 0 0 -18.7891 1.6748l-17.7055 17.4526a11.8726 11.8726 0 0 0 -11.6807-9.7163h-52.876a10.57 10.57 0 0 0 -8.6582 4.9419l-10.4619 15.8638-3.2644-2.7648a2.5006 2.5006 0 0 0 -3.5132.28l-12.8056 14.9233a2.5 2.5 0 0 0 .2817 3.5356l38.6831 32.7621a2.5 2.5 0 0 0 3.5132-.28l12.8057-14.9238a2.5 2.5 0 0 0 -.2818-3.5356l-25.4179-21.527-6.1375-5.2457 10.7725-16.3356a5.68 5.68 0 0 1 4.5576-2.6943h52.8027a6.8858 6.8858 0 0 1 6.8516 7.5688 6.4185 6.4185 0 0 1 -1.0586 2.9512 2.4966 2.4966 0 0 0 -.4385.5884 7.5015 7.5015 0 0 1 -5.7578 2.6606l-12.5078-.0005a2.5 2.5 0 0 0 0 5l12.5078.0005a12.51 12.51 0 0 0 9.9614-4.9394l23.3506-23.0181a9.4776 9.4776 0 0 1 12.273-1.2178 6.3364 6.3364 0 0 1 2.7675 4.28c.2637 2.1421-.7246 4.7129-2.7832 7.2388l-29.8393 36.6162a7.93 7.93 0 0 1 -4.5474 2.7568l-31.9153-.37a2.4636 2.4636 0 0 0 -.3081-.0311h-2.3679l-2.0513-.0238.0035.0238h-2.2986a2.5 2.5 0 0 0 0 5h2.9939l.004.0294 36.1414.3745.2319.0019.2285-.0405a12.9331 12.9331 0 0 0 7.7618-4.562l29.8393-36.6162c2.9693-3.644 4.3072-7.4506 3.8692-11.0087zm-104.1901 65.8583-34.8677-29.53 9.55-11.1289 34.8677 29.53z" fill="#393c41"/></svg>
