<svg height="180" viewBox="0 0 248 180" width="248" xmlns="http://www.w3.org/2000/svg"><path d="m159.4405 123.2307c-.0539.0318-.11.0589-.1643.09.0545-.0307.1103-.0581.1643-.09z" fill="none"/><path d="m160.6432 122.4014c-.0738.058-.147.1167-.2217.1725.0747-.0559.1479-.1145.2217-.1725z" fill="none"/><path d="m223.9015 141.36a2.5 2.5 0 0 1 -2.4239 3.1132 2.5 2.5 0 0 0 2.4238-3.1132l-7.41-30.2445z" fill="none"/><path d="m157.0506 124.254c-.0721.02-.1453.0356-.2177.0543.0725-.0183.1455-.0339.2177-.0543z" fill="none"/><path d="m223.0541 120.6456c-.0655-.0782-.13-.1581-.1939-.2384.0642.0804.1284.1601.1939.2384z" fill="none"/><path d="m161.591 121.5789c-.03.0294-.0621.0552-.0924.0842.0303-.029.0623-.0548.0924-.0842z" fill="none"/><path d="m162.6415 120.4056c-.0649.0813-.13.1621-.1961.2412.0662-.0792.1311-.1598.1961-.2412z" fill="none"/><path d="m154.4 124.6246c.0327 0 .0645-.0062.0971-.0065-.1447.0014-.29-.0021-.435-.007.1126.0038.2258.0135.3379.0135z" fill="none"/><path d="m184.5743 179.6909a11.7955 11.7955 0 0 0 8.62-4.0669 11.7952 11.7952 0 0 1 -8.62 4.0669z" fill="none"/><path d="m163.4269 119.3291-.0015.0021.0016-.0021c2.041-3.1367 4.1935-6.2577 6.38-9.3446-2.187 3.0868-4.3391 6.2079-6.3801 9.3446z" fill="none"/><path d="m213.3419 169.8169c0 5.6514-5.7411 9.874-10.8739 9.874 5.1328 0 10.874-4.2226 10.874-9.874v-25.3438z" fill="none"/><path d="m181.6545 71.6393h22.2002v.0001h-22.2002z" fill="none"/><path d="m155.8524 124.5076c-.0725.0108-.1443.0252-.217.0345.0727-.0093.1446-.0237.217-.0345z" fill="none"/><path d="m224.0011 121.6623c-.03-.0287-.0615-.0541-.0913-.0832.0302.0291.0614.0545.0913.0832z" fill="none"/><path d="m153.7154 124.5973c-.1685-.0115-.3379-.0318-.507-.052.1693.0202.3383.0404.507.052z" fill="none"/><path d="m158.3563 123.78c-.0769.0338-.1531.07-.2305.1016.0776-.0316.1535-.0676.2305-.1016z" fill="none"/><path d="m233.1777 124.4005c-.186.0388-.3722.0773-.5577.1055.1855-.0282.3716-.0668.5577-.1055z" fill="none"/><path d="m225.0791 122.5736c-.0746-.0556-.1476-.1142-.2211-.1719.0735.0583.1465.1162.2211.1719z" fill="none"/><path d="m75.8419 169.8169a9.8168 9.8168 0 0 1 -5.1777 8.24 9.8169 9.8169 0 0 0 5.1778-8.24v-63.1235z" fill="none"/><path d="m47.0743 179.6909a11.7955 11.7955 0 0 0 8.62-4.0669 11.7952 11.7952 0 0 1 -8.62 4.0669z" fill="none"/><path d="m70.6642 178.0568a11.9323 11.9323 0 0 1 -3.7553 1.4416 11.9323 11.9323 0 0 0 3.7553-1.4416z" fill="none"/><path d="m16.9 124.6246c.0326 0 .0644-.0062.097-.0065-.1445.0014-.29-.0021-.4348-.007.1125.0038.2255.0135.3378.0135z" fill="none"/><path d="m76.0665 74.6445a21.5126 21.5126 0 0 1 6.8565 6.9961c.122.1861 19.3427 29.4673 19.3427 29.4673a2.49 2.49 0 0 1 .2461.4819 9.6 9.6 0 0 1 .6226 3.3817 9.601 9.601 0 0 0 -.6227-3.3818 2.49 2.49 0 0 0 -.246-.4819s-19.2206-29.2811-19.3426-29.4672a21.5126 21.5126 0 0 0 -6.8565-6.9961 20.4064 20.4064 0 0 0 -9.7119-2.9945l-22.2-.0215 22.2.0215a20.4067 20.4067 0 0 1 9.7118 2.9945z" fill="none"/><path d="m25.9269 119.3291-.0015.0021.0016-.0021c2.9375-4.5142 6.1063-8.9965 9.2733-13.3886-3.167 4.392-6.3359 8.8744-9.2734 13.3886z" fill="none"/><path d="m232.29 124.5455c-.1685.02-.3369.04-.5046.0517.1676-.0115.336-.0315.5046-.0517z" fill="none"/><path d="m228.67 124.3085c-.0732-.0188-.1471-.0343-.22-.0548.0726.0205.1463.0363.22.0548z" fill="none"/><path d="m226.2251 123.32c-.0547-.0308-.1107-.058-.1651-.09.0544.0325.11.06.1651.09z" fill="none"/><path d="m227.3753 123.8818c-.0776-.0318-.154-.0681-.2312-.102.0772.0339.1535.0702.2312.102z" fill="none"/><path d="m231.1012 124.6245c.1122 0 .2254-.01.3381-.0135-.1455.0049-.2906.0085-.4353.007.0327.0003.0645.0065.0972.0065z" fill="none"/><path d="m229.8659 124.542c-.0731-.0093-.1451-.0237-.2178-.0346.0727.0109.1447.0253.2178.0346z" fill="none"/><path d="m239.7659 111.1079s-19.1778-29.2153-19.3428-29.4679a21.5116 21.5116 0 0 0 -6.8565-6.9956 20.2629 20.2629 0 0 0 -9.7011-2.9946 20.2631 20.2631 0 0 1 9.7012 2.9946 21.5116 21.5116 0 0 1 6.8563 6.9956c.165.2525 19.3427 29.4678 19.3427 29.4678a2.49 2.49 0 0 1 .2461.4819 9.6806 9.6806 0 0 1 -5.5918 12.4786c-.041.0156-.083.03-.124.0439-.2795.09-.5593.1665-.8389.2325.28-.0661.5594-.1425.839-.2325.041-.0137.083-.0283.124-.0439a9.6806 9.6806 0 0 0 5.5918-12.4786 2.49 2.49 0 0 0 -.246-.4818z" fill="none"/><path d="m123.464 120.5293a5.8177 5.8177 0 1 0 -5.8174-5.8174 5.824 5.824 0 0 0 5.8174 5.8174z" fill="#1f7acc"/><path d="m123.464 125.5293c5.9648 0 10.8174-3.8525 10.8174-9.8174s-4.8526-11.8179-10.8174-11.8179a10.8177 10.8177 0 0 0 0 21.6353zm0-16.6353a5.8177 5.8177 0 1 1 -5.8174 5.8179 5.8241 5.8241 0 0 1 5.8174-5.8179z" fill="#393c41"/><path d="m130.4054 134.0171h-.003l-13.3544-.0132a2.5 2.5 0 0 1 -1.711-.68l-11.9458-11.2449a12.1132 12.1132 0 0 1 -2.5264 2.617c14.7876 13.453 14.8008 14.0329 14.8052 15.2664v33.1016c0 .64 1.7266 1.936 3.1387 1.936 1.1377 0 2.5371-1.0674 2.5371-1.936v-17.28a2.5 2.5 0 0 1 5 0v16.6781a2.3292 2.3292 0 0 1 .0869.6017c0 .64 1.7266 1.936 3.14 1.936 1.1377 0 2.5371-1.0674 2.5371-1.936v-33.2767c0-1.2892.0067-1.4059 14.3391-15.6675a12.1559 12.1559 0 0 1 -2.3772-2.8806l-11.8877 12.0349a2.5 2.5 0 0 1 -1.7786.7432z" fill="#1f7acc"/><path d="m98.9718 122.9766a9.6209 9.6209 0 0 0 2.5718-2.637 9.62 9.62 0 0 1 -2.5718 2.637z" fill="#1f7acc"/><path d="m152.8819 124.5063c-.1872-.0285-.3752-.0673-.5629-.1065.1877.0391.3756.078.5629.1065z" fill="#393c41"/><path d="m93.6015 124.6245c.1122 0 .2255-.01.3381-.0135-.1453.005-.2906.0085-.4352.007.0326.0003.0644.0065.0971.0065z" fill="#393c41"/><path d="m152.0436 124.3448c-.2779-.0656-.5563-.1419-.8345-.2312.2783.0894.5565.1656.8345.2312z" fill="#393c41"/><path d="m101.5436 120.34a9.7055 9.7055 0 0 0 1.591-5.368 9.7034 9.7034 0 0 1 -1.591 5.368z" fill="#393c41"/><path d="m103.3912 122.079 11.9458 11.2452a2.5 2.5 0 0 0 1.711.68l13.3544.0132h.003a2.5 2.5 0 0 0 1.7783-.7432l11.8877-12.0349a12.2284 12.2284 0 0 1 -1.6788-5.4151l-13.0312 13.1922-11.3183-.0112-12.5989-11.8593a12.254 12.254 0 0 1 -2.053 4.9331z" fill="#393c41"/><path d="m96.7961 124.1123c.041-.0137.083-.0283.124-.0439a9.6275 9.6275 0 0 0 2.0517-1.0918 9.6307 9.6307 0 0 1 -2.0518 1.0918c-.041.0156-.083.03-.124.0439-.28.09-.5592.1665-.8386.2325.2795-.0661.5591-.1425.8387-.2325z" fill="#393c41"/><path d="m150.4134 126.4839c-.0741-.0247-.15-.0513-.2232-.0794a12.0818 12.0818 0 0 1 -3.7416-2.2849c-14.3324 14.2616-14.3391 14.3783-14.3391 15.6675v33.2769c0 .8686-1.3994 1.936-2.5371 1.936-1.4131 0-3.14-1.2964-3.14-1.936a2.3292 2.3292 0 0 0 -.0869-.6017v-16.6781a2.5 2.5 0 0 0 -5 0v17.28c0 .8686-1.3994 1.936-2.5371 1.936-1.4121 0-3.1387-1.2964-3.1387-1.936v-33.1018c-.0044-1.2335-.0176-1.8134-14.8052-15.2664a12.1148 12.1148 0 0 1 -3.054 1.7083c-.074.0283-.15.0549-.2491.0879a13.3075 13.3075 0 0 1 -1.7.4189c6.5891 5.9972 13.0681 12.0411 14.8078 13.9077v32.2452c0 3.9062 4.375 6.936 8.1387 6.936a8.0727 8.0727 0 0 0 5.2031-2.0669 9.1212 9.1212 0 0 0 5.5614 2.0669c3.5576 0 7.5371-2.9663 7.5371-6.936v-32.3619c1.9043-2.0471 8.6011-8.7784 13.8894-14.0535-.1952-.0536-.3904-.1019-.5855-.1647z" fill="#393c41"/><path d="m54.8136 61.5327a11.3269 11.3269 0 1 0 -11.3272-11.3266 11.3394 11.3394 0 0 0 11.3272 11.3266z" fill="none"/><path d="m54.8136 66.5327a16.3269 16.3269 0 1 0 -16.3272-16.3266 16.3453 16.3453 0 0 0 16.3272 16.3266zm0-27.6538a11.3269 11.3269 0 1 1 -11.3272 11.3272 11.34 11.34 0 0 1 11.3272-11.3272z" fill="#393c41"/><path d="m58.094 169.8169a2.4726 2.4726 0 0 0 -.1457-.8094 2.4707 2.4707 0 0 1 .1456.8091c0 1.7651 2.2692 3.6242 4.6019 4.4434-2.3327-.8189-4.6018-2.678-4.6018-4.4431z" fill="#fff"/><path d="m73.0957 96.497a2.4852 2.4852 0 0 1 .2489-.0187l-.0039-.0005c-.0816 0-.1634.0112-.245.0192z" fill="#fff"/><path d="m40.2 169.8169v-71.5864a2.5033 2.5033 0 0 0 -2.1157-2.4705 2.5035 2.5035 0 0 1 2.1157 2.4705v71.5864c0 1.7651 2.2693 3.6242 4.6019 4.4434-2.3319-.8192-4.6019-2.6783-4.6019-4.4434z" fill="#fff"/><path d="m76.2014 98.6616-.8359-1.1516-.0009-.0009.0007.0009.836 1.1518c4.2187 5.8115 8.581 11.8208 12.5635 17.9409.0722.1111.1607.2375.257.3695-.096-.1317-.1848-.2587-.2569-.3695-3.9824-6.1203-8.3449-12.1296-12.5635-17.9411z" fill="#fff"/><path d="m37.6961 95.73a2.4912 2.4912 0 0 1 .2664.02 2.468 2.468 0 0 0 -.2625-.02z" fill="#fff"/><path d="m12.5793 113.5986c1.8828-2.8672 19.1143-29.1167 19.1778-29.2143a19.6761 19.6761 0 0 1 5.4091-5.5557c2.0625-1.4448 5.7315-2.0664 7.1-2.2-1.3681.1333-5.0371.7549-7.1 2.2a19.6778 19.6778 0 0 0 -5.4092 5.5557c-.0634.0976-17.2949 26.3471-19.1777 29.2143a4.74 4.74 0 0 0 2.7227 5.7744 5.6886 5.6886 0 0 0 .7492.1749 5.6836 5.6836 0 0 1 -.7491-.1749 4.74 4.74 0 0 1 -2.7228-5.7744z" fill="#fff"/><path d="m93.6026 119.6257c.04 0 .0841-.0087.1248-.01.1643-.0041.3326-.0179.5043-.04.0728-.0092.1446-.0163.2188-.0288a5.698 5.698 0 0 0 .7471-.1745h.0009a4.7379 4.7379 0 0 0 2.7216-5.7739c-1.8808-2.8647-19.1132-29.1172-19.1787-29.2178a16.3088 16.3088 0 0 0 -5.27-5.4633 15.444 15.444 0 0 0 -7.1196-2.2674l-22.0859-.0215c-1.3682.1333-5.0372.7549-7.1 2.2a19.6761 19.6761 0 0 0 -5.4091 5.5557c-.0635.0976-17.295 26.3471-19.1778 29.2143a4.74 4.74 0 0 0 2.7227 5.7744 5.6836 5.6836 0 0 0 .7491.1749c.0738.0125.145.02.2176.0287a5.0192 5.0192 0 0 0 .5052.04c.0408.0011.0848.01.1251.01.0257 0 .0479-.0067.0733-.0071a4.7181 4.7181 0 0 0 .791-.0769c.0466-.0087.0911-.02.137-.03a4.8206 4.8206 0 0 0 .7141-.21l.0337-.0114a5.2241 5.2241 0 0 0 .6628-.3236c.04-.023.0808-.0448.12-.0686a6 6 0 0 0 .5624-.3833c.0339-.0262.0657-.0527.0989-.0793.1728-.1385.338-.281.4883-.4264l.0147-.0135c.1554-.1511.2953-.3033.4262-.453.0248-.0285.05-.0559.0735-.0841.12-.1417.2307-.28.3286-.4113.02-.0276.0381-.052.0576-.0788.094-.1291.1812-.2539.2521-.3629l.0022-.0032c3.9839-6.1221 8.3472-12.1331 12.5679-17.9469l1.373-1.893a2.4787 2.4787 0 0 1 .364-.3932c.0321-.0287.0646-.0565.098-.0834a2.4985 2.4985 0 0 1 .4334-.2866l.01-.004a2.5075 2.5075 0 0 1 .4772-.1748c.0411-.0109.0817-.021.1234-.03a2.4879 2.4879 0 0 1 .5146-.0609h.004a2.468 2.468 0 0 1 .2624.0206c.0408.0043.0813.0031.1218.0095a2.5033 2.5033 0 0 1 2.1152 2.4701v71.5864c0 1.7651 2.2692 3.6242 4.6018 4.4434a7.0085 7.0085 0 0 0 2.2721.4306c2.8544 0 5.8738-2.5051 5.8741-4.8736v-43.688a2.5 2.5 0 0 1 5 0v42.8786a2.4726 2.4726 0 0 1 .1457.8094c0 1.7651 2.2691 3.6242 4.6018 4.4434a7.0076 7.0076 0 0 0 2.2721.4306c2.8545 0 5.874-2.5054 5.874-4.874v-70.8393a2.5005 2.5005 0 0 1 1.7289-2.378l.0144-.0035a2.4978 2.4978 0 0 1 .3716-.0887c.0464-.0073.0928-.0063.1392-.0109.0816-.008.1634-.0192.245-.0192l.0039.0005a2.48 2.48 0 0 1 .5137.06c.042.0089.0828.0189.1243.03a2.4984 2.4984 0 0 1 .4762.1741l.01.004a2.51 2.51 0 0 1 .4335.2865q.0507.0406.0992.0842a2.4827 2.4827 0 0 1 .3633.3913l.0009.0009.8359 1.1518c4.2187 5.8115 8.5811 11.8208 12.5635 17.9409.0721.1108.1609.2378.2569.3695.0183.025.0346.0478.0537.0734.0988.1323.21.272.3317.415.0227.0268.0463.0527.07.08.1321.151.2732.3046.43.457l.0082.0076c.1527.1478.3206.2927.4965.4333.0318.0254.0619.0506.0944.0755a5.9962 5.9962 0 0 0 .5659.3855c.0382.0231.0774.0443.1165.0666a5.2179 5.2179 0 0 0 .6658.325l.031.0105a4.8383 4.8383 0 0 0 .7172.21c.0455.01.0893.0214.1353.03a4.7148 4.7148 0 0 0 .7916.077c.025.0012.0473.0079.0728.0079z" fill="none"/><path d="m102.5118 111.59a2.49 2.49 0 0 0 -.2461-.4819s-19.2207-29.2814-19.3427-29.4675a21.5126 21.5126 0 0 0 -6.8565-6.9961 20.4067 20.4067 0 0 0 -9.7119-2.9945l-22.2-.0215h-.0018q-.1055 0-.211.0088c-.6084.0518-6.0468.5757-9.6445 3.0957a24.78 24.78 0 0 0 -6.7217 6.91c-.12.184-19.3418 29.4648-19.3418 29.4648a2.4857 2.4857 0 0 0 -.2461.4824 9.6814 9.6814 0 0 0 5.5923 12.4782c.041.0156.083.03.124.0439l.0048.0013c.2782.0893.5566.1656.8345.2312.0919.0217.1833.0359.2751.055.1879.0392.3757.078.5632.1065.1092.0166.2177.026.3266.039.1692.02.3382.0405.5067.052.116.008.2313.01.3469.0138.1453.0049.29.0084.4348.007a9.808 9.808 0 0 0 1.1382-.076c.0728-.0093.1445-.0236.2169-.0345a9.7478 9.7478 0 0 0 .9806-.1993c.0724-.0186.1455-.0339.2176-.0543a9.9089 9.9089 0 0 0 1.0751-.3722c.0776-.0318.1539-.068.2308-.1018a10.2778 10.2778 0 0 0 .92-.46c.0545-.0307.11-.0578.1643-.09a10.8821 10.8821 0 0 0 .981-.6568c.0747-.0558.148-.1145.2218-.1725.2929-.23.5791-.4742.8554-.7382.03-.029.0625-.0549.0925-.0843.2965-.2894.58-.6039.8544-.932.0662-.0792.1314-.16.1962-.2414.2721-.3411.5369-.6946.7841-1.0743l.0015-.0021c2.9375-4.5142 6.1064-8.9966 9.2734-13.3887v63.8765c0 5.47 6.496 9.874 11.8739 9.874a11.7952 11.7952 0 0 0 8.62-4.0669 13.6165 13.6165 0 0 0 9.2734 4.0669 10.1486 10.1486 0 0 0 1.9409-.1925 11.9323 11.9323 0 0 0 3.7553-1.4416 9.8168 9.8168 0 0 0 5.1777-8.24v-63.1227c2.9864 4.1508 5.9619 8.3794 8.7315 12.6357.2481.3813.5139.7363.7872 1.0787.0637.08.1278.1594.1929.2372a12.6636 12.6636 0 0 0 .8562.934c.03.0291.0615.0547.0915.0834.2766.2645.5635.5089.8567.7392.0736.0578.1469.1165.2214.1721a10.8922 10.8922 0 0 0 .9808.6567c.0544.0321.1106.0592.1655.09q.45.2544.9187.4591c.0771.034.1536.07.2314.1021a9.9119 9.9119 0 0 0 1.0745.372c.0725.02.1465.0359.2195.0547a9.7639 9.7639 0 0 0 .9786.1989c.0728.0109.1449.0253.2179.0346a9.7857 9.7857 0 0 0 1.1381.076c.1446.0015.29-.002.4352-.007.1152-.0039.23-.0058.346-.0138.1679-.0115.3363-.0316.5048-.0517.11-.0131.2195-.0226.33-.0394.1858-.0283.3723-.067.5586-.1057.0929-.0194.1858-.0336.2788-.0556.2794-.066.5591-.1425.8386-.2325.041-.0137.083-.0283.124-.0439a9.7081 9.7081 0 0 0 5.5918-12.4786zm-7.3133 7.7832h-.0009a5.698 5.698 0 0 1 -.7471.1745c-.0742.0125-.146.02-.2188.0288-.1717.0216-.34.0354-.5043.04-.0407.001-.0845.01-.1248.01-.0255 0-.0478-.0067-.0731-.0071a4.7148 4.7148 0 0 1 -.7916-.077c-.046-.0086-.09-.02-.1353-.03a4.8383 4.8383 0 0 1 -.7172-.21l-.031-.0105a5.2179 5.2179 0 0 1 -.6658-.325c-.0391-.0223-.0783-.0435-.1165-.0666a5.9962 5.9962 0 0 1 -.5659-.3855c-.0325-.0249-.0626-.05-.0944-.0755-.1759-.1406-.3438-.2855-.4965-.4333l-.0082-.0076c-.157-.1524-.2981-.306-.43-.457-.0234-.027-.047-.0529-.07-.08-.1217-.143-.2329-.2827-.3317-.415-.0191-.0256-.0354-.0484-.0537-.0734-.0963-.132-.1848-.2584-.257-.3695-3.9825-6.12-8.3448-12.1294-12.5635-17.9409l-.836-1.1518-.0007-.0009a2.4827 2.4827 0 0 0 -.3633-.3913q-.0486-.0435-.0992-.0842a2.51 2.51 0 0 0 -.4335-.2865l-.01-.004a2.4984 2.4984 0 0 0 -.4762-.1741c-.0415-.0111-.0823-.0211-.1243-.03a1.9989 1.9989 0 0 0 -.7626-.0418c-.0464.0046-.0928.0036-.1392.0109a2.4978 2.4978 0 0 0 -.3716.0887l-.0144.0035a2.5005 2.5005 0 0 0 -1.7282 2.3769v70.8389c0 2.3686-3.0195 4.874-5.874 4.874a7.0076 7.0076 0 0 1 -2.2721-.4306c-2.3327-.8192-4.6019-2.6783-4.6019-4.4434a2.4707 2.4707 0 0 0 -.1456-.8091v-42.8789a2.5 2.5 0 0 0 -5 0v43.688c0 2.3685-3.02 4.8736-5.8741 4.8736a7.0085 7.0085 0 0 1 -2.2721-.4306c-2.3322-.8188-4.6022-2.6779-4.6022-4.443v-71.5864a2.5035 2.5035 0 0 0 -2.116-2.4708c-.0405-.0064-.081-.0052-.1218-.0095a2.0337 2.0337 0 0 0 -.781.0407c-.0417.0088-.0823.0189-.1234.03a2.5075 2.5075 0 0 0 -.4772.1748l-.01.004a2.4985 2.4985 0 0 0 -.4336.2874c-.0334.0269-.0659.0547-.098.0834a2.4787 2.4787 0 0 0 -.3638.3929l-1.373 1.893c-4.2207 5.8135-8.584 11.8248-12.5674 17.9463l-.0022.0032c-.0709.109-.1581.2338-.2521.3629-.02.0268-.0371.0512-.0576.0788-.0979.1311-.2083.27-.3286.4113-.024.0282-.0487.0556-.0735.0841-.1309.15-.2708.3019-.4262.453l-.0147.0135c-.15.1454-.3155.2879-.4883.4264-.0332.0266-.065.0531-.0989.0793a6 6 0 0 1 -.5624.3833c-.0394.0238-.08.0456-.12.0686a5.2241 5.2241 0 0 1 -.6628.3236l-.0337.0114a4.8206 4.8206 0 0 1 -.7141.21c-.0459.01-.09.0217-.137.03a4.7181 4.7181 0 0 1 -.791.0769c-.0254 0-.0476.0071-.0733.0071-.04 0-.0843-.0087-.1251-.01a5.0192 5.0192 0 0 1 -.5052-.04c-.0726-.0092-.1438-.0162-.2176-.0287a5.6886 5.6886 0 0 1 -.7492-.1749 4.74 4.74 0 0 1 -2.7227-5.7744c1.8828-2.8672 19.1143-29.1167 19.1777-29.2143a19.6778 19.6778 0 0 1 5.4092-5.5557c2.0625-1.4448 5.7315-2.0664 7.1-2.2l22.0859.0215a15.444 15.444 0 0 1 7.1191 2.2676 16.3088 16.3088 0 0 1 5.27 5.4633c.0655.1006 17.2979 26.3531 19.1787 29.2178a4.7379 4.7379 0 0 1 -2.7207 5.7747z" fill="#393c41"/><path d="m180.9864 50.2056a11.3272 11.3272 0 1 0 11.3272-11.3267 11.34 11.34 0 0 0 -11.3272 11.3267z" fill="none"/><path d="m192.3136 66.5327a16.3269 16.3269 0 1 0 -16.3272-16.3271 16.3455 16.3455 0 0 0 16.3272 16.3271zm11.3271-16.3271a11.3272 11.3272 0 1 1 -11.3271-11.3267 11.34 11.34 0 0 1 11.3271 11.3267z" fill="#393c41"/><g fill="#fff"><path d="m175.123 95.74c.0536-.0017.107-.0022.1606 0-.0274-.001-.0547-.0088-.082-.0088s-.0516.0079-.0786.0088z"/><path d="m158.0826 118.0082c-.1509.146-.3164.2889-.49.4279.1736-.139.3391-.2818.49-.4279z"/><path d="m210.7555 96.4874q.0805-.0028.1609 0c-.0257-.0008-.0506-.009-.0762-.009-.0283-.0003-.0564.008-.0847.009z"/><path d="m158.5223 117.5425c-.1311.15-.271.3024-.4266.4537.1557-.1515.2955-.3036.4266-.4537z"/><path d="m195.594 169.8169a2.4726 2.4726 0 0 0 -.1457-.8094 2.4707 2.4707 0 0 1 .1456.8091c0 2.3535 4.0341 4.874 6.874 4.874-2.8399.0003-6.8739-2.5206-6.8739-4.8737z"/><path d="m213.7014 98.6616-.8359-1.1518-.001-.0011.0008.0011.836 1.1518c4.2187 5.8115 8.581 11.8208 12.5635 17.9409.0722.1111.1606.2376.2568.37-.096-.1317-.1847-.2587-.2567-.37-3.9824-6.1201-8.3449-12.1294-12.5635-17.9409z"/><path d="m156.8116 118.9669a5.211 5.211 0 0 1 -.6628.3236 5.2041 5.2041 0 0 0 .6628-.3236z"/><path d="m157.4945 118.5148a6.0277 6.0277 0 0 1 -.5628.3835 5.9953 5.9953 0 0 0 .5628-.3835z"/><path d="m174.1153 95.9833c-.039.0188-.0748.0423-.1128.063.0375-.0206.074-.0443.1128-.063z"/><path d="m177.7 169.8169v-27.8438a2.5 2.5 0 0 0 -2.5-2.5 2.5 2.5 0 0 1 2.5 2.5v27.8438c0 2.3535 4.0342 4.874 6.874 4.874-2.8395 0-6.874-2.5209-6.874-4.874z"/><path d="m176.2463 95.96h-.0008.0007a2.5008 2.5008 0 0 1 1.3848 2.8545l-9.4825 40.6591 9.4824-40.6591a2.5008 2.5008 0 0 0 -1.3846-2.8545z"/><path d="m210.4121 96.5247c-.05.0089-.1007.0145-.1509.0266.0501-.012.1005-.0177.1509-.0266z"/><path d="m158.9239 117.0473c-.0979.1313-.2082.27-.3287.4119.121-.1424.2303-.2802.3287-.4119z"/><path d="m159.2334 116.6057c-.0709.109-.158.2337-.2519.3627.0943-.1295.181-.2534.2519-.3627z"/><path d="m212.378 97.0173c.04.0313.0806.062.1189.096-.0385-.0342-.0786-.0645-.1189-.096z"/><path d="m173.544 96.3664c.0379-.0335.0777-.0638.1171-.0948-.0397.0311-.0791.0611-.1171.0948z"/><path d="m231.0287 119.6186a4.7161 4.7161 0 0 1 -.7918-.077 4.7161 4.7161 0 0 0 .7918.077z"/><path d="m227.9112 118.4382c-.176-.1408-.3442-.2856-.4968-.4336.1528.148.3206.2928.4968.4336z"/><path d="m231.7311 119.5765c-.1717.0216-.34.0354-.5044.04a5.0308 5.0308 0 0 0 .5044-.04z"/><path d="m228.5707 118.8989a5.98 5.98 0 0 1 -.5657-.3855 5.999 5.999 0 0 0 .5657.3855z"/><path d="m175.772 95.8013c-.0506-.0119-.101-.0171-.1518-.0258.0506.0086.1013.0145.1518.0258z"/><path d="m230.1017 119.5116a4.8261 4.8261 0 0 1 -.7171-.21 4.8331 4.8331 0 0 0 .7171.21z"/><path d="m229.3531 119.2905a5.2109 5.2109 0 0 1 -.6654-.3247 5.2109 5.2109 0 0 0 .6654.3247z"/><path d="m227.4062 117.9971c-.1568-.1523-.2977-.3058-.43-.4567.1323.1511.2732.3042.43.4567z"/><path d="m212.04 96.7946c-.04-.0217-.0769-.0458-.1174-.0652.0406.0193.0785.0437.1174.0652z"/><path d="m211.4371 96.5528c-.03-.0073-.06-.0092-.09-.0153.03.0061.0605.008.09.0153z"/><path d="m174.6981 95.79c-.0323.0066-.0652.0089-.0972.0169.032-.0082.065-.0106.0972-.0169z"/><path d="m226.9066 117.46c-.1216-.143-.2327-.2826-.3314-.4149q.1485.1994.3314.4149z"/><path d="m232.6976 119.3732a5.7087 5.7087 0 0 1 -.7474.1744 5.6889 5.6889 0 0 0 .7474-.1744z"/><path d="m155.401 119.5115a4.8206 4.8206 0 0 0 .7141-.21 4.8206 4.8206 0 0 1 -.7141.21z"/><path d="m155.2638 119.5419a4.7185 4.7185 0 0 1 -.7912.0769 4.7205 4.7205 0 0 0 .7912-.0769z"/><path d="m154.2743 119.6161a5.0208 5.0208 0 0 1 -.5054-.04 5.0186 5.0186 0 0 0 .5054.04z"/><path d="m152.802 119.373a4.74 4.74 0 0 1 -2.7227-5.7744c1.8828-2.8676 19.1172-29.1211 19.1778-29.2148a19.6744 19.6744 0 0 1 5.4091-5.5552c2.0625-1.4448 5.7315-2.0664 7.1-2.2-1.3681.1333-5.0371.7549-7.1 2.2a19.6761 19.6761 0 0 0 -5.4092 5.5552c-.06.0937-17.2949 26.3472-19.1777 29.2148a4.74 4.74 0 0 0 2.7227 5.7744 5.7036 5.7036 0 0 0 .7494.1749 5.722 5.722 0 0 1 -.7494-.1749z"/></g><path d="m190.4483 141.1289a2.5 2.5 0 0 1 5 0v27.8786a2.4726 2.4726 0 0 1 .1457.8094c0 2.3535 4.034 4.874 6.8739 4.874 2.8545 0 5.874-2.5054 5.874-4.874v-27.8438a2.5 2.5 0 0 1 2.5-2.5h7.4248l-9.8486-39.8818a2.4764 2.4764 0 0 1 1.843-3.04c.05-.0121.1-.0177.1509-.0266a2.4932 2.4932 0 0 1 .3434-.0373c.0283-.001.0564-.0093.0847-.0093.0256 0 .05.0082.0762.009a2.4872 2.4872 0 0 1 .4307.05c.03.0061.06.008.09.0153a2.5075 2.5075 0 0 1 .4859.1766c.0405.0194.0778.0435.1174.0652a2.4822 2.4822 0 0 1 .3376.2227c.04.0315.08.0618.1189.096a2.4941 2.4941 0 0 1 .3676.3954l.001.0011.8359 1.1518c4.2187 5.8115 8.5811 11.8208 12.5635 17.9409.072.1109.1607.2379.2567.37.0182.025.0345.0478.0536.0733.0987.1323.21.2719.3314.4149.0227.0269.0464.053.07.08.1318.1509.2727.3044.43.4567l.0082.0075c.1526.148.3208.2928.4968.4336.0315.0252.0616.05.0938.0752a5.98 5.98 0 0 0 .5657.3855c.0385.0232.0777.0445.117.0669a5.2109 5.2109 0 0 0 .6654.3247l.0315.0108a4.8261 4.8261 0 0 0 .7171.21c.0454.01.0891.0214.1352.03a4.7161 4.7161 0 0 0 .7918.077c.0254 0 .0477.0071.0732.0071.04 0 .0842-.0087.1248-.01.1643-.0041.3327-.0179.5044-.04.073-.0092.1449-.0164.2191-.0289a5.7087 5.7087 0 0 0 .7474-.1744h.0009a4.7379 4.7379 0 0 0 2.7216-5.7739c-1.8808-2.8652-19.1162-29.1216-19.1816-29.2226a16.3018 16.3018 0 0 0 -5.2676-5.4585 15.3842 15.3842 0 0 0 -7.1045-2.2681h-.0009l-22.1-.021c-1.3682.1333-5.0372.7549-7.1 2.2a19.6744 19.6744 0 0 0 -5.4091 5.5552c-.0606.0937-17.295 26.3472-19.1778 29.2148a4.74 4.74 0 0 0 2.7227 5.7744 5.722 5.722 0 0 0 .7493.1749c.0738.0124.1451.02.2176.0287a5.0208 5.0208 0 0 0 .5054.04c.0407.0011.0847.01.1251.01.0255 0 .0478-.0067.0732-.0071a4.7185 4.7185 0 0 0 .7912-.0769c.0467-.0087.0913-.02.1372-.03a4.8206 4.8206 0 0 0 .7141-.21l.0337-.0114a5.211 5.211 0 0 0 .6628-.3236c.04-.023.0808-.0449.12-.0686a6.0277 6.0277 0 0 0 .5628-.3835c.0337-.026.0652-.0523.0981-.0787.1736-.139.3391-.2819.49-.4279l.0131-.012c.1556-.1513.2955-.3038.4266-.4537.0246-.0282.0491-.0554.0729-.0833.12-.1419.2308-.2806.3287-.4119.02-.0275.0381-.0521.0576-.0789.0939-.129.181-.2537.2519-.3627l.0022-.0032c3.9834-6.1215 8.3467-12.1328 12.5674-17.9463l1.373-1.893a2.4886 2.4886 0 0 1 .368-.3968c.038-.0337.0774-.0637.1171-.0948a2.5043 2.5043 0 0 1 .3414-.2253c.038-.0207.0738-.0442.1128-.063a2.5045 2.5045 0 0 1 .4856-.1767c.032-.008.0649-.01.0972-.0169a2.4992 2.4992 0 0 1 .4249-.05c.0265-.0009.0522-.0092.0786-.0092s.0546.0078.082.0088a2.492 2.492 0 0 1 .3366.0359c.0508.0087.1012.0139.1518.0258a2.5024 2.5024 0 0 1 .4735.1579h.0008a2.5008 2.5008 0 0 1 1.3848 2.8545l-9.4824 40.6591h7.0518a2.5 2.5 0 0 1 2.5 2.5v27.8438c0 2.3535 4.0341 4.874 6.8739 4.874 2.8544 0 5.8738-2.5051 5.8741-4.8736z" fill="none"/><path d="m240.0118 111.59a2.49 2.49 0 0 0 -.2461-.4819s-19.1777-29.2155-19.3427-29.4681a21.5116 21.5116 0 0 0 -6.8565-6.9956 20.2631 20.2631 0 0 0 -9.7012-2.9946h-.0107l-22.2-.021h-.0018q-.1055 0-.211.0088c-.6084.0518-6.0468.5757-9.6445 3.0957a24.7908 24.7908 0 0 0 -6.7227 6.9111c-.1621.2486-19.3408 29.4634-19.3408 29.4634a2.4857 2.4857 0 0 0 -.2461.4824 9.6814 9.6814 0 0 0 5.5928 12.4781c.041.0156.083.03.124.0439l.0048.0013c.2782.0893.5566.1656.8345.2312.092.0217.1836.0358.2754.055.1877.0392.3757.078.5629.1065.1092.0166.2176.026.3265.039.1691.02.3385.0405.507.052.1159.008.2312.01.3467.0138.1453.0049.29.0084.435.007a9.8171 9.8171 0 0 0 1.1383-.076c.0727-.0093.1445-.0237.217-.0345a9.7852 9.7852 0 0 0 .9805-.1993c.0724-.0187.1456-.0339.2177-.0543a9.932 9.932 0 0 0 1.0752-.3722c.0774-.0318.1536-.0678.2305-.1016q.468-.2059.92-.46c.0545-.0307.11-.0578.1643-.09a10.91 10.91 0 0 0 .981-.6568c.0747-.0558.1479-.1145.2217-.1725.2928-.23.5791-.4742.8554-.7383.03-.029.0623-.0548.0924-.0842a12.61 12.61 0 0 0 .8544-.9321c.0662-.0791.1312-.16.1961-.2412.2721-.3411.5367-.6946.7839-1.0744l.0015-.0021c2.041-3.1367 4.1933-6.2578 6.38-9.3447l-7.26 31.4052a2.5 2.5 0 0 0 2.4307 3.0835h7.7221v25.3438c0 5.47 6.496 9.874 11.8739 9.874a11.7952 11.7952 0 0 0 8.62-4.0669 13.6165 13.6165 0 0 0 9.2734 4.0669c5.1328 0 10.8739-4.2226 10.8739-9.874v-25.3432h8.1357a2.5 2.5 0 0 0 2.4239-3.1132l-7.41-30.2447c1.9111 2.7172 3.79 5.46 5.5819 8.2137.2479.3811.5135.7358.7867 1.0781.0641.08.1284.16.1939.2384a12.6057 12.6057 0 0 0 .8557.9335c.03.0291.0614.0545.0913.0832.2767.2645.5635.509.8569.7394.0735.0577.1465.1163.2211.1719a10.896 10.896 0 0 0 .9809.6569c.0544.0319.11.0591.1651.09q.4507.2547.919.4594c.0772.0339.1536.07.2312.102a9.9187 9.9187 0 0 0 1.0745.3719c.0726.02.1465.036.22.0548a9.73 9.73 0 0 0 .9786.1989c.0727.0109.1447.0253.2178.0346a9.7857 9.7857 0 0 0 1.1381.076c.1447.0015.29-.0021.4353-.007.1152-.0039.23-.0058.346-.0138.1677-.0115.3361-.0316.5046-.0517.11-.013.22-.0227.33-.04.1855-.0282.3717-.0667.5577-.1055.0932-.0194.1862-.0337.2794-.0557.28-.066.5594-.1425.8389-.2325.041-.0137.083-.0283.124-.0439a9.6806 9.6806 0 0 0 5.5924-12.4778zm-7.3133 7.7832h-.0009a5.6889 5.6889 0 0 1 -.7474.1744c-.0742.0125-.1461.02-.2191.0289a5.0308 5.0308 0 0 1 -.5044.04c-.0406.001-.0845.01-.1248.01-.0255 0-.0478-.0067-.0732-.0071a4.7161 4.7161 0 0 1 -.7918-.077c-.0461-.0086-.09-.02-.1352-.03a4.8331 4.8331 0 0 1 -.7171-.21l-.0315-.0108a5.2109 5.2109 0 0 1 -.6654-.3247c-.0393-.0224-.0785-.0437-.117-.0669a5.999 5.999 0 0 1 -.5657-.3855c-.0322-.0248-.0623-.05-.0938-.0752-.1762-.1408-.344-.2856-.4968-.4336l-.0082-.0075c-.1568-.1525-.2977-.3056-.43-.4567-.0237-.0271-.0474-.0532-.07-.08q-.1831-.2153-.3314-.4149c-.0191-.0255-.0354-.0483-.0536-.0733-.0962-.132-.1846-.2585-.2568-.37-3.9825-6.12-8.3448-12.1294-12.5635-17.9409l-.836-1.1518-.0008-.0011a2.4941 2.4941 0 0 0 -.3676-.3954c-.0383-.034-.0788-.0647-.1189-.096a2.4822 2.4822 0 0 0 -.3376-.2227c-.0393-.0215-.0772-.0459-.1174-.0652a2.5075 2.5075 0 0 0 -.4859-.1766c-.0295-.0073-.06-.0092-.09-.0153a2.4872 2.4872 0 0 0 -.4307-.05q-.08-.0025-.1609 0a2.4932 2.4932 0 0 0 -.3434.0373c-.05.0089-.1008.0146-.1509.0266a2.4764 2.4764 0 0 0 -1.843 3.04l9.8486 39.8818h-7.4244a2.5 2.5 0 0 0 -2.5 2.5v27.8438c0 2.3686-3.02 4.874-5.874 4.874-2.84 0-6.874-2.52-6.874-4.874a2.4707 2.4707 0 0 0 -.1456-.8091v-27.8798a2.5 2.5 0 0 0 -5 0v28.688c0 2.3685-3.02 4.8736-5.8741 4.8736-2.84 0-6.874-2.52-6.874-4.874v-27.8434a2.5 2.5 0 0 0 -2.5-2.5h-7.0518l9.4825-40.6591a2.5008 2.5008 0 0 0 -1.3848-2.8545h-.0007a2.5024 2.5024 0 0 0 -.4735-.1579c-.05-.0118-.1012-.0172-.1518-.0258a2.492 2.492 0 0 0 -.3366-.0359c-.0536-.0018-.107-.0013-.1606 0a2.4992 2.4992 0 0 0 -.4249.05c-.0322.0066-.0652.009-.0972.0169a2.5045 2.5045 0 0 0 -.4856.1767c-.0388.0187-.0749.0424-.1128.063a2.5043 2.5043 0 0 0 -.3414.2253c-.0394.031-.0792.0613-.1171.0948a2.4886 2.4886 0 0 0 -.368.3968l-1.373 1.893c-4.2207 5.8135-8.584 11.8248-12.5674 17.9463l-.0022.0032c-.0709.1093-.1576.2332-.2519.3627-.02.0268-.0371.0514-.0576.0789-.0984.1317-.2077.2695-.3287.4119-.0238.0279-.0483.0551-.0729.0833-.1311.15-.2709.3022-.4266.4537l-.0131.012c-.1509.1461-.3164.2889-.49.4279-.0329.0264-.0644.0527-.0981.0787a5.9953 5.9953 0 0 1 -.5628.3835c-.0393.0237-.08.0456-.12.0686a5.2041 5.2041 0 0 1 -.6628.3236l-.0337.0114a4.8206 4.8206 0 0 1 -.7141.21c-.0459.01-.0905.0217-.1372.03a4.7205 4.7205 0 0 1 -.7912.0769c-.0254 0-.0477.0071-.0732.0071-.04 0-.0844-.0087-.1251-.01a5.0186 5.0186 0 0 1 -.5054-.04c-.0725-.0092-.1438-.0163-.2176-.0287a5.7036 5.7036 0 0 1 -.7494-.1749 4.74 4.74 0 0 1 -2.7227-5.7744c1.8828-2.8676 19.1172-29.1211 19.1777-29.2148a19.6761 19.6761 0 0 1 5.4092-5.5552c2.0625-1.4448 5.7315-2.0664 7.1-2.2l22.1.021h.0009a15.3842 15.3842 0 0 1 7.1045 2.2681 16.3018 16.3018 0 0 1 5.2676 5.4585c.0654.101 17.3008 26.3574 19.1816 29.2226a4.7379 4.7379 0 0 1 -2.7223 5.7747z" fill="#393c41"/></svg>
