<svg viewBox="0 0 248 180" xmlns="http://www.w3.org/2000/svg"><path d="m71.6246 118.1949h10.5918a22.4222 22.4222 0 0 1 22.4222 22.4222v36.8829a0 0 0 0 1 0 0h-56.4362a0 0 0 0 1 0 0v-35.8829a23.4222 23.4222 0 0 1 23.4222-23.4222z" fill="none"/><path d="m77.18 106.9652a17.0216 17.0216 0 1 0 -17.0212-17.0215 17.0217 17.0217 0 0 0 17.0212 17.0215z" fill="none"/><path d="m77.18 109.4653a19.5215 19.5215 0 1 1 19.5217-19.5215 19.5433 19.5433 0 0 1 -19.5217 19.5215zm0-34.043a14.5215 14.5215 0 1 0 14.5217 14.5215 14.5381 14.5381 0 0 0 -14.5217-14.5215z" fill="#393c41"/><path d="m117.4064 91.758h88.3041v55.4594h-88.3041z" fill="#1f7acc"/><path d="m119.9067 94.2582h83.3037v50.459h-83.3037z" fill="none"/><g fill="#393c41"><path d="m205.71 89.2582h-88.3033a2.5 2.5 0 0 0 -2.5 2.5v55.459a2.5 2.5 0 0 0 2.5 2.5h41.6514v15.2828h-35.0049a2.5 2.5 0 1 0 0 5h75.01a2.5 2.5 0 0 0 0-5h-35.0051v-15.2828h41.6519a2.5 2.5 0 0 0 2.5-2.5v-55.459a2.5 2.5 0 0 0 -2.5-2.5zm-2.5 55.459h-83.3033v-50.459h83.3033z"/><path d="m226.2114 175h-119.073v-.0245h-5v.0245h-51.4365v-33.3828a20.9462 20.9462 0 0 1 20.9229-20.9224h10.5918a19.9443 19.9443 0 0 1 19.9218 19.9224v25.157h5v-25.157a24.95 24.95 0 0 0 -24.9218-24.9224h-10.5918a25.9521 25.9521 0 0 0 -25.9229 25.9224v33.3828h-23.9133a2.5 2.5 0 0 0 0 5h26.4128.0005 56.4365.0008 121.5722a2.5 2.5 0 0 0 0-5z"/><path d="m104.6382 169.2744a2.5 2.5 0 0 1 -2.5-2.5v-5.2256a2.5 2.5 0 0 1 5 0v5.2256a2.5 2.5 0 0 1 -2.5 2.5z"/></g><path d="m138.558 102.488h16.798l5.444 4.78h23.758v29.22h-46z" fill="#fff" stroke="#393c41" stroke-linecap="round" stroke-linejoin="round" stroke-width="5"/><path d="m147.9095 117.1512h27.298" fill="#393c41" stroke="#393c41" stroke-linecap="round" stroke-linejoin="round" stroke-width="5"/><path d="m147.9095 127.1512h17.2847" fill="#393c41" stroke="#393c41" stroke-linecap="round" stroke-linejoin="round" stroke-width="5"/></svg>
