<svg height="180" viewBox="0 0 248 180" width="248" xmlns="http://www.w3.org/2000/svg"><g fill="#393c41"><path d="m211.168 104.2861a2.4891 2.4891 0 0 1 -1.62-.5971l-85.548-72.9043-85.5479 72.9043a2.5 2.5 0 0 1 -3.2421-3.8057l87.1689-74.2861a2.5 2.5 0 0 1 3.2422 0l87.1689 74.2861a2.5 2.5 0 0 1 -1.622 4.4028z"/><path d="m185.3887 180h-122.7787a2.5 2.5 0 0 1 -2.5-2.5v-77.1a2.5 2.5 0 0 1 5 0v74.6h117.7787v-74.6a2.5 2.5 0 1 1 5 0v77.1a2.5 2.5 0 0 1 -2.5 2.5z"/><path d="m155.19 164.6494h-62.38a2.5 2.5 0 0 1 -2.5-2.5v-17.9175a25.9514 25.9514 0 0 1 25.9214-25.9219h16.5362a24.95 24.95 0 0 1 24.9224 24.9219v18.9175a2.5 2.5 0 0 1 -2.5 2.5zm-59.88-5h57.38v-16.4175a19.9443 19.9443 0 0 0 -19.9224-19.9219h-16.5362a20.9458 20.9458 0 0 0 -20.9214 20.9219z"/><path d="m124 114.5674a16.46 16.46 0 1 1 16.459-16.46 16.4784 16.4784 0 0 1 -16.459 16.46zm0-27.919a11.46 11.46 0 1 0 11.459 11.46 11.4726 11.4726 0 0 0 -11.459-11.46z"/><path d="m166.3477 164.6494h-84.6963a2.5 2.5 0 0 1 0-5h84.6963a2.5 2.5 0 1 1 0 5z"/></g><path d="m144.817 162.149h-41.634l-1.551-27.695h44.736z" fill="#1f7acc"/><path d="m144.8164 164.6494h-41.6338a2.5 2.5 0 0 1 -2.4961-2.36l-1.5508-27.6958a2.5 2.5 0 0 1 2.4961-2.64h44.7364a2.5 2.5 0 0 1 2.4961 2.64l-1.5518 27.6958a2.5 2.5 0 0 1 -2.4961 2.36zm-39.2695-5h36.9052l1.2725-22.6958h-39.4492z" fill="#393c41"/></svg>
