<svg height="180" viewBox="0 0 248 180" width="248" xmlns="http://www.w3.org/2000/svg"><path d="m72.088 164.971v-108.833h80.631v121.362" fill="none" stroke="#fff" stroke-miterlimit="10"/><path d="m164.7723 94.7908h40.7311v82.7092h-40.7311z" fill="#1f7acc"/><g fill="#393c41"><path d="m107.1348 94.2867h-14.5835a2.5 2.5 0 0 1 -2.5-2.5v-14.5835a2.5 2.5 0 0 1 2.5-2.5h14.5835a2.5 2.5 0 0 1 2.5 2.5v14.5835a2.5 2.5 0 0 1 -2.5 2.5zm-12.0835-5h9.5835v-9.5835h-9.5835z"/><path d="m107.1348 120.1436h-14.5835a2.5 2.5 0 0 1 -2.5-2.5v-14.5836a2.5 2.5 0 0 1 2.5-2.5h14.5835a2.5 2.5 0 0 1 2.5 2.5v14.584a2.5 2.5 0 0 1 -2.5 2.4996zm-12.0835-5h9.5835v-9.5836h-9.5835z"/><path d="m132.0113 94.2867h-14.5835a2.5 2.5 0 0 1 -2.5-2.5v-14.5835a2.5 2.5 0 0 1 2.5-2.5h14.5835a2.5 2.5 0 0 1 2.5 2.5v14.5835a2.5 2.5 0 0 1 -2.5 2.5zm-12.0835-5h9.5835v-9.5835h-9.5835z"/><path d="m132.5557 120.1436h-14.5835a2.5 2.5 0 0 1 -2.5-2.5v-14.5836a2.5 2.5 0 0 1 2.5-2.5h14.5835a2.5 2.5 0 0 1 2.5 2.5v14.584a2.5 2.5 0 0 1 -2.5 2.4996zm-12.0835-5h9.5835v-9.5836h-9.5835z"/><path d="m107.1348 146h-14.5835a2.5 2.5 0 0 1 -2.5-2.5v-14.5835a2.5 2.5 0 0 1 2.5-2.5h14.5835a2.5 2.5 0 0 1 2.5 2.5v14.5835a2.5 2.5 0 0 1 -2.5 2.5zm-12.0835-5h9.5835v-9.5835h-9.5835z"/><path d="m132.5557 146h-14.5835a2.5 2.5 0 0 1 -2.5-2.5v-14.5835a2.5 2.5 0 0 1 2.5-2.5h14.5835a2.5 2.5 0 0 1 2.5 2.5v14.5835a2.5 2.5 0 0 1 -2.5 2.5zm-12.0835-5h9.5835v-9.5835h-9.5835z"/></g><rect fill="#fcfcfc" height="14.5836" rx="1.305" width="14.5836" x="177.574" y="110.1714"/><path d="m190.8526 127.2549h-11.9737a3.8091 3.8091 0 0 1 -3.8051-3.8047v-11.9736a3.81 3.81 0 0 1 3.8051-3.8052h11.9737a3.81 3.81 0 0 1 3.8051 3.8052v11.9734a3.8091 3.8091 0 0 1 -3.8051 3.8049zm-10.7788-5h9.5839v-9.5835h-9.5839z" fill="#393c41"/><rect fill="#fcfcfc" height="14.5836" rx="1.3077" width="14.5836" x="178.1182" y="134.9851"/><path d="m191.3941 152.0689h-11.9683a3.8118 3.8118 0 0 1 -3.8076-3.8076v-11.9683a3.8122 3.8122 0 0 1 3.8076-3.8081h11.9683a3.8122 3.8122 0 0 1 3.8076 3.8081v11.9683a3.8118 3.8118 0 0 1 -3.8076 3.8076zm-10.7759-5h9.5835v-9.584h-9.5835z" fill="#393c41"/><path d="m167.2725 97.2905h35.731v77.7095h-35.731z" fill="none"/><path d="m226.18 175h-18.1766v-80.2095a2.5 2.5 0 0 0 -2.5-2.5h-40.7309a2.5 2.5 0 0 0 -2.5 2.5v80.2095h-7.0533v-118.8623a2.5 2.5 0 0 0 -2.5-2.5h-80.6313a2.5 2.5 0 0 0 -2.5 2.5v110.6611h.0143a2.5 2.5 0 0 0 5 0v-7.9112c0-.0487-.0116-.0943-.0143-.1423v-100.1076h75.6313v116.3623h-106.6484v-19.1755c10.5611-2.02 18.5117-16.7088 18.5117-35.1057a81.1753 81.1753 0 0 0 -5.604-28.8588c-4.1372-10.24-9.6085-15.879-15.4077-15.879s-11.2708 5.639-15.4077 15.879a81.1753 81.1753 0 0 0 -5.604 28.8589c0 18.3969 7.9506 33.0853 18.5117 35.1057v19.1754h-16.7508a2.5 2.5 0 0 0 0 5h204.36a2.5 2.5 0 1 0 0-5zm-185.1092-94.019c7.4819 0 16.0117 21.1689 16.0117 39.7378 0 14.8446-5.97 27.6065-13.5117 29.96v-24.5788l7.8281-7.8281a2.5 2.5 0 0 0 -3.5351-3.5352l-4.293 4.293v-9.2607a2.5 2.5 0 0 0 -5 0v20.1738l-4.7959-4.7959a2.5 2.5 0 0 0 -3.5352 3.5351l8.3311 8.3311v13.6659c-7.5419-2.3537-13.5117-15.1156-13.5117-29.96 0-18.569 8.5298-39.738 16.0117-39.738zm126.2017 94.019v-77.7095h35.7309v77.7095z" fill="#393c41"/><path d="m38.5708 150.679v-13.6663l-8.3308-8.3311a2.5 2.5 0 0 1 3.5352-3.5351l4.7959 4.7959v-20.1738a2.5 2.5 0 0 1 5 0v9.2607l4.293-4.293a2.5 2.5 0 0 1 3.5351 3.5352l-7.8284 7.8285v24.579c7.5419-2.3537 13.5117-15.1156 13.5117-29.96 0-18.5689-8.53-39.7378-16.0117-39.7378s-16.0117 21.1688-16.0117 39.7376c0 14.8446 5.9698 27.6065 13.5117 29.9602z" fill="none"/></svg>
