<svg height="180" viewBox="0 0 248 180" width="248" xmlns="http://www.w3.org/2000/svg"><path d="m50.6183 71.9854a10.0877 10.0877 0 1 0 -10.0874-10.0879 10.0993 10.0993 0 0 0 10.0874 10.0879z" fill="none"/><path d="m164.6773 75.8489c20.2883 18.5111 20.3091 19.3933 20.3127 20.6355v74.3022c0 1.8506 3.3833 4.2134 6.0337 4.2134 2.49 0 5.1235-2.1655 5.1235-4.2134v-39.772a2.5 2.5 0 0 1 5 0v39.0069a2.4739 2.4739 0 0 1 .1318.7651c0 1.8506 3.3838 4.2134 6.0342 4.2134 2.49 0 5.1231-2.1655 5.1231-4.2134v-74.5752c0-1.3862 0-1.5991 26.3891-27.8413.0293-.0293.06-.0581.09-.0859a3.6261 3.6261 0 0 0 0-5.5137c-.0327-.0293-.0644-.06-.0957-.0908a4.4107 4.4107 0 0 0 -6.02.0469l-22.4468 22.726a2.5 2.5 0 0 1 -1.7788.7432h-.0024l-20.21-.02a2.4982 2.4982 0 0 1 -1.711-.68l-16.4639-15.4976a8.9275 8.9275 0 0 1 -1.6017 1.9574c-1.2162 1.2095-2.5351 2.5236-3.9078 3.8933z" fill="none"/><path d="m160.7448 67.3311a2.5 2.5 0 0 1 -2.5 2.5c-.0773 0-.148-.022-.2234-.0289a2.4425 2.4425 0 0 1 -2.2589-2.3524c-.0021-.0409-.0177-.0774-.0177-.1187v-1.2335l-.3476.3519-3.776 3.823-14.9936 15.18a2.5 2.5 0 0 1 -1.7788.7432h-.0025l-20.21-.02a2.4982 2.4982 0 0 1 -1.711-.68l-24.182-22.7633a4.222 4.222 0 0 0 -4.14-1.0316l3.8205 3.82 3.042 2.7644c-.0308.0273-.0611.0561-.09.0854l-.0506.05-2.901-2.9-3.0743-2.7937-3.6778 3.7231a3.9382 3.9382 0 0 0 1.0033 1.8859c1.6178 1.4624 3.1318 2.8345 4.5717 4.142 1.3067 1.1867 2.536 2.306 3.7043 3.3725 20.2883 18.5188 20.31 19.4361 20.3134 20.633v74.3037c0 1.8506 3.3833 4.2134 6.0337 4.2134 2.49 0 5.1235-2.1655 5.1235-4.2134v-39.772a2.5 2.5 0 0 1 5 0v39.0069a2.4739 2.4739 0 0 1 .1318.7651c0 1.8506 3.3833 4.2134 6.0337 4.2134 2.49 0 5.1236-2.1655 5.1236-4.2134v-74.5757c0-1.2358.0171-1.5559 18.7118-20.1977 1.1165-1.1134 2.2957-2.2882 3.55-3.5365 1.3025-1.2968 2.6682-2.6557 4.1277-4.1071.0293-.0293.06-.0581.09-.0859a3.7788 3.7788 0 0 0 1.1567-1.9l-3.8789-3.6515a4.07 4.07 0 0 0 -1.6344-.9837c-.03.0093-.06.0155-.0892.0254v5.557z" fill="none"/><path d="m124.3439 71.9854a10.0877 10.0877 0 1 0 -10.0879-10.0879 10.0992 10.0992 0 0 0 10.0879 10.0879z" fill="none"/><path d="m187.9816 61.8975a10.0874 10.0874 0 1 0 10.0874-10.0875 10.0992 10.0992 0 0 0 -10.0874 10.0875z" fill="none"/><path d="m61.1237 86.1958h-.0025l-20.21-.02a2.4982 2.4982 0 0 1 -1.711-.68l-24.1825-22.7634a4.4267 4.4267 0 0 0 -6.0742-.0068 4.0847 4.0847 0 0 0 .0063 5.61c28.583 25.836 28.5855 26.7564 28.5894 28.149v74.3022c0 1.8506 3.3838 4.2134 6.0342 4.2134 2.49 0 5.123-2.1655 5.123-4.2134v-39.772a2.5 2.5 0 0 1 5 0v39.0052a2.4743 2.4743 0 0 1 .1323.7666c0 1.8506 3.3833 4.2134 6.0337 4.2134 2.49 0 5.1236-2.1655 5.1236-4.2134v-74.5752c0-1.2358.0171-1.5558 18.7118-20.1977-1.4806-1.3479-2.9643-2.6938-4.4277-4.0166-.0312-.0279-.062-.0572-.0913-.0869a8.916 8.916 0 0 1 -1.2827-1.6377l-14.9936 15.18a2.5 2.5 0 0 1 -1.7788.7433z" fill="none"/><g fill="#393c41"><path d="m50.6183 76.9854a15.0877 15.0877 0 1 0 -15.0874-15.0879 15.1052 15.1052 0 0 0 15.0874 15.0879zm0-25.1753a10.0877 10.0877 0 1 1 -10.0874 10.0874 10.0991 10.0991 0 0 1 10.0874-10.0875z"/><path d="m91.3751 68.37c.0293-.0293.06-.0581.09-.0854l-3.0416-2.7646 2.901 2.9z"/><path d="m88.4235 65.52-3.8205-3.82a4.8253 4.8253 0 0 0 -1.9339 1.0248 4.0609 4.0609 0 0 0 -.997 3.7239l3.6771-3.7229z"/><path d="m64.986 96.2114v74.5752c0 2.0479-2.6338 4.2134-5.1236 4.2134-2.65 0-6.0337-2.3628-6.0337-4.2134a2.4743 2.4743 0 0 0 -.1323-.7666v-39.0054a2.5 2.5 0 0 0 -5 0v39.772c0 2.0479-2.6333 4.2134-5.123 4.2134-2.65 0-6.0342-2.3628-6.0342-4.2134v-74.3022c-.0039-1.3926-.0064-2.313-28.5894-28.149a4.0847 4.0847 0 0 1 -.0063-5.61 4.4267 4.4267 0 0 1 6.0742.0068l24.1823 22.7644a2.4982 2.4982 0 0 0 1.711.68l20.21.02h.0025a2.5 2.5 0 0 0 1.7788-.7432l14.9936-15.18a9.0121 9.0121 0 0 1 -1.3379-4.7452 9.3161 9.3161 0 0 1 .07-1.0868l-16.548 16.7534-18.1743-.0176-23.4066-22.0327a9.4093 9.4093 0 0 0 -12.9506-.0908c-.0328.0293-.0645.06-.0957.0908a9.0386 9.0386 0 0 0 0 12.7657c.03.03.0605.059.0918.0869 11.6328 10.5146 24.5454 22.4922 26.9946 25.2768v73.5127c0 5.1035 6.0361 9.2134 11.0342 9.2134a10.9682 10.9682 0 0 0 7.8584-3.6055 12.6276 12.6276 0 0 0 8.4306 3.6055c4.7788 0 10.1236-3.94 10.1236-9.2134v-73.6909c2.0335-2.2384 9.9606-10.2386 17.4161-17.6992q-1.8357-1.6812-3.7043-3.3828c-18.6947 18.6419-18.7118 18.9619-18.7118 20.1977z"/><path d="m182.9816 61.8975a15.0874 15.0874 0 1 0 15.0874-15.0875 15.1047 15.1047 0 0 0 -15.0874 15.0875zm25.1748 0a10.0874 10.0874 0 1 1 -10.0874-10.0875 10.0992 10.0992 0 0 1 10.0874 10.0875z"/><path d="m160.8666 56.6237c-.0406-.0059-.0811-.0127-.1218-.018v.0343c.0405-.0063.0812-.01.1218-.0163z"/><path d="m155.68 59.0537c.0209-.0188.0435-.0342.0645-.0528v-1.6925a9.9114 9.9114 0 0 0 -2.7457 1.7458c-.0327.0293-.0644.0591-.0952.09a8.909 8.909 0 0 0 -2.55 5.296l5.22-5.2852c.0349-.0344.0701-.0686.1064-.1013z"/><path d="m166.3473 66.3839a3.5388 3.5388 0 0 0 .1138-.8566 3.6887 3.6887 0 0 0 -1.27-2.7568c-.0328-.0293-.0645-.06-.0958-.0908a4.1812 4.1812 0 0 0 -4.2608-.931 4.07 4.07 0 0 1 1.6344.9837z"/><path d="m242.3092 59.0977a9.4139 9.4139 0 0 0 -12.9033-.0435c-.0366.0327-.0718.0664-.1065.1011l-21.7685 22.04-18.1743-.0176-18.0087-16.9516a8.412 8.412 0 0 1 .1132 1.3012 8.6123 8.6123 0 0 1 -1.2743 4.4709l16.4637 15.4984a2.4982 2.4982 0 0 0 1.711.68l20.21.02h.0024a2.5 2.5 0 0 0 1.7788-.7432l22.4473-22.7268a4.4107 4.4107 0 0 1 6.02-.0469c.0313.0312.063.0615.0957.0908a3.6261 3.6261 0 0 1 0 5.5137c-.0307.0278-.061.0566-.09.0859-26.3891 26.2422-26.3891 26.4551-26.3891 27.8413v74.5752c0 2.0479-2.6333 4.2134-5.1231 4.2134-2.65 0-6.0342-2.3628-6.0342-4.2134a2.4739 2.4739 0 0 0 -.1318-.7651v-39.0069a2.5 2.5 0 0 0 -5 0v39.772c0 2.0479-2.6338 4.2134-5.1235 4.2134-2.65 0-6.0337-2.3628-6.0337-4.2134v-74.3022c-.0035-1.2422-.0243-2.1248-20.3126-20.6355-1.1536 1.1512-2.3448 2.3415-3.55 3.5475 8.9138 8.1641 16.98 15.737 18.8625 17.8775v73.5127c0 5.1035 6.0361 9.2134 11.0337 9.2134a10.97 10.97 0 0 0 7.8588-3.605 12.6269 12.6269 0 0 0 8.4304 3.605c4.7783 0 10.1231-3.94 10.1231-9.2134v-73.6909c2.7534-3.0308 16.3125-16.6255 24.874-25.14a8.6226 8.6226 0 0 0 -.001-12.8579z"/><path d="m124.3439 76.9854a15.0877 15.0877 0 1 0 -15.0879-15.0879 15.1048 15.1048 0 0 0 15.0879 15.0879zm0-25.1753a10.0877 10.0877 0 1 1 -10.0879 10.0874 10.099 10.099 0 0 1 10.0879-10.0875z"/><path d="m133.5879 181.25a13.7153 13.7153 0 0 1 -8.3867-3.1362 12.1691 12.1691 0 0 1 -7.9024 3.1362c-5.6806 0-12.2842-4.5708-12.2842-10.4634v-73.0293c-2.1171-2.27-9.0625-8.8344-18.457-17.4389-1.2226-1.12-2.4609-2.2505-3.7021-3.38-1.48-1.3467-2.9619-2.6919-4.4229-4.0137-.0449-.04-.0967-.0884-.1455-.1377a10.1345 10.1345 0 0 1 -1.4551-1.8594 10.2885 10.2885 0 0 1 -1.5234-5.4 10.4162 10.4162 0 0 1 .0791-1.2324 10.1046 10.1046 0 0 1 2.9072-6.0342c.05-.05.1-.0971.1524-.144a11.003 11.003 0 0 1 7.3593-2.8486 10.2435 10.2435 0 0 1 7.3018 2.9926l23.0186 21.667 17.1572.0166 21.4-21.6674c.0537-.0547.11-.1089.17-.1607l.0889-.0742 2.0224-1.5889.0293 2.5479v7.61l-19.4775 19.72a3.776 3.776 0 0 1 -2.669 1.1147l-20.2138-.02a3.7366 3.7366 0 0 1 -2.5674-1.02l-24.1804-22.7634a2.8717 2.8717 0 0 0 -2.0762-.854 3.3892 3.3892 0 0 0 -.8808.1186 3.5775 3.5775 0 0 0 -1.3965.7237 2.8324 2.8324 0 0 0 -.6426 2.541 2.7012 2.7012 0 0 0 .6807 1.2915c1.5605 1.4082 3.0762 2.7807 4.5166 4.0888 1.3066 1.1871 2.5371 2.3072 3.706 3.3741 20.712 18.9062 20.7149 19.7905 20.7207 21.5527v74.3076c0 .8833 2.502 2.9634 4.7842 2.9634 1.9209 0 3.8731-1.7241 3.8731-2.9634h2.5a1.25 1.25 0 0 0 2.5 0v-8.7266l2.4394 7.5781a3.6879 3.6879 0 0 1 .1924 1.1484c0 .8833 2.502 2.9634 4.7842 2.9634 1.9209 0 3.873-1.7241 3.873-2.9634v-74.5751c0-1.8232 0-2.0576 19.0791-21.083l7.68-7.645.125-.12a2.5588 2.5588 0 0 0 .79-1.2823 2.3218 2.3218 0 0 0 .0761-.5542 2.4568 2.4568 0 0 0 -.8564-1.8276l-.1436-.1362a2.7582 2.7582 0 0 0 -1.9746-.7837 3.4262 3.4262 0 0 0 -1.0263.1606l-1.6827.4605-.0322-1.627v-6.2007l1.1582-.1817a11.1013 11.1013 0 0 1 1.5694-.1142 10.2376 10.2376 0 0 1 7.2382 2.93 10.0422 10.0422 0 0 1 3.1221 5.8257 9.5636 9.5636 0 0 1 .1279 1.4946 9.8569 9.8569 0 0 1 -1.457 5.1206 10.1531 10.1531 0 0 1 -1.8262 2.23l-7.417 7.4014c-4.2421 4.2461-14.1289 14.164-17.05 17.3037v73.2031c0 5.9894-6.0048 10.464-11.373 10.464z"/></g><path d="m85.8068 56.5183a9.02 9.02 0 0 1 6.4174 2.6262l23.4068 22.0327 18.1743.0176 16.5483-16.7543 5.22-5.2852c.0346-.0347.07-.0689.1064-.1016.0209-.0188.0435-.0342.0645-.0528v7.0967l-.3476.3519-3.7761 3.823-14.9935 15.18a2.5 2.5 0 0 1 -1.7788.7432h-.0025l-20.21-.02a2.4982 2.4982 0 0 1 -1.711-.68l-24.1817-22.7633a4.1025 4.1025 0 0 0 -2.9324-1.194 4.6265 4.6265 0 0 0 -1.2079.1624 4.8259 4.8259 0 0 0 -1.9339 1.0248 4.0609 4.0609 0 0 0 -.997 3.7239 3.939 3.939 0 0 0 1.0033 1.8859c1.6178 1.4624 3.1317 2.8345 4.5717 4.142 1.3066 1.1867 2.5361 2.306 3.7043 3.3725 20.2883 18.5188 20.31 19.4361 20.3134 20.633v74.3037c0 1.8506 3.3833 4.2134 6.0337 4.2134 2.49 0 5.1235-2.1655 5.1235-4.2134a2.5 2.5 0 0 0 5 0v-.7651a2.4709 2.4709 0 0 1 .1318.7651c0 1.8506 3.3833 4.2134 6.0337 4.2134 2.49 0 5.1236-2.1655 5.1236-4.2134v-74.5752c0-1.2358.0172-1.5559 18.7118-20.1977 1.1165-1.1134 2.2957-2.2882 3.5495-3.5365 1.3026-1.2968 2.6683-2.6557 4.1278-4.1071.0293-.0293.06-.0581.09-.0859a3.7781 3.7781 0 0 0 1.1567-1.9 3.5388 3.5388 0 0 0 .1138-.8566 3.6887 3.6887 0 0 0 -1.27-2.7568c-.0328-.0293-.0645-.06-.0958-.0908a3.9942 3.9942 0 0 0 -2.8581-1.15 4.6656 4.6656 0 0 0 -1.4027.2191c-.03.0093-.06.0155-.0892.0254v-5.1345c.0405-.0063.0812-.0105.1219-.0163a9.606 9.606 0 0 1 1.356-.0965 9.0029 9.0029 0 0 1 6.3614 2.5705 8.7979 8.7979 0 0 1 2.7638 5.1284 8.4244 8.4244 0 0 1 .1132 1.3012 8.6123 8.6123 0 0 1 -1.2743 4.4709 8.9275 8.9275 0 0 1 -1.6017 1.9574c-1.2162 1.2095-2.5353 2.5236-3.9079 3.8933-1.1535 1.1512-2.3447 2.3415-3.55 3.5475-7.4555 7.4607-15.3828 15.4609-17.4163 17.6993v73.6909c0 5.2735-5.3448 9.2134-10.1236 9.2134a12.6286 12.6286 0 0 1 -8.43-3.605 10.97 10.97 0 0 1 -7.8589 3.605c-4.9976 0-11.0337-4.11-11.0337-9.2134v-73.5127c-1.8837-2.1408-9.9495-9.7135-18.8627-17.8774q-1.8357-1.6812-3.7043-3.3828c-1.4805-1.3479-2.9643-2.6938-4.4277-4.0166-.0312-.0279-.062-.0572-.0913-.0869a8.9165 8.9165 0 0 1 -1.2828-1.6377 9.0129 9.0129 0 0 1 -1.3378-4.7452 9.3161 9.3161 0 0 1 .07-1.0868 8.91 8.91 0 0 1 2.55-5.296c.0308-.0312.0625-.061.0952-.09a9.7674 9.7674 0 0 1 6.5328-2.5359m72.438-3.06-4.115 3.6336c-.0419.0338-.0822.0679-.1219.1037-.065.058-.1341.1243-.2017.192l-5.2312 5.2962-15.8133 16.01-16.1382-.0156-22.66-21.33a11.484 11.484 0 0 0 -8.1568-3.33 12.26 12.26 0 0 0 -8.2052 3.1777c-.0673.06-.1366.1259-.2041.1944a11.3333 11.3333 0 0 0 -3.252 6.7589 11.804 11.804 0 0 0 -.0873 1.378 11.58 11.58 0 0 0 3.3532 8.151c.0527.0537.124.1216.1965.1861 1.447 1.3081 2.9286 2.652 4.4067 3.9979q1.86 1.6935 3.6989 3.3778c8.9385 8.187 15.6418 14.5084 18.0513 17.0146v72.5319c0 6.5967 7.2751 11.7134 13.5337 11.7134a13.37 13.37 0 0 0 7.9356-2.7931 14.8758 14.8758 0 0 0 8.3534 2.7931 13.34 13.34 0 0 0 8.4734-3.2246 11.1126 11.1126 0 0 0 4.15-8.4888v-72.709c2.3463-2.4873 8.3009-8.5247 16.6848-16.9143 1.2042-1.2052 2.3945-2.3946 3.5472-3.5449 1.3583-1.3555 2.6642-2.6565 3.87-3.8554a11.4422 11.4422 0 0 0 2.01-2.4656 11.1113 11.1113 0 0 0 1.6386-5.77 10.8874 10.8874 0 0 0 -.1432-1.6873 11.3324 11.3324 0 0 0 -3.5125-6.5558 11.48 11.48 0 0 0 -8.0827-3.257 12.1486 12.1486 0 0 0 -1.7088.1215l-.1522.0208-2.1169.3282v-1.04zm3.237 10.7057h.0016l.1017-.03a2.1661 2.1661 0 0 1 .6516-.1036 1.5149 1.5149 0 0 1 1.09.4174c.0644.0644.1293.126.1961.1859a1.22 1.22 0 0 1 .4385.8945 1.09 1.09 0 0 1 -.04.2522 1.2828 1.2828 0 0 1 -.4032.6463c-.0665.06-.1272.1179-.1858.1766l-4.1239 4.103-3.551 3.538c-19.4465 19.3917-19.4465 19.5372-19.4465 21.968v74.5752a3.0953 3.0953 0 0 1 -2.6236 1.7134 5.2147 5.2147 0 0 1 -3.5366-1.8769 4.9862 4.9862 0 0 0 -.25-1.3714l-4.8781-15.0759v16.61h-5a3.0951 3.0951 0 0 1 -2.6235 1.7134 5.2237 5.2237 0 0 1 -3.5337-1.8715v-74.146c-.0078-2.3986-.01-3.2039-21.128-22.4795-1.17-1.0677-2.4007-2.1884-3.7089-3.3766-1.4187-1.2883-2.909-2.639-4.5-4.0769a1.4694 1.4694 0 0 1 -.3186-.6557 1.587 1.587 0 0 1 .2927-1.36 2.364 2.364 0 0 1 .8538-.4206 2.1266 2.1266 0 0 1 .5548-.0756 1.6191 1.6191 0 0 1 1.1657.4629l.0262.0261.0269.0253 24.1816 22.7642a4.98 4.98 0 0 0 3.4227 1.3594l20.21.02a5.0343 5.0343 0 0 0 3.5623-1.4864l14.994-15.1802 3.7761-3.8229.3477-.3522.7212-.73v-1.8694l3.237-1.0909z" fill="#fff"/><path d="m124.922 128.5146a2.5 2.5 0 0 0 -2.5 2.5v39.772a2.5 2.5 0 0 0 5 0v-39.772a2.5 2.5 0 0 0 -2.5-2.5z" fill="#393c41"/><path d="m169.989 16.748v26.371l30.755-12.109z" fill="#1f7acc"/><path d="m166.0822 48.856a2.5 2.5 0 0 0 2.3232.26l37.5957-14.8022a3.31 3.31 0 0 0 2.2236-3.1822 3.4044 3.4044 0 0 0 -1.9946-3.0874l-37.689-17.479a2.5 2.5 0 0 0 -3.5517 2.2681v33.9567a2.5008 2.5008 0 0 0 1.0928 2.066zm3.9072-32.108 30.7544 14.262-30.7544 12.1087z" fill="#393c41"/><path d="m158.2451 71.3311a2.2837 2.2837 0 0 1 -.3935-.0381 3.9388 3.9388 0 0 1 -3.5811-3.6695 1.7247 1.7247 0 0 1 -.0254-.2924v-54.4981a4 4 0 1 1 8 0v54.4981a4.0043 4.0043 0 0 1 -4 4z" fill="#393c41"/><path d="m158.2448 10.333a2.5 2.5 0 0 1 2.5 2.5v54.4981a2.5 2.5 0 0 1 -2.5 2.5c-.0773 0-.148-.022-.2233-.0289a2.4425 2.4425 0 0 1 -2.259-2.3524c-.002-.0409-.0177-.0774-.0177-.1187v-54.4981a2.5 2.5 0 0 1 2.5-2.5m0-3a5.5062 5.5062 0 0 0 -5.5 5.5v54.4981a3.2362 3.2362 0 0 0 .0355.4739 5.4367 5.4367 0 0 0 4.8645 4.9744 3.6144 3.6144 0 0 0 .6.0517 5.5062 5.5062 0 0 0 5.5-5.5v-54.4981a5.5062 5.5062 0 0 0 -5.5-5.5z" fill="#fff"/></svg>
