<svg height="180" viewBox="0 0 248 180" width="248" xmlns="http://www.w3.org/2000/svg"><path d="m107.054 147.245 6.91 30.255h19.939l6.91-30.255z" fill="#1f7acc"/><g fill="#393c41"><path d="m124.9653 47.25a2.5 2.5 0 0 1 -2.5-2.5v-17.9893a2.5 2.5 0 0 1 5 0v17.9893a2.5 2.5 0 0 1 -2.5 2.5z"/><path d="m84.355 63.2715a2.4933 2.4933 0 0 1 -1.7681-.7324l-12.72-12.7207a2.5 2.5 0 1 1 3.5361-3.5352l12.72 12.7207a2.5 2.5 0 0 1 -1.768 4.2676z"/><path d="m66.9678 103.3164h-17.9888a2.5 2.5 0 0 1 0-5h17.9888a2.5 2.5 0 0 1 0 5z"/><path d="m70.269 156.6475a2.5 2.5 0 0 1 -1.7675-4.2676l12.7207-12.7207a2.5 2.5 0 0 1 3.5351 3.5351l-12.7207 12.7207a2.491 2.491 0 0 1 -1.7676.7325z"/><path d="m176.3647 158.0127a2.4929 2.4929 0 0 1 -1.768-.7324l-12.7193-12.72a2.5 2.5 0 1 1 3.5362-3.5352l12.7192 12.72a2.5 2.5 0 0 1 -1.7681 4.2676z"/><path d="m199.021 105.2476h-17.9888a2.5 2.5 0 0 1 0-5h17.9888a2.5 2.5 0 0 1 0 5z"/><path d="m165.0107 64.6367a2.5 2.5 0 0 1 -1.7675-4.2676l12.72-12.72a2.5 2.5 0 0 1 3.5351 3.5352l-12.72 12.72a2.4909 2.4909 0 0 1 -1.7676.7324z"/></g><path d="m136.0254 92.105c-.0269-.0005-.0542-.001-.0816-.001a3.1267 3.1267 0 0 0 -2.1679.8672c-.5762.5474-1.085 2.9409-1.2559 5.5405 2.6245-.0351 5.0112-.42 5.5962-.9761a3.1494 3.1494 0 0 0 -2.0908-5.4306z" fill="none"/><path d="m111.1733 92.104c-.0268 0-.0542.0005-.0815.001a3.1494 3.1494 0 0 0 -2.09 5.4306c.5756.5479 2.9922.9356 5.5976.9747-.1679-2.6192-.6723-4.983-1.2573-5.5391a3.1288 3.1288 0 0 0 -2.1688-.8672z" fill="none"/><path d="m144.0933 95.459a8.1495 8.1495 0 0 0 -13.7622-6.1118c-2.0732 1.9705-2.6685 6.1659-2.8221 9.0913h-7.9c-.1535-2.9256-.7489-7.1211-2.822-9.0913a8.1495 8.1495 0 1 0 -11.23 11.8125c2.0441 1.9433 6.1745 2.3413 9.0981 2.3574v30.9463a2.5 2.5 0 0 0 5 0v-31.0249h7.8091v31.0249a2.5 2.5 0 1 0 5 0v-30.9463c2.9236-.0161 7.0539-.4141 9.0981-2.3574a8.0973 8.0973 0 0 0 2.531-5.7007zm-35.0918 2.0766a3.1494 3.1494 0 0 1 2.09-5.4306c.0273-.0005.0547-.001.0815-.001a3.1288 3.1288 0 0 1 2.1685.8672c.585.5561 1.0894 2.92 1.2573 5.5391-2.6051-.0391-5.0217-.4268-5.5973-.9747zm29.1147 0c-.585.5562-2.9717.941-5.5962.9761.1709-2.6.68-4.9931 1.2559-5.5405a3.1267 3.1267 0 0 1 2.1679-.8672c.0274 0 .0547.0005.0816.001a3.1494 3.1494 0 0 1 2.0908 5.4306z" fill="#393c41"/><path d="m136.3555 149.7446h-24.8443a2.5 2.5 0 0 1 0-5h24.8443a2.5 2.5 0 0 1 0 5z" fill="#393c41"/><path d="m113.747 165.323h20.373l1.134-4.967h-22.641z" fill="none"/><path d="m111.5112 155.3564h24.8443c.0136 0 .0261.0038.04.0041l1.2826-5.6158h-27.4881l1.2825 5.6157c.0129-.0004.0253-.004.0387-.004z" fill="none"/><path d="m114.889 170.323 1.069 4.677h15.952l1.068-4.677z" fill="none"/><path d="m166.3167 92.1617a43.3067 43.3067 0 0 0 -32.9522-32.7363 44.96 44.96 0 0 0 -9.1162-.9424c-.083-.0064-.1665-.0069-.2515-.0054-.0967-.0015-.1655 0-.2431.0054a44.9146 44.9146 0 0 0 -9.1167.9424 43.3967 43.3967 0 0 0 -20.8389 73.5429 46.9192 46.9192 0 0 0 4.917 3.9375 10.0272 10.0272 0 0 1 3.5195 4.5943l2.3825 6.3v.0013l6.91 30.2553a2.5 2.5 0 0 0 2.4373 1.9433h19.9384a2.4993 2.4993 0 0 0 2.437-1.9434l6.7557-29.5786a2.5109 2.5109 0 0 0 .1635-.349l1.2974-3.43h-5.3455l-.0173.0457h-30.3862l-1.8965-5.0141a15.016 15.016 0 0 0 -5.2695-6.8794 43.0826 43.0826 0 0 1 -4.3589-3.4687 38.6376 38.6376 0 0 1 -10.7125-36.1625 38.2406 38.2406 0 0 1 29.0967-28.9019 40.1149 40.1149 0 0 1 8.2729-.8354h.1231a40.1291 40.1291 0 0 1 8.2729.8354 38.2363 38.2363 0 0 1 29.0944 28.9012v.0007a38.6353 38.6353 0 0 1 -10.7114 36.1621 42.9043 42.9043 0 0 1 -4.3608 3.4692 9.184 9.184 0 0 0 -2.6331 2.3592 2.48 2.48 0 0 0 -.1631.2044c-.029.0355-.0576.0707-.09.1088l.0188.0222a2.4743 2.4743 0 0 0 -.345 1.2468 2.5 2.5 0 0 0 2.5 2.5h.01a2.476 2.476 0 0 0 .8592-.1613l.0119.0141c.0246-.0123.0451-.0268.0692-.0393a2.4814 2.4814 0 0 0 .7212-.46c.7166-.5492 1.2281-1.2071 1.9662-1.74a46.7472 46.7472 0 0 0 4.9184-3.937 43.6052 43.6052 0 0 0 12.1152-40.8075zm-28.639 57.583-1.2826 5.6158c-.0135 0-.026-.0041-.04-.0041h-24.8439c-.0134 0-.0258.0038-.0392.004l-1.2825-5.6157zm-3.5577 15.5785h-20.3726l-1.1344-4.9668h22.6412zm-18.1625 9.6768-1.0681-4.6768h18.0884l-1.0678 4.6768z" fill="#393c41"/></svg>
