<?xml version="1.0" encoding="utf-8"?>
<!-- Generator: Adobe Illustrator 28.1.0, SVG Export Plug-In . SVG Version: 6.00 Build 0)  -->
<svg version="1.1" id="レイヤー_1" xmlns="http://www.w3.org/2000/svg" xmlns:xlink="http://www.w3.org/1999/xlink" x="0px"
	 y="0px" viewBox="0 0 50 50" style="enable-background:new 0 0 50 50;" xml:space="preserve">
<style type="text/css">
	.st0{clip-path:url(#SVGID_00000103964400618157860430000008757676432136113587_);}
	.st1{fill-rule:evenodd;clip-rule:evenodd;}
	.st2{clip-path:url(#SVGID_00000163049759038063611610000001311965993286691517_);}
	.st3{fill:#FFFFFF;}
</style>
<g>
	<defs>
		<rect id="SVGID_1_" y="0" width="50" height="50"/>
	</defs>
	<clipPath id="SVGID_00000064316798019843284900000013437401431977867672_">
		<use xlink:href="#SVGID_1_"  style="overflow:visible;"/>
	</clipPath>
	<g style="clip-path:url(#SVGID_00000064316798019843284900000013437401431977867672_);">
		<path class="st1" d="M25,0C11.2,0,0,11.2,0,25s11.2,25,25,25s25-11.2,25-25S38.8,0,25,0z"/>
		<g>
			<defs>
				<rect id="SVGID_00000106843551346563228000000003517752011928702597_" x="12.8" y="12.5" width="24.5" height="25"/>
			</defs>
			<clipPath id="SVGID_00000029041464915781522030000009731950076662187146_">
				<use xlink:href="#SVGID_00000106843551346563228000000003517752011928702597_"  style="overflow:visible;"/>
			</clipPath>
			<g style="clip-path:url(#SVGID_00000029041464915781522030000009731950076662187146_);">
				<path class="st3" d="M27.3,23.1l9.1-10.6h-2.2l-7.9,9.2L20,12.5h-7.3l9.6,13.9l-9.6,11.1h2.2l8.4-9.7l6.7,9.7h7.3L27.3,23.1
					L27.3,23.1z M24.4,26.5l-1-1.4l-7.7-11H19l6.2,8.9l1,1.4l8.1,11.5H31L24.4,26.5L24.4,26.5z"/>
			</g>
		</g>
	</g>
</g>
</svg>
