<svg xmlns="http://www.w3.org/2000/svg" viewBox="0 0 45.557 40.43"><defs><style>.cls-1{fill:#393c41}</style></defs><g id="icon_service_hosting" transform="translate(-.1 -.1)"><path id="パス_1266" d="M40.239 28.1a1.124 1.124 0 0 0-1.139 1.139 1.171 1.171 0 0 0 1.139 1.139 1.124 1.124 0 0 0 1.139-1.139 1.083 1.083 0 0 0-1.139-1.139zm.5.783z" class="cls-1" data-name="パス 1266" transform="translate(-11.24 -8.07)"/><path id="パス_1267" d="M40.239 48.4a1.139 1.139 0 1 0 1.139 1.139 1.083 1.083 0 0 0-1.139-1.139z" class="cls-1" data-name="パス 1267" transform="translate(-11.24 -13.921)"/><path id="パス_1268" d="M41.241 18.678a7.736 7.736 0 0 0 .071-1.281 8.071 8.071 0 0 0-5.765-7.759 13.113 13.113 0 0 0-25.126-.356A11.957 11.957 0 0 0 .1 21.1a11.828 11.828 0 0 0 11.389 11.742h.285v3.772a3.844 3.844 0 0 0 3.844 3.915h14.804a3.9 3.9 0 0 0 3.915-3.915v-3.772h3.986a7.382 7.382 0 0 0 7.331-7.4 6.972 6.972 0 0 0-4.413-6.764zm-2.847 12.243h-3.986V20.1a3.95 3.95 0 0 0-3.915-3.915H15.617a3.889 3.889 0 0 0-3.844 3.915v10.749h-.142a9.8 9.8 0 0 1-.356-19.574.915.915 0 0 0 .854-.712 11.145 11.145 0 0 1 21.638.142.914.914 0 0 0 .712.712 6.231 6.231 0 0 1 4.84 6.05 6.463 6.463 0 0 1-.214 1.637 1.008 1.008 0 0 0 .071.783 1.266 1.266 0 0 0 .569.5 5.342 5.342 0 0 1 3.986 5.2 5.242 5.242 0 0 1-5.337 5.334zM13.766 20.1a1.914 1.914 0 0 1 1.922-1.922h14.805a2.025 2.025 0 0 1 1.993 1.922v3.7h-18.72zm18.649 5.623v5.125H13.766v-5.124zm-1.993 12.956H15.617a1.931 1.931 0 0 1-1.917-1.993v-3.772h18.644v3.772a1.93 1.93 0 0 1-1.922 1.993z" class="cls-1" data-name="パス 1268"/><path id="パス_1269" d="M40.239 40.578a1.139 1.139 0 1 0-1.139-1.139 1.171 1.171 0 0 0 1.139 1.139z" class="cls-1" data-name="パス 1269" transform="translate(-11.24 -11.01)"/></g></svg>