<svg xmlns="http://www.w3.org/2000/svg" id="icon_social_line" viewBox="0 0 50 50"><defs><style>.cls-1{fill:#00b900}</style></defs><g id="LINE_LOGO" data-name="LINE LOGO"><circle id="楕円形_21" cx="25" cy="25" r="25" class="cls-1" data-name="楕円形 21"/><g id="TYPE_A" data-name="TYPE A" transform="translate(8.202 9.824)"><path id="パス_391" d="M53.686 37.637C53.686 30.12 46.148 24 36.888 24s-16.8 6.12-16.8 13.637c0 6.734 5.977 12.383 14.05 13.448.547.118 1.292.362 1.477.842a3.367 3.367 0 0 1 .055 1.519l-.24 1.435c-.072.421-.337 1.684 1.456.9s9.681-5.691 13.2-9.765a12.115 12.115 0 0 0 3.6-8.384" data-name="パス 391" transform="translate(-20.09 -24)" fill="#fff"/><path id="パス_392" d="M49.817 47.77h-1.179a.328.328 0 0 0-.328.324v7.319a.328.328 0 0 0 .328.328h1.179a.328.328 0 0 0 .328-.328v-7.319a.328.328 0 0 0-.328-.324" class="cls-1" data-name="パス 392" transform="translate(-36.432 -37.765)"/><path id="パス_393" d="M62.028 47.77h-1.179a.328.328 0 0 0-.328.324v4.348l-3.367-4.529-.013-.046v-.021h-1.423a.328.328 0 0 0-.328.324v7.244a.328.328 0 0 0 .328.328h1.191a.324.324 0 0 0 .324-.328V51.07L60.6 55.6a.375.375 0 0 0 .084.08h.046a.269.269 0 0 0 .084 0h1.179a.328.328 0 0 0 .328-.328v-7.258a.328.328 0 0 0-.328-.324" class="cls-1" data-name="パス 393" transform="translate(-40.532 -37.765)"/><path id="パス_394" d="M38.237 53.907h-3.2v-5.813a.328.328 0 0 0-.328-.324h-1.161a.328.328 0 0 0-.328.324v7.319a.337.337 0 0 0 .093.227.32.32 0 0 0 .227.093h4.7a.328.328 0 0 0 .328-.328v-1.178a.328.328 0 0 0-.328-.328" class="cls-1" data-name="パス 394" transform="translate(-27.694 -37.765)"/><path id="パス_395" d="M79.711 49.6a.324.324 0 0 0 .324-.328V48.1a.324.324 0 0 0-.324-.328H75a.307.307 0 0 0-.223.093.328.328 0 0 0-.088.223v7.328a.32.32 0 0 0 .093.227.316.316 0 0 0 .223.093h4.706a.324.324 0 0 0 .324-.328v-1.181a.324.324 0 0 0-.324-.328H76.5v-1.226h3.2a.324.324 0 0 0 .324-.328v-1.178a.324.324 0 0 0-.324-.328h-3.2V49.6z" class="cls-1" data-name="パス 395" transform="translate(-51.709 -37.765)"/></g></g></svg>