<svg xmlns="http://www.w3.org/2000/svg" id="icon_service_ec" viewBox="0 0 42.4 40.598"><defs><style>.cls-1{fill:#393c41}</style></defs><g id="グループ化_488" data-name="グループ化 488"><g id="グループ化_486" data-name="グループ化 486" transform="translate(.273 .273)"><path id="パス_1354" d="M15.294 29.1h19a3.588 3.588 0 0 0 3.417-2.665l4.374-16.13a.7.7 0 0 0-.137-.615.844.844 0 0 0-.547-.273H8.733L6.409 1.078A.656.656 0 0 0 5.794.6H1.283a.646.646 0 0 0-.683.683.646.646 0 0 0 .683.683h3.965L7.435 10.1v.205l4.374 16.13c0 .137.068.205.137.342l1.572 5.741a4.116 4.116 0 0 0-2.324 3.691 4.135 4.135 0 0 0 8.27-.068 3.937 3.937 0 0 0-1.094-2.734h12.78a4.064 4.064 0 0 0-1.094 2.734 4.135 4.135 0 0 0 8.27.068 4.113 4.113 0 0 0-4.1-4.1H14.953l-.888-3.281a2.5 2.5 0 0 0 1.229.272zm0 9.91a2.9 2.9 0 0 1-2.734-2.8 2.742 2.742 0 0 1 2.734-2.734 2.8 2.8 0 0 1 2.8 2.734 2.772 2.772 0 0 1-2.8 2.8zm19 0a2.768 2.768 0 1 1 0-5.536 2.742 2.742 0 0 1 2.734 2.734 2.848 2.848 0 0 1-2.734 2.802zm6.288-28.227l-4.169 15.31a2.137 2.137 0 0 1-2.119 1.64h-19a2.145 2.145 0 0 1-1.982-1.367l-1.982-7.313a.067.067 0 0 0-.068-.068l-.41-1.572v-.205l-1.777-6.425z" class="cls-1" data-name="パス 1354" transform="translate(-.463 -.463)"/><path id="パス_1355" d="M34.231 40.451a4.288 4.288 0 0 1-4.306-4.306 4.412 4.412 0 0 1 .888-2.6H18.648a4 4 0 0 1 .888 2.6 4.272 4.272 0 1 1-8.543.068 4.354 4.354 0 0 1 2.324-3.827l-1.572-5.741c0-.068-.068-.137-.068-.273L7.3 10.242v-.205l-2.187-8H1.22A.79.79 0 0 1 .4 1.22.79.79 0 0 1 1.22.4h4.511a.957.957 0 0 1 .82.615l2.255 8.27h32.67a.949.949 0 0 1 .683.342.842.842 0 0 1 .137.683l-4.374 16.13a3.8 3.8 0 0 1-3.554 2.8H15.231a3.1 3.1 0 0 1-1.094-.205l.82 2.871h19.274a4.259 4.259 0 0 1 4.237 4.237 4.318 4.318 0 0 1-4.237 4.308zm-16.2-7.176h13.4l-.205.205a3.954 3.954 0 0 0-1.026 2.665 4 4 0 1 0 8 .068 3.967 3.967 0 0 0-3.964-3.964H14.753l-1.025-3.622.273.137a2.774 2.774 0 0 0 1.3.273h19a3.368 3.368 0 0 0 3.281-2.6l4.374-16.2a.6.6 0 0 0-.068-.478.591.591 0 0 0-.41-.205H8.533L6.278 1.083a.573.573 0 0 0-.547-.41H1.22a.588.588 0 0 0-.547.547.588.588 0 0 0 .547.547h4.1l2.255 8.27v.205l4.374 16.13c0 .068.068.137.068.205v.068l1.572 5.878-.068.068a4.029 4.029 0 0 0-2.255 3.622 3.982 3.982 0 0 0 3.964 4.032 4.04 4.04 0 0 0 4.032-4.032 3.954 3.954 0 0 0-1.025-2.665zm16.2 5.809a2.9 2.9 0 1 1 0-5.809 2.888 2.888 0 0 1 2.869 2.87 3 3 0 0 1-2.869 2.939zm0-5.536a2.632 2.632 0 1 0 0 5.263 2.7 2.7 0 0 0 2.6-2.665 2.6 2.6 0 0 0-2.6-2.598zm-19 5.536a3.045 3.045 0 0 1-2.871-2.939 2.9 2.9 0 0 1 5.809 0 2.917 2.917 0 0 1-2.938 2.939zm0-5.536a2.6 2.6 0 0 0-2.6 2.6 2.632 2.632 0 1 0 5.263 0 2.612 2.612 0 0 0-2.663-2.6zm19-5.741h-19a2.29 2.29 0 0 1-2.119-1.435l-2.46-8.953v-.137l-1.777-6.63h31.849l-.068.205-4.17 15.243a2.338 2.338 0 0 1-2.255 1.707zM10.925 17.35l.41 1.572a.067.067 0 0 0 .068.068l1.983 7.31a2.081 2.081 0 0 0 1.845 1.23h19a2.052 2.052 0 0 0 1.982-1.572l4.1-15.173H9.217l1.709 6.288z" class="cls-1" data-name="パス 1355" transform="translate(-.4 -.4)"/></g><g id="グループ化_487" data-name="グループ化 487"><path id="パス_1356" d="M34.168 40.524a4.434 4.434 0 0 1-4.442-4.442 3.952 3.952 0 0 1 .82-2.46H18.79a4.1 4.1 0 0 1 .82 2.46 4.374 4.374 0 1 1-8.748.068v-.068a4.537 4.537 0 0 1 2.255-3.9l-1.572-5.6c0-.068-.068-.137-.068-.273L7.1 10.178v-.205L4.916 2.114H1.157A.977.977 0 0 1 .2 1.157.977.977 0 0 1 1.157.2h4.511a.885.885 0 0 1 .888.683l2.187 8.134h32.533a1.1 1.1 0 0 1 .752.342.873.873 0 0 1 .137.82L37.79 26.308a3.875 3.875 0 0 1-3.69 2.871H15.168a4.615 4.615 0 0 1-.957-.137l.683 2.6H34.1a4.4 4.4 0 0 1 4.374 4.374v.068a4.362 4.362 0 0 1-4.306 4.44zM17.7 33.074h13.939l-.41.41a3.668 3.668 0 0 0-1.025 2.6 3.939 3.939 0 0 0 3.9 3.9 3.836 3.836 0 0 0 3.827-3.9v-.068a3.821 3.821 0 0 0-3.831-3.83H14.553l-1.094-3.964.478.205a3.991 3.991 0 0 0 1.23.273h19a3.363 3.363 0 0 0 3.212-2.46l4.374-16.13a.3.3 0 0 0-.068-.342c-.068-.137-.205-.137-.342-.137H8.4L6.078 1.02a.375.375 0 0 0-.41-.273H1.157a.362.362 0 0 0-.41.41.394.394 0 0 0 .41.41h4.169l2.255 8.406v.205l4.374 16.13c0 .068.068.137.068.205v.068l1.64 5.946-.205.068a3.884 3.884 0 0 0-2.187 3.486 3.836 3.836 0 0 0 3.827 3.9 3.894 3.894 0 0 0 3.9-3.9 3.787 3.787 0 0 0-1.025-2.6zm16.471 6.083a3.042 3.042 0 1 1 0-6.083 2.976 2.976 0 0 1 2.939 3.007 3.083 3.083 0 0 1-2.942 3.076zm0-5.536a2.509 2.509 0 0 0-2.529 2.46 2.495 2.495 0 1 0 4.989 0 2.45 2.45 0 0 0-2.463-2.46zm-19 5.536a3.008 3.008 0 1 1 3.076-3.007 3.021 3.021 0 0 1-3.079 3.007zm0-5.536a2.53 2.53 0 0 0 0 5.058A2.568 2.568 0 0 0 17.7 36.15a2.441 2.441 0 0 0-2.532-2.529zm19-5.741h-19a2.545 2.545 0 0 1-2.255-1.5l-1.986-7.317V19l-.478-1.64v-.21l-1.845-6.767H40.8l-4.308 15.652a2.347 2.347 0 0 1-2.324 1.845zm-22.762-9.022v.068l1.982 7.313a1.958 1.958 0 0 0 1.777 1.161h19a1.907 1.907 0 0 0 1.845-1.435L40.114 11H9.29l1.64 6.151v.273l.478 1.435z" class="cls-1" data-name="パス 1356" transform="translate(-.063 -.063)"/><path id="パス_1357" d="M34.1 40.6a4.579 4.579 0 0 1-4.579-4.579 4.024 4.024 0 0 1 .683-2.324H19a4.024 4.024 0 0 1 .683 2.324A4.579 4.579 0 0 1 15.1 40.6a4.492 4.492 0 0 1-4.442-4.511v-.068a4.649 4.649 0 0 1 2.255-3.964l-1.5-5.468c0-.068-.068-.137-.068-.273L6.971 10.184V9.91L4.784 2.187h-3.69A1.124 1.124 0 0 1 0 1.094 1.124 1.124 0 0 1 1.094 0H5.6a1.089 1.089 0 0 1 1.03.82l2.187 8.065h32.464a1.1 1.1 0 0 1 .888.41 1.186 1.186 0 0 1 .205.957L38 26.381a3.958 3.958 0 0 1-3.827 2.939H15.1a2.8 2.8 0 0 1-.752-.068l.615 2.255h19.073a4.551 4.551 0 0 1 4.511 4.511v.068A4.492 4.492 0 0 1 34.1 40.6zm-15.647-7.179h12.3l-.137.205a4.276 4.276 0 0 0 3.554 6.7 4.245 4.245 0 0 0 4.169-4.237v-.068a4.259 4.259 0 0 0-4.239-4.24H14.831l-.82-2.939.205.068a4 4 0 0 0 .888.137h19a3.732 3.732 0 0 0 3.554-2.734l4.374-16.2a.842.842 0 0 0-.137-.683.816.816 0 0 0-.615-.342H8.612L6.356.888A.8.8 0 0 0 5.6.273H1.094a.831.831 0 0 0-.82.82.79.79 0 0 0 .82.82h3.9l2.182 8.065v.205l4.442 16.13c0 .068.068.137.068.273l1.572 5.741-.068.068a4.254 4.254 0 0 0-2.19 3.76v.068a4.245 4.245 0 0 0 4.169 4.237 4.288 4.288 0 0 0 4.306-4.306 4.143 4.143 0 0 0-.752-2.392zm15.647 6.63a4.04 4.04 0 0 1-4.032-4.032 3.954 3.954 0 0 1 1.032-2.666l.205-.205h-13.33l.205.205a3.954 3.954 0 0 1 1.025 2.665 4 4 0 1 1-8 0 4.107 4.107 0 0 1 2.259-3.618l.068-.068-1.64-5.946c0-.068-.068-.137-.068-.205L7.45 10.047V9.91L5.194 1.64h-4.1a.539.539 0 0 1-.547-.547.588.588 0 0 1 .547-.546H5.6a.52.52 0 0 1 .547.41l2.328 8.406h32.874a.62.62 0 0 1 .478.205.421.421 0 0 1 .068.478l-4.374 16.2a3.428 3.428 0 0 1-3.281 2.6H15.1a2.962 2.962 0 0 1-1.3-.273l-.2-.073.957 3.622h19.41a3.967 3.967 0 0 1 3.964 3.964v.068a3.752 3.752 0 0 1-3.831 3.897zm-16.74-7.177h14.557l-.615.683a3.708 3.708 0 0 0-.957 2.46 3.725 3.725 0 1 0 7.45 0v-.067a3.675 3.675 0 0 0-3.695-3.691H14.763l-.342.068-1.23-4.306.752.273a4.052 4.052 0 0 0 1.162.273h19a3.219 3.219 0 0 0 3.076-2.392l4.374-16.2a.411.411 0 0 0-.068-.273c-.068-.068-.137-.137-.205-.137H8.2l-2.322-8.54C5.809.888 5.741.82 5.6.82H1.094a.294.294 0 0 0-.273.273.25.25 0 0 0 .273.273H5.4l2.323 8.476v.137L12.1 26.108c0 .068.068.137.068.205l.068.137 1.64 6.083-.273.137a3.7 3.7 0 0 0-2.119 3.349 3.734 3.734 0 0 0 3.691 3.759 3.792 3.792 0 0 0 3.759-3.759 3.708 3.708 0 0 0-.957-2.46zM34.1 39.23a3.178 3.178 0 1 1 0-6.356 3.121 3.121 0 0 1 3.076 3.144A3.229 3.229 0 0 1 34.1 39.23zm0-6.083a2.9 2.9 0 1 0 0 5.809 2.907 2.907 0 0 0 0-5.809zm-19 6.083a3.167 3.167 0 0 1-3.076-3.144 3.121 3.121 0 0 1 3.076-3.143 3.145 3.145 0 1 1 0 6.288zm0-6.083a2.83 2.83 0 0 0-2.8 2.871 2.875 2.875 0 0 0 2.8 2.871 2.871 2.871 0 1 0 0-5.741zm19 5.536a2.632 2.632 0 1 1 0-5.263 2.612 2.612 0 0 1 2.6 2.665 2.689 2.689 0 0 1-2.6 2.599zm0-4.989a2.363 2.363 0 0 0-2.392 2.324 2.358 2.358 0 1 0 4.716 0 2.3 2.3 0 0 0-2.324-2.324zm-19 4.989a2.7 2.7 0 0 1-2.6-2.665 2.655 2.655 0 0 1 2.6-2.665 2.665 2.665 0 1 1 0 5.331zm0-4.989a2.363 2.363 0 0 0-2.324 2.392 2.358 2.358 0 1 0 4.716 0 2.3 2.3 0 0 0-2.392-2.392zm19-5.741h-19a2.614 2.614 0 0 1-2.392-1.572l-1.978-7.313V19l-.478-1.709v-.137l-1.914-6.971h32.533l-.068.205-4.238 15.652a2.563 2.563 0 0 1-2.465 1.913zm-23.169-9.3l2.119 7.655a2.4 2.4 0 0 0 2.119 1.435h19a2.422 2.422 0 0 0 2.255-1.709l4.237-15.446H8.748l1.777 6.63v.137l.41 1.3zM34.1 27.475h-19a1.939 1.939 0 0 1-1.845-1.23l-1.777-6.493v.068l-.678-2.529v-.205L9.09 10.8h31.166l-.069.2-4.1 14.968a2.069 2.069 0 0 1-1.987 1.507zm-22.618-8.748c0 .068.068.068.068.137l1.982 7.313a1.891 1.891 0 0 0 1.64 1.094h19a1.75 1.75 0 0 0 1.709-1.371l4.032-14.831H9.432l1.64 5.946v.273z" class="cls-1" data-name="パス 1357"/></g></g><g id="グループ化_491" data-name="グループ化 491" transform="translate(14.481 13.183)"><g id="グループ化_489" data-name="グループ化 489" transform="translate(.272 .202)"><path id="パス_1358" d="M24.16 31.414h.14a.709.709 0 0 0 .547-.82l-1.712-10.252a.709.709 0 0 0-.82-.547.859.859 0 0 0-.615.82l1.709 10.252a.8.8 0 0 0 .751.547z" class="cls-1" data-name="パス 1358" transform="translate(-21.621 -19.648)"/><path id="パス_1359" d="M24.124 31.487a.812.812 0 0 1-.82-.683L21.6 20.552a.831.831 0 0 1 1.64-.273l1.704 10.251a.8.8 0 0 1-.683.957zm-1.777-11.55h-.068a.656.656 0 0 0-.478.615L23.509 30.8a.551.551 0 1 0 1.094-.137l-1.709-10.248a.484.484 0 0 0-.547-.478z" class="cls-1" data-name="パス 1359" transform="translate(-21.585 -19.585)"/></g><g id="グループ化_490" data-name="グループ化 490"><path id="パス_1360" d="M24.061 31.593a1.025 1.025 0 0 1-.957-.752L21.4 20.59a.987.987 0 0 1 .752-1.094.947.947 0 0 1 1.094.752L24.95 30.5a.987.987 0 0 1-.752 1.094zm-1.777-11.619c-.273.068-.478.273-.41.478L23.583 30.7c.068.205.273.41.478.342s.41-.273.342-.478l-1.708-10.248a.383.383 0 0 0-.411-.342z" class="cls-1" data-name="パス 1360" transform="translate(-21.251 -19.352)"/><path id="パス_1361" d="M24 31.667a1.169 1.169 0 0 1-1.094-.888L21.2 20.527a1.042 1.042 0 0 1 .888-1.23 1.09 1.09 0 0 1 1.23.888l1.709 10.252a1.042 1.042 0 0 1-.888 1.23zm-1.777-12.1h-.137a.851.851 0 0 0-.683.957l1.707 10.255a.812.812 0 0 0 .82.683h.137a.851.851 0 0 0 .683-.957l-1.709-10.252a.812.812 0 0 0-.82-.683zM24 31.12a.528.528 0 0 1-.547-.478l-1.71-10.252a.6.6 0 0 1 .478-.683h.068a.528.528 0 0 1 .547.478l1.709 10.252a.6.6 0 0 1-.478.683zm-1.779-11.072c-.205 0-.273.205-.273.342l1.709 10.252a.282.282 0 1 0 .547-.137l-1.709-10.252a.305.305 0 0 0-.274-.205z" class="cls-1" data-name="パス 1361" transform="translate(-21.187 -19.289)"/></g></g><g id="グループ化_494" data-name="グループ化 494" transform="translate(30.884 13.182)"><g id="グループ化_492" data-name="グループ化 492" transform="translate(.272 .203)"><path id="パス_1362" d="M46.441 31.414h.137a.666.666 0 0 0 .683-.547l1.709-10.252a.75.75 0 0 0-.547-.82.709.709 0 0 0-.82.547l-1.709 10.252a.661.661 0 0 0 .547.82z" class="cls-1" data-name="パス 1362" transform="translate(-45.679 -19.648)"/><path id="パス_1363" d="M46.415 31.487h-.137a.8.8 0 0 1-.683-.957L47.3 20.279a.831.831 0 0 1 1.64.273L47.235 30.8a.812.812 0 0 1-.82.687zm-.068-.273a.5.5 0 0 0 .615-.478l1.709-10.252a.551.551 0 1 0-1.094-.137L45.869 30.6a.656.656 0 0 0 .478.614z" class="cls-1" data-name="パス 1363" transform="translate(-45.585 -19.585)"/></g><g id="グループ化_493" data-name="グループ化 493"><path id="パス_1364" d="M46.376 31.592h-.137a.9.9 0 0 1-.752-1.094L47.2 20.247a.9.9 0 0 1 1.09-.747.86.86 0 0 1 .752 1.094l-1.709 10.247a.964.964 0 0 1-.957.751zm-.068-.547a.4.4 0 0 0 .478-.342l1.777-10.183a.416.416 0 1 0-.82-.137l-1.709 10.253a.323.323 0 0 0 .274.41z" class="cls-1" data-name="パス 1364" transform="translate(-45.274 -19.35)"/><path id="パス_1365" d="M46.29 31.667h-.205a1.077 1.077 0 0 1-.888-1.23L46.9 20.185a1.042 1.042 0 0 1 1.23-.888 1.077 1.077 0 0 1 .888 1.23l-1.703 10.251a.986.986 0 0 1-1.025.889zm1.777-12.1a.812.812 0 0 0-.82.683L45.538 30.5a.874.874 0 0 0 .683.957h.137a.812.812 0 0 0 .82-.683l1.709-10.252a.874.874 0 0 0-.683-.957zM46.29 31.12h-.068a.679.679 0 0 1-.478-.683l1.709-10.252a.581.581 0 0 1 .205-.342.452.452 0 0 1 .41-.068.613.613 0 0 1 .478.683l-1.71 10.252c0 .205-.273.41-.546.41zm0-.273c.137 0 .342-.068.342-.205L48.34 20.39a.251.251 0 0 0-.068-.205c-.068-.068-.137-.137-.205-.137a.251.251 0 0 0-.205.068c-.068.068-.137.137-.137.205l-1.709 10.252a.25.25 0 0 0 .274.273z" class="cls-1" data-name="パス 1365" transform="translate(-45.187 -19.287)"/></g></g><g id="グループ化_497" data-name="グループ化 497" transform="translate(20.429 13.122)"><g id="グループ化_495" data-name="グループ化 495" transform="translate(.28 .273)"><path id="パス_1366" d="M31.862 31.419a.7.7 0 0 0 .683-.752l-.683-10.252c0-.41-.342-.615-.752-.615a.617.617 0 0 0-.615.752l.684 10.248a.674.674 0 0 0 .683.619z" class="cls-1" data-name="パス 1366" transform="translate(-30.358 -19.663)"/><path id="パス_1367" d="M31.8 31.492a.821.821 0 0 1-.82-.752l-.68-10.252a.889.889 0 0 1 .752-.888.776.776 0 0 1 .82.752l.683 10.248a.7.7 0 0 1-.752.888zm-.683-11.55a.558.558 0 0 0-.547.615l.683 10.252a.528.528 0 0 0 .547.478h.068a.484.484 0 0 0 .478-.547l-.683-10.252a.5.5 0 0 0-.543-.546z" class="cls-1" data-name="パス 1367" transform="translate(-30.3 -19.6)"/></g><g id="グループ化_496" data-name="グループ化 496"><path id="パス_1368" d="M31.74 31.562a1.021 1.021 0 0 1-.957-.888L30.1 20.422a.981.981 0 0 1 .888-1.025.934.934 0 0 1 1.025.888l.687 10.252a.989.989 0 0 1-.957 1.025zm-.683-11.619a.457.457 0 0 0-.41.478l.683 10.252a.441.441 0 0 0 .41.41.457.457 0 0 0 .41-.478l-.683-10.252a.394.394 0 0 0-.41-.41z" class="cls-1" data-name="パス 1368" transform="translate(-29.957 -19.26)"/><path id="パス_1369" d="M31.674 31.639a1.11 1.11 0 0 1-1.094-1.025l-.68-10.252a1.079 1.079 0 0 1 1.022-1.162 1.028 1.028 0 0 1 .752.273 1.1 1.1 0 0 1 .342.752l.684 10.252a1.037 1.037 0 0 1-1.025 1.162zm-.683-12.1a.848.848 0 0 0-.82.888l.683 10.252a.821.821 0 0 0 .82.752h.068a.821.821 0 0 0 .752-.82l-.683-10.252a.844.844 0 0 0-.273-.547.622.622 0 0 0-.547-.27zm.82 11.687h-.273v-.137a.586.586 0 0 1-.41-.478l-.683-10.252a.6.6 0 0 1 .547-.615.6.6 0 0 1 .615.547l.683 10.252a.971.971 0 0 1-.137.41.355.355 0 0 1-.273.137zm-.82-11.209a.313.313 0 0 0-.273.342l.682 10.255a.294.294 0 0 0 .273.273c.068 0 .137-.068.205-.068a.251.251 0 0 0 .068-.205l-.683-10.252c.068-.205-.068-.342-.273-.342z" class="cls-1" data-name="パス 1369" transform="translate(-29.89 -19.2)"/></g></g><g id="グループ化_500" data-name="グループ化 500" transform="translate(25.971 13.122)"><g id="グループ化_498" data-name="グループ化 498" transform="translate(.273 .265)"><path id="パス_1370" d="M39.211 31.419a.744.744 0 0 0 .752-.615l.683-10.252a.687.687 0 0 0-1.367-.137L38.6 30.667a.653.653 0 0 0 .611.752z" class="cls-1" data-name="パス 1370" transform="translate(-38.459 -19.655)"/><path id="パス_1371" d="M39.22 31.488a.848.848 0 0 1-.82-.888l.683-10.252a.823.823 0 1 1 1.64.137l-.683 10.251a.874.874 0 0 1-.82.752zm-.068-.273a.6.6 0 0 0 .615-.478l.683-10.252a.656.656 0 0 0-.478-.615.528.528 0 0 0-.547.478L38.742 30.6a.471.471 0 0 0 .41.615z" class="cls-1" data-name="パス 1371" transform="translate(-38.4 -19.587)"/></g><g id="グループ化_499" data-name="グループ化 499"><path id="パス_1372" d="M39.157 31.566a1.039 1.039 0 0 1-.957-1.026l.683-10.252a.959.959 0 1 1 1.914.137l-.683 10.252a1.021 1.021 0 0 1-.957.889zm-.068-.547a.512.512 0 0 0 .478-.41l.683-10.252a.446.446 0 1 0-.888-.068l-.684 10.251a.457.457 0 0 0 .41.479z" class="cls-1" data-name="パス 1372" transform="translate(-38.063 -19.263)"/><path id="パス_1373" d="M39.094 31.639A1.135 1.135 0 0 1 38 30.477l.683-10.252a1.1 1.1 0 0 1 .342-.752 1.028 1.028 0 0 1 .752-.273 1.1 1.1 0 0 1 .752.342 1.028 1.028 0 0 1 .273.752l-.683 10.252a1.067 1.067 0 0 1-1.025 1.093zm.615-12.1a.62.62 0 0 0-.478.205.844.844 0 0 0-.273.547l-.683 10.252a.821.821 0 0 0 .752.82h.068a.874.874 0 0 0 .82-.752l.685-10.249a1.1 1.1 0 0 0-.205-.615c-.137-.205-.41-.205-.683-.205zm-.683 11.55a.6.6 0 0 1-.547-.615l.683-10.252a.6.6 0 0 1 .615-.547.558.558 0 0 1 .547.615l-.684 10.255a.558.558 0 0 1-.615.547zm0-.273c.205 0 .273-.137.342-.273l.683-10.252a.454.454 0 0 0-.273-.342.349.349 0 0 0-.342.273l-.683 10.252a.313.313 0 0 0 .272.345z" class="cls-1" data-name="パス 1373" transform="translate(-38 -19.2)"/></g></g></svg>