<svg xmlns="http://www.w3.org/2000/svg" id="icon_service_handmade" viewBox="0 0 55.493 40.646"><defs><style>.cls-1{fill:#fff}</style></defs><g id="グループ化_417" data-name="グループ化 417"><path id="パス_1216" d="M27.65 6.761H13.226c-.284 0-.426-.284-.426-.639V2h15.134v4.121c0 .426-.142.568-.284.639zm-14.282-.569h14.069V2.568H13.368v3.624z" class="cls-1" data-name="パス 1216" transform="translate(-3.705 -.579)"/><path id="パス_1217" d="M15.074 42.016h-.142a2.216 2.216 0 0 1-1.492-.639 1.614 1.614 0 0 1-.426-1.137l.071-10.516h-.924l-.071 8.526a1.7 1.7 0 0 1-1.847 1.563 2.557 2.557 0 0 1-1.563-.639 1.44 1.44 0 0 1-.426-1.137v-1.066l.284-.071h-.285v-2.7c0-1.989.071-4.405.071-6.324 0-1.492.071-2.771.071-3.34v-.071l.071-.071a4.685 4.685 0 0 1 1.492-.782 12.285 12.285 0 0 0 4.974-3.126.452.452 0 1 0-.639-.639 12.2 12.2 0 0 1-4.618 2.913 3.728 3.728 0 0 0-2.061 1.208l-.355.639a13.618 13.618 0 0 0-.782 2.2 6.622 6.622 0 0 1-.995 2.345C4.061 30.719 2.995 31 2.5 30.79c-.355 0-.5-.355-.5-.782 0-1.35 1.421-6.892 2.558-10.019C6.05 15.94 6.192 15.8 7.826 14.376A19.054 19.054 0 0 0 9.247 13.1l.142-.142a5.6 5.6 0 0 0 1.99-2.842l.071-.216H23.1v.213c0 .213.071.426.071.853v.071a7.452 7.452 0 0 0 1.211 3.763c1.847 3.411.853 20.819.853 20.961-.284 1.492-.782 2.132-1.634 2.2a1.567 1.567 0 0 1-1.066-.426 1.351 1.351 0 0 1-.355-.924v-8.806h-.924l-.071 12.648a1.5 1.5 0 0 1-1.634 1.492 1.958 1.958 0 0 1-1.492-.639 1.673 1.673 0 0 1-.359-.706v-.284l.071-10.161h-.853l-.068 10.156a1.793 1.793 0 0 1-1.776 1.705zm-3.411-12.861h1.918l-.07 11.085a1.069 1.069 0 0 0 .284.782 1.677 1.677 0 0 0 1.137.5 1.153 1.153 0 0 0 1.279-1.137l.071-10.658h1.989L18.2 40.169v.284a1.146 1.146 0 0 0 .213.639 1.873 1.873 0 0 0 1.137.5h.071a1.03 1.03 0 0 0 1.066-.995L20.9 27.45h1.918v9.308a.828.828 0 0 0 .142.5 1.058 1.058 0 0 0 .639.284c.355 0 .853 0 1.137-1.705.284-4.832.639-17.977-.782-20.677a8.322 8.322 0 0 1-1.279-3.908v-.071c0-.284-.071-.5-.071-.639H11.876a6.39 6.39 0 0 1-2.061 2.913l-.142.142a16.326 16.326 0 0 1-1.42 1.203c-1.563 1.35-1.634 1.421-3.126 5.471a47.007 47.007 0 0 0-2.559 9.879.862.862 0 0 0 .071.355c.142.071.995 0 2.416-1.563a7.6 7.6 0 0 0 .924-2.132 15.559 15.559 0 0 1 .853-2.345l.426-.782a4.46 4.46 0 0 1 2.274-1.421 10.74 10.74 0 0 0 4.476-2.771.955.955 0 0 1 1.35 1.35 12.277 12.277 0 0 1-5.187 3.268 3.829 3.829 0 0 0-1.208.568c0 .639-.071 1.776-.071 3.2 0 1.918-.071 4.334-.071 6.324l-.071 3.836a1.069 1.069 0 0 0 .284.782 1.714 1.714 0 0 0 1.208.5 1.32 1.32 0 0 0 1.35-1.137z" class="cls-1" data-name="パス 1217" transform="translate(-.579 -2.866)"/><g id="グループ化_408" data-name="グループ化 408"><path id="パス_1218" d="M24.985 11.555a6.46 6.46 0 0 1-1.066-3.34 3.487 3.487 0 0 1-.071-.782h.213c.782 0 1.492-.568 1.563-1.776V1.111A.671.671 0 0 0 24.913.4H8.784a.671.671 0 0 0-.711.711v4.547a1.678 1.678 0 0 0 1.564 1.776 4.925 4.925 0 0 1-1.563 1.919l-.142.142c-.568.5-.995.924-1.35 1.208-1.776 1.563-1.918 1.776-3.553 6.111C1.892 20.011.4 25.624.4 27.258a2.042 2.042 0 0 0 1.137 1.989c1.137.5 2.7-.213 4.263-1.918a4.388 4.388 0 0 0 .924-1.705c0 3.908-.071 9.308-.071 9.592a2.472 2.472 0 0 0 .782 1.989 3.452 3.452 0 0 0 2.415 1.066 2.865 2.865 0 0 0 1.563-.426 2.643 2.643 0 0 0 .711 1.563 3.45 3.45 0 0 0 2.345 1.066h.142a2.706 2.706 0 0 0 2.2-.995 3.161 3.161 0 0 0 2.274.924 2.63 2.63 0 0 0 2.842-2.629v-1.705a2.433 2.433 0 0 0 1.279.284c2.2-.071 2.629-2.416 2.771-3.126v-.071c.073-1.848.923-17.977-.992-21.601zM9.637 6.013h-.142V1.821h14.637v4.192H9.637zm14.85 27c-.284 1.705-.853 1.918-1.421 1.918a1.311 1.311 0 0 1-.853-.355.912.912 0 0 1-.284-.711v-9.023h-1.421L20.295 37.7a1.356 1.356 0 0 1-1.421 1.279 1.71 1.71 0 0 1-1.35-.568 1.069 1.069 0 0 1-.284-.782l.071-10.374H15.89L15.819 37.7a1.323 1.323 0 0 1-1.492 1.35 1.819 1.819 0 0 1-1.35-.568 1.581 1.581 0 0 1-.355-.924l.284-10.942h-1.422l-.071 8.811a1.5 1.5 0 0 1-1.563 1.35 1.941 1.941 0 0 1-1.35-.568.98.98 0 0 1-.355-.924v-3.906c0-1.989.071-4.405.071-6.324 0-1.492.071-2.771.071-3.34V21.5l.071-1.421a3.464 3.464 0 0 0-.5.213 3.768 3.768 0 0 0-.853.711l-.355.711c-.355.711-.568 1.563-.853 2.274a6.808 6.808 0 0 1-.995 2.274c-1.421 1.563-2.416 1.705-2.7 1.563-.213-.071-.284-.5-.284-.639 0-1.35 1.421-6.821 2.558-9.947 1.563-4.121 1.634-4.192 3.2-5.542.355-.355.853-.711 1.421-1.279l.142-.142A6.252 6.252 0 0 0 11.2 7.292h11.156c0 .213.071.426.071.924a7.009 7.009 0 0 0 1.279 3.837c1.494 2.913 1.065 16.058.781 20.961z" class="cls-1" data-name="パス 1218" transform="translate(-.116 -.116)"/><path id="パス_1219" d="M14.424 40.572h-.142a3.423 3.423 0 0 1-2.487-1.137 3.092 3.092 0 0 1-.711-1.35 3.641 3.641 0 0 1-3.979-.853 3.268 3.268 0 0 1-.852-2.132c0-.284.071-4.618.071-8.384l-.426.639c-1.634 1.776-3.34 2.487-4.547 1.989A2.294 2.294 0 0 1 0 27.142a54.442 54.442 0 0 1 2.7-10.515c1.634-4.405 1.847-4.618 3.624-6.253.355-.284.782-.711 1.35-1.208l.142-.142a8.239 8.239 0 0 0 1.35-1.492 2.005 2.005 0 0 1-1.492-1.99V.995A.971.971 0 0 1 8.669 0h16.058a.971.971 0 0 1 .995.995v4.547A1.878 1.878 0 0 1 24.016 7.6l.071.5a5.859 5.859 0 0 0 1.066 3.2c1.989 3.695 1.137 19.966.995 21.813v.071c-.355 2.2-1.421 3.34-2.984 3.411a4.193 4.193 0 0 1-.995-.142v1.279a2.931 2.931 0 0 1-3.126 2.913 4.235 4.235 0 0 1-2.274-.853 4.037 4.037 0 0 1-2.345.78zm-2.913-3.34l.071.426a2.86 2.86 0 0 0 .639 1.421 3.178 3.178 0 0 0 2.132.995h.142a2.58 2.58 0 0 0 1.989-.853l.213-.213.213.213a3.022 3.022 0 0 0 2.061.853 2.372 2.372 0 0 0 2.558-2.345v-2.06l.355.213a2.085 2.085 0 0 0 1.137.284c1.776-.071 2.274-1.705 2.487-2.913v-.071c.071-1.776.995-17.905-.924-21.458a7.088 7.088 0 0 1-1.137-3.411l-.142-1.066h.5a1.333 1.333 0 0 0 1.279-1.492V.995a.458.458 0 0 0-.426-.426H8.669a.458.458 0 0 0-.426.426v4.547a1.387 1.387 0 0 0 1.35 1.492h.355l-.142.355a4.942 4.942 0 0 1-1.635 1.99l-.142.142c-.568.5-.995.924-1.35 1.208-1.705 1.492-1.847 1.634-3.482 6.04C1.989 19.895.568 25.508.568 27.071a1.64 1.64 0 0 0 .995 1.705c1.066.426 2.487-.284 3.979-1.918a3.51 3.51 0 0 0 .853-1.634l.568-1.563V25.3c-.142 4.121-.142 9.521-.142 9.805a2.209 2.209 0 0 0 .711 1.776 3.136 3.136 0 0 0 3.695.568zm2.984 1.918h-.142a2.216 2.216 0 0 1-1.492-.639 1.614 1.614 0 0 1-.426-1.137l.071-10.516h-.924l-.071 8.526a1.7 1.7 0 0 1-1.847 1.563 2.557 2.557 0 0 1-1.564-.639 1.44 1.44 0 0 1-.426-1.137v-1.065l.284-.071h-.284v-2.7c0-1.989.071-4.405.071-6.324 0-1.492.071-2.771.071-3.34l.071-1.208a.07.07 0 0 0-.071.071 2.65 2.65 0 0 0-.782.711l-.355.639a13.618 13.618 0 0 0-.782 2.2 6.622 6.622 0 0 1-.997 2.348C3.482 28 2.416 28.279 1.918 28.066a.9.9 0 0 1-.5-.924c0-1.35 1.421-6.892 2.558-10.019 1.492-4.05 1.634-4.192 3.268-5.613a19.054 19.054 0 0 0 1.421-1.279l.142-.142A5.6 5.6 0 0 0 10.8 7.247l.071-.213h11.653v.213c0 .213.071.426.071.853v.071a7.452 7.452 0 0 0 1.205 3.766c1.847 3.411.853 20.819.853 20.961-.284 1.492-.782 2.132-1.634 2.132a1.567 1.567 0 0 1-1.066-.426 1.351 1.351 0 0 1-.355-.924v-8.811h-.924l-.071 12.719a1.5 1.5 0 0 1-1.634 1.492 1.958 1.958 0 0 1-1.492-.639 1.33 1.33 0 0 1-.355-.995l.071-10.161h-.924l-.069 10.16a1.681 1.681 0 0 1-1.705 1.705zm-3.411-12.86H13l-.071 11.084a1.069 1.069 0 0 0 .284.782 1.677 1.677 0 0 0 1.137.5 1.153 1.153 0 0 0 1.279-1.137l.071-10.661h1.918l-.068 10.658a1.146 1.146 0 0 0 .213.639 1.873 1.873 0 0 0 1.137.5h.071a1.03 1.03 0 0 0 1.066-.995l.213-13.145h1.918v9.308a.828.828 0 0 0 .142.5 1.058 1.058 0 0 0 .639.284c.355 0 .853 0 1.137-1.705.284-4.832.639-17.977-.782-20.677a8.322 8.322 0 0 1-1.279-3.908v-.075c0-.284-.071-.5-.071-.639H11.3a6.39 6.39 0 0 1-2.061 2.913l-.142.142a16.327 16.327 0 0 1-1.421 1.208c-1.563 1.35-1.634 1.421-3.126 5.471a47.007 47.007 0 0 0-2.558 9.876.862.862 0 0 0 .071.355c.142.071.995 0 2.416-1.563a7.6 7.6 0 0 0 .921-2.131 15.559 15.559 0 0 1 .853-2.345l.426-.711a3.142 3.142 0 0 1 .995-.853 3.464 3.464 0 0 1 .5-.213l.426-.142-.142 2.132c0 .568-.071 1.776-.071 3.268 0 1.918-.071 4.334-.071 6.324l-.071 3.837a1.069 1.069 0 0 0 .284.782 1.714 1.714 0 0 0 1.208.5 1.32 1.32 0 0 0 1.35-1.137zM24.229 6.182H9.095V1.421h15.134zM9.663 5.613h14.069V1.989H9.663z" class="cls-1" data-name="パス 1219"/></g><g id="グループ化_409" data-name="グループ化 409" transform="translate(7.674 35.029)"><path id="パス_1221" d="M10.8 49.442V49.3h.568v.142z" class="cls-1" data-name="パス 1221" transform="translate(-10.8 -49.3)"/></g><g id="グループ化_410" data-name="グループ化 410" transform="translate(7.674 24.94)"><path id="パス_1222" d="M11.2 41.424c0-1.989.071-4.405.071-6.324 0 1.989 0 4.334-.071 6.324z" class="cls-1" data-name="パス 1222" transform="translate(-10.916 -35.1)"/><path id="パス_1223" d="M11.368 41.424H10.8c0-1.989.071-4.405.071-6.324h.568c0 1.989-.071 4.334-.071 6.324z" class="cls-1" data-name="パス 1223" transform="translate(-10.8 -35.1)"/></g><g id="グループ化_411" data-name="グループ化 411" transform="translate(7.745 21.6)"><path id="パス_1224" d="M11.3 33.74c0-1.492.071-2.771.071-3.34 0 .639 0 1.847-.071 3.34z" class="cls-1" data-name="パス 1224" transform="translate(-11.016 -30.4)"/><path id="パス_1225" d="M11.468 33.74H10.9c0-1.492.071-2.771.071-3.34h.568c0 .639-.071 1.847-.071 3.34z" class="cls-1" data-name="パス 1225" transform="translate(-10.9 -30.4)"/></g><g id="グループ化_412" data-name="グループ化 412" transform="translate(7.736 31.406)"><path id="長方形_385" d="M0 0h1.421v.568H0z" class="cls-1" data-name="長方形 385" transform="rotate(-89.403 .736 .728)"/></g><g id="グループ化_413" data-name="グループ化 413" transform="translate(6.608 16.333)"><path id="パス_1227" d="M17.445 24.508a.7.7 0 0 0-.995-.995 10.469 10.469 0 0 1-4.55 2.842 4.32 4.32 0 0 0-2.2 1.35 3.437 3.437 0 0 1 .853-.711 3.464 3.464 0 0 1 .5-.213l-.074 1.419v.213a3.27 3.27 0 0 1 1.421-.711 13.413 13.413 0 0 0 5.045-3.194z" class="cls-1" data-name="パス 1227" transform="translate(-9.416 -23.077)"/><path id="パス_1228" d="M10.508 28.965l.071-1.918a.07.07 0 0 0-.071.071 3.21 3.21 0 0 0-.782.639l-.071.071-.355-.355a4.46 4.46 0 0 1 2.274-1.421 10.74 10.74 0 0 0 4.476-2.772.955.955 0 0 1 1.35 1.35 12.277 12.277 0 0 1-5.187 3.27 3.471 3.471 0 0 0-1.279.639zm.639-2.2l-.071.995c.284-.142.639-.284.995-.426a12.285 12.285 0 0 0 4.974-3.134.452.452 0 0 0-.639-.639 12.2 12.2 0 0 1-4.618 2.913c-.214.075-.427.217-.641.288z" class="cls-1" data-name="パス 1228" transform="translate(-9.3 -22.987)"/></g><g id="グループ化_414" data-name="グループ化 414" transform="translate(7.674 33.04)"><path id="パス_1230" d="M11.368 47.495H10.8V46.5h.568z" class="cls-1" data-name="パス 1230" transform="translate(-10.8 -46.5)"/></g><g id="グループ化_415" data-name="グループ化 415" transform="translate(9.095 5.542)"><path id="パス_1231" d="M13.2 7.8v.355h.142c-.071 0-.142-.142-.142-.355z" class="cls-1" data-name="パス 1231" transform="translate(-12.916 -7.8)"/><path id="パス_1232" d="M13.226 8.439H12.8V7.8h.568v.355H13.3v.284z" class="cls-1" data-name="パス 1232" transform="translate(-12.8 -7.8)"/></g><g id="グループ化_416" data-name="グループ化 416" transform="translate(22.24 5.542)"><path id="パス_1233" d="M33.6 8.155h.142V7.8c0 .213-.071.355-.142.355z" class="cls-1" data-name="パス 1233" transform="translate(-31.966 -7.8)"/><path id="パス_1234" d="M33.289 8.439H31.3l1.421-.5V7.8h.568zm-.568-.5z" class="cls-1" data-name="パス 1234" transform="translate(-31.3 -7.8)"/></g></g><g id="グループ化_418" data-name="グループ化 418" transform="translate(11.084 25.437)"><path id="パス_1235" d="M16.782 36.2h-.213a.56.56 0 0 0-.568.568v.213a.56.56 0 0 0 .568.568h.213a.56.56 0 0 0 .568-.568v-.213c.071-.355-.213-.568-.568-.568z" class="cls-1" data-name="パス 1235" transform="translate(-15.716 -35.916)"/><path id="パス_1236" d="M16.666 37.718h-.213a.821.821 0 0 1-.853-.853v-.213a.821.821 0 0 1 .853-.853h.213a.821.821 0 0 1 .853.853v.213a.821.821 0 0 1-.853.853zm-.213-1.418a.336.336 0 0 0-.355.355v.213a.336.336 0 0 0 .355.355h.213a.336.336 0 0 0 .355-.355v-.213a.336.336 0 0 0-.355-.355z" class="cls-1" data-name="パス 1236" transform="translate(-15.6 -35.8)"/></g><g id="グループ化_419" data-name="グループ化 419" transform="translate(15.774 25.863)"><path id="パス_1237" d="M23.382 36.7h-.213a.56.56 0 0 0-.568.568v.213a.56.56 0 0 0 .568.568h.213a.56.56 0 0 0 .568-.568v-.213a.611.611 0 0 0-.568-.568z" class="cls-1" data-name="パス 1237" transform="translate(-22.316 -36.487)"/><path id="パス_1238" d="M23.266 38.318h-.213a.821.821 0 0 1-.853-.853v-.213a.821.821 0 0 1 .853-.853h.213a.821.821 0 0 1 .853.853v.213a.864.864 0 0 1-.853.853zm-.284-1.418a.336.336 0 0 0-.355.355v.213a.336.336 0 0 0 .355.355h.213a.336.336 0 0 0 .355-.355v-.213a.336.336 0 0 0-.355-.355z" class="cls-1" data-name="パス 1238" transform="translate(-22.2 -36.4)"/></g><g id="グループ化_420" data-name="グループ化 420" transform="translate(20.25 23.519)"><path id="パス_1239" d="M29.682 33.4h-.213a.56.56 0 0 0-.568.568v.213a.56.56 0 0 0 .568.568h.213a.56.56 0 0 0 .568-.568v-.213c.071-.284-.213-.568-.568-.568z" class="cls-1" data-name="パス 1239" transform="translate(-28.616 -33.187)"/><path id="パス_1240" d="M29.566 35.018h-.213a.821.821 0 0 1-.853-.853v-.213a.821.821 0 0 1 .853-.853h.213a.821.821 0 0 1 .853.853v.213a.864.864 0 0 1-.853.853zm-.213-1.418a.336.336 0 0 0-.355.355v.213a.336.336 0 0 0 .355.355h.213a.336.336 0 0 0 .355-.355v-.213a.336.336 0 0 0-.355-.355z" class="cls-1" data-name="パス 1240" transform="translate(-28.5 -33.1)"/></g><g id="グループ化_430" data-name="グループ化 430" transform="translate(29.212)"><path id="パス_1241" d="M58.708 6.761H44.284c-.142-.071-.284-.214-.284-.64V2h15.134v4.121c0 .355-.213.64-.426.64zM44.5 6.192h14.066V2.568H44.5v3.624z" class="cls-1" data-name="パス 1241" transform="translate(-41.948 -.579)"/><path id="パス_1242" d="M53.394 42.016a1.667 1.667 0 0 1-1.705-1.634l-.071-10.161h-.853l.071 10.379h-.071a1.354 1.354 0 0 1-.355.711 2.216 2.216 0 0 1-1.492.639h-.071a1.582 1.582 0 0 1-1.634-1.492l-.143-12.653h-.924v8.811a1.177 1.177 0 0 1-.355.924 1.567 1.567 0 0 1-1.066.426c-.853 0-1.35-.639-1.634-2.132 0-.213-.995-17.621.853-21.032a7.256 7.256 0 0 0 1.208-3.766v-.071a4.847 4.847 0 0 0 .071-.853V9.9h11.652l.071.213a5.6 5.6 0 0 0 1.99 2.842l.142.142c.568.5.995.924 1.35 1.208 1.634 1.421 1.772 1.635 3.272 5.685a48.952 48.952 0 0 1 2.558 10.019c0 .426-.142.782-.426.853-.5.213-1.563-.142-2.984-1.634a5.981 5.981 0 0 1-.995-2.345 12.265 12.265 0 0 0-.782-2.274l-.355-.639a3.728 3.728 0 0 0-2.061-1.208 11.234 11.234 0 0 1-4.618-2.913.452.452 0 1 0-.639.639 12.761 12.761 0 0 0 4.974 3.126 3.593 3.593 0 0 1 1.492.782l.071.071v.071c0 .568.071 1.776.071 3.34 0 1.918.071 4.334.071 6.324l.071 3.695-.284.071h.284l-.284.142h.284a1.742 1.742 0 0 1-.426 1.137 2.2 2.2 0 0 1-1.563.639 1.8 1.8 0 0 1-1.847-1.634l-.071-8.526h-.924l.071 10.516a1.742 1.742 0 0 1-.426 1.137 1.935 1.935 0 0 1-1.492.639zm-1.208-12.363l.071 10.729c0 .355.142 1.137 1.279 1.066a1.546 1.546 0 0 0 1.137-.5 1.069 1.069 0 0 0 .284-.782l-.071-11.013H56.8l.071 9.024a1.32 1.32 0 0 0 1.35 1.137 2.016 2.016 0 0 0 1.208-.5 1.069 1.069 0 0 0 .284-.782v-.071L60 37.9h-.284l-.071-3.766c0-1.989-.071-4.405-.071-6.324 0-1.421-.071-2.558-.071-3.2a3.829 3.829 0 0 0-1.203-.57 12.277 12.277 0 0 1-5.187-3.268.955.955 0 0 1 1.35-1.35 10.33 10.33 0 0 0 4.476 2.771 4.184 4.184 0 0 1 2.274 1.421l.426.711a15.558 15.558 0 0 1 .853 2.345 5.848 5.848 0 0 0 .924 2.2c1.421 1.492 2.274 1.563 2.416 1.563.071 0 .071-.142.071-.355a48.111 48.111 0 0 0-2.562-9.878c-1.492-4.05-1.563-4.05-3.126-5.4a19.056 19.056 0 0 1-1.421-1.279l-.142-.142a6.032 6.032 0 0 1-2.061-2.913H45.862c0 .142-.071.355-.071.639v.071a7.87 7.87 0 0 1-1.279 3.908c-1.421 2.7-1.066 15.845-.782 20.677.284 1.634.853 1.705 1.137 1.705a.771.771 0 0 0 .639-.284.439.439 0 0 0 .142-.5v-9.303h1.918l.213 13.145c0 .5.284.995 1.137.995a1.432 1.432 0 0 0 1.137-.5.992.992 0 0 0 .213-.639v-.28h.071l-.071-10.445z" class="cls-1" data-name="パス 1242" transform="translate(-41.608 -2.866)"/><g id="グループ化_421" data-name="グループ化 421"><path id="パス_1243" d="M41.68 33.156v.071c.142.782.568 3.055 2.771 3.126a2.787 2.787 0 0 0 1.279-.284v1.705a2.673 2.673 0 0 0 2.842 2.626 3.482 3.482 0 0 0 2.274-.924 2.706 2.706 0 0 0 2.2.995h.142a3.45 3.45 0 0 0 2.345-1.066 2.643 2.643 0 0 0 .711-1.563 3.043 3.043 0 0 0 1.563.426 3.182 3.182 0 0 0 2.416-1.066 3.054 3.054 0 0 0 .782-1.989c0-.284-.071-5.684-.071-9.663a4.388 4.388 0 0 0 .924 1.705c1.563 1.705 3.126 2.416 4.263 1.918a1.94 1.94 0 0 0 1.137-1.989 60.882 60.882 0 0 0-2.7-10.374c-1.634-4.334-1.776-4.547-3.553-6.111-.355-.284-.782-.711-1.35-1.208l-.213-.142a5.652 5.652 0 0 1-1.562-1.915 1.633 1.633 0 0 0 1.563-1.776V1.111a.671.671 0 0 0-.71-.711H42.817a.671.671 0 0 0-.711.711v4.547a1.594 1.594 0 0 0 1.563 1.776h.213c0 .213-.071.426-.071.782a7.209 7.209 0 0 1-1.066 3.34c-2.06 3.623-1.207 19.752-1.065 21.6zM43.6 6.013h-.142V1.821h14.635v4.192H43.6zm.284 6.182a8.415 8.415 0 0 0 1.279-3.837 5.524 5.524 0 0 0 .071-.924h11.154a6.619 6.619 0 0 0 2.061 2.984l.142.142c.568.5.995.924 1.421 1.279 1.563 1.35 1.634 1.421 3.2 5.542a47.429 47.429 0 0 1 2.558 9.947c0 .142 0 .5-.284.639s-1.279-.071-2.7-1.563a6.808 6.808 0 0 1-.995-2.274 12.469 12.469 0 0 0-.853-2.274l-.355-.711a2.862 2.862 0 0 0-1.35-.924l.071 1.421v.213c0 .568.071 1.847.071 3.34 0 1.918.071 4.334.071 6.324v3.908a1.5 1.5 0 0 1-.355.924 1.941 1.941 0 0 1-1.35.568 1.451 1.451 0 0 1-1.563-1.35l-.078-8.808h-1.417l.071 10.8a1.121 1.121 0 0 1-.355.924 1.71 1.71 0 0 1-1.35.568 1.312 1.312 0 0 1-1.492-1.35l-.071-10.445h-1.422l.071 10.374a1.069 1.069 0 0 1-.284.782 1.98 1.98 0 0 1-1.35.568A1.356 1.356 0 0 1 47.08 37.7l-.213-12.861h-1.421v9.024a.912.912 0 0 1-.284.711 1.311 1.311 0 0 1-.853.355c-.568 0-1.066-.284-1.421-1.918-.071-4.9-.498-18.045.994-20.816z" class="cls-1" data-name="パス 1243" transform="translate(-41.191 -.116)"/><path id="パス_1244" d="M52.969 40.572a3.057 3.057 0 0 1-2.2-.853 4.028 4.028 0 0 1-2.274.853 2.918 2.918 0 0 1-3.126-2.842v-1.28a2.418 2.418 0 0 1-.995.142c-1.634-.071-2.629-1.208-2.984-3.34v-.142c-.071-1.847-.995-18.048.995-21.813a6.744 6.744 0 0 0 1.066-3.2l.071-.5a1.878 1.878 0 0 1-1.705-2.061V.995A.878.878 0 0 1 42.738 0H58.8a.971.971 0 0 1 .995.995v4.547a1.947 1.947 0 0 1-1.495 1.99 5.977 5.977 0 0 0 1.279 1.492l.142.142c.568.5.995.924 1.35 1.208 1.847 1.563 1.99 1.776 3.624 6.253a54.443 54.443 0 0 1 2.7 10.516 2.166 2.166 0 0 1-1.35 2.2c-1.279.5-2.913-.213-4.547-1.989a4.986 4.986 0 0 1-.426-.639c.071 3.766.071 8.1.071 8.384a2.737 2.737 0 0 1-.853 2.132 3.641 3.641 0 0 1-3.979.853 3.314 3.314 0 0 1-3.2 2.487zm-2.2-1.634l.213.213a2.58 2.58 0 0 0 1.99.853h.142a2.9 2.9 0 0 0 2.132-.995 2.609 2.609 0 0 0 .639-1.421l.071-.426.355.213A3.033 3.033 0 0 0 60 36.806a2.467 2.467 0 0 0 .711-1.776c0-.355-.071-5.684-.071-9.663v-1.635l.568 1.563a5.646 5.646 0 0 0 .853 1.634c1.492 1.634 2.913 2.274 3.979 1.918a1.766 1.766 0 0 0 .995-1.705 57.525 57.525 0 0 0-2.629-10.3c-1.634-4.405-1.776-4.476-3.482-5.968-.355-.355-.782-.711-1.35-1.208l-.142-.142A6.292 6.292 0 0 1 57.8 7.532l-.142-.355h.426a1.387 1.387 0 0 0 1.35-1.492V.995a.458.458 0 0 0-.426-.426h-16.27a.458.458 0 0 0-.426.426v4.547c0 1.137.711 1.492 1.279 1.492h.5L43.875 8.1a6.867 6.867 0 0 1-1.137 3.411c-1.918 3.553-1.066 19.611-.924 21.458v.071c.213 1.208.711 2.842 2.487 2.913a2.085 2.085 0 0 0 1.137-.284l.355-.213v2.132a2.372 2.372 0 0 0 2.558 2.345 3.219 3.219 0 0 0 2.061-.853zm2.132.213a1.667 1.667 0 0 1-1.705-1.634l-.071-10.161H50.2l.071 10.161a1.33 1.33 0 0 1-.355.995 2.216 2.216 0 0 1-1.492.639h-.071a1.582 1.582 0 0 1-1.634-1.492l-.142-12.648h-.924v8.811a1.177 1.177 0 0 1-.355.924 1.567 1.567 0 0 1-1.066.426c-.853 0-1.35-.639-1.634-2.132 0-.213-.995-17.621.853-21.032a7.256 7.256 0 0 0 1.208-3.766 5.524 5.524 0 0 0 .071-.924v-.213h11.65l.071.213a5.6 5.6 0 0 0 1.99 2.842l.142.142c.568.5.995.924 1.35 1.208 1.634 1.421 1.776 1.634 3.268 5.684a48.952 48.952 0 0 1 2.558 10.019c0 .426-.142.782-.426.853-.5.213-1.563-.142-2.984-1.634a5.981 5.981 0 0 1-.995-2.345 12.264 12.264 0 0 0-.782-2.274l-.355-.639a2.256 2.256 0 0 0-.782-.639.07.07 0 0 1-.071-.071l.071 1.208c0 .568.071 1.847.071 3.34 0 1.918.071 4.334.071 6.324l.071 3.695-.284.071h.284l-.284.142h.284a1.742 1.742 0 0 1-.426 1.137 2.2 2.2 0 0 1-1.563.639 1.8 1.8 0 0 1-1.847-1.634l-.071-8.526h-.924l.071 10.516a1.742 1.742 0 0 1-.426 1.137 1.935 1.935 0 0 1-1.492.639zM51.69 26.787l.071 10.729c0 .355.142 1.137 1.279 1.066a1.546 1.546 0 0 0 1.137-.5 1.069 1.069 0 0 0 .284-.782l-.07-11.01h1.918l.071 9.024a1.32 1.32 0 0 0 1.35 1.137 2.016 2.016 0 0 0 1.208-.5 1.069 1.069 0 0 0 .284-.782V35.1l.284-.071h-.284l-.071-3.766c0-1.989-.071-4.405-.071-6.324 0-1.492-.071-2.7-.071-3.34l-.142-2.132.426.142a3.464 3.464 0 0 1 .5.213 2.824 2.824 0 0 1 .924.782l.426.711a15.558 15.558 0 0 1 .853 2.345 5.848 5.848 0 0 0 .924 2.2c1.421 1.492 2.274 1.563 2.416 1.563.071 0 .071-.142.071-.355a48.111 48.111 0 0 0-2.558-9.876c-1.492-4.05-1.563-4.05-3.126-5.4a19.056 19.056 0 0 1-1.423-1.276l-.142-.142A6.032 6.032 0 0 1 56.1 7.461H45.367c0 .142-.071.355-.071.639a8.1 8.1 0 0 1-1.279 3.979c-1.421 2.7-1.066 15.845-.782 20.677.284 1.634.853 1.705 1.137 1.705a.771.771 0 0 0 .639-.284.439.439 0 0 0 .142-.5v-9.306h1.918l.213 13.145c0 .5.284.995 1.137.995a1.432 1.432 0 0 0 1.137-.5.992.992 0 0 0 .213-.639L49.7 26.716zM58.3 6.182H43.164V1.421H58.3zm-14.639-.569H57.73V1.989H43.661z" class="cls-1" data-name="パス 1244" transform="translate(-41.112)"/></g><g id="グループ化_422" data-name="グループ化 422" transform="translate(18.039 35.029)"><path id="パス_1246" d="M66.571 49.442l-.071-.071.568-.071-.284.071.284.071z" class="cls-1" data-name="パス 1246" transform="translate(-66.5 -49.3)"/></g><g id="グループ化_423" data-name="グループ化 423" transform="translate(17.968 24.94)"><path id="パス_1247" d="M66.871 41.424c0-1.989-.071-4.405-.071-6.324 0 1.989 0 4.334.071 6.324z" class="cls-1" data-name="パス 1247" transform="translate(-66.516 -35.1)"/><path id="パス_1248" d="M66.471 41.424c0-1.989-.071-4.405-.071-6.324h.568c0 1.918.071 4.334.071 6.324z" class="cls-1" data-name="パス 1248" transform="translate(-66.4 -35.1)"/></g><g id="グループ化_424" data-name="グループ化 424" transform="translate(17.897 21.6)"><path id="パス_1249" d="M66.771 33.74c0-1.492-.071-2.771-.071-3.34 0 .639 0 1.847.071 3.34z" class="cls-1" data-name="パス 1249" transform="translate(-66.416 -30.4)"/><path id="パス_1250" d="M66.371 33.74c0-1.492-.071-2.7-.071-3.34h.568c0 .568.071 1.847.071 3.34z" class="cls-1" data-name="パス 1250" transform="translate(-66.3 -30.4)"/></g><g id="グループ化_425" data-name="グループ化 425" transform="translate(18.034 31.404)"><path id="長方形_386" d="M0 0h.568v1.421H0z" class="cls-1" data-name="長方形 386" transform="translate(0 .006)"/></g><g id="グループ化_426" data-name="グループ化 426" transform="translate(11.236 16.289)"><path id="パス_1252" d="M57.413 24.508a.7.7 0 1 1 .995-.995 10.469 10.469 0 0 0 4.547 2.842 4.32 4.32 0 0 1 2.2 1.35 2.862 2.862 0 0 0-1.35-.924l.071 1.421v.213a3.27 3.27 0 0 0-1.421-.711 13.413 13.413 0 0 1-5.042-3.196z" class="cls-1" data-name="パス 1252" transform="translate(-57.005 -23.034)"/><path id="パス_1253" d="M64.155 28.947l-.5-.5a4.2 4.2 0 0 0-1.279-.639 12.277 12.277 0 0 1-5.187-3.268.955.955 0 0 1 1.35-1.35 10.33 10.33 0 0 0 4.476 2.771 4.184 4.184 0 0 1 2.274 1.421l-.355.355a3.21 3.21 0 0 0-.782-.639.07.07 0 0 1-.071-.071zm-6.608-4.761a12.761 12.761 0 0 0 4.974 3.126 4.581 4.581 0 0 1 .995.426l-.071-.995a2.524 2.524 0 0 1-.639-.284 11.234 11.234 0 0 1-4.618-2.913.448.448 0 0 0-.639 0 .53.53 0 0 0 0 .639z" class="cls-1" data-name="パス 1253" transform="translate(-56.925 -22.925)"/></g><g id="グループ化_427" data-name="グループ化 427" transform="translate(18.039 33.04)"><path id="パス_1255" d="M66.5 47.495V46.5h.568v.995z" class="cls-1" data-name="パス 1255" transform="translate(-66.5 -46.5)"/></g><g id="グループ化_428" data-name="グループ化 428" transform="translate(16.689 5.542)"><path id="パス_1256" d="M64.842 7.8v.355H64.7c.071 0 .142-.142.142-.355z" class="cls-1" data-name="パス 1256" transform="translate(-64.629 -7.8)"/><path id="パス_1257" d="M65.1 8.439h-.426v-.284H64.6V7.8h.568v.639z" class="cls-1" data-name="パス 1257" transform="translate(-64.6 -7.8)"/></g><g id="グループ化_429" data-name="グループ化 429" transform="translate(2.052 5.542)"><path id="パス_1258" d="M44.442 8.155H44.3V7.8c.071.213.071.355.142.355z" class="cls-1" data-name="パス 1258" transform="translate(-44.087 -7.8)"/><path id="パス_1259" d="M45.989 8.439H44V7.8h.568v.142zm-1.421-.5z" class="cls-1" data-name="パス 1259" transform="translate(-44 -7.8)"/></g></g><g id="グループ化_431" data-name="グループ化 431" transform="translate(42.49 25.437)"><path id="パス_1260" d="M60.764 36.2h.213a.56.56 0 0 1 .568.568v.213a.56.56 0 0 1-.568.568h-.213a.56.56 0 0 1-.568-.568v-.213c-.072-.355.213-.568.568-.568z" class="cls-1" data-name="パス 1260" transform="translate(-59.911 -35.916)"/><path id="パス_1261" d="M60.866 37.718h-.213a.821.821 0 0 1-.853-.853v-.213a.821.821 0 0 1 .853-.853h.213a.821.821 0 0 1 .853.853v.213a.821.821 0 0 1-.853.853zm-.213-1.418a.336.336 0 0 0-.355.355v.213a.336.336 0 0 0 .355.355h.213a.336.336 0 0 0 .355-.355v-.213a.336.336 0 0 0-.355-.355z" class="cls-1" data-name="パス 1261" transform="translate(-59.8 -35.8)"/></g><g id="グループ化_432" data-name="グループ化 432" transform="translate(37.872 25.863)"><path id="パス_1262" d="M54.264 36.7h.213a.56.56 0 0 1 .568.568v.213a.56.56 0 0 1-.568.568h-.213a.56.56 0 0 1-.568-.568v-.213c-.072-.284.213-.568.568-.568z" class="cls-1" data-name="パス 1262" transform="translate(-53.411 -36.487)"/><path id="パス_1263" d="M54.366 38.318h-.213a.821.821 0 0 1-.853-.853v-.213a.821.821 0 0 1 .853-.853h.213a.821.821 0 0 1 .853.853v.213a.864.864 0 0 1-.853.853zm-.213-1.418a.336.336 0 0 0-.355.355v.213a.336.336 0 0 0 .355.355h.213a.336.336 0 0 0 .355-.355v-.213a.336.336 0 0 0-.355-.355z" class="cls-1" data-name="パス 1263" transform="translate(-53.3 -36.4)"/></g><g id="グループ化_433" data-name="グループ化 433" transform="translate(33.324 23.519)"><path id="パス_1264" d="M47.864 33.4h.213a.56.56 0 0 1 .568.568v.213a.56.56 0 0 1-.568.568h-.213a.56.56 0 0 1-.568-.568v-.213c-.072-.284.213-.568.568-.568z" class="cls-1" data-name="パス 1264" transform="translate(-47.011 -33.187)"/><path id="パス_1265" d="M47.966 35.018h-.213a.821.821 0 0 1-.853-.853v-.213a.821.821 0 0 1 .853-.853h.213a.821.821 0 0 1 .853.853v.213a.864.864 0 0 1-.853.853zm-.213-1.418a.336.336 0 0 0-.355.355v.213a.336.336 0 0 0 .355.355h.213a.336.336 0 0 0 .355-.355v-.213a.336.336 0 0 0-.355-.355z" class="cls-1" data-name="パス 1265" transform="translate(-46.9 -33.1)"/></g></svg>