<svg xmlns="http://www.w3.org/2000/svg" viewBox="0 0 50 50"><circle cx="25" cy="25" r="25" data-name="楕円形 22" fill="#1da1f2"/><path d="M20.745 35.499A14.809 14.809 0 0 0 35.654 20.59c0-.228 0-.456-.011-.674a10.735 10.735 0 0 0 2.619-2.717 10.636 10.636 0 0 1-3.01.826 5.237 5.237 0 0 0 2.3-2.9 10.611 10.611 0 0 1-3.325 1.271 5.243 5.243 0 0 0-9.063 3.586 4.8 4.8 0 0 0 .141 1.2 14.865 14.865 0 0 1-10.8-5.477 5.237 5.237 0 0 0 1.63 6.987 5.147 5.147 0 0 1-2.369-.652v.065a5.246 5.246 0 0 0 4.208 5.139 5.224 5.224 0 0 1-1.38.185 5 5 0 0 1-.989-.1 5.232 5.232 0 0 0 4.89 3.64 10.533 10.533 0 0 1-6.509 2.239 9.53 9.53 0 0 1-1.25-.076 14.6 14.6 0 0 0 8.009 2.369" data-name="パス 396" fill="#fff"/></svg>