<?xml version="1.0" encoding="UTF-8"?>
<svg id="Logo" xmlns="http://www.w3.org/2000/svg" viewBox="0 0 50 50">
  <defs>
    <style>
      .cls-1 {
        fill: #0866ff;
      }

      .cls-1, .cls-2 {
        stroke-width: 0px;
      }

      .cls-2 {
        fill: #fff;
      }
    </style>
  </defs>
  <g id="Logo-2" data-name="Logo">
    <path id="Initiator" class="cls-1" d="M50,25C50,11.19,38.81,0,25,0S0,11.19,0,25c0,11.72,8.07,21.56,18.96,24.26v-16.62h-5.16v-7.64h5.16v-3.29c0-8.51,3.85-12.45,12.2-12.45,1.58,0,4.32.31,5.43.62v6.93c-.59-.06-1.61-.09-2.89-.09-4.1,0-5.68,1.55-5.68,5.59v2.7h8.17l-1.4,7.64h-6.76v17.18c12.38-1.5,21.97-12.04,21.97-24.82Z"/>
    <path id="F" class="cls-2" d="M34.79,32.64l1.4-7.64h-8.17v-2.7c0-4.04,1.58-5.59,5.68-5.59,1.27,0,2.3.03,2.89.09v-6.93c-1.12-.31-3.85-.62-5.43-.62-8.35,0-12.2,3.94-12.2,12.45v3.29h-5.16v7.64h5.16v16.62c1.93.48,3.96.74,6.04.74,1.03,0,2.04-.06,3.03-.18v-17.18h6.76Z"/>
  </g>
</svg>