<svg xmlns="http://www.w3.org/2000/svg" viewBox="0 0 16 16"><defs><style>.cls-1{fill:#393c41}</style><clipPath id="clip-path"><path id="長方形_195" d="M0 0h16v16H0z" class="cls-1" data-name="長方形 195" transform="translate(620 9994)"/></clipPath></defs><g id="icon_popup" transform="translate(-663 -6858)"><g id="マスクグループ_2" data-name="マスクグループ 2" transform="translate(43 -3136)" clip-path="url(#clip-path)"><g id="baseline-open_in_new-24px" transform="translate(620 9994)"><path id="パス_315" d="M0 0h16v16H0z" data-name="パス 315" fill="none"/><path id="パス_316" d="M12.667 12.667H3.333V3.333H8V2H3.333A1.333 1.333 0 0 0 2 3.333v9.333A1.333 1.333 0 0 0 3.333 14h9.333A1.337 1.337 0 0 0 14 12.667V8h-1.333zM9.333 2v1.333h2.393L5.173 9.887l.94.94 6.553-6.553v2.393H14V2z" class="cls-1" data-name="パス 316"/></g></g></g></svg>