<svg xmlns="http://www.w3.org/2000/svg" viewBox="0 0 46.055 46.055"><defs><style>.cls-2{fill:#fff}</style></defs><g id="icon_social_hatebu" transform="translate(-204.627 -687)"><g id="hatenabookmark-logomark" transform="translate(204.627 687)"><rect id="長方形_217" width="46.055" height="46.055" data-name="長方形 217" rx="23.028" fill="#00a4de"/><g id="グループ化_132" data-name="グループ化 132" transform="translate(12.566 13.639)"><path id="パス_397" d="M127.348 146.565a4.493 4.493 0 0 0-3.157-1.42 5.1 5.1 0 0 0 2.623-1.445 3.782 3.782 0 0 0 .819-2.564 4.594 4.594 0 0 0-.551-2.264 4.076 4.076 0 0 0-1.6-1.554 6.879 6.879 0 0 0-2.188-.718 32.216 32.216 0 0 0-4.485-.2h-5.2v18.977h5.362a34.882 34.882 0 0 0 4.661-.217 7.593 7.593 0 0 0 2.389-.743 4.385 4.385 0 0 0 1.829-1.787 5.442 5.442 0 0 0 .643-2.681 4.861 4.861 0 0 0-1.145-3.384zm-8.937-5.964h1.111a5.215 5.215 0 0 1 2.589.434 1.663 1.663 0 0 1 .66 1.5 1.542 1.542 0 0 1-.71 1.453 5.585 5.585 0 0 1-2.623.418h-1.027zm4.41 10.883a5.323 5.323 0 0 1-2.6.459h-1.812v-4.133h1.891a4.912 4.912 0 0 1 2.581.476 1.886 1.886 0 0 1 .7 1.671 1.558 1.558 0 0 1-.768 1.537z" class="cls-2" data-name="パス 397" transform="translate(-113.6 -136.4)"/><path id="パス_398" d="M331.206 306.1a2.406 2.406 0 1 0 2.406 2.406 2.405 2.405 0 0 0-2.406-2.406z" class="cls-2" data-name="パス 398" transform="translate(-310.825 -291.926)"/><path id="長方形_218" d="M0 0h4.176v12.656H0z" class="cls-2" data-name="長方形 218" transform="translate(18.292)"/></g></g></g></svg>