<svg xmlns="http://www.w3.org/2000/svg" viewBox="0 0 50 50"><g transform="translate(-122.229 -686)"><circle cx="25" cy="25" r="25" data-name="楕円形 7" transform="translate(122.229 686)" fill="#4267b2"/><path d="M157.465 698.496h-21.028a1.314 1.314 0 0 0-1.314 1.314v21.028a1.314 1.314 0 0 0 1.314 1.314h11.322v-9.147h-3.072v-3.581h3.072v-2.628c0-3.056 1.866-4.718 4.6-4.718a25.45 25.45 0 0 1 2.753.141v3.177h-1.889c-1.479 0-1.764.7-1.764 1.738v2.28h3.545l-.46 3.581h-3.088v9.157h6.009a1.314 1.314 0 0 0 1.314-1.314V699.81a1.314 1.314 0 0 0-1.314-1.314z" fill="#fff"/></g></svg>