<svg xmlns="http://www.w3.org/2000/svg" viewBox="0 0 407.664 353"><path fill="#fff" stroke="#393c41" stroke-miterlimit="10" stroke-width="2" d="M203.832 2L1.732 352h404.2z"/><path fill="none" stroke="#393c41" stroke-miterlimit="10" stroke-width="2" d="M162.632 72h80.8m-120.6 70h80.5m-121.2 70h120.9m-160.9 70h160.9m.8 70V72"/><path d="M188.532 48.5c0-3.5 2.3-5.6 5-5.6a4.315 4.315 0 0 1 3.1 1.4l-1.1 1.4a2.876 2.876 0 0 0-2-.9c-1.6 0-2.8 1.4-2.8 3.7s1.1 3.7 2.8 3.7a2.8 2.8 0 0 0 2.2-1.1l1.1 1.3a4.42 4.42 0 0 1-3.4 1.6c-2.7 0-4.9-2-4.9-5.5zm13.6-3.7h-3V43h8.2v1.8h-3v8.9h-2.1v-8.9zm7.8 3.6c0-3.5 2-5.5 4.8-5.5s4.8 2 4.8 5.5-2 5.6-4.8 5.6c-2.9 0-4.8-2.2-4.8-5.6zm7.4 0c0-2.3-1-3.7-2.6-3.7s-2.6 1.4-2.6 3.7 1 3.7 2.6 3.7 2.6-1.4 2.6-3.7zm-51.8 60.2c.3 0 .9-.1 1.2-.1v1.8c-.4 0-.8-.1-1.2-.1h-3.5a6.853 6.853 0 0 1-3.5 5.6l-1.7-1.2a5.26 5.26 0 0 0 3.4-4.4h-3.7a5.7 5.7 0 0 0-1.3.1v-1.8c.4 0 .8.1 1.3.1h3.8v-1.9c-1.3.1-2.7.1-3.7.2l-.4-1.6a39.442 39.442 0 0 0 4.6-.2 14.167 14.167 0 0 0 3.4-.8l1.1 1.5a4.052 4.052 0 0 0-1 .3 15.719 15.719 0 0 1-2.3.4v2.2h3.5zm4.3.1c.5 0 1.5.1 2.2.1h7.3c.6 0 1.2-.1 1.6-.1v2.1c-.3 0-1-.1-1.6-.1h-7.3a14.119 14.119 0 0 0-2.2.1zm23.7-2.8c-.1.3-.2.7-.3 1a15.332 15.332 0 0 1-2 5 11.328 11.328 0 0 1-5.5 3.8l-1.5-1.6a8.629 8.629 0 0 0 5.3-3.2 8.884 8.884 0 0 0 1.6-3.8h-6.3a7.115 7.115 0 0 0-1.6.1v-1.9c.4 0 1.2.1 1.6.1h6.3a4.485 4.485 0 0 0 1.1-.1zm-59.9 60.5l-1 1.5a32.067 32.067 0 0 0-3.1-1.9l1-1.5c.9.5 2.4 1.4 3.1 1.9zm1.1 3.2a14.471 14.471 0 0 0 5.3-5.1l1 1.9a17.078 17.078 0 0 1-5.4 4.9 15.754 15.754 0 0 1-4.5 1.7l-1-1.8a20.99 20.99 0 0 0 4.6-1.6zm1-6.2l-1 1.5c-.8-.5-2.2-1.5-3.1-2l1-1.5c.9.5 2.4 1.5 3.1 2zm7.5 6.2c.5 0 1.2.1 1.7.1h7.8a7.568 7.568 0 0 0 1.5-.1v2.1a8.084 8.084 0 0 0-1.5-.1h-7.8a9.7 9.7 0 0 0-1.7.1zm1.1-6.6a8.6 8.6 0 0 0 1.6.1h5.6a7.082 7.082 0 0 0 1.5-.1v2c-.4 0-1-.1-1.5-.1h-5.6a8.6 8.6 0 0 0-1.6.1zm24.3 0c-.1.2-.4.5-.5.7a11.321 11.321 0 0 1-3.3 3.7l-1.4-1.1a8.361 8.361 0 0 0 2.5-2.5h-7.1a10.283 10.283 0 0 0-1.7.1V162a9.149 9.149 0 0 0 1.7.1h7.3a6.149 6.149 0 0 0 1.4-.1zm-5.5 1.8c0 3.4-.1 6.2-3.8 8.1l-1.6-1.3a6.068 6.068 0 0 0 1.4-.7c1.7-1.2 2.1-2.6 2.1-4.9a4.868 4.868 0 0 0-.1-1.2zm11.1.5a1.685 1.685 0 0 1 1.7 1.7 1.752 1.752 0 0 1-1.7 1.7 1.7 1.7 0 0 1 0-3.4zm-52.5 17.7a2.485 2.485 0 0 0 .8-.1v-.3a1.6 1.6 0 1 1 1.6 1.6h-.2l-.1.4a15.332 15.332 0 0 1-2 5 10.876 10.876 0 0 1-5.5 3.8l-1.5-1.6a8.629 8.629 0 0 0 5.3-3.2 8.884 8.884 0 0 0 1.6-3.8h-6.3a7.115 7.115 0 0 0-1.6.1V183a8.6 8.6 0 0 0 1.6.1h6.3zm3.2-.4a.8.8 0 1 0-.8.8.789.789 0 0 0 .8-.8zm5.5-.4v6.8h-2c0-.3.1-.8.1-1.2v-4.6a3.4 3.4 0 0 0-.1-1zm6.3-.1c0 .4-.1.8-.1 1.4v2.7c0 2.9-.6 4.2-1.6 5.3a7.731 7.731 0 0 1-3.3 2l-1.4-1.5a5.821 5.821 0 0 0 3.3-1.7c.9-1 1.1-2 1.1-4.2v-2.6a6.149 6.149 0 0 0-.1-1.4zm8.6 7.5a13.868 13.868 0 0 0 5-5.3l1.1 1.9a14.053 14.053 0 0 1-5 5 14.648 14.648 0 0 1-5.1 1.9l-1.1-1.8a12.281 12.281 0 0 0 5.1-1.7zm0-4.4l-1.4 1.4a24.616 24.616 0 0 0-3.4-2.9l1.3-1.4a19.271 19.271 0 0 1 3.5 2.9zm12.3 1.7l-1 1.5a32.067 32.067 0 0 0-3.1-1.9l1-1.5a14.977 14.977 0 0 1 3.1 1.9zm1.2 3.1a14.471 14.471 0 0 0 5.3-5.1l1 1.9a17.078 17.078 0 0 1-5.4 4.9 15.754 15.754 0 0 1-4.5 1.7l-1-1.8a18.047 18.047 0 0 0 4.6-1.6zm.9-6.2l-1 1.5c-.8-.5-2.2-1.5-3.1-2l1-1.5c.9.5 2.4 1.5 3.1 2zm10-.6l2 .4a8.874 8.874 0 0 0-.3 1.4 29.782 29.782 0 0 1-1.2 4.1 20.378 20.378 0 0 1-2 3.9l-1.9-.8a13.012 13.012 0 0 0 2.1-3.8 20.853 20.853 0 0 0 1.3-5.2zm3.4.4l1.8-.6a37.9 37.9 0 0 1 2 4.5c.5 1.2 1.2 3.4 1.6 4.8l-2 .7c-.4-1.6-.9-3.3-1.4-4.8a33.357 33.357 0 0 0-2-4.6zm4.4-2.4a1.6 1.6 0 1 1-1.6 1.6 1.522 1.522 0 0 1 1.6-1.6zm0 2.4a.8.8 0 1 0-.8-.8.736.736 0 0 0 .8.8zm3 8.5a6.257 6.257 0 0 0 2.3-3.3 22.412 22.412 0 0 0 .4-5.4 4.121 4.121 0 0 0-.1-1.2h2c0 .1-.1.7-.1 1.2a28.315 28.315 0 0 1-.4 5.9 8.305 8.305 0 0 1-2.4 3.9zm6.3.2a3.083 3.083 0 0 0 .1-1v-7.9a10.527 10.527 0 0 0-.1-1.2h2a8.367 8.367 0 0 0-.1 1.2v7.1a9.12 9.12 0 0 0 3.4-2.9l1 1.5a14.737 14.737 0 0 1-4.6 3.7c-.3.1-.4.3-.6.4zm-85.4 49.8a2.485 2.485 0 0 0 .8-.1v-.3a1.6 1.6 0 1 1 1.6 1.6h-.2l-.1.4a15.332 15.332 0 0 1-2 5 10.876 10.876 0 0 1-5.5 3.8l-1.5-1.6a8.629 8.629 0 0 0 5.3-3.2 8.884 8.884 0 0 0 1.6-3.8h-6.3a7.115 7.115 0 0 0-1.6.1v-2a8.6 8.6 0 0 0 1.6.1zm3.1-.3a.8.8 0 1 0-.8.8.789.789 0 0 0 .8-.8zm5.8-.5v6.8h-2c0-.3.1-.8.1-1.2v-4.6a3.4 3.4 0 0 0-.1-1zm6.3-.1c0 .4-.1.8-.1 1.4v2.7c0 2.9-.6 4.2-1.6 5.3a7.731 7.731 0 0 1-3.3 2l-1.4-1.5a5.821 5.821 0 0 0 3.3-1.7c.9-1 1.1-2 1.1-4.2v-2.6a6.15 6.15 0 0 0-.1-1.4zm8.7 7.5a13.868 13.868 0 0 0 5-5.3l1.1 1.9a14.053 14.053 0 0 1-5 5 14.648 14.648 0 0 1-5.1 1.9l-1.1-1.8a12.8 12.8 0 0 0 5.1-1.7zm0-4.4l-1.4 1.4a24.616 24.616 0 0 0-3.4-2.9l1.3-1.4c.9.7 2.7 2.1 3.5 2.9zm12.5 1.7l-1 1.5a32.067 32.067 0 0 0-3.1-1.9l1-1.5a21.018 21.018 0 0 1 3.1 1.9zm1.1 3.1a14.471 14.471 0 0 0 5.3-5.1l1 1.9a17.078 17.078 0 0 1-5.4 4.9 15.754 15.754 0 0 1-4.5 1.7l-1-1.8a13.3 13.3 0 0 0 4.6-1.6zm1-6.2l-1 1.5c-.8-.5-2.2-1.5-3.1-2l1-1.5c.9.6 2.4 1.6 3.1 2zm10-.5l2 .4a8.874 8.874 0 0 0-.3 1.4 29.782 29.782 0 0 1-1.2 4.1 20.378 20.378 0 0 1-2 3.9l-1.9-.8a13.012 13.012 0 0 0 2.1-3.8 23.3 23.3 0 0 0 1.3-5.2zm3.4.4l1.8-.6a37.9 37.9 0 0 1 2 4.5c.5 1.2 1.2 3.4 1.6 4.8l-2 .7c-.4-1.6-.9-3.3-1.4-4.8a25.259 25.259 0 0 0-2-4.6zm4.4-2.4a1.6 1.6 0 1 1-1.6 1.6 1.522 1.522 0 0 1 1.6-1.6zm0 2.4a.8.8 0 1 0-.8-.8.789.789 0 0 0 .8.8zm3.3 8.5a6.257 6.257 0 0 0 2.3-3.3 22.412 22.412 0 0 0 .4-5.4 4.121 4.121 0 0 0-.1-1.2h2c0 .1-.1.7-.1 1.2a28.315 28.315 0 0 1-.4 5.9 8.305 8.305 0 0 1-2.4 3.9zm6.3.2a3.083 3.083 0 0 0 .1-1v-7.9a10.527 10.527 0 0 0-.1-1.2h2a8.367 8.367 0 0 0-.1 1.2v7.1a9.12 9.12 0 0 0 3.4-2.9l1 1.5a14.737 14.737 0 0 1-4.6 3.7c-.3.1-.4.3-.6.4zm64.5 8.4c.5 0 .9-.1 1.3-.1v2a6.151 6.151 0 0 0-1.3-.1h-9a5.7 5.7 0 0 0-1.3.1v-2a5.7 5.7 0 0 0 1.3.1h3.5v-5.6h-2.6a5.283 5.283 0 0 0-1.3.1v-1.9a5.7 5.7 0 0 0 1.3.1h7.4a5.7 5.7 0 0 0 1.3-.1v1.9c-.4 0-.9-.1-1.3-.1h-2.9v5.6zm9-.9a13.868 13.868 0 0 0 5-5.3l1.1 1.9a14.053 14.053 0 0 1-5 5 14.649 14.649 0 0 1-5.1 1.9l-1.1-1.8a12.281 12.281 0 0 0 5.1-1.7zm0-4.4l-1.4 1.4a24.616 24.616 0 0 0-3.4-2.9l1.3-1.4a33.688 33.688 0 0 1 3.5 2.9zm11.9 1.8l-1 1.5a32.067 32.067 0 0 0-3.1-1.9l1-1.5c.9.5 2.4 1.4 3.1 1.9zm1.1 3.1a14.471 14.471 0 0 0 5.3-5.1l1 1.9a16.214 16.214 0 0 1-9.9 6.6l-1-1.8a16.822 16.822 0 0 0 4.6-1.6zm1-6.2l-1 1.5c-.8-.5-2.2-1.4-3.1-1.9l1-1.5c.9.5 2.4 1.4 3.1 1.9zm4 .4l-1.2.5a10.5 10.5 0 0 0-1.2-2.1l1.1-.5a11.975 11.975 0 0 1 1.3 2.1zm1.9-.7l-1.2.5a10.707 10.707 0 0 0-1.3-2.1l1.2-.5a11.98 11.98 0 0 1 1.3 2.1zm1.8 6.5c.5 0 1.2.1 1.7.1h7.8a7.568 7.568 0 0 0 1.5-.1v2.1a8.084 8.084 0 0 0-1.5-.1h-7.8a9.7 9.7 0 0 0-1.7.1zm1.1-6.7a8.6 8.6 0 0 0 1.6.1h5.6a7.082 7.082 0 0 0 1.5-.1v2c-.4 0-1-.1-1.5-.1h-5.6a8.6 8.6 0 0 0-1.6.1zm24.3.1c-.1.2-.4.5-.5.7a11.321 11.321 0 0 1-3.3 3.7l-1.4-1.1a8.36 8.36 0 0 0 2.5-2.5h-7.1a10.284 10.284 0 0 0-1.7.1v-1.9a9.149 9.149 0 0 0 1.7.1h7.3a6.149 6.149 0 0 0 1.4-.1zm-5.5 1.8c0 3.4-.1 6.2-3.8 8.1l-1.6-1.3c.4-.2.9-.4 1.4-.7 1.7-1.2 2.1-2.6 2.1-4.9a4.868 4.868 0 0 0-.1-1.2zm10.8-3.1v6.8h-2c0-.3.1-.8.1-1.2v-4.6a3.4 3.4 0 0 0-.1-1zm6.3-.1c0 .4-.1.8-.1 1.4v2.7c0 2.9-.6 4.2-1.6 5.3a7.731 7.731 0 0 1-3.3 2l-1.4-1.5a5.82 5.82 0 0 0 3.3-1.7c.9-1 1.1-2 1.1-4.2v-2.6a6.149 6.149 0 0 0-.1-1.4zm8.3 7.5a13.868 13.868 0 0 0 5-5.3l1.1 1.9a14.053 14.053 0 0 1-5 5 14.649 14.649 0 0 1-5.1 1.9l-1.1-1.8a11.8 11.8 0 0 0 5.1-1.7zm0-4.4l-1.4 1.4a24.617 24.617 0 0 0-3.4-2.9l1.3-1.4a25.686 25.686 0 0 1 3.5 2.9zm18.1-1.4l1.2.7a10.376 10.376 0 0 0-.4 1 12.882 12.882 0 0 1-7.9 8.4l-1.6-1.4a10.42 10.42 0 0 0 5.5-3.4 9.347 9.347 0 0 0 1.9-3.7h-3.8a15.243 15.243 0 0 1-3.4 3.3l-1.5-1.1a10.517 10.517 0 0 0 4.2-4.4 5.91 5.91 0 0 0 .6-1.4l2 .7a11.471 11.471 0 0 0-.8 1.4v.1h2.7a4.3 4.3 0 0 0 1.2-.2l.1.1c-.3-.5-.7-1.3-1-1.8l1.1-.4c.3.5.8 1.4 1.1 1.9zm1.5-2.9a9.305 9.305 0 0 1 1.1 1.9l-1.1.5a11.781 11.781 0 0 0-1.1-1.9zm5.3 4.9a1.7 1.7 0 1 1-1.7 1.7 1.626 1.626 0 0 1 1.7-1.7zm-81.7 18.7a2.652 2.652 0 0 0-.5.6 22.1 22.1 0 0 1-4.6 5.3c.8.8 1.6 1.7 2.1 2.3l-1.6 1.3a32.227 32.227 0 0 0-2.6-2.9 34.769 34.769 0 0 0-3-2.6l1.4-1.2c.5.4 1.4 1.1 2.3 1.9a17.285 17.285 0 0 0 3.5-3.9h-7.2c-.5 0-1.3.1-1.6.1v-1.9a8.083 8.083 0 0 0 1.6.1h7.6c.5 0 1-.1 1.3-.1zm12.3.4a9.958 9.958 0 0 0-1 1.1 19.485 19.485 0 0 1-2.9 2.7v3.4c0 .5.1 1.3.1 1.7h-2a9.149 9.149 0 0 0 .1-1.7v-2.3a26.316 26.316 0 0 1-4.2 1.7l-1-1.6a16.793 16.793 0 0 0 5.6-2.3 12.539 12.539 0 0 0 2.3-2h-4.9a10.868 10.868 0 0 0-1.8.1v-1.8a10.283 10.283 0 0 0 1.7.1h2.4v-.7a5.7 5.7 0 0 0-.1-1.3h1.9c0 .3-.1.8-.1 1.3v.7h1.6a3.749 3.749 0 0 0 1.1-.1zm-1.9 3.3a29.041 29.041 0 0 1 3.3 2l-1.1 1.5a31.532 31.532 0 0 0-3.3-2.2zm8.9-.8l-1 1.5a32.067 32.067 0 0 0-3.1-1.9l1-1.5c.9.5 2.4 1.4 3.1 1.9zm1.1 3.1a14.47 14.47 0 0 0 5.3-5.1l1 1.9a16.214 16.214 0 0 1-9.9 6.6l-1-1.8a15.746 15.746 0 0 0 4.6-1.6zm1-6.2l-1 1.5c-.8-.5-2.2-1.4-3.1-1.9l1-1.5c.9.5 2.4 1.4 3.1 1.9zm4.1.5l-1.2.5a10.5 10.5 0 0 0-1.2-2.1l1.1-.5a10.705 10.705 0 0 1 1.3 2.1zm1.9-.8l-1.2.5a10.707 10.707 0 0 0-1.3-2.1l1.2-.5a23.922 23.922 0 0 1 1.3 2.1zm11.8-.9c-.2.3-.4.9-.6 1.2a17.88 17.88 0 0 1-1.8 3.7 31.253 31.253 0 0 1 3.2 3l-1.4 1.6a28.318 28.318 0 0 0-3-3 17.092 17.092 0 0 1-5.1 4.2l-1.6-1.4a16.371 16.371 0 0 0 5.2-4c-1-.8-2.3-1.7-3.7-2.6l1.2-1.4a39 39 0 0 1 3.6 2.5 18.168 18.168 0 0 0 1.5-3.2 4.961 4.961 0 0 0 .3-1.3zm8.3 6.9a13.868 13.868 0 0 0 5-5.3l1.1 1.9a14.053 14.053 0 0 1-5 5 14.649 14.649 0 0 1-5.1 1.9l-1.1-1.8a12.281 12.281 0 0 0 5.1-1.7zm0-4.4l-1.4 1.4a24.617 24.617 0 0 0-3.4-2.9l1.3-1.4a33.687 33.687 0 0 1 3.5 2.9zm17.4 4.4a41.915 41.915 0 0 0-4.9-2v3.9c0 .4.1 1.3.1 1.9h-2.1a11.482 11.482 0 0 0 .1-1.9v-7.8a8.083 8.083 0 0 0-.1-1.6h2.1a8.6 8.6 0 0 0-.1 1.6v2a46.04 46.04 0 0 1 5.7 2.1zm-215.9 37.2l-1 1.5a32.068 32.068 0 0 0-3.1-1.9l1-1.5c.9.5 2.4 1.4 3.1 1.9zm1.1 3.2a14.471 14.471 0 0 0 5.3-5.1l1 1.9a17.078 17.078 0 0 1-5.4 4.9 15.755 15.755 0 0 1-4.5 1.7l-1-1.8a20.989 20.989 0 0 0 4.6-1.6zm1-6.2l-1 1.5c-.8-.5-2.2-1.5-3.1-2l1-1.5c.9.5 2.4 1.5 3.1 2zm7.5 6.2c.5 0 1.2.1 1.7.1h7.8a7.568 7.568 0 0 0 1.5-.1v2.1a8.084 8.084 0 0 0-1.5-.1h-7.8a9.7 9.7 0 0 0-1.7.1zm1.1-6.7a8.6 8.6 0 0 0 1.6.1h5.6a7.083 7.083 0 0 0 1.5-.1v2c-.4 0-1-.1-1.5-.1h-5.6a8.6 8.6 0 0 0-1.6.1zm24.3.1a3.039 3.039 0 0 0-.5.7 11.322 11.322 0 0 1-3.3 3.7l-1.4-1.1a8.361 8.361 0 0 0 2.5-2.5h-7.1a10.283 10.283 0 0 0-1.7.1v-1.9a9.149 9.149 0 0 0 1.7.1h7.3a6.149 6.149 0 0 0 1.4-.1zm-5.5 1.8c0 3.4-.1 6.2-3.8 8.1l-1.6-1.3a6.067 6.067 0 0 0 1.4-.7c1.7-1.2 2.1-2.6 2.1-4.9a4.869 4.869 0 0 0-.1-1.2z" fill="#393c41"/></svg>