<svg viewBox="0 0 740.66 193.76" xmlns="http://www.w3.org/2000/svg"><g fill="#fff" stroke="#fff"><path d="m133.77 155.53c-1.47.72-2.82 1.36-4.14 2-2.9 1.44-5.79 2.9-8.7 4.3-2.47 1.19-5 2.32-7.47 3.45a4.29 4.29 0 0 1 -3.49-.68 1 1 0 0 1 .11-1.42 1 1 0 0 1 .48-.23c3.91-.75 7.27-2.72 10.7-4.6 2.42-1.33 5-2.33 7.53-3.5 1.55-.73 3.09-1.46 4.65-2.27a1.57 1.57 0 0 0 .66-1.08c.2-2.73.31-5.46.5-8.18.09-1.36.39-1.49 1.6-1 1.75.73 1.79.88 1.63 3-.14 1.64-.17 3.3-.28 5.28 1.26-.47 2.34-.83 3.4-1.26 2.35-1 4.67-2 7-2.91a1.69 1.69 0 0 0 1.34-1.57q.54-6.39 1.13-12.79c.13-1.4.54-1.54 1.83-1a2.3 2.3 0 0 1 1.44 2.59c-.25 2.79-.53 5.58-.78 8.38l-.13 2.39 6-2.42c.2-.07.36-.28.55-.31 1.81-.2 2.36-1.34 2.44-3 .1-1.9.3-3.8.48-5.7.12-1.31.58-1.57 1.78-1.06 1.44.62 1.6.85 1.52 2.46s-.16 3.08-.25 4.82c1-.32 1.87-.53 2.69-.84 2.52-.93 5-1.92 7.52-2.87 2.06-.78 2.75-.53 4.07 1.58-1 .37-2 .72-3 1.09l-8.4 3.23c-.94.36-1.92.62-2.82 1.05a1.89 1.89 0 0 0 -.93 1.09c-.8 3.54-1.38 7.12-2.31 10.62a9 9 0 0 1 -4.46 5.55 106.29 106.29 0 0 0 3.08-15.32 4.78 4.78 0 0 0 -1.3.12c-2.12.85-4.22 1.75-6.33 2.62a1.39 1.39 0 0 0 -1 1.37c-.3 3.92-.76 7.82-1 11.73a38.21 38.21 0 0 0 .47 5.12v1.28c-2.7-.07-3.3-.24-3.44-3.44-.18-3.73.07-7.47.15-11.21 0-1 .1-1.92.16-3-.79.33-1.51.61-2.21.89-2.68 1.17-5.35 2.37-8 3.51a1.43 1.43 0 0 0 -1 1.53c-.07 5.1-.33 10.2-.26 15.3 0 3.35.47 6.71.84 10.05a9.58 9.58 0 0 0 1 3c1.22 2.4 3.47 2.23 5.71 2.21 4.38 0 8.55-1.32 12.76-2.25a70.42 70.42 0 0 0 7.49-2.58 16.1 16.1 0 0 0 5.27-2.71 2.08 2.08 0 0 1 2.66.41 1.09 1.09 0 0 1 -.08 1.54 1.77 1.77 0 0 1 -.24.17 31 31 0 0 1 -3.76 1.82c-2.57.95-5.18 1.9-7.83 2.63-3 .85-6 1.47-9.07 2.12a32.13 32.13 0 0 1 -9.53.75c-3.66-.31-6.65-2.52-7.36-5.51a36.65 36.65 0 0 1 -.76-5.32c-.19-2.15-.28-4.31-.28-6.46-.06-4.57-.05-9.12-.07-13.69 0-.28 0-.55-.06-1z"/><path d="m362.33 151.08c1.15.24 1.25 1 1.21 1.89-.14 3.78-.31 7.56-.28 11.34a30.15 30.15 0 0 0 .79 5.08c.05.29.32.52.6 1 .83-1.08 1.62-2 2.33-3.05 1.48-2.11 2.9-4.25 4.37-6.38q1.25-1.8 2.54-3.57c.38-.54.54-1.46 1.56-1.08a1.93 1.93 0 0 1 .83 2.29 17.73 17.73 0 0 1 -1.35 2.77q-1.67 2.82-3.41 5.59c-.79 1.28-1.64 2.54-2.43 3.81s-1.58 3-3.49 2.75c-2.12-.27-4.06-1.22-4.6-3.47a53.23 53.23 0 0 1 -1.21-7.62c-.19-2.17 0-4.38 0-6.78a4.4 4.4 0 0 0 -.76.67q-3.88 5.46-7.75 10.95c-1.23 1.75-2.44 3.52-3.68 5.26a.91.91 0 0 1 -.67.4c-.94-.1-1.87-.3-3.06-.51 1-1.58 1.78-3 2.68-4.27 1.15-1.67 2.42-3.25 3.57-4.92 2.11-3.07 4.21-6.16 6.24-9.28 1.47-2.29 2.79-4.66 4.18-7a.93.93 0 0 0 0-.83c-.59.34-1.18.69-1.78 1-3 1.6-5.95 3.17-8.9 4.8-.87.45-1.61 1.21-2.49 1.69a2.26 2.26 0 0 1 -1.45.11 4.62 4.62 0 0 1 -1.2-.69c-.92-.55-1-1-.16-1.61a27.24 27.24 0 0 1 3-1.86c2.43-1.3 4.88-2.54 7.33-3.8 3-1.57 6-3.14 9.06-4.7 1-.53 2.16-1 3.2-1.52a1.53 1.53 0 0 0 .76-.93c.28-2.27.47-4.56.73-7.18-.81.54-1.43.91-2 1.33-1.57 1.16-2.95.95-4-.71-.37-.58-.05-1 .49-1.29 1.83-1.09 3.66-2.19 5.48-3.32a.88.88 0 0 0 .43-.58c.13-1.78.19-3.57.3-5.74-1 .66-1.77 1.14-2.51 1.65a6.83 6.83 0 0 1 -1.37 1 3.63 3.63 0 0 1 -1.54 0c-.14 0-.26-.23-.41-.34-1.58-1.15-1.64-1.37-.08-2.52a29 29 0 0 1 4.57-2.91 2.06 2.06 0 0 0 1.38-2.13c0-1.71.33-1.94 1.8-1.13a41 41 0 0 1 4.1 2.6c.36.24.53.76.89 1.29-.91.09-1.57.12-2.21.23a1.5 1.5 0 0 0 -1.48 1.52.53.53 0 0 0 0 .13c.05 1.46.08 2.93.12 4.63.9-.57 1.69-1.08 2.47-1.6.21-.14.38-.33.58-.47 1.45-1.17 2.43-.94 3.2.78a1 1 0 0 1 -.3 1.44.8.8 0 0 1 -.16.08c-1.74 1-3.44 2.07-5.15 3.1a2.11 2.11 0 0 0 -1.18 1.79c-.15 2.29-.4 4.58-.63 7.14 1.09-.37 2.13-.66 3.1-1.07 2.34-1 4.65-2.05 7-3.06 2.92-1.27 5.84-2.54 8.76-3.77a2.93 2.93 0 0 1 3.4.9c.47.57.21 1.27-.61 1.45-3.79.81-7.16 2.72-10.71 4.17a109.33 109.33 0 0 0 -11 5c-1.53.84-3.34.83-4.7 2-.6.52-1.28.67-1.39 1.75a11.24 11.24 0 0 1 -1.35 3.38c-.42.94-1 1.82-1.52 2.86z"/><path d="m713.7 73.83a5.8 5.8 0 0 0 -3.7 1.24 30.63 30.63 0 0 0 -4.09 3.26c-.81.71-1.2.79-1.88 0a3.42 3.42 0 0 0 -.36-.4c-1.16-.95-1.19-1.22-.18-2.3a15.75 15.75 0 0 1 9.72-5 4.56 4.56 0 0 1 2.66 1.06c1.46 1 1.68 2.38.91 4.16-1.45 3.45-2.83 6.91-4.37 10.27-.94 2.07-2.18 4-3.21 6a18.64 18.64 0 0 0 -1.31 3.62c.71-.42 1.43-.82 2.11-1.25a29.31 29.31 0 0 1 9.16-4.2 28.15 28.15 0 0 1 6.59-.79 10 10 0 0 1 7.85 4.07 6 6 0 0 1 .92 2.72 22.5 22.5 0 0 1 -1.2 9.86c-.48 1.57-1.12 3.08-1.7 4.61-.38 1-.2 1.35.86 1.73 1.32.47 2.63 1 3.92 1.47a3.49 3.49 0 0 1 1.17.73 1.06 1.06 0 0 1 .23 1 1 1 0 0 1 -.92.36c-1.74-.55-3.46-1.1-5.16-1.78-1-.42-1.5-.19-2 .76a24.91 24.91 0 0 1 -6.32 8.28 35.16 35.16 0 0 1 -5 3.57 4.7 4.7 0 0 1 -5-.51 4.59 4.59 0 0 1 -1.7-4.7c.66-3.93 3.05-6.77 6.12-9.12a10.93 10.93 0 0 1 6-2.46 13 13 0 0 1 3.4.32c.74.16 1.11 0 1.31-.66.91-3 2-6 2.65-9.15a22.51 22.51 0 0 0 0-6.19 2.34 2.34 0 0 0 -2-2 17.09 17.09 0 0 0 -9.27 1.07 48.78 48.78 0 0 0 -7.93 3.77 28.93 28.93 0 0 0 -7.57 6.59c-1.76 2.2-3.47 4.44-5.15 6.7a12.27 12.27 0 0 0 -1.13 2.3c-.4.92-.92 1.11-1.78.58a.27.27 0 0 1 -.08-.07c-1.92-1.27-2-2-.46-4.32.88-1.33 1.9-2.58 2.76-3.92 1-1.54 1.9-3.12 2.77-4.72q2.25-4.2 4.43-8.43c1.19-2.29 2.41-4.57 3.46-6.91 1.6-3.6 3.07-7.25 4.6-10.88a.59.59 0 0 1 -.07-.29zm13.43 39-.3-.36a9.37 9.37 0 0 0 -5.82 1.68 16 16 0 0 0 -5.26 5.86 5.85 5.85 0 0 0 -.72 4.25c.05.23.6.58.77.51a9.16 9.16 0 0 0 2.52-1.35 54.88 54.88 0 0 0 5.52-5.37 39.84 39.84 0 0 0 3.29-5.22z"/><path d="m508.4 124.35a19.29 19.29 0 0 0 -1.79.82c-2.47 1.46-5 2.89-7.37 4.44a14.83 14.83 0 0 0 -4.9 4.42 1.22 1.22 0 0 1 -1 .48 10.62 10.62 0 0 1 -2.28-1.33c-.12-.08 0-.65.13-.93.93-1.8 2.61-2.84 4.24-3.91q3.66-2.45 7.45-4.65c1.42-.83 3-1.43 4.43-2.17.3-.16.68-.47.71-.78.36-3 .66-6 1-9.07l-.41-.26c-.94.59-1.94 1.12-2.82 1.78a37.16 37.16 0 0 0 -3 2.59 1.15 1.15 0 0 1 -1.62.14.38.38 0 0 1 -.09-.09c-2.25-1.83-2.05-1.76.08-3.5a45.3 45.3 0 0 1 6.44-4.06 1.91 1.91 0 0 0 1.2-2.12c-.09-.64 0-1.31-.12-1.94s.24-.83.8-.77a3.5 3.5 0 0 1 2.61 2.35c.81-.31 1.63-.59 2.42-.94a2.12 2.12 0 0 1 2.66 1.38l.06.22a1.17 1.17 0 0 1 -.55.8c-1.22.67-2.49 1.25-3.71 1.94a1.39 1.39 0 0 0 -.69.91c-.23 3-.39 6-.57 8.93a2.22 2.22 0 0 0 .2.46 17.15 17.15 0 0 0 1.09-1.45c1.69-2.93 3.36-5.93 5-8.91l3.09-5.53a1.11 1.11 0 0 1 1.34-.65c1.66.43 2.26 1.48 1.45 2.9-1.66 2.9-3.36 5.75-5 8.64-.55 1-1 2-1.67 3.18 1.44-.43 2.67-.85 3.9-1.2 2.28-.65 4.56-1.27 6.84-1.9.69-.19 1.36-.46 2-.59a3.43 3.43 0 0 1 1.88 0 6.11 6.11 0 0 1 1.53 1.47 5.48 5.48 0 0 1 -1.46 1c-3.19.93-6.49 1.71-9.73 2.6-1.3.36-2.54.91-3.8 1.38s-2.26.83-3.37 1.28a1.47 1.47 0 0 0 -.57.59q-3.57 5.43-7.12 10.89c-1.77 2.73-3.37 5.57-5.3 8.16-2.14 2.85-4.57 5.47-6.86 8.2-1.33 1.59-2.62 3.22-4 4.8a30.43 30.43 0 0 1 -2.18 2.22c-.38.38-2.88 0-3-.55a2 2 0 0 1 .48-1.32c1.17-1.37 2.42-2.65 3.61-4 2.07-2.37 4.12-4.77 6.18-7.15.88-1 1.83-2 2.61-3.08.94-1.29 1.72-2.69 2.59-4 1.53-2.36 3.14-4.66 4.61-7.06.92-1.51 1.67-3.14 2.46-4.72z"/><path d="m288 147.31c.39.34.77.6 1.08.93.56.6.44 1.2-.27 1.5-2.88 1.26-5.77 2.49-8.65 3.74a13.43 13.43 0 0 0 -2.24 1.05 1.63 1.63 0 0 0 -.56 1.15c-.12 4.85-.11 9.7-.32 14.56a57 57 0 0 1 -1 6.06c-.15 1-.75 1.11-1.56.89-1.85-.51-2.28-1.2-1.64-3 1.07-3 .9-6.15 1-9.27.07-2.62.1-5.23.15-8.23a13 13 0 0 0 -2.09 1.45 1.37 1.37 0 0 1 -2.06.13c-1.77-1.19-1.86-1.25-.28-2.59 1.14-1 2.51-1.63 3.74-2.48a1.58 1.58 0 0 0 .71-1c.07-2.84.08-5.68.07-8.52a10.53 10.53 0 0 0 -.21-2.1c-.05-.2-.62-.49-.77-.41-2.12 1.13-4.2 2.3-6.29 3.48a1.49 1.49 0 0 0 -.42.48c-.38.6-.83.56-1.38.22-.33-.21-.71-.34-1-.56s-.89-.54-.88-.78a1.81 1.81 0 0 1 .68-1.24c1.69-1 3.41-1.91 5.14-2.83 1.3-.67 2.62-1.32 3.95-1.93a1 1 0 0 0 .64-1.18c-.31-1.95-.55-3.91-.9-5.86a17.72 17.72 0 0 0 -.74-1.87 5.84 5.84 0 0 1 -.14-1.25 3.9 3.9 0 0 1 1.32 0 3.66 3.66 0 0 1 2.51 3.21c.22 1.59.6 3.16.82 4.75.12.81.51.86 1.12.6a35.76 35.76 0 0 1 11.87-2.81 5.38 5.38 0 0 1 4.37 1.93c.91 1 .47 2.27 0 3.24a55.89 55.89 0 0 1 -3.25 5.34c-.72 1.09-1.61 2.08-2.47 3.16zm2.8-11.17c-1.09.09-2 .15-2.8.24-3.62.35-7 1.72-10.35 2.92a1.18 1.18 0 0 0 -.61.94c.07 3.31.2 6.61.33 9.91 0 .67.34.86 1 .66a13.53 13.53 0 0 0 6.68-5.1c1-1.23 1.84-2.54 2.69-3.85 1-1.51 1.89-3.05 2.81-4.59a4.35 4.35 0 0 0 .28-1.13z"/><path d="m608.57 131.75c-.67 1.08-1.46 2.26-2.19 3.49a39.24 39.24 0 0 1 -5.62 7.4c-2.09 2.2-4.25 4.36-6.51 6.38a21.94 21.94 0 0 1 -4.12 2.69c-1.2.65-2.47.18-3.64-.31-.23-.1-.33-.52-.5-.84a33.37 33.37 0 0 0 4-1.69 15.48 15.48 0 0 0 2.21-2.07c1.58-1.48 3.32-2.85 4.8-4.41a47.62 47.62 0 0 0 3.66-4.72c1.17-1.6 2.28-3.26 3.38-4.91.49-.75.81-1.61 1.35-2.3.69-.89.33-1.32-.4-1.89a41.57 41.57 0 0 1 -3.19-2.89 5.26 5.26 0 0 1 -.61-1.37 6.15 6.15 0 0 1 4.14 1.6c.19.17.34.37.52.53 1.06 1 1.25 1 1.78-.4q2-5.33 4-10.65a6.2 6.2 0 0 0 .26-1 5.15 5.15 0 0 0 0-.68 13 13 0 0 0 -2.38.79q-4.85 2.77-9.6 5.71a6.85 6.85 0 0 0 -1.77 1.71c-.48.63-1 .83-1.64.46a13.52 13.52 0 0 1 -1.47-.87c-.56-.43-.34-1.6.56-2.28a51.43 51.43 0 0 1 5-3.54 79.9 79.9 0 0 1 7.21-3.81 15.47 15.47 0 0 1 4.6-1.38 6.53 6.53 0 0 1 3 .91c.2.09.26.77.22 1.16a41.12 41.12 0 0 1 -3 10.88c-.82 1.93-1.71 3.81-2.52 5.75a1.12 1.12 0 0 0 .25 1 26.15 26.15 0 0 0 17.6 5.87c1.83-.08 3.66-.14 5.48-.31 1.37-.13 2.74-.44 4.12-.61.5-.06 1.3-.43 1.38.44a1.57 1.57 0 0 1 -1 1.17 28.32 28.32 0 0 1 -12.59 1.4 27.19 27.19 0 0 1 -8.64-2.13c-2.71-1.34-5.29-2.77-8.09-4.25z"/><path d="m524.15 145.05c-2.4-.69-4.12.53-5.82 1.79a9.91 9.91 0 0 0 -1 .87 1.51 1.51 0 0 1 -2 .32 9.58 9.58 0 0 0 -1.48-.51v16.37c-2.23.44-3.47-.21-3.42-2.19.11-4.75.16-9.5 0-14.24-.1-4-.51-8-.75-11.94a23.2 23.2 0 0 1 0-3.12c0-.25.57-.71.67-.66 2.13 1.09 3.45-.64 5-1.39 1.89-.88 3.71-1.91 5.63-2.68a4.06 4.06 0 0 1 5.18 2.47 4 4 0 0 1 .12.43 58.38 58.38 0 0 1 .83 20.16 9.61 9.61 0 0 0 .16 2.88 2.51 2.51 0 0 1 -1.95 3h-.27a5.45 5.45 0 0 0 -2.39 1.28c-1.52 1.24-2.93 2.61-4.38 3.92-.68.61-3.11.18-3.35-.67a1.67 1.67 0 0 1 .51-1.4q2.34-2 4.81-3.78c.86-.63 1.86-1.06 2.73-1.67a1.61 1.61 0 0 0 .56-1.08c.18-2.69.3-5.41.45-8.17zm-10.81-11.75a2.58 2.58 0 0 0 -.17.49c.2 3.87.38 7.74.62 11.62 0 .72.47.52.89.22 1-.75 2-1.52 3.05-2.18 2-1.2 3.91-2.51 6.38-1.34a2 2 0 0 0 .23-.06 1.39 1.39 0 0 0 .06-.4c-.36-3.46-.72-6.91-1.11-10.36-.09-.73-.5-1-1.22-.62a51.42 51.42 0 0 0 -4.66 2.42c-1.35.87-2.54 1.79-4.07.2z"/><path d="m687.15 118.1c-.13 2.52-1.91 3.31-3.53 4.13s-3.52 1.37-5.26 2.11a8.09 8.09 0 0 1 -9.65-1.91 56.19 56.19 0 0 1 -4.2-5.43c-1.22-1.69-1.67-1.94-3.55-1.1a26.48 26.48 0 0 0 -7.76 5.68 35.12 35.12 0 0 0 -5.61 8c-.94 1.71-.86 1.68-2.7.75-.88-.45-1.1-1-.68-1.79.93-1.81 1.91-3.6 2.81-5.43 1.39-2.83 2.73-5.68 4.11-8.52 1.29-2.67 2.63-5.32 3.89-8 .56-1.15 1-2.36 1.54-3.88-1.56.84-2.88 1.44-4.1 2.22-1.45.93-2.78 2-4.19 3a1.11 1.11 0 0 1 -1 .12 7.26 7.26 0 0 1 -1.8-1.32c-.17-.19 0-.88.17-1.18a9.53 9.53 0 0 1 3.87-2.95l5.68-2.73c.92-.45 1.78-1 2.69-1.53s3.26.18 3.67 1a1.36 1.36 0 0 1 -.06 1l-5.12 11.32c-.61 1.32-1.18 2.67-1.85 4.19a9.05 9.05 0 0 0 1.07-.4c1.44-.72 2.84-1.51 4.29-2.2 1.93-.91 4.71.2 5.84 1.64 1.63 2.1 3.14 4.26 4.7 6.4a3 3 0 0 0 3.25 1.29 49.75 49.75 0 0 0 11.09-3.6c.72-.37 1.55-.57 2.39-.88z"/><path d="m321.25 160.75c1-.85 1.95-1.69 2.93-2.51a17.65 17.65 0 0 0 4-4.73 71.11 71.11 0 0 0 3.59-6.59c1.11-2.51 1.86-5.18.81-7.95a4.42 4.42 0 0 0 -3.58-2.74 20.48 20.48 0 0 0 -6.94.26.81.81 0 0 0 -.56.5c-.44 1.71-.69 3.49-1.28 5.15a22.56 22.56 0 0 1 -6.12 10.08c-1.17 1.05-2.35 2.1-4.14 2-3.33-.14-5.46-3.34-4.42-6.78a18.19 18.19 0 0 1 5.76-9 20.84 20.84 0 0 1 8.56-4.31 16.93 16.93 0 0 1 9.15 0c2.42.74 4.76 1.82 6.17 4.05 1.68 2.67 1.35 5.56.47 8.42a29.28 29.28 0 0 1 -3.94 8 24.84 24.84 0 0 1 -6.61 7c-.7.49-2.79.08-3.89-.82zm-3.47-22.42a5.81 5.81 0 0 0 -.78.24 15.23 15.23 0 0 0 -7 7.43 33.25 33.25 0 0 0 -1.4 4.79c-.17.67.19 1 .87.71a3.75 3.75 0 0 0 .62-.42c3.32-2.48 5.16-6 6.66-9.7.36-.92.64-1.85 1-3z"/><path d="m218 150.75c-.33-.27-.43-.41-.56-.44a2.13 2.13 0 0 1 -2-2.22 1.75 1.75 0 0 1 .05-.4c0-.31-.73-.69-1.1-1.07s-.74-.6-.75-.92.41-.71.74-.88a3 3 0 0 0 1.93-3c-.05-1.15 0-2.31 0-3.46s.32-1.44 1.42-1.08a2.47 2.47 0 0 1 1.88 2.52v.43c.05.71-.12 1.58.23 2.09s1.2.42 1.82.65a1.67 1.67 0 0 1 1.26 1.82c-.88.2-1.8.44-2.74.61a1.13 1.13 0 0 0 -1.06 1.11c-.14 1.24-.3 2.48-.46 3.84 2.54-.49 4.9-.8 6.62-2.8.88-1 2.23-1.67 3.09-2.71a33.91 33.91 0 0 0 3.15-4.65 46.08 46.08 0 0 0 2-4.33 2.88 2.88 0 0 0 .21-1c.1-2.72-.44-3.25-3.17-3.42a19.45 19.45 0 0 0 -8 1.7q-2.92 1-5.73 2.39a39.6 39.6 0 0 0 -5.09 3.15 34.1 34.1 0 0 0 -3.22 2.91c-.53.47-2 .17-2.81-.8a1.39 1.39 0 0 1 0-1.34 29.66 29.66 0 0 1 10-6.62c1.71-.68 3.31-1.61 5-2.25 3.6-1.33 7.31-2.56 11.15-1.25 2.35.8 4.49 2.11 5 4.83a7.62 7.62 0 0 1 -.95 5.22 50.82 50.82 0 0 1 -4.44 6.54 36.17 36.17 0 0 1 -4 3.82c-.13.12-.42.2-.42.31 0 1.95-1.77 1.58-2.77 2-2.66 1.09-5.44 1.89-8.16 2.84-.85.3-3.07-.36-3.32-1.18a1.24 1.24 0 0 1 .5-1.08c1-.48 2.06-.81 3.08-1.2z"/><path d="m575.92 135.26c.07.81.34 1.5.11 1.81a6.62 6.62 0 0 1 -1.93 1.68c-1.51.87-3.07 1.66-4.66 2.39a8.94 8.94 0 0 1 -7.48.34c-4.66-1.92-4.83-6.68-3.5-10.08 1.16-2.88 2.27-5.79 4.54-8.28-4.87-2.65-5.3-6.72-3.49-11.59-1.51.57-2.75 1-4 1.51s-2.41.67-3.34-.6c-.32-.43-.69-.82-1-1.22.51-.19 1.08-.33 1.59-.55 1.81-.78 3.61-1.56 5.4-2.39a46.7 46.7 0 0 0 4.28-2.2 8.3 8.3 0 0 0 1.78-1.72c1.31-1.44 1.72-1.55 3.53-.75a7.23 7.23 0 0 1 1.25.61c.28.2.65.58.61.83a1.6 1.6 0 0 1 -.67 1.06c-1.74 1.07-3.53 2-4.56 4-1.27 2.35-2.53 4.67-2.49 7.45a5.76 5.76 0 0 0 1.76 4 1 1 0 0 0 .94 0c1.12-.77 2.13-1.68 3.27-2.41 2-1.34 4.25-.52 5.8.93a1.88 1.88 0 0 1 -.08 2.65 1.39 1.39 0 0 1 -.27.21 7.9 7.9 0 0 1 -5.8 1.71c-1.24-.06-1.79.92-2.35 1.65a20.07 20.07 0 0 0 -4 8.35 5.49 5.49 0 0 0 1.08 4.59 2 2 0 0 0 1.6.53c2.62-.2 4.91-1.41 7.26-2.48 1.54-.69 3.09-1.3 4.82-2z"/><path d="m430.8 127-5.8 2.27c1.48.56 1.17 1.62 1.18 2.58 0 2.23 0 4.46.11 6.69 0 .44.58.91 1 1.25.91.75.95 1.19-.12 1.68a1.44 1.44 0 0 0 -.93 1.46c-.07 2.37-.24 4.73-.15 7.18 2.9-1.41 4.72-4 7.16-5.76.66 1 .4 1.92.05 3-.79 2.24-2.88 3.3-4.19 5.06a73.8 73.8 0 0 1 -5.2 5.7c-.53.55-1 1.16-1.49 1.67a1.76 1.76 0 0 1 -2.42.22c-.35-.22-.78-.33-1.16-.53-.62-.33-.72-.81-.2-1.3q2.3-2.13 4.61-4.23c-1-2-.48-4-.51-5.87 0-1.27.13-2.56.2-3.83l-.41-.15a20.25 20.25 0 0 1 -1.51 1.56c-.31.27-.87.6-1.15.49a8.77 8.77 0 0 1 -2.19-1.29c-.14-.12 0-.88.2-1.08a44.43 44.43 0 0 1 4-3.27 1.71 1.71 0 0 0 .9-1.55c0-2.63-.07-5.25-.11-8.12-.75.5-1.41.88-2 1.36-.74.62-1.37 1.38-2.15 2a1.84 1.84 0 0 1 -1.42.32 7 7 0 0 1 -1.85-1.07c-.61-.41-.25-.77.11-1.12a30.28 30.28 0 0 1 9.56-6.32l1.3-.51c2.29-.9 2.76-.28 4.59 1.61z"/><path d="m458.74 131.65c.89-5.5 1.29-10.78-.26-16a18.05 18.05 0 0 0 -1.42-2.81c-1.3 1.2-2.55 2-3 3.5-.38 1.24-1 1.39-2 .59l-.16-.15c-.45-.33-1.3-.69-1.28-1a4.57 4.57 0 0 1 .8-2.15 12.44 12.44 0 0 1 1.93-2.17c1.39-1.29 2.34-1.25 4.11-.5 3.42 1.45 4.2 4.51 4.8 7.63a36.52 36.52 0 0 1 .06 12.34c-.42 2.74-.5 5.52-.77 8.29-.09 1-.44 1.23-1.4.93-.61-.19-1.5-.23-1.75-.65s.06-1.24.1-1.88c0-1.43 0-2.87 0-4.53a15.32 15.32 0 0 0 -2.52 1c-1.5 1-2.94 2.07-4.35 3.17a1.39 1.39 0 0 1 -1.92.09c-2-1.39-2.08-1.48-.07-2.9a50.14 50.14 0 0 1 6-3.46c.52-.24 1.3.07 2 .2a5.69 5.69 0 0 1 1.1.46z"/><path d="m391.78 164.64c2-.28 4.06-.51 6.06-.86s4.13-.86 6.2-1.25c.51-.1 1.09-.21 1.28.57a1.18 1.18 0 0 1 -.71 1.52h-.18a58.4 58.4 0 0 1 -5.63 1.64 18.09 18.09 0 0 1 -11.49-1.1 18.65 18.65 0 0 1 -8.07-7.08c-1-1.56-1.94-3.09-2.88-4.68a1.56 1.56 0 0 1 -.16-1.08c.05-.16.61-.25.92-.23 2.25.22 3.9-1.06 5.57-2.23a34.75 34.75 0 0 0 7.27-6.85 9 9 0 0 1 .89-1c1.59-1.48 2.32-1.53 4.14-.33.69.46.56.87 0 1.38-1.22 1.13-2.36 2.35-3.59 3.47-1.65 1.48-3.32 2.93-5 4.34a27.35 27.35 0 0 1 -3 2.19 15.28 15.28 0 0 1 -2.33 1.06c-.54.23-.63.51-.28 1 1.49 2 2.88 4 4.46 5.94a9.33 9.33 0 0 0 6.58 3.5z"/><path d="m447.59 147.61c.86-.55 1.57-1.06 2.36-1.5 2.45-1.38 4.9-2.8 7.39-4.15a1.27 1.27 0 0 1 1.16.23 2.5 2.5 0 0 1 .22 1.78c-.22.48-1 .63-1.47 1q-3.21 2.2-6.42 4.47a2.66 2.66 0 0 1 -3.69-.76 2.94 2.94 0 0 1 -.27-.53 2 2 0 0 0 -1.38-.8 2.82 2.82 0 0 1 -2.09-1.85 24.61 24.61 0 0 1 -2.06-8.85c-.19-2.75-.37-5.51-.43-8.27-.09-3.88-.05-7.76-.07-11.64 0-.82.32-1.16 1.13-.86.61.22 1.39.28 1.76.71a3.22 3.22 0 0 1 .6 1.92c0 5-.21 10 0 15a34.92 34.92 0 0 0 1.67 10.84c.47 1.11 1 2.2 1.58 3.26z"/><path d="m190 189.89a22.19 22.19 0 0 1 -2.27-1.72c-.12-.11.16-.89.45-1.16 1-.92 2.11-1.7 3.1-2.63 2.4-2.23 4.81-4.45 7.09-6.79 2.13-2.17 4.14-4.45 6.1-6.77 1.53-1.8 2.79-3.82 4.32-5.6a31.29 31.29 0 0 0 4-5.92 1 1 0 0 1 .71-.46 25.71 25.71 0 0 1 2.59 1.38c.09.06.05.5 0 .67a36.71 36.71 0 0 1 -2.21 3.79c-1.17 1.64-2.48 3.18-3.77 4.73-2.54 3-5 6.13-7.71 9-3.05 3.19-6.37 6.13-9.55 9.18-.62.59-1.23 1.19-1.88 1.76a5.3 5.3 0 0 1 -.94.56z"/><path d="m447.4 156.42a3.22 3.22 0 0 1 2.83 1.05 1.58 1.58 0 0 1 .15 1.4c-1 2.32-1.93 4.65-3.06 6.89-1.57 3.12-3.27 6.2-5 9.27q-1.78 3.22-3.71 6.39c-.9 1.49-1.86 3-2.9 4.35a1.55 1.55 0 0 1 -1.37.33c-2-.54-2.4-.85-1.22-2.74 2.24-3.59 4.55-7.13 6.61-10.83 2.23-4 4.2-8.19 6.23-12.33.56-1.18.92-2.47 1.41-3.78z"/><path d="m459.22 157.14c.22-1.42.47-2.83.66-4.26.09-.64.4-.94 1-.67a7.71 7.71 0 0 1 2.07 1.08c.27.24.22 1 .19 1.45-.1 2-.39 3.91-.37 5.87a2.07 2.07 0 0 0 2.18 1.94h.24c3.45-.58 6.9-1.15 10.31-2a12.41 12.41 0 0 0 5.46-3.28c.71-.65 1.22-.61 1.71.23.84 1.43.75 1.93-.44 3a10.21 10.21 0 0 1 -5.36 2.7c-2.61.44-5.17 1.15-7.78 1.61-2.83.49-5.55.29-7.89-1.75a6.22 6.22 0 0 1 -2-5.94z"/><path d="m604.73 92.51c1.13.56 2.06 1 2.94 1.55.19.12.17.64.16 1s-.1.9-.17 1.5a7.37 7.37 0 0 0 1.32-.12 3.37 3.37 0 0 1 3.54 1.23c.37.52.12.9-.39 1.09-1.38.5-2.76 1-4.16 1.44a1.11 1.11 0 0 0 -.94 1.13c-.12 2.19-.3 4.38-.48 6.57a7 7 0 0 1 -.35 1.76 1 1 0 0 1 -.78.46 20.21 20.21 0 0 1 -2.26-.68l.36-6.92-.32-.13c-1 .61-2 1.15-3 1.86a1.37 1.37 0 0 1 -1.85 0c-.26-.19-.45-.47-.69-.68-1.27-1.13-1.28-1.43.23-2.24 1.7-.92 3.45-1.71 5.21-2.51a1.38 1.38 0 0 0 1-1.25c.15-1.57.38-3.16.63-5.06z"/><path d="m217.14 175.51c-.77 3.44-1.63 7.19-2.43 11q-.63 3-1.11 6c-.1.6-.33.76-.85.59-.17-.06-.31-.19-.49-.24-2-.61-2-.61-1.84-2.66.16-1.56.55-3.1.84-4.65.78-4 1.63-8 2.28-11.94a11.36 11.36 0 0 0 -.4-3.48c-.11-.65-.15-1.15.74-.9a10.36 10.36 0 0 1 2.11.74 1.7 1.7 0 0 1 .74 1.11c.2 1.37.27 2.77.41 4.52z"/><path d="m232.1 188.14a22.89 22.89 0 0 1 -2.56-.78 1.15 1.15 0 0 1 -.49-1 44.71 44.71 0 0 0 -.58-11.14c-.29-1.7-.61-3.38-.9-5.09-.19-1.11 0-1.3 1.13-1a2.63 2.63 0 0 1 2.38 2.64c.24 2.42.91 4.79 1.13 7.21.26 2.92.24 5.86.34 8.79z"/><path d="m195.17 141a20.74 20.74 0 0 1 2.51 1.1 1.51 1.51 0 0 1 .6 1.15 8.91 8.91 0 0 0 2.21 5.92 14.71 14.71 0 0 0 5.89 4.7c.46.18.7.94 1 1.43-.59.08-1.28.4-1.75.2a16.29 16.29 0 0 1 -3.65-2 27.11 27.11 0 0 1 -4.62-4.27 10.92 10.92 0 0 1 -2.52-7.47 3.27 3.27 0 0 1 .29-.73z"/><path d="m263 156.52c-3-.29-4.65-2.12-5.94-4.14a17.83 17.83 0 0 1 -3.06-8.38c-.1-1.29.11-1.5 1.33-1.19 1.7.47 2.08 1 2.11 2.68a12.63 12.63 0 0 0 2.13 6 42.67 42.67 0 0 0 2.74 3.67 12.79 12.79 0 0 1 .72 1.31z"/><path d="m459.25 124.8a9.1 9.1 0 0 0 -1.9.66c-1.83 1.11-3.65 2.25-5.38 3.51-.63.46-1.08.63-1.71.21l-.71-.47c-1.47-.89-1.52-1.14-.18-2.12a42 42 0 0 1 4.77-3.11c1.86-1 3.51-.48 5.11 1.32z"/><path d="m226.19 159.74c.84.39 1.61.78 2.4 1.13 3.1 1.3 6.23 2.56 9.32 3.89a5.83 5.83 0 0 1 2 1.31c.3.31.21 1 .3 1.52-.44.06-1 .34-1.3.15-3.07-2.26-6.86-2.93-10.17-4.63a16.94 16.94 0 0 1 -2.76-1.94 1.34 1.34 0 0 1 -.26-.93c0-.19.32-.31.52-.5z"/><path d="m155.16 165.89c-.79-.29-1.54-.52-2.25-.85a.81.81 0 0 1 -.38-.69 1.17 1.17 0 0 1 .51-.74c1.38-.79 2.78-1.54 4.19-2.29s2.85-1.54 4.31-2.2c.93-.41 1.45.4 1.74 1a1.47 1.47 0 0 1 -.57 1.26q-3.33 2.1-6.7 4.12a5.2 5.2 0 0 1 -.85.39z"/><path d="m655.86 92.47c-.11 1-.22 1.06-1.24.62a2.39 2.39 0 0 1 -1.74-2.09 9.71 9.71 0 0 0 -1.14-2.52 4.13 4.13 0 0 1 -.18-1 4.39 4.39 0 0 1 .89 0c2.42.52 3.29 2.98 3.41 4.99z"/><path d="m25.05 113.2c1.44-5.26 2.93-10.09 4.05-15 1.07-4.72 1.88-9.5 2.51-14.29.5-3.76.77-7.58-.3-11.34-.27-.92-.45-1.87-.78-3.24 1.67 1 3 1.64 3.31 3.31.42 2.14.87 4.29 1.34 6.57a7.68 7.68 0 0 0 1.48-.83c4.37-3.94 9.11-7.55 12.51-12.44 2.46-3.53 4.94-7.06 7.11-10.76a23.47 23.47 0 0 0 2.15-6.18c.58-2.31-.33-3.45-2.76-3.83a16.2 16.2 0 0 0 -7.29.5c-4.35 1.38-8.75 2.72-13 4.49a122.61 122.61 0 0 0 -23.7 12.92c-1.55 1.12-3 2.4-4.49 3.62-.64.54-1.19 1.47-2.16.66a2.31 2.31 0 0 1 -.2-3.27 27.26 27.26 0 0 1 4.36-3.74c4.58-2.81 9.23-5.49 13.91-8.08q4.32-2.38 8.86-4.34c3.15-1.36 6.39-2.53 9.65-3.62 2.54-.84 5.17-1.44 7.77-2.1a12 12 0 0 1 7 .32 2.42 2.42 0 0 1 .9.39c2.14 2.14 4.13 4.33 3.56 7.75a24.4 24.4 0 0 1 -3.12 8.33 84.06 84.06 0 0 1 -9.58 13.1 54.5 54.5 0 0 1 -10.52 8.9c-.16.11-.29.35-.44.35-2.23 0-2.4 1.56-2.57 3.26a122.59 122.59 0 0 1 -3.37 17.17c-.46 1.81-.91 3.63-1.53 5.35a12.32 12.32 0 0 1 -2.9 4.94 12.1 12.1 0 0 1 -1.76 1.13z"/><path d="m187.93 59.81c.21 2.77.57 5.33.56 7.9a31.21 31.21 0 0 1 -1.44 8.57 43.41 43.41 0 0 1 -4.48 10.35c-1 1.72-1.93 3.62-3.91 4.59a6.12 6.12 0 0 1 -4 .58c.47-.5.81-.87 1.16-1.23a26.35 26.35 0 0 0 5-7.34 44.67 44.67 0 0 0 4.66-16.33 20.21 20.21 0 0 0 -2-10.6c-.48-1-.86-2-1.4-3.3 3.06.46 3.53 2.91 4.69 4.77a20.39 20.39 0 0 0 4.83-3.53c3.1-2.82 6.26-5.56 9.22-8.5 2.81-2.77 5.69-5.52 7.6-9.05.46-.86.81-1.78 1.24-2.73-1.36-.94-2.69-.68-4-.61a54 54 0 0 0 -14.29 3.19 76.41 76.41 0 0 0 -16.73 7.77 24.44 24.44 0 0 0 -6 4.87 4.14 4.14 0 0 1 -.8.57 3.48 3.48 0 0 1 -2.15-3c1.59-2.29 4.05-3.68 6.37-5.18a53.36 53.36 0 0 1 12.14-5.69c2.31-.78 4.54-1.78 6.83-2.6a45.8 45.8 0 0 1 13.51-3.06c2.52-.12 4.84.25 6.66 2.38 1.06 1.27 1.59 2.59 1 4a19.17 19.17 0 0 1 -2.84 5c-2.55 3-5.3 5.74-8.1 8.47a61.73 61.73 0 0 1 -5.47 4.61c-1.87 1.45-3.82 2.8-5.78 4.14a15.17 15.17 0 0 1 -2 1z"/><path d="m315.86 69.8a40.93 40.93 0 0 0 6.74-7.42c2.8-3.76 5.58-7.5 8.06-11.5a114.27 114.27 0 0 0 8.82-17.37 12.76 12.76 0 0 0 1.22-5.4 3.53 3.53 0 0 0 -2.76 0 34.8 34.8 0 0 0 -11.82 6.89 6.69 6.69 0 0 0 -1.12 1.54 32.58 32.58 0 0 1 -5 6.88c-2.76-.76-3.42-2.15-2-4.49a24 24 0 0 1 3.19-4.3c2-2.07 3.05-4.61 4.14-7.16l.67-1.47 3.29 2.21c1.25-.59 2.63-1.37 4.11-1.92a38.39 38.39 0 0 1 4.39-1.19 3.8 3.8 0 0 1 3.19.69c3.24 2.33 3.64 3 2.37 7.45a47.87 47.87 0 0 1 -2.74 6.38 129.27 129.27 0 0 1 -8 14.35 154 154 0 0 1 -9.61 13.15 26.83 26.83 0 0 1 -2.57 2.76c-1.43 1.38-2.8 1.35-4.57-.08z"/><path d="m305.83 39.12a117.36 117.36 0 0 0 -17.26 5.88c1.89 2.8 1.27 5.67.61 8.41a60.84 60.84 0 0 1 -5.12 13.59c-1.32 2.59-2.45 5.28-3.95 7.76s-2.87 5.48-5.07 7.74a2.6 2.6 0 0 1 -3 .76c.58-1.08 1.08-2 1.61-3 1.08-2 2.19-3.93 3.25-5.91a121.64 121.64 0 0 0 7.34-16.1 74.2 74.2 0 0 0 2.3-9.41 13.1 13.1 0 0 0 0-2.8c-5.5 2-10.31 4.87-15.17 7.52a4.79 4.79 0 0 1 -2.37-2.97c2.23-1.17 4.45-2.36 6.67-3.5a168.35 168.35 0 0 1 19.38-8.09c2.37-.85 4.79-1.56 7.21-2.27 1.5-.45 2.94.51 3.57 2.39z"/><path d="m112.8 76.29c-.91-.56-2-1.09-2.1-2.67a31.77 31.77 0 0 1 7.71-5.05c3.56-1.76 7.16-3.48 10.85-5 4.52-1.81 9.13-3.38 13.71-5.05 1.85-.67 3.19.06 4.38 1.79a6.79 6.79 0 0 1 -1.23.76c-2.69.91-5.41 1.73-8.08 2.66-1.81.63-3.55 1.44-5.34 2.07a1.16 1.16 0 0 0 -.93 1.3c.35 4.54-1 8.77-2.28 13a87 87 0 0 1 -6.73 15.2c-.78 1.44-1.77 2.79-2.69 4.17-1.14 1.7-1.81 1.83-3.92.72 1-1.71 1.94-3.43 2.93-5.13a68.62 68.62 0 0 0 7.6-17.19 61.53 61.53 0 0 0 2-8.67c0-.44 0-.88.06-1.72-3 1.44-5.64 2.64-8.22 4.07s-5.12 3.15-7.72 4.74z"/><path d="m251.05 66.57c.89 1 .38 1.47-.14 2a18.21 18.21 0 0 1 -4.62 3.57c-3.61 2-7.14 4.08-10.79 5.95a23 23 0 0 1 -6.29 2.39 9.05 9.05 0 0 1 -7.09-1.22 7.07 7.07 0 0 1 -2.68-6.26 16.3 16.3 0 0 1 3-8.26c1-1.49 1.85-3 2.82-4.62-.3-.33-.61-.66-.9-1-2.78-3.18-3.07-6.78-1.68-10.62.54-1.5 1.09-1.58 2.18-.36.39.44.76.9 1.15 1.35-1.14 3.23-1.94 6.39.52 9.41 1.47-1.35 2.79-2.63 4.18-3.83.91-.77 1.93-1.59 3.22-.81 1.47.89 3 1.82 3.13 3.81a1.76 1.76 0 0 1 -.81 1.68c-1.94 1.46-3.85 2.85-6.52 2.31a1.79 1.79 0 0 0 -1.35.58c-3 3.42-5.2 7.2-5.71 11.8v.79c-.06 2.37 1.09 3.61 3.42 3a31.38 31.38 0 0 0 5.68-1.68c5.29-2.59 10.48-5.4 15.71-8.12z"/><path d="m588.9 7.21a6.25 6.25 0 0 1 -1.37 1c-3.08 1-5.34 3.16-7.56 5.37-3.64 3.57-7.33 7.15-9.84 11.64a40.52 40.52 0 0 0 -3.33 7.2 10.55 10.55 0 0 0 .6 7.57c1.17 2.81 3.56 3.4 6.11 3.62 4.6.4 9.09-.52 13.59-1.36.1 0 .22.09.45.19a3.39 3.39 0 0 1 -2.15 1.85 29.63 29.63 0 0 1 -10.73 1.51c-7.53-.45-11-7.26-10.57-12.72.33-4 2.23-7.3 4.29-10.54a58.75 58.75 0 0 1 3.56-5c1.24-1.54 2.64-2.94 4-4.41.34-.38.62-.81 1.12-1.48a5.24 5.24 0 0 0 -1.37 0c-4.06 1.43-8.12 2.87-12.15 4.36-2.19.82-2.78.6-3.74-2 .52-.2 1-.42 1.56-.61 4-1.38 8-2.81 12-4.13 3.84-1.27 7.72-2.45 11.55-3.66 2.26-.69 2.26-.69 3.98 1.6z"/><path d="m433.2 37.74 2.23 2.1a14.18 14.18 0 0 1 -1.61.8 109.25 109.25 0 0 0 -15.73 6.13 43.82 43.82 0 0 0 -5.75 3.49c-2 1.43-2.8 1.3-3.88-1.12a16.64 16.64 0 0 1 5.3-3.67c2.58-1.33 5.29-2.43 7.93-3.63a4.46 4.46 0 0 1 .91-.37c4.08-.85 6.56-3.66 8.82-6.88a22.07 22.07 0 0 0 3.48-6c.47-1.53.28-2.07-1.21-2.55a11.25 11.25 0 0 0 -5.86-.49c-2.19.44-4.49.45-6.62 1.11a38.86 38.86 0 0 0 -7.31 3 31.06 31.06 0 0 0 -4.44 3.56c-.86-.45-2.08-.71-2.44-2.42a31.69 31.69 0 0 1 3.14-2.75c4.89-3.36 10.42-4.77 16.27-5.17a18.67 18.67 0 0 1 5.72.49 11.2 11.2 0 0 1 4.89 2.9 3.58 3.58 0 0 1 .84 4.18 20.21 20.21 0 0 1 -3.38 5.57z"/><path d="m94.52 53.84a21.28 21.28 0 0 1 2.12 2c.18.22 0 .93-.21 1.24-2.86 4-5.74 8.1-8.7 12.09a4.48 4.48 0 0 0 -.84 4.52 38 38 0 0 1 1.43 13c-.08 2.58-.28 5.16-.48 7.74a2.78 2.78 0 0 1 -2.51 2.65c0-1-.12-1.91-.1-2.81.09-3.44.31-6.88.28-10.33 0-2.52-.34-5-.58-7.52a19.28 19.28 0 0 0 -.62-2.49c-1.36 1.6-2.46 2.88-3.55 4.18l-8.61 10.38c-.42.5-.82 1-1.19 1.57-1.17 1.72-1.87 1.94-4.19 1.14a28.58 28.58 0 0 1 1.62-2.63c2.1-2.78 4.19-5.58 6.42-8.27 5.19-6.23 10.1-12.61 14.65-19.3 1.6-2.37 3.28-4.65 5.06-7.16z"/><path d="m374.49 22.56 2.8 1.65a22.44 22.44 0 0 1 -1.29 7.11 63.24 63.24 0 0 1 -7.94 16 114.37 114.37 0 0 1 -9.64 13.1 42.43 42.43 0 0 0 -3 3.71 8.84 8.84 0 0 1 -3.24 2.51 3.41 3.41 0 0 1 -2.92.28c1.41-1.72 2.76-3.33 4.07-5 1.77-2.21 3.5-4.45 5.21-6.7 2.88-3.77 5.32-7.86 7.93-11.85a63.49 63.49 0 0 0 6.66-14.79c.59-1.84.87-3.76 1.36-6.02z"/><path d="m505.11 22.07a14.05 14.05 0 0 1 -1.52 2.63c-1.92 2.13-3.28 4.79-5.57 6.63-1.08.86-2 1.94-3.06 2.82-4.25 3.5-8.48 7-12.8 10.42-4 3.17-8.1 6.24-12.21 9.28a34.58 34.58 0 0 1 -5.21 3.24c-2.17 1-3.06.59-4.28-1.85 4.29-.84 7.24-3.93 10.6-6.28 5-3.52 10.05-7.16 14.88-11 4.37-3.44 8.52-7.18 12.73-10.83 1.79-1.56 3.48-3.25 5.23-4.86a3.83 3.83 0 0 1 .92-.48z"/><path d="m547.29 26.66c-.28.7-.31 1.11-.52 1.25a22.54 22.54 0 0 1 -4.17 2.56c-6.74 2.55-13.53 4.93-20.31 7.36-1.25.44-2.51.83-3.8 1.16-1.85.45-2.63-.14-3.11-2.47 10.52-3.08 20.79-7.05 31.91-9.86z"/><path d="m295.06 25.13-18.31 8.58-2.45-2.83 4.49-2.06c3.43-1.57 6.86-3.15 10.29-4.7a16.7 16.7 0 0 1 2.06-.71c2.37-.69 2.56-.59 3.92 1.72z"/><path d="m133.36 49.85c-1.86.53-3.73.93-5.49 1.59a43.14 43.14 0 0 0 -5.39 2.5c-1.68.9-3.25 2-4.93 3.08-.32-.29-.57-.49-.78-.72-1.54-1.67-1.52-2.15.31-3.39a35.57 35.57 0 0 1 11.47-5.3c2.99-.72 3.06-.69 4.81 2.24z"/><path d="m407.5 50.3c-5.33-.79-11.16-9.79-10.76-15.89a3.12 3.12 0 0 1 3.1 2.77c.85 4.68 2.75 8.78 6.63 11.8a8.34 8.34 0 0 1 1 1.32z"/><path d="m143.06 30.19c1.73.86 2.84 1.64 3.32 3.18.68 2.14 1.53 4.22 2.24 6.35a8.8 8.8 0 0 1 .21 1.91 2.55 2.55 0 0 1 -2.48-1.87c-.94-2.47-1.9-4.94-2.81-7.43a19.46 19.46 0 0 1 -.48-2.14z"/><path d="m151.55 28.81a5.27 5.27 0 0 1 3 2.46c1 2.24 1.77 4.57 2.63 6.87a6.41 6.41 0 0 1 .15 1.07 2.41 2.41 0 0 1 -2.12-1 47.6 47.6 0 0 1 -3.66-9.4z"/><path d="m505.25 9.65a1.92 1.92 0 0 1 -2.09-1.65c-.4-2.08-.74-4.17-1.08-6.26a2 2 0 0 1 .12-.67c1.5.63 2.59 1.35 2.72 3.21s.84 3.44.33 5.37z"/><path d="m462.52 12.76c3.94 1.65 9.24 5.23 10.08 6.84-.36 0-.72.17-.94 0-2.58-1.47-5.17-2.93-7.7-4.48a2.62 2.62 0 0 1 -1.44-2.36z"/><path d="m470.46 33.31a11 11 0 0 1 -2.17-.76c-2.08-1.4-4.13-2.85-6.14-4.33-.71-.55-1.47-1.09-1.42-2.19 2.36.66 8.57 5.11 9.73 7.28z"/><path d="m512.08 6.37c-2.42-1-3.28-3-3.06-6.31 1-.18 1.41.81 2.09 1z"/><path d="m604.87 18.75c-2.5-1.51-1.84-4-2.21-6.26a5 5 0 0 1 2.21 6.26z"/><path d="m597.23 21.57c-3-.57-4.31-2.36-4.54-6.07a2.65 2.65 0 0 1 1.84 1.59 6.27 6.27 0 0 0 2 3c.28.29.39.83.7 1.48z"/></g></svg>