<svg viewBox="0 0 367.96 113.74" xmlns="http://www.w3.org/2000/svg"><path d="m119 99.75c-.46 0-.6-.2-.62-.54v-39.43h-12.91v47.81a5 5 0 0 0 1.25 3.35 3.55 3.55 0 0 0 2.6 1h30.5v-12.19z"/><path d="m204.32 63.94v48h11.9v-20a.47.47 0 0 1 .11-.28.4.4 0 0 1 .3-.09h5.05a1.33 1.33 0 0 1 1.07.65l11.1 19.71h13.94l-13.5-21.7a13.5 13.5 0 0 0 8-4.84 15.24 15.24 0 0 0 3-9.54 16.38 16.38 0 0 0 -1.67-7.72 13.42 13.42 0 0 0 -4.52-5 19.08 19.08 0 0 0 -6.54-2.6 38 38 0 0 0 -7.76-.77h-16.43c-4.26.02-4.05 4.18-4.05 4.18zm11.91 6.72c0-.13 0-.41.42-.41h7.75a24.16 24.16 0 0 1 3.12.21 8.7 8.7 0 0 1 2.7.77 4.34 4.34 0 0 1 2.55 4.31 5.57 5.57 0 0 1 -.8 3.22 4.81 4.81 0 0 1 -2.08 1.5 9.9 9.9 0 0 1 -3 .61c-1.16.07-2.24.11-3.27.11h-7a.58.58 0 0 1 -.36-.1.33.33 0 0 1 -.08-.24z"/><path d="m343.79 70.6h24.21v-10.82h-32.72a3.07 3.07 0 0 0 -3.2 3.1v46.32a3 3 0 0 0 .81 2 2.71 2.71 0 0 0 2 .72h33.11v-11h-24.11a.5.5 0 0 1 -.56-.47v-9.33c0-.21.07-.5.55-.5h22.88v-10.42h-22.87c-.31 0-.56-.06-.56-.58v-8.51c0-.33.13-.51.46-.51z"/><path d="m71.05 58.14c-14.79 0-25.13 11.4-25.13 27.71 0 16.58 10.1 27.71 25.13 27.71 14.8 0 25.13-11.39 25.13-27.71 0-16.06-10.57-27.71-25.13-27.71zm0 10.84c8.58 0 12.41 8.5 12.41 16.92 0 7.81-3.25 16.93-12.41 16.93-11.2 0-12.41-11.84-12.41-16.93 0-7.8 3.25-16.9 12.41-16.9z"/><path d="m340.72 25.69-156.72-25.69-153.5 25.69a3.74 3.74 0 0 0 -2.88 3.85v16.2l11.69-.07v-9.86a.55.55 0 0 1 .46-.52l144.23-24.18 147.5 24.18a.5.5 0 0 1 .45.52v9.86l11.69.07v-16.2a3.73 3.73 0 0 0 -2.92-3.85z"/><path d="m39.22 111.64-.36-11.07c-4.35 2-10.86 1.84-10.86 1.84a13.69 13.69 0 0 1 -5.67-1.19 14 14 0 0 1 -4.59-3.33 15.65 15.65 0 0 1 -3.09-5.07 20 20 0 0 1 -1.14-6.88 22.12 22.12 0 0 1 1.14-7.19 15.53 15.53 0 0 1 3.12-5.11 14.4 14.4 0 0 1 4.69-3.32 18.32 18.32 0 0 1 5.92-1.2 27 27 0 0 1 10.47 1.75l.37-11c-4.31-1.67-10.42-1.69-10.42-1.69a34.42 34.42 0 0 0 -11.07 1.91 27.51 27.51 0 0 0 -9.37 5.58 25.6 25.6 0 0 0 -6.16 8.77 31.16 31.16 0 0 0 0 23 25.6 25.6 0 0 0 6.16 8.81 27.51 27.51 0 0 0 9.37 5.58 34.48 34.48 0 0 0 11.08 1.91s6.02.05 10.41-2.1z"/><path d="m317.92 59.78h-9.23c-.09 0-2.28 0-3.78 3l-10 20.2-9.91-20.14a4.64 4.64 0 0 0 -4-3.06h-8.71a3.16 3.16 0 0 0 -3.24 3.4v48.75h11.59v-36l9.07 18.78c.11.21 1.13 2 2.55 2h4.9a3.12 3.12 0 0 0 2.45-1.76l9.59-19.11v36.11h11.8v-49.12a3 3 0 0 0 -3.08-3.05z"/><path d="m170.1 58.14c-14.8 0-25.13 11.4-25.13 27.71 0 16.58 10.1 27.71 25.13 27.71 14.8 0 25.13-11.39 25.13-27.71 0-16.06-10.57-27.71-25.13-27.71zm0 10.84c8.57 0 12.41 8.5 12.41 16.92 0 7.81-3.25 16.93-12.41 16.93-11.2 0-12.41-11.84-12.41-16.93 0-7.8 3.25-16.9 12.41-16.9z"/></svg>