<svg xmlns="http://www.w3.org/2000/svg" viewBox="0 0 163.876 74.9"><g fill="#636565"><g opacity=".14"><path d="M155.246 39.436a3.491 3.491 0 0 1 2.089.942 7.535 7.535 0 0 1 1.556 2.007 8.867 8.867 0 0 1 .9 2.457 7.8 7.8 0 0 1 .2 2.293 7.675 7.675 0 0 1-.9 3.194 6.263 6.263 0 0 1-1.966 2.17 7.851 7.851 0 0 1-2.867 1.188 12.377 12.377 0 0 1-3.522.2 7.254 7.254 0 0 1-3.6-1.024 3.752 3.752 0 0 1-1.6-2.457 4.256 4.256 0 0 1-.86.86 1.653 1.653 0 0 1-1.024.2c-.45-.041-.778-.082-1.024-.123a1.809 1.809 0 0 1-.655-.246 6.152 6.152 0 0 1-.737-.573c-.287-.246-.655-.655-1.188-1.106.246.41.491.737.655.983a6.13 6.13 0 0 1 .369.737 2.319 2.319 0 0 1 .123.737v.9c-.041.287-.082.655-.123 1.024-.082.41-.164.737-.246 1.024a15.871 15.871 0 0 1 2.334-1.351 4.923 4.923 0 0 1 2.621-.491 2.509 2.509 0 0 1 1.147.328c.328.164.655.369 1.065.532a9.8 9.8 0 0 0 1.31.45 9 9 0 0 0 1.515.246 8.724 8.724 0 0 0 1.433.041 11.569 11.569 0 0 0 1.188-.082 11.726 11.726 0 0 0 1.147-.287c.369-.123.86-.287 1.392-.491a2.558 2.558 0 0 1 1.229.7 3.364 3.364 0 0 1 .655 1.024 4.429 4.429 0 0 1 .287 2.129 5.646 5.646 0 0 1-1.474 3.4 11.064 11.064 0 0 1-3.194 2.58 17.034 17.034 0 0 1-4.1 1.6 14.36 14.36 0 0 1-4.054.369 23.15 23.15 0 0 1-5.9-1.188 15.191 15.191 0 0 1-4.5-2.416 9.376 9.376 0 0 1-2.826-3.44 8.342 8.342 0 0 1-.778-4.259 2.606 2.606 0 0 1 .584-1.431 2.576 2.576 0 0 1 .737-.7 2.29 2.29 0 0 1-1.31-1.024 6.152 6.152 0 0 1-.737-1.761 11.283 11.283 0 0 1-.287-2.007c0-.7 0-1.269.041-1.761a4.819 4.819 0 0 1 .41-1.638 6.771 6.771 0 0 1 .9-1.474 4.063 4.063 0 0 1 1.31-1.065 2.971 2.971 0 0 1 1.556-.328c.164 0 .287.041.369.041l.369.123a7.566 7.566 0 0 1 1.31-3.727 10.74 10.74 0 0 1 2.826-2.948 12.23 12.23 0 0 1 3.645-1.843 9.733 9.733 0 0 1 3.849-.45 9.176 9.176 0 0 1 2.867.655 8.211 8.211 0 0 1 2.334 1.392 5.166 5.166 0 0 1 1.474 1.925 5.034 5.034 0 0 1 .409 2.334 2.4 2.4 0 0 1-.082.532c-.041.164-.082.328-.123.532a4.534 4.534 0 0 1 1.472-.158zm-9.255 4.5a10.6 10.6 0 0 1 1.679-2.007 3.2 3.2 0 0 1-1.515.532 11.484 11.484 0 0 1-1.679 0 7.463 7.463 0 0 1-1.433-.246 10.438 10.438 0 0 1-1.147-.328c.655.45 1.188.86 1.6 1.188a4.039 4.039 0 0 1 .9 1.024 2.523 2.523 0 0 1 .41.983c.082.328.123.7.2 1.106a8.556 8.556 0 0 1 .985-2.247z"/><path d="M146.196 69.371a10.353 10.353 0 0 1-1.147-.041 26.632 26.632 0 0 1-6.839-1.392 18.911 18.911 0 0 1-5.61-3.03 13.389 13.389 0 0 1-3.89-4.75 11.933 11.933 0 0 1-1.147-6.225 6.744 6.744 0 0 1 .246-1.31 11.48 11.48 0 0 1-.9-2.334 13.444 13.444 0 0 1-.41-2.867 17.543 17.543 0 0 1 .041-2.129 9.851 9.851 0 0 1 .7-2.826 8.611 8.611 0 0 1 1.556-2.457 8.174 8.174 0 0 1 3.563-2.416 12.281 12.281 0 0 1 1.147-2.17 15.309 15.309 0 0 1 3.727-3.89 16.49 16.49 0 0 1 4.791-2.416 13.174 13.174 0 0 1 5.283-.614 14.035 14.035 0 0 1 4.013.942 13.155 13.155 0 0 1 3.317 1.966 9.469 9.469 0 0 1 2.539 3.317 8.451 8.451 0 0 1 .491 1.433 7.966 7.966 0 0 1 2.293 1.433 11.788 11.788 0 0 1 2.334 2.989 13.411 13.411 0 0 1 1.27 3.44 11.116 11.116 0 0 1 .287 3.4 11.5 11.5 0 0 1-1.351 4.75 11.055 11.055 0 0 1-1.106 1.6c.041.082.082.123.082.2a7.762 7.762 0 0 1 .532 2.293 9.836 9.836 0 0 1 0 1.556 9.708 9.708 0 0 1-2.375 5.569 15.839 15.839 0 0 1-4.218 3.44 18.17 18.17 0 0 1-5.078 1.966 15.008 15.008 0 0 1-4.141.573zm-6.473-9.051c.328.123.655.287 1.024.41a21.3 21.3 0 0 0 4.914.983 9.434 9.434 0 0 0 2.908-.287 11.132 11.132 0 0 0 3.071-1.188 7.726 7.726 0 0 0 2.17-1.761c.041-.082.123-.123.164-.2a11.171 11.171 0 0 1-1.679.123 13.586 13.586 0 0 1-1.761-.082 13.848 13.848 0 0 1-2.211-.369 9.765 9.765 0 0 1-1.925-.7c-.369-.164-.7-.328-1.065-.491a1.234 1.234 0 0 0-.532.164 14.868 14.868 0 0 0-1.8 1.024zm-4.546-5.119a4.184 4.184 0 0 0 .41 1.6c.123.2.246.45.369.655l.983-2.989zm14.169-5.487a4.814 4.814 0 0 0 1.761.369 7.791 7.791 0 0 0 2.416-.123 3.728 3.728 0 0 0 1.474-.614 3.475 3.475 0 0 0 .819-.9 4.157 4.157 0 0 0 .41-1.638 5.991 5.991 0 0 0-.123-1.188 5.451 5.451 0 0 0-.532-1.433 3.936 3.936 0 0 0-.655-.9l-4.955 1.8a7.025 7.025 0 0 0-.7.9 2.484 2.484 0 0 0-.45.942h-.082l.573 2.621c.006.082.047.123.047.164zm-14.947-1.106l4.5 1.269 3.44-2.948h-1.065l-.164-.819a.566.566 0 0 0-.164-.123c-.2-.164-.573-.45-1.27-.942l3.317-6.8c.246.082.573.164.942.246a2.723 2.723 0 0 0 .86.123 4.625 4.625 0 0 0 1.065 0 .8.8 0 0 0-.369.164l3.358 4.382 1.274-4.58c0-.082.041-.123.041-.2v-.123a1.039 1.039 0 0 0-.082-.491 1.842 1.842 0 0 0-.45-.573 5.042 5.042 0 0 0-1.31-.778 7.546 7.546 0 0 0-1.72-.41 6.368 6.368 0 0 0-2.416.328 8.21 8.21 0 0 0-2.539 1.269 7.833 7.833 0 0 0-1.884 1.966 3.742 3.742 0 0 0-.655 1.925l-.369 4.832-4.259-1.392a1.091 1.091 0 0 0-.246.41.933.933 0 0 0-.123.45c0 .246-.041.655 0 1.31a5.921 5.921 0 0 0 .164 1.188 1.386 1.386 0 0 0 .127.317z"/><path d="M123.222 23.015a9.486 9.486 0 0 0-.86-1.556q.246-.184.737-.491a9.514 9.514 0 0 1 1.147-.655 7.955 7.955 0 0 1 1.474-.614 6.566 6.566 0 0 1 1.88-.247 8.014 8.014 0 0 1 5.119 1.679 13.145 13.145 0 0 1 3.4 4.177 19.871 19.871 0 0 1 1.884 5.365 25.133 25.133 0 0 1 .614 5.2 20.11 20.11 0 0 1-1.229 6.839 23.173 23.173 0 0 1-3.4 6.266 18.985 18.985 0 0 1-5.119 4.628 12.117 12.117 0 0 1-6.347 1.8 22.923 22.923 0 0 1-2.785-.164 16.7 16.7 0 0 1-4.1-1.188 2.646 2.646 0 0 0 1.229 1.024 15.975 15.975 0 0 0 1.925.819 8.872 8.872 0 0 0 1.925.491 6.9 6.9 0 0 0 1.31.164c.041.41.082.86.082 1.269v1.065a9.657 9.657 0 0 1-.737 3.768 8.933 8.933 0 0 1-2.007 2.989 9.47 9.47 0 0 1-3.112 2.007 10.886 10.886 0 0 1-4.1.737 7.843 7.843 0 0 1-5.283-1.761 12.639 12.639 0 0 1-3.235-4.423 21.55 21.55 0 0 1-1.6-5.733 41.848 41.848 0 0 1-.434-5.731 23.424 23.424 0 0 1 .369-3.931 33.522 33.522 0 0 1 1.065-4.341 37.254 37.254 0 0 1 1.6-4.218 15.549 15.549 0 0 1 2.048-3.4 19.659 19.659 0 0 1-1.6-3.522 11.253 11.253 0 0 1-.655-3.89 6.709 6.709 0 0 1 .9-3.4 9.709 9.709 0 0 1 2.293-2.868 11.764 11.764 0 0 1 3.112-1.966 8.631 8.631 0 0 1 3.4-.737 7.566 7.566 0 0 1 3.194.737 13.985 13.985 0 0 1 2.989 1.843 14.287 14.287 0 0 1 2.375 2.334 6.307 6.307 0 0 1 1.229 2.17 14.893 14.893 0 0 0-.697-2.535zm-2.211 10.2a8.221 8.221 0 0 1-4.341 1.188 13 13 0 0 1 1.638 1.024 18.763 18.763 0 0 1 1.72 1.433c.573.491 1.106 1.024 1.6 1.515s.86.942 1.188 1.31a3.415 3.415 0 0 0-.41-1.188 12.611 12.611 0 0 0-.655-1.147 19.477 19.477 0 0 0 1.884-7.535 5.92 5.92 0 0 1-2.624 3.396z"/><path d="M112.084 72.238a11.54 11.54 0 0 1-7.781-2.7 15.752 15.752 0 0 1-4.218-5.774 25.731 25.731 0 0 1-1.884-6.757 43.384 43.384 0 0 1-.491-6.307 27.093 27.093 0 0 1 .45-4.587 40.232 40.232 0 0 1 1.188-4.873 41.555 41.555 0 0 1 1.761-4.628 17.4 17.4 0 0 1 1.101-2.133c-.287-.614-.532-1.269-.778-1.925a15.719 15.719 0 0 1-.9-5.16 10.983 10.983 0 0 1 1.351-5.242 14.51 14.51 0 0 1 3.112-3.931 15.281 15.281 0 0 1 4.177-2.621 11.607 11.607 0 0 1 9.624.041 18.324 18.324 0 0 1 2.914 1.638c.246-.123.491-.287.778-.41a14.429 14.429 0 0 1 2.129-.86 10.049 10.049 0 0 1 3.03-.41 11.725 11.725 0 0 1 7.494 2.5 16.665 16.665 0 0 1 4.382 5.406 25.414 25.414 0 0 1 2.252 6.347 29.831 29.831 0 0 1 .7 5.979 23.814 23.814 0 0 1-1.479 8.148 26.2 26.2 0 0 1-3.972 7.289 23.2 23.2 0 0 1-6.143 5.528 16.178 16.178 0 0 1-4.955 2.007v.082a13.294 13.294 0 0 1-1.024 5.242 12.8 12.8 0 0 1-2.867 4.259 13.909 13.909 0 0 1-4.382 2.826 14.793 14.793 0 0 1-5.569 1.026zm1.966-49.959a5.209 5.209 0 0 0-1.925.45 6.727 6.727 0 0 0-2.048 1.31 5.743 5.743 0 0 0-1.433 1.843 3.312 3.312 0 0 0-.41 1.6 8.2 8.2 0 0 0 .45 2.621 18.437 18.437 0 0 0 1.31 2.867l1.31 2.293-1.679 2.048a10.721 10.721 0 0 0-1.515 2.58 42.073 42.073 0 0 0-1.433 3.768 26.357 26.357 0 0 0-.942 3.849 20.557 20.557 0 0 0-.325 3.271 34.044 34.044 0 0 0 .41 5.2 18.825 18.825 0 0 0 1.31 4.75 8.124 8.124 0 0 0 2.211 3.071 4.049 4.049 0 0 0 2.785.86 7.783 7.783 0 0 0 2.7-.45 5.9 5.9 0 0 0 1.884-1.188 5.246 5.246 0 0 0 1.147-1.761 4.338 4.338 0 0 0 .369-1.474c-.2-.082-.45-.123-.655-.2a22.067 22.067 0 0 1-2.457-1.024 6.454 6.454 0 0 1-2.825-2.584l-5.16-9.3 9.869 3.849a12.75 12.75 0 0 0 3.112.942c.86.082 1.679.123 2.375.123a7.87 7.87 0 0 0 3.972-1.024l-6.675-8.559a10.355 10.355 0 0 0-.9-1.024c-.41-.41-.86-.86-1.351-1.31s-.983-.86-1.474-1.229a10.529 10.529 0 0 0-1.065-.7l1.72-7.248a4.314 4.314 0 0 0 2.334-.614 1.9 1.9 0 0 0 .942-1.269l7.453 1.363a23.259 23.259 0 0 1-1.474 7.085 7.451 7.451 0 0 1 .614 2.089l1.31 10.443a14.96 14.96 0 0 0 3.03-2.989 18.259 18.259 0 0 0 2.826-5.2 16.891 16.891 0 0 0 1.024-5.569 20.515 20.515 0 0 0-.532-4.423 17.409 17.409 0 0 0-1.556-4.382 8.885 8.885 0 0 0-2.373-2.954 4.067 4.067 0 0 0-2.744-.819h-.328c.123.491.2 1.065.328 1.638l-7.456 1.557a3.66 3.66 0 0 0-.532-.778 11.249 11.249 0 0 0-3.972-3.071 4.422 4.422 0 0 0-1.556-.327z"/><path d="M91.771 21.171c-8.641 0-15.684 6.757-15.684 15.029 0 8.313 7.044 15.029 15.684 15.029s15.685-6.758 15.685-15.029-7.044-15.029-15.685-15.029zm1.843 16.79a4.054 4.054 0 1 1 4.054-4.054 4.117 4.117 0 0 1-4.054 4.054z"/><path d="M91.772 55.079c-10.77 0-19.493-8.477-19.493-18.879s8.764-18.878 19.493-18.878c10.77 0 19.493 8.477 19.493 18.879.041 10.442-8.723 18.878-19.493 18.878zm0-30.1c-6.552 0-11.876 5.037-11.876 11.221s5.324 11.222 11.876 11.222 11.876-5.037 11.876-11.221S98.324 24.98 91.772 24.98zm1.843 16.79a7.863 7.863 0 1 1 7.863-7.863 7.865 7.865 0 0 1-7.863 7.864zm0-8.067a.2.2 0 1 0 .2.2.193.193 0 0 0-.2-.199z"/><path d="M63.187 20.885c-9.624 0-17.445 7.494-17.445 16.749 0 9.214 7.822 16.749 17.445 16.749s17.446-7.498 17.446-16.749-7.822-16.749-17.446-16.749zm2.048 18.633a4.5 4.5 0 1 1 4.5-4.5 4.492 4.492 0 0 1-4.5 4.5z"/><path d="M63.188 58.151c-11.712 0-21.254-9.214-21.254-20.558s9.542-20.557 21.254-20.557 21.295 9.214 21.295 20.558c-.042 11.342-9.583 20.557-21.295 20.557zm0-33.457c-7.535 0-13.637 5.774-13.637 12.9s6.1 12.9 13.637 12.9 13.637-5.774 13.637-12.9c0-7.085-6.102-12.9-13.637-12.9zm2.046 18.674a8.313 8.313 0 1 1 8.313-8.313 8.319 8.319 0 0 1-8.313 8.313zm0-9.009a.7.7 0 1 0 .7.7.718.718 0 0 0-.7-.701z"/><path d="M50.575 54.301a8.346 8.346 0 0 1 .819 3.645 9.319 9.319 0 0 1-1.269 4.668 15.549 15.549 0 0 1-2.908 3.768 32.557 32.557 0 0 1-5.447 3.276 13.81 13.81 0 0 1-6.061 1.392 6.484 6.484 0 0 1-2.17-.41 8.736 8.736 0 0 1-2.293-1.188 10.384 10.384 0 0 1-2.007-1.8 6.624 6.624 0 0 1-1.31-2.252 6.933 6.933 0 0 1-3.317 1.925 16.346 16.346 0 0 1-3.768.41 10.306 10.306 0 0 1-5.078-1.31 15.279 15.279 0 0 1-4.218-3.44 23.2 23.2 0 0 1-3.317-4.873 36.529 36.529 0 0 1-2.416-5.692 39.325 39.325 0 0 1-1.434-5.859 31.689 31.689 0 0 1-.491-5.283 21.3 21.3 0 0 1 4.177-12.572 15.867 15.867 0 0 1 4.3-4.013 8.944 8.944 0 0 1 4.873-1.515 4.936 4.936 0 0 1 1.638.287 3.927 3.927 0 0 1 1.433.737 2.183 2.183 0 0 0-.655-.942 3.987 3.987 0 0 0-.983-.614 5.812 5.812 0 0 0-2.211-.491 4.717 4.717 0 0 1 1.843-2.621 17.484 17.484 0 0 1 3.768-2.375 27.286 27.286 0 0 1 4.873-1.758 20.764 20.764 0 0 1 5.119-.7 22.151 22.151 0 0 1 6.307.9 18.977 18.977 0 0 1 5.651 2.7 14.536 14.536 0 0 1 4.054 4.464 12.009 12.009 0 0 1 1.556 6.143 2.234 2.234 0 0 1-.942 1.6 12.594 12.594 0 0 1-2.252 1.433 20 20 0 0 1-2.7 1.188c-.942.328-1.72.614-2.375.778a13.076 13.076 0 0 0-5.16 1.065 29.287 29.287 0 0 0-4.628 2.457 4.615 4.615 0 0 1-1.31.2 4.174 4.174 0 0 1-2.089-.532c-.655-.369-1.351-.737-2.048-1.106.164.532.369 1.229.532 2.007s.287 1.515.41 2.211.2 1.31.246 1.843.082.819.082.86c0 .737-.041 1.6-.082 2.539a23.3 23.3 0 0 1-.287 2.908 12.966 12.966 0 0 1-.7 2.826 6.407 6.407 0 0 1-1.31 2.252 8.863 8.863 0 0 1 3.235-.7 7.3 7.3 0 0 1 1.679.164c.532.123 1.065.246 1.638.369s1.188.287 1.843.45a16.175 16.175 0 0 0 2.375.381 14.743 14.743 0 0 1-5.2-3.2 9.4 9.4 0 0 1-1.761-2.416 6.56 6.56 0 0 1-.7-2.989 7.914 7.914 0 0 1 1.561-4.914 12.548 12.548 0 0 1 3.849-3.317 19.158 19.158 0 0 1 4.951-1.925 21.333 21.333 0 0 1 4.791-.614 24.621 24.621 0 0 1 5 .573 17.938 17.938 0 0 1 4.832 1.843 10.728 10.728 0 0 1 3.645 3.4 8.97 8.97 0 0 1 1.432 5.241 7.975 7.975 0 0 1-.491 2.785 8.963 8.963 0 0 1-1.351 2.457 7 7 0 0 1-2.048 1.761 5.256 5.256 0 0 1-2.58.655 1.531 1.531 0 0 1-1.269-.532 16.062 16.062 0 0 0-1.761-1.6 14.788 14.788 0 0 1 1.885 2.992z"/><path d="M35.71 74.9a10.487 10.487 0 0 1-3.4-.614 12.668 12.668 0 0 1-3.235-1.638 14.921 14.921 0 0 1-2.293-1.966c-.45.164-.9.287-1.351.41a21.267 21.267 0 0 1-4.587.491 14.111 14.111 0 0 1-6.962-1.8 19.816 19.816 0 0 1-5.242-4.259 26.909 26.909 0 0 1-3.849-5.651 38.809 38.809 0 0 1-2.662-6.307 46.994 46.994 0 0 1-1.6-6.388A34.7 34.7 0 0 1 0 41.238a24.29 24.29 0 0 1 1.351-8.026 28.291 28.291 0 0 1 3.6-6.8 19.611 19.611 0 0 1 5.324-4.955 18.035 18.035 0 0 1 2.825-1.391 9.469 9.469 0 0 1 2.7-3.44 22.586 22.586 0 0 1 4.587-2.908 31.9 31.9 0 0 1 5.569-2.007 24.792 24.792 0 0 1 6.1-.819 28.018 28.018 0 0 1 7.33 1.024 21.644 21.644 0 0 1 6.839 3.317 18.758 18.758 0 0 1 5.119 5.651 15.582 15.582 0 0 1 2.089 8.067 5.4 5.4 0 0 1-1.31 3.522 21.7 21.7 0 0 1 2.948 1.392 15.016 15.016 0 0 1 4.914 4.587 12.884 12.884 0 0 1 2.089 7.371 12.222 12.222 0 0 1-.7 4.054 12.814 12.814 0 0 1-1.925 3.522 10.332 10.332 0 0 1-3.235 2.744 5.026 5.026 0 0 1-1.065.491c.041.41.082.86.082 1.269a13.12 13.12 0 0 1-1.761 6.552 19.84 19.84 0 0 1-3.686 4.75l-.287.246a33.4 33.4 0 0 1-6.1 3.645A17.68 17.68 0 0 1 35.71 74.9zm-6.1-16.544l1.966 5.856a2.69 2.69 0 0 0 .573.983 6.7 6.7 0 0 0 1.269 1.147 6.325 6.325 0 0 0 1.392.7 2.439 2.439 0 0 0 .942.2 10.118 10.118 0 0 0 4.423-1.024 27.041 27.041 0 0 0 4.625-2.743 11.99 11.99 0 0 0 2.048-2.7 5.557 5.557 0 0 0 .778-2.826 4.158 4.158 0 0 0-.41-1.925 18.826 18.826 0 0 0-1.433-2.416l5.528-5.2q.737.614 1.229 1.106c.041 0 .041-.041.082-.041a3.725 3.725 0 0 0 .86-.737 4.128 4.128 0 0 0 .737-1.392 4.7 4.7 0 0 0 .246-1.515 5.254 5.254 0 0 0-.778-3.071 7.47 7.47 0 0 0-2.416-2.252 12.209 12.209 0 0 0-3.771-1.438 19.581 19.581 0 0 0-4.177-.491 16.572 16.572 0 0 0-3.931.532 15.667 15.667 0 0 0-3.931 1.515 8.787 8.787 0 0 0-2.7 2.334 4.075 4.075 0 0 0-.778 2.621 2.528 2.528 0 0 0 .287 1.269 5.228 5.228 0 0 0 1.065 1.433 7.945 7.945 0 0 0 1.72 1.31 13.239 13.239 0 0 0 2.045.984l-1.638 7.412a24.278 24.278 0 0 1-2.908-.45l-1.843-.45c-.532-.123-1.065-.246-1.556-.369a4.44 4.44 0 0 0-2.7.328l-4.218-6.143a2.852 2.852 0 0 0 .532-.942 8.786 8.786 0 0 0 .491-2.048q.184-1.29.246-2.58c.041-.86.082-1.6.082-2.252 0-.123-.041-.328-.041-.655-.041-.41-.123-.942-.2-1.515a97.997 97.997 0 0 1-.369-2.048 9.357 9.357 0 0 0-.41-1.556l-2.989-9.05 8.436 4.5 2.085 1.11c.082.041.123.041.164.082a35.84 35.84 0 0 1 4.5-2.334 16.315 16.315 0 0 1 6.061-1.351c.45-.164 1.024-.328 1.638-.573a22.029 22.029 0 0 0 2.252-.983 5.254 5.254 0 0 0 1.065-.655 8.1 8.1 0 0 0-.983-3.235 11.032 11.032 0 0 0-2.989-3.317 13.647 13.647 0 0 0-4.464-2.129 19.282 19.282 0 0 0-5.242-.737 17.322 17.322 0 0 0-4.177.573 24.314 24.314 0 0 0-4.218 1.515c-.328.164-.614.287-.9.45a6.16 6.16 0 0 1 1.065 1.8l-6.061 4.1.082.082a.239.239 0 0 0-.164-.041 5.405 5.405 0 0 0-.532-.123 5.172 5.172 0 0 0-2.867.942 12.8 12.8 0 0 0-3.276 3.071 17.823 17.823 0 0 0-3.4 10.279 33.806 33.806 0 0 0 .41 4.668 36.838 36.838 0 0 0 1.31 5.283 33.1 33.1 0 0 0 2.17 5.119 20.425 20.425 0 0 0 2.826 4.136 13.188 13.188 0 0 0 3.235 2.662 6.238 6.238 0 0 0 3.235.819 13.755 13.755 0 0 0 2.908-.328 3.2 3.2 0 0 0 1.474-.9z"/></g><path d="M153.977 37.06a3.491 3.491 0 0 1 2.089.942 7.534 7.534 0 0 1 1.556 2.008 8.866 8.866 0 0 1 .9 2.457 7.8 7.8 0 0 1 .2 2.293 7.676 7.676 0 0 1-.9 3.194 6.263 6.263 0 0 1-1.966 2.17 7.851 7.851 0 0 1-2.867 1.188 12.377 12.377 0 0 1-3.522.2 7.254 7.254 0 0 1-3.6-1.024 3.752 3.752 0 0 1-1.6-2.457 4.258 4.258 0 0 1-.86.86 1.653 1.653 0 0 1-1.024.2c-.45-.041-.778-.082-1.024-.123a1.81 1.81 0 0 1-.655-.246 6.16 6.16 0 0 1-.737-.573c-.287-.246-.655-.655-1.188-1.106.246.41.491.737.655.983a6.122 6.122 0 0 1 .369.737 2.319 2.319 0 0 1 .123.737v.9c-.041.287-.082.655-.123 1.024-.082.41-.164.737-.246 1.024a15.871 15.871 0 0 1 2.334-1.351 4.923 4.923 0 0 1 2.621-.491 2.509 2.509 0 0 1 1.147.328c.328.164.655.369 1.065.532a9.793 9.793 0 0 0 1.31.45 9 9 0 0 0 1.515.246 8.724 8.724 0 0 0 1.433.041 11.569 11.569 0 0 0 1.188-.082 11.727 11.727 0 0 0 1.147-.287c.41-.123.86-.287 1.392-.491a2.558 2.558 0 0 1 1.229.7 3.364 3.364 0 0 1 .655 1.024 4.43 4.43 0 0 1 .287 2.129 5.646 5.646 0 0 1-1.474 3.4 11.063 11.063 0 0 1-3.194 2.58 17.034 17.034 0 0 1-4.1 1.6 14.36 14.36 0 0 1-4.054.369 23.15 23.15 0 0 1-5.9-1.188 15.19 15.19 0 0 1-4.5-2.416 9.375 9.375 0 0 1-2.826-3.44 8.342 8.342 0 0 1-.778-4.259 2.606 2.606 0 0 1 .584-1.432 2.575 2.575 0 0 1 .737-.7 2.29 2.29 0 0 1-1.31-1.024 6.154 6.154 0 0 1-.737-1.761 11.285 11.285 0 0 1-.29-2.002c0-.7 0-1.269.041-1.761a4.819 4.819 0 0 1 .409-1.638 6.772 6.772 0 0 1 .9-1.474 4.063 4.063 0 0 1 1.31-1.065 2.971 2.971 0 0 1 1.556-.328c.164 0 .287.041.369.041l.369.123a7.566 7.566 0 0 1 1.31-3.727 10.74 10.74 0 0 1 2.826-2.949 12.229 12.229 0 0 1 3.645-1.843 9.733 9.733 0 0 1 3.849-.45 9.176 9.176 0 0 1 2.867.655 8.211 8.211 0 0 1 2.334 1.392 5.166 5.166 0 0 1 1.474 1.925 5.034 5.034 0 0 1 .41 2.334 2.4 2.4 0 0 1-.082.532c-.041.164-.082.328-.123.532a4.535 4.535 0 0 1 1.475-.162zm-9.255 4.5a10.6 10.6 0 0 1 1.679-2.007 3.205 3.205 0 0 1-1.515.532 11.486 11.486 0 0 1-1.679 0 7.463 7.463 0 0 1-1.433-.246 10.439 10.439 0 0 1-1.147-.328c.655.45 1.188.86 1.6 1.188a4.04 4.04 0 0 1 .9 1.024 2.522 2.522 0 0 1 .41.983c.082.328.123.7.2 1.106a7.385 7.385 0 0 1 .985-2.247z"/><path d="M144.923 65.726a9.255 9.255 0 0 1-1.065-.041 27.775 27.775 0 0 1-6.511-1.31 17.365 17.365 0 0 1-5.242-2.826 11.891 11.891 0 0 1-3.522-4.341 10.761 10.761 0 0 1-1.024-5.569 4.814 4.814 0 0 1 .369-1.556v-.041a9.774 9.774 0 0 1-1.065-2.5 13.99 13.99 0 0 1-.369-2.58 15.527 15.527 0 0 1 .041-2.007 8.393 8.393 0 0 1 .614-2.416 7.237 7.237 0 0 1 1.351-2.129 7.4 7.4 0 0 1 2.089-1.679 4.58 4.58 0 0 1 1.433-.491 10.373 10.373 0 0 1 1.229-2.539 13.549 13.549 0 0 1 3.44-3.563 14.937 14.937 0 0 1 4.423-2.211 13.153 13.153 0 0 1 4.832-.573 13.532 13.532 0 0 1 3.645.86 11.292 11.292 0 0 1 2.989 1.761 8.2 8.2 0 0 1 2.17 2.867 6.173 6.173 0 0 1 .532 1.884 6.339 6.339 0 0 1 2.539 1.433 10.373 10.373 0 0 1 2.089 2.662 10.985 10.985 0 0 1 1.147 3.112 9.966 9.966 0 0 1 .246 3.03 9.785 9.785 0 0 1-1.229 4.218 9.225 9.225 0 0 1-1.515 2.007 6.165 6.165 0 0 1 .451.9 6.28 6.28 0 0 1 .45 1.925 7.87 7.87 0 0 1 0 1.392 8.037 8.037 0 0 1-2.089 4.873 14.769 14.769 0 0 1-3.89 3.153 19.068 19.068 0 0 1-4.75 1.843 17.865 17.865 0 0 1-3.808.452zm-8.886-7.658a13.91 13.91 0 0 0 3.03 1.474 21.992 21.992 0 0 0 5.245 1.063 10.467 10.467 0 0 0 3.276-.328 13.027 13.027 0 0 0 3.4-1.31 9.621 9.621 0 0 0 2.539-2.048 3.157 3.157 0 0 0 .86-1.925v-.614a.31.31 0 0 0-.041-.164 1.041 1.041 0 0 1-.287.082 10.194 10.194 0 0 1-1.433.328 9.584 9.584 0 0 1-1.556.123 12.7 12.7 0 0 1-1.679-.082 10.945 10.945 0 0 1-1.966-.328 10.638 10.638 0 0 1-1.72-.614l-1.229-.614h-.123a2.192 2.192 0 0 0-1.31.287 11.279 11.279 0 0 0-1.966 1.147zm-3.314-6.142c-.041.041-.041.082-.082.082a5.442 5.442 0 0 0 .532 2.948 6.907 6.907 0 0 0 2.048 2.5l1.966-5.815c.041-.123.082-.328.164-.655.041-.328.082-.614.123-.819v-.2zm13.35-7.576l.7 3.112a1.206 1.206 0 0 0 .532.9 4.861 4.861 0 0 0 2.416.573 8.889 8.889 0 0 0 2.785-.164 5.134 5.134 0 0 0 1.925-.778 3.659 3.659 0 0 0 1.188-1.31 5.253 5.253 0 0 0 .573-2.17 5.074 5.074 0 0 0-.164-1.556 7.328 7.328 0 0 0-.655-1.8 4.9 4.9 0 0 0-1.024-1.351.751.751 0 0 0-.573-.287.8.8 0 0 0-.328.041l-4.628 1.679 1.31-4.75a2.609 2.609 0 0 1 .082-.287c0-.082.041-.164.041-.246a2.13 2.13 0 0 0-.2-1.106 2.629 2.629 0 0 0-.778-1.024 7.259 7.259 0 0 0-1.679-.983 8.532 8.532 0 0 0-2.129-.491 7.385 7.385 0 0 0-2.908.369 9.278 9.278 0 0 0-2.908 1.474 8.277 8.277 0 0 0-2.17 2.293 4.721 4.721 0 0 0-.86 2.539l-.246 3.235-3.071-.983c-.082-.041-.164-.041-.2-.082a.548.548 0 0 0-.2.041 2.757 2.757 0 0 0-.573.45 3.349 3.349 0 0 0-.491.819 2.187 2.187 0 0 0-.2.819c-.041.369-.041.9-.041 1.474a6.09 6.09 0 0 0 .2 1.474 3.824 3.824 0 0 0 .409 1.024l4.615 1.307a.565.565 0 0 1-.123-.164l3.849-3.276c.532.491.9.86 1.188 1.147.082.082.164.123.2.164a.519.519 0 0 1 .246.041l.041-.041 1.638-2.129H141.2l-.2-1.106a.317.317 0 0 0-.041-.123c-.041-.041-.164-.2-.451-.491-.328-.287-.778-.614-1.351-1.024l2.211-4.5c.287.082.614.164 1.024.287a7.3 7.3 0 0 0 1.065.164 6.575 6.575 0 0 0 1.27 0c.164 0 .246-.041.246-.082l3.112 4.013a5.394 5.394 0 0 0-1.188 1.433 3.471 3.471 0 0 0-.614 1.392z"/><path d="M121.953 20.639a9.486 9.486 0 0 0-.86-1.556q.246-.184.737-.491a9.517 9.517 0 0 1 1.147-.655 7.955 7.955 0 0 1 1.474-.614 6.566 6.566 0 0 1 1.884-.246 8.014 8.014 0 0 1 5.119 1.679 13.145 13.145 0 0 1 3.4 4.177 19.87 19.87 0 0 1 1.884 5.365 25.133 25.133 0 0 1 .614 5.2 20.11 20.11 0 0 1-1.229 6.839 23.174 23.174 0 0 1-3.4 6.266 18.985 18.985 0 0 1-5.119 4.628 11.752 11.752 0 0 1-6.347 1.8 22.923 22.923 0 0 1-2.785-.164 16.7 16.7 0 0 1-4.1-1.188 2.645 2.645 0 0 0 1.229 1.024 15.971 15.971 0 0 0 1.925.819 8.872 8.872 0 0 0 1.925.491 6.9 6.9 0 0 0 1.31.164c.041.41.082.86.082 1.269v1.065a9.657 9.657 0 0 1-.737 3.768 8.933 8.933 0 0 1-2.007 2.989 9.47 9.47 0 0 1-3.112 2.007 10.886 10.886 0 0 1-4.1.737 7.843 7.843 0 0 1-5.283-1.761 12.639 12.639 0 0 1-3.235-4.423 21.55 21.55 0 0 1-1.6-5.733 41.848 41.848 0 0 1-.45-5.733 23.424 23.424 0 0 1 .369-3.931 33.52 33.52 0 0 1 1.065-4.341 37.254 37.254 0 0 1 1.6-4.218 15.55 15.55 0 0 1 2.048-3.4 19.659 19.659 0 0 1-1.6-3.522 11.253 11.253 0 0 1-.655-3.89 6.709 6.709 0 0 1 .9-3.4 9.71 9.71 0 0 1 2.305-2.867 11.764 11.764 0 0 1 3.112-1.966 8.631 8.631 0 0 1 3.4-.737 7.566 7.566 0 0 1 3.194.737 13.985 13.985 0 0 1 2.989 1.843 14.287 14.287 0 0 1 2.375 2.334 6.306 6.306 0 0 1 1.229 2.17 20.1 20.1 0 0 0-.697-2.535zm-2.211 10.154a8.22 8.22 0 0 1-4.341 1.188 12.994 12.994 0 0 1 1.638 1.024 18.761 18.761 0 0 1 1.72 1.433c.573.491 1.106 1.024 1.6 1.515s.86.942 1.188 1.31a3.415 3.415 0 0 0-.41-1.188 12.618 12.618 0 0 0-.655-1.147 19.477 19.477 0 0 0 1.884-7.535 5.794 5.794 0 0 1-2.624 3.4z"/><path d="M110.814 68.593a10.283 10.283 0 0 1-6.921-2.375 15.451 15.451 0 0 1-3.89-5.324 24.829 24.829 0 0 1-1.8-6.429 40.826 40.826 0 0 1-.45-6.1 24.929 24.929 0 0 1 .41-4.382 39.4 39.4 0 0 1 1.147-4.709 38.748 38.748 0 0 1 1.72-4.464 19.129 19.129 0 0 1 1.392-2.58 22.07 22.07 0 0 1-1.024-2.457 14.3 14.3 0 0 1-.819-4.75 9.847 9.847 0 0 1 1.188-4.627 13.241 13.241 0 0 1 2.826-3.563 14.907 14.907 0 0 1 3.849-2.416 10.335 10.335 0 0 1 8.6.041 15.686 15.686 0 0 1 3.358 2.048.04.04 0 0 0 .041-.041c.41-.246.86-.532 1.351-.819a11.79 11.79 0 0 1 1.925-.778 8.9 8.9 0 0 1 2.662-.369 10.241 10.241 0 0 1 6.716 2.252 15.143 15.143 0 0 1 4.054 5 23.387 23.387 0 0 1 2.129 6.02 27.355 27.355 0 0 1 .655 5.733 22.183 22.183 0 0 1-1.392 7.7 24.488 24.488 0 0 1-3.808 6.962 22.845 22.845 0 0 1-5.815 5.242 14.8 14.8 0 0 1-5.569 2.048v1.147a12.289 12.289 0 0 1-.942 4.75 11.784 11.784 0 0 1-2.58 3.849 12.019 12.019 0 0 1-3.976 2.534 15.285 15.285 0 0 1-5.037.857zm1.925-50a6.159 6.159 0 0 0-2.416.532 8.612 8.612 0 0 0-2.416 1.515 8.055 8.055 0 0 0-1.72 2.17 4.352 4.352 0 0 0-.573 2.211 8.283 8.283 0 0 0 .532 3.03 15.073 15.073 0 0 0 1.433 3.071l.86 1.515-1.106 1.351a13.25 13.25 0 0 0-1.72 2.867 41.1 41.1 0 0 0-1.515 3.931 30.112 30.112 0 0 0-.983 4.013 19.078 19.078 0 0 0-.328 3.522 37.48 37.48 0 0 0 .41 5.406 18.234 18.234 0 0 0 1.433 5.078 9.742 9.742 0 0 0 2.539 3.522 5.29 5.29 0 0 0 3.6 1.147 9.238 9.238 0 0 0 3.153-.532 6.827 6.827 0 0 0 2.293-1.433 6.089 6.089 0 0 0 1.436-2.173 6.891 6.891 0 0 0 .532-2.785v-.123c-.491-.123-1.024-.287-1.556-.45a22.715 22.715 0 0 1-2.293-.983 5.224 5.224 0 0 1-2.293-2.089l-3.4-6.184 6.552 2.58a16.063 16.063 0 0 0 3.44 1.024c.942.082 1.761.164 2.5.164a9.317 9.317 0 0 0 5.037-1.433 15.833 15.833 0 0 0 4.423-4.013 20.321 20.321 0 0 0 3.03-5.569 17.237 17.237 0 0 0 1.065-5.979 23.015 23.015 0 0 0-.532-4.709 17.879 17.879 0 0 0-1.679-4.709 10.408 10.408 0 0 0-2.7-3.358 5.487 5.487 0 0 0-3.526-1.104 4.456 4.456 0 0 0-1.147.123 3.075 3.075 0 0 0-.737.287 14.884 14.884 0 0 1 .614 2.7l-4.955 1.065a4.144 4.144 0 0 0-.778-1.269 12.559 12.559 0 0 0-1.966-1.925 11.678 11.678 0 0 0-2.457-1.515 4.868 4.868 0 0 0-2.086-.49zm12.49 27.56l-5.692-7.289c-.246-.328-.573-.7-.983-1.147-.45-.45-.9-.9-1.433-1.392-.532-.45-1.024-.9-1.556-1.269a12.886 12.886 0 0 0-1.27-.819l1.147-4.832a5.207 5.207 0 0 0 2.989-.819 3.366 3.366 0 0 0 1.515-1.966l4.955.9a21.683 21.683 0 0 1-1.6 7.207c.041.041.041.123.082.164a6.348 6.348 0 0 1 .655 2.007z"/><path d="M90.502 18.796c-8.641 0-15.684 6.757-15.684 15.029 0 8.313 7.044 15.029 15.684 15.029s15.684-6.757 15.684-15.029-7.043-15.029-15.684-15.029zm1.843 16.79a4.054 4.054 0 1 1 4.054-4.054 4.117 4.117 0 0 1-4.054 4.054z"/><path d="M90.502 51.434c-10.074 0-18.223-7.9-18.223-17.609s8.19-17.568 18.223-17.568 18.223 7.9 18.223 17.568c.001 9.706-8.146 17.609-18.223 17.609zm0-30.1c-7.248 0-13.145 5.61-13.145 12.49s5.9 12.49 13.145 12.49 13.145-5.569 13.145-12.49c.001-6.879-5.896-12.489-13.145-12.489zm1.843 16.79a6.593 6.593 0 1 1 6.593-6.593 6.589 6.589 0 0 1-6.593 6.594zm0-8.108a1.515 1.515 0 0 0 0 3.03 1.477 1.477 0 0 0 1.474-1.515 1.5 1.5 0 0 0-1.474-1.514z"/><path d="M61.918 18.51c-9.624 0-17.445 7.494-17.445 16.749 0 9.214 7.822 16.749 17.445 16.749s17.445-7.494 17.445-16.749S71.542 18.51 61.918 18.51zm2.048 18.633a4.5 4.5 0 1 1 4.5-4.5 4.492 4.492 0 0 1-4.5 4.5z"/><path d="M61.918 54.506c-11.016 0-19.984-8.641-19.984-19.288S50.902 15.93 61.918 15.93s19.984 8.641 19.984 19.288-8.968 19.288-19.984 19.288zm0-33.457c-8.231 0-14.906 6.347-14.906 14.169s6.675 14.169 14.906 14.169 14.906-6.347 14.906-14.169-6.675-14.169-14.906-14.169zm2.048 18.633a7.044 7.044 0 1 1 7.044-7.044 7.043 7.043 0 0 1-7.044 7.044zm0-9.009a1.966 1.966 0 1 0 1.966 1.966 2.021 2.021 0 0 0-1.966-1.967z"/><path d="M49.306 51.885a8.346 8.346 0 0 1 .819 3.645 9.32 9.32 0 0 1-1.269 4.668 15.548 15.548 0 0 1-2.908 3.768 32.556 32.556 0 0 1-5.447 3.276 13.809 13.809 0 0 1-6.061 1.392 6.484 6.484 0 0 1-2.17-.41 8.736 8.736 0 0 1-2.293-1.188 10.384 10.384 0 0 1-2.007-1.8 6.624 6.624 0 0 1-1.31-2.252 6.933 6.933 0 0 1-3.317 1.925 16.347 16.347 0 0 1-3.768.41 10.306 10.306 0 0 1-5.078-1.31 15.279 15.279 0 0 1-4.218-3.44 23.2 23.2 0 0 1-3.317-4.873 36.528 36.528 0 0 1-2.416-5.692 39.325 39.325 0 0 1-1.434-5.859 31.689 31.689 0 0 1-.491-5.283A21.3 21.3 0 0 1 6.798 26.29a15.867 15.867 0 0 1 4.3-4.013 8.944 8.944 0 0 1 4.873-1.515 4.936 4.936 0 0 1 1.638.287 3.927 3.927 0 0 1 1.433.737 2.183 2.183 0 0 0-.655-.942 3.987 3.987 0 0 0-.983-.614 5.812 5.812 0 0 0-2.211-.491 4.717 4.717 0 0 1 1.843-2.621 17.483 17.483 0 0 1 3.768-2.375 27.285 27.285 0 0 1 4.873-1.758 20.764 20.764 0 0 1 5.119-.7 22.151 22.151 0 0 1 6.307.9 18.977 18.977 0 0 1 5.651 2.7 14.536 14.536 0 0 1 4.054 4.464 12.009 12.009 0 0 1 1.556 6.143 2.234 2.234 0 0 1-.942 1.6 12.594 12.594 0 0 1-2.252 1.433 20 20 0 0 1-2.7 1.188c-.942.328-1.72.614-2.375.778a13.076 13.076 0 0 0-5.16 1.065 29.287 29.287 0 0 0-4.628 2.457 4.615 4.615 0 0 1-1.31.2 4.174 4.174 0 0 1-2.089-.532c-.655-.369-1.351-.737-2.048-1.106.164.532.369 1.229.532 2.007s.287 1.515.41 2.211.2 1.31.246 1.843.082.819.082.86c0 .737-.041 1.6-.082 2.539a23.3 23.3 0 0 1-.287 2.908 12.966 12.966 0 0 1-.7 2.826 6.407 6.407 0 0 1-1.31 2.252 8.863 8.863 0 0 1 3.235-.7 7.3 7.3 0 0 1 1.679.164c.532.123 1.065.246 1.638.369s1.188.287 1.843.45a16.176 16.176 0 0 0 2.375.381 14.743 14.743 0 0 1-5.2-3.2 9.4 9.4 0 0 1-1.761-2.416 6.56 6.56 0 0 1-.7-2.989 7.914 7.914 0 0 1 1.561-4.914 12.548 12.548 0 0 1 3.849-3.317 19.158 19.158 0 0 1 4.951-1.925 21.333 21.333 0 0 1 4.791-.614 24.621 24.621 0 0 1 5 .573 17.938 17.938 0 0 1 4.832 1.843 10.728 10.728 0 0 1 3.645 3.4 8.97 8.97 0 0 1 1.432 5.241 7.975 7.975 0 0 1-.491 2.785 8.963 8.963 0 0 1-1.351 2.457 6.994 6.994 0 0 1-2.048 1.761 5.256 5.256 0 0 1-2.58.655 1.531 1.531 0 0 1-1.269-.532 16.062 16.062 0 0 0-1.761-1.6 14.787 14.787 0 0 1 1.885 2.992z"/><path d="M34.44 71.255a10.247 10.247 0 0 1-2.989-.532 12.947 12.947 0 0 1-2.908-1.477 14.216 14.216 0 0 1-2.5-2.211c-.082-.082-.123-.164-.2-.246a8.009 8.009 0 0 1-1.966.7 18.71 18.71 0 0 1-4.3.491 12.755 12.755 0 0 1-6.347-1.638 19.591 19.591 0 0 1-4.914-3.972 27.292 27.292 0 0 1-3.686-5.406 41.912 41.912 0 0 1-2.58-6.1 39.321 39.321 0 0 1-1.518-6.227A36.867 36.867 0 0 1 0 38.903a22.875 22.875 0 0 1 1.269-7.617 23.711 23.711 0 0 1 3.4-6.47 18.571 18.571 0 0 1 5-4.668 13.2 13.2 0 0 1 3.112-1.433 7.937 7.937 0 0 1 2.539-3.522 20.22 20.22 0 0 1 4.337-2.747 30.307 30.307 0 0 1 5.324-1.925 23.849 23.849 0 0 1 5.774-.778 25.807 25.807 0 0 1 7 .983 19.541 19.541 0 0 1 6.431 3.12 17.05 17.05 0 0 1 4.75 5.242 14.51 14.51 0 0 1 1.884 7.453 4.515 4.515 0 0 1-1.884 3.563c-.2.164-.41.328-.655.491a19.309 19.309 0 0 1 4.832 1.966 13.21 13.21 0 0 1 4.464 4.177 11.526 11.526 0 0 1 1.884 6.675 10.987 10.987 0 0 1-.614 3.645 11.223 11.223 0 0 1-1.72 3.153 8.536 8.536 0 0 1-2.867 2.416 8.176 8.176 0 0 1-1.884.737 12.58 12.58 0 0 1 .2 2.17 12.083 12.083 0 0 1-1.6 5.938 17.234 17.234 0 0 1-3.44 4.423l-.2.164a32.2 32.2 0 0 1-5.856 3.522 15.644 15.644 0 0 1-7.04 1.674zm-6.675-12.9l1.31 3.89a4.03 4.03 0 0 0 .819 1.392 6.773 6.773 0 0 0 1.515 1.351 7.242 7.242 0 0 0 1.679.86 3.881 3.881 0 0 0 1.351.287 11.377 11.377 0 0 0 4.961-1.146 32.535 32.535 0 0 0 4.914-2.949 13.162 13.162 0 0 0 2.334-3.071 6.712 6.712 0 0 0 .942-3.44 5 5 0 0 0-.573-2.5 18.67 18.67 0 0 0-1.556-2.58l3.686-3.44a17.648 17.648 0 0 1 1.679 1.515 3.219 3.219 0 0 0 1.065-.328 4.061 4.061 0 0 0 1.269-1.106 5.9 5.9 0 0 0 .94-1.716 6.127 6.127 0 0 0 .328-1.925A6.524 6.524 0 0 0 53.4 39.64a8.247 8.247 0 0 0-2.826-2.621 14.675 14.675 0 0 0-4.136-1.556 22.359 22.359 0 0 0-4.423-.532 19.1 19.1 0 0 0-4.218.573 15.4 15.4 0 0 0-4.259 1.679 10.172 10.172 0 0 0-3.07 2.663 5.291 5.291 0 0 0-1.024 3.358 3.82 3.82 0 0 0 .41 1.843 6.911 6.911 0 0 0 1.269 1.761 10.44 10.44 0 0 0 1.966 1.515 14.664 14.664 0 0 0 2.293 1.106l-1.106 4.955a19.483 19.483 0 0 1-2.7-.45l-1.843-.45c-.532-.123-1.106-.246-1.6-.369a5.6 5.6 0 0 0-3.44.41l-2.826-4.1a3.912 3.912 0 0 0 .778-1.351 14.45 14.45 0 0 0 .573-2.293q.184-1.351.246-2.7c.041-.9.082-1.679.082-2.334 0-.123-.041-.369-.041-.7-.041-.45-.123-.983-.2-1.638-.123-.655-.246-1.351-.41-2.089a11.462 11.462 0 0 0-.45-1.72l-2.01-6.054 5.61 2.989c.7.369 1.392.737 2.048 1.106a1.654 1.654 0 0 0 1.147.2 32.927 32.927 0 0 1 4.628-2.416 15.751 15.751 0 0 1 5.774-1.269 27.472 27.472 0 0 0 1.884-.655 18.047 18.047 0 0 0 2.416-1.065 13.8 13.8 0 0 0 1.8-1.147 9.438 9.438 0 0 0-1.188-4.5A12.021 12.021 0 0 0 41.2 18.1a16.518 16.518 0 0 0-4.832-2.334 20.165 20.165 0 0 0-5.61-.778 17.762 17.762 0 0 0-4.5.614 22.481 22.481 0 0 0-4.423 1.6 16.931 16.931 0 0 0-2.457 1.433 5.86 5.86 0 0 1 .614.45 4.451 4.451 0 0 1 1.385 1.961l-4.013 2.7a1.51 1.51 0 0 0-.532-.246 2.633 2.633 0 0 0-.9-.164 6.578 6.578 0 0 0-3.524 1.11 12.818 12.818 0 0 0-3.6 3.4 17.574 17.574 0 0 0-2.662 5.078 18.063 18.063 0 0 0-.983 5.938 30.8 30.8 0 0 0 .45 4.873 34.58 34.58 0 0 0 1.351 5.487 35.772 35.772 0 0 0 2.25 5.324 22.9 22.9 0 0 0 2.986 4.383 14.068 14.068 0 0 0 3.563 2.908 7.8 7.8 0 0 0 3.849.983 13.642 13.642 0 0 0 3.198-.374 4.283 4.283 0 0 0 2.09-1.224z"/></g><path fill="#fff" d="M154.796 34.85a3.491 3.491 0 0 1 2.089.942 7.534 7.534 0 0 1 1.556 2.007 8.867 8.867 0 0 1 .9 2.457 7.8 7.8 0 0 1 .2 2.293 7.676 7.676 0 0 1-.9 3.194 6.263 6.263 0 0 1-1.966 2.17 7.851 7.851 0 0 1-2.867 1.188 12.377 12.377 0 0 1-3.522.2 7.254 7.254 0 0 1-3.6-1.024 3.752 3.752 0 0 1-1.6-2.457 4.258 4.258 0 0 1-.86.86 1.653 1.653 0 0 1-1.024.2c-.45-.041-.778-.082-1.024-.123a1.81 1.81 0 0 1-.655-.246 6.159 6.159 0 0 1-.737-.573c-.287-.246-.655-.655-1.188-1.106.246.41.491.737.655.983a6.121 6.121 0 0 1 .369.737 2.319 2.319 0 0 1 .123.737v.911c-.041.287-.082.655-.123 1.024-.082.41-.164.737-.246 1.024a15.87 15.87 0 0 1 2.334-1.351 4.923 4.923 0 0 1 2.621-.491 2.51 2.51 0 0 1 1.147.328c.328.164.655.369 1.065.532a9.8 9.8 0 0 0 1.31.45 9 9 0 0 0 1.515.246 8.722 8.722 0 0 0 1.433.041 11.571 11.571 0 0 0 1.188-.082 11.729 11.729 0 0 0 1.147-.287c.41-.123.86-.287 1.392-.491a2.558 2.558 0 0 1 1.229.7 3.364 3.364 0 0 1 .655 1.024 4.43 4.43 0 0 1 .287 2.129 5.646 5.646 0 0 1-1.474 3.4 11.063 11.063 0 0 1-3.194 2.58 17.034 17.034 0 0 1-4.1 1.6 14.36 14.36 0 0 1-4.054.369 23.15 23.15 0 0 1-5.9-1.188 15.19 15.19 0 0 1-4.5-2.416 9.375 9.375 0 0 1-2.826-3.44 8.342 8.342 0 0 1-.778-4.259 2.606 2.606 0 0 1 .584-1.442 2.576 2.576 0 0 1 .737-.7 2.29 2.29 0 0 1-1.31-1.024 6.154 6.154 0 0 1-.737-1.761 11.285 11.285 0 0 1-.29-2.002c0-.7 0-1.269.041-1.761a4.819 4.819 0 0 1 .41-1.638 6.771 6.771 0 0 1 .9-1.474 4.064 4.064 0 0 1 1.31-1.065 2.971 2.971 0 0 1 1.556-.328c.164 0 .287.041.369.041l.369.123a7.566 7.566 0 0 1 1.31-3.727 10.74 10.74 0 0 1 2.826-2.948 12.229 12.229 0 0 1 3.645-1.843 9.733 9.733 0 0 1 3.849-.45 9.449 9.449 0 0 1 2.867.655 8.211 8.211 0 0 1 2.334 1.392 5.166 5.166 0 0 1 1.474 1.925 5.034 5.034 0 0 1 .41 2.334 2.4 2.4 0 0 1-.082.532c-.041.164-.082.328-.123.532a4.535 4.535 0 0 1 1.474-.163zm-9.214 4.5a10.6 10.6 0 0 1 1.679-2.007 3.718 3.718 0 0 1-1.515.532 11.486 11.486 0 0 1-1.679 0 7.463 7.463 0 0 1-1.433-.246 10.439 10.439 0 0 1-1.147-.328c.655.45 1.188.86 1.6 1.188a4.04 4.04 0 0 1 .9 1.024 2.523 2.523 0 0 1 .41.983c.082.328.123.7.2 1.106a6.5 6.5 0 0 1 .985-2.247z"/><path fill="#636565" d="M145.787 61.263a6.047 6.047 0 0 1-.86-.041 24.183 24.183 0 0 1-5.979-1.188 15.741 15.741 0 0 1-4.587-2.457 10.443 10.443 0 0 1-2.908-3.563 8.073 8.073 0 0 1-.778-4.423 2.745 2.745 0 0 1 .614-1.6 3.693 3.693 0 0 1 .369-.41 2.594 2.594 0 0 1-.942-.942 6.506 6.506 0 0 1-.778-1.884 9.159 9.159 0 0 1-.287-2.089c0-.7 0-1.269.041-1.761a5.354 5.354 0 0 1 .45-1.72 5.57 5.57 0 0 1 .983-1.556 4.789 4.789 0 0 1 1.433-1.147 3.26 3.26 0 0 1 1.761-.369 1.472 1.472 0 0 1 .451.082h.041a8.568 8.568 0 0 1 1.31-3.522 13.416 13.416 0 0 1 2.867-3.03 13 13 0 0 1 3.768-1.884 11.262 11.262 0 0 1 3.972-.491 10.283 10.283 0 0 1 2.989.7 9.424 9.424 0 0 1 2.416 1.433 5.359 5.359 0 0 1 1.556 2.048 5.2 5.2 0 0 1 .41 2.5 2.765 2.765 0 0 1-.082.573 3.956 3.956 0 0 1 .983-.041 4.018 4.018 0 0 1 2.293 1.024 7.564 7.564 0 0 1 1.638 2.089 9 9 0 0 1 .942 2.539 7.082 7.082 0 0 1 .2 2.375 8.084 8.084 0 0 1-.942 3.317 7.016 7.016 0 0 1-2.089 2.293 5.851 5.851 0 0 1-1.229.655 2.75 2.75 0 0 1 1.351.778 3.272 3.272 0 0 1 .737 1.106 4.456 4.456 0 0 1 .287 1.229 4.614 4.614 0 0 1 0 1.065 6.092 6.092 0 0 1-1.556 3.563 13.137 13.137 0 0 1-3.276 2.662 14.261 14.261 0 0 1-4.177 1.6 11.94 11.94 0 0 1-3.392.487zm-11.876-24.489a2.423 2.423 0 0 0-1.188.287 4.639 4.639 0 0 0-1.229.983 4.929 4.929 0 0 0-.86 1.392 5.121 5.121 0 0 0-.369 1.515c-.041.45-.041 1.024-.041 1.72a8.144 8.144 0 0 0 .287 1.966 6.883 6.883 0 0 0 .7 1.679 2.141 2.141 0 0 0 1.106.9l.9.246-.86.328c-.041 0-.164.082-.573.614a2.183 2.183 0 0 0-.491 1.229 7.646 7.646 0 0 0 .737 4.1 9.178 9.178 0 0 0 2.744 3.317 16.191 16.191 0 0 0 4.423 2.375 22.5 22.5 0 0 0 5.815 1.188 13.811 13.811 0 0 0 3.972-.369 14.864 14.864 0 0 0 4.013-1.556 11.9 11.9 0 0 0 3.112-2.539 5.485 5.485 0 0 0 1.392-3.235 3.613 3.613 0 0 0 0-.942 4.653 4.653 0 0 0-.246-1.024 2.217 2.217 0 0 0-.614-.9 2.832 2.832 0 0 0-.983-.573 8.351 8.351 0 0 1-1.31.45c-.41.123-.819.2-1.188.287-.409.082-.819.082-1.229.123-.41 0-.9 0-1.474-.041a6.532 6.532 0 0 1-1.556-.287 5.8 5.8 0 0 1-1.351-.491c-.41-.164-.737-.369-1.065-.532a2.508 2.508 0 0 0-1.024-.287 4.43 4.43 0 0 0-2.457.491 13.547 13.547 0 0 0-2.293 1.351l-.778.573.328-.942q.123-.43.246-.983a4.944 4.944 0 0 0 .123-1.024 2.711 2.711 0 0 0 0-.819 1.7 1.7 0 0 0-.123-.655 3.475 3.475 0 0 0-.328-.7c-.164-.287-.369-.573-.614-.983l.491-.41c.532.491.9.86 1.188 1.106a5.358 5.358 0 0 0 .655.532 1.376 1.376 0 0 0 .573.2q.369.061.983.123a1.286 1.286 0 0 0 .819-.164 3.458 3.458 0 0 0 .778-.778l.409-.532.164.655a3.41 3.41 0 0 0 1.474 2.252 7.189 7.189 0 0 0 3.44.942 11.434 11.434 0 0 0 3.4-.2 7.494 7.494 0 0 0 2.744-1.147 6.446 6.446 0 0 0 1.884-2.048 7.1 7.1 0 0 0 .86-3.071 7.388 7.388 0 0 0-.2-2.211 9.691 9.691 0 0 0-.86-2.375 7.741 7.741 0 0 0-1.474-1.925 2.96 2.96 0 0 0-1.884-.86 2.6 2.6 0 0 0-1.27.164l-.573.2.164-.573.123-.491c.041-.164.041-.328.082-.491a4.756 4.756 0 0 0-1.761-4.013 7.58 7.58 0 0 0-2.252-1.31 8.936 8.936 0 0 0-2.785-.655 9.907 9.907 0 0 0-3.727.45 11.691 11.691 0 0 0-3.563 1.8 11.418 11.418 0 0 0-2.744 2.867 7.17 7.17 0 0 0-1.229 3.6l-.041.41-.369-.123-.369-.123a.8.8 0 0 0-.328-.041zm15.641 12.736l.86.123a8.341 8.341 0 0 0 1.392.041 9.345 9.345 0 0 0 1.106-.082c.2-.041.45-.082.655-.123a10.847 10.847 0 0 1-3.276.123 4.512 4.512 0 0 1-.737-.082zm-8.559-3.03a4.83 4.83 0 0 1 .164.819v.942c-.041.287-.082.655-.123 1.065 0 .082-.041.164-.041.246a22.144 22.144 0 0 1 1.679-.942 5.148 5.148 0 0 1 2.785-.532l.737.123a3.8 3.8 0 0 1-1.106-1.72 5.184 5.184 0 0 1-.532.45 1.963 1.963 0 0 1-1.229.287 14.19 14.19 0 0 1-1.024-.123 1.8 1.8 0 0 1-.778-.287 1.318 1.318 0 0 1-.529-.328zm3.276-4.75l-.2-1.106a2.107 2.107 0 0 0-.369-.9 5.786 5.786 0 0 0-.86-.942 16.542 16.542 0 0 0-1.556-1.188l.287-.573c.328.082.7.2 1.147.328a7.109 7.109 0 0 0 1.392.2 10.931 10.931 0 0 0 1.638 0 2.789 2.789 0 0 0 1.351-.45l.369.491a9.822 9.822 0 0 0-1.638 1.925 6.3 6.3 0 0 0-.942 2.211zm-1.351-3.686a1.782 1.782 0 0 1 .287.246 7.538 7.538 0 0 1 .983 1.065 3.506 3.506 0 0 1 .45.983 5.716 5.716 0 0 1 .655-1.188c.246-.369.491-.7.737-1.024-.082 0-.164.041-.287.041a12.053 12.053 0 0 1-1.72 0 5.084 5.084 0 0 1-1.103-.123z"/><path fill="#fff" d="M122.771 18.428a9.486 9.486 0 0 0-.86-1.556q.246-.184.737-.491a9.514 9.514 0 0 1 1.147-.655 7.955 7.955 0 0 1 1.474-.614 6.566 6.566 0 0 1 1.884-.246 8.014 8.014 0 0 1 5.119 1.679 13.145 13.145 0 0 1 3.4 4.177 21.372 21.372 0 0 1 1.884 5.365 25.133 25.133 0 0 1 .614 5.2 20.11 20.11 0 0 1-1.229 6.839 23.173 23.173 0 0 1-3.4 6.266 18.985 18.985 0 0 1-5.119 4.628 12.117 12.117 0 0 1-6.347 1.8 22.921 22.921 0 0 1-2.785-.164 16.7 16.7 0 0 1-4.1-1.188 2.646 2.646 0 0 0 1.229 1.024 15.976 15.976 0 0 0 1.925.819 8.873 8.873 0 0 0 1.925.491 6.9 6.9 0 0 0 1.31.164c.041.41.082.86.082 1.269V54.3a9.657 9.657 0 0 1-.737 3.768 8.933 8.933 0 0 1-2.007 2.989 9.47 9.47 0 0 1-3.112 2.007 10.886 10.886 0 0 1-4.1.737 7.843 7.843 0 0 1-5.283-1.761 12.639 12.639 0 0 1-3.235-4.423 21.55 21.55 0 0 1-1.6-5.733 41.848 41.848 0 0 1-.45-5.733 23.424 23.424 0 0 1 .369-3.931 33.522 33.522 0 0 1 1.065-4.341 37.254 37.254 0 0 1 1.6-4.218 15.549 15.549 0 0 1 2.048-3.4 19.659 19.659 0 0 1-1.6-3.522 11.253 11.253 0 0 1-.655-3.89 6.709 6.709 0 0 1 .9-3.4 9.709 9.709 0 0 1 2.305-2.867 11.764 11.764 0 0 1 3.112-1.966 8.631 8.631 0 0 1 3.4-.737 7.566 7.566 0 0 1 3.194.737 13.985 13.985 0 0 1 2.989 1.843 14.288 14.288 0 0 1 2.375 2.334 6.307 6.307 0 0 1 1.229 2.17 14.9 14.9 0 0 0-.697-2.535zm-2.211 10.154a8.221 8.221 0 0 1-4.341 1.188 12.994 12.994 0 0 1 1.638 1.024 18.76 18.76 0 0 1 1.72 1.433c.573.491 1.106 1.024 1.6 1.515s.86.942 1.188 1.31a3.415 3.415 0 0 0-.41-1.188 12.612 12.612 0 0 0-.655-1.147 19.477 19.477 0 0 0 1.884-7.535 5.794 5.794 0 0 1-2.624 3.4z"/><path fill="#636565" d="M111.633 64.13a8.158 8.158 0 0 1-5.487-1.843 12.94 12.94 0 0 1-3.317-4.546 22.643 22.643 0 0 1-1.638-5.815 42.417 42.417 0 0 1-.45-5.774 24.743 24.743 0 0 1 .369-4.013 32.523 32.523 0 0 1 1.065-4.382 34.649 34.649 0 0 1 1.638-4.218 15.1 15.1 0 0 1 1.966-3.317 22.671 22.671 0 0 1-1.515-3.358 11.927 11.927 0 0 1-.7-3.972 7.477 7.477 0 0 1 .942-3.563 10.991 10.991 0 0 1 5.569-4.955 8.145 8.145 0 0 1 6.839 0 13.174 13.174 0 0 1 3.071 1.884 14.786 14.786 0 0 1 2.416 2.375.893.893 0 0 0 .164.2c-.041-.082-.041-.164-.082-.2a6.47 6.47 0 0 0-.819-1.474l-.164-.246.246-.2c.164-.123.41-.287.737-.532.328-.2.7-.45 1.147-.7a7.7 7.7 0 0 1 1.556-.614 7.17 7.17 0 0 1 2.007-.287 8.1 8.1 0 0 1 5.324 1.761 13.6 13.6 0 0 1 3.481 4.259 22.05 22.05 0 0 1 1.925 5.447 25.556 25.556 0 0 1 .614 5.283 20.052 20.052 0 0 1-1.27 6.962 23.16 23.16 0 0 1-3.44 6.347 19.394 19.394 0 0 1-5.2 4.668 12.245 12.245 0 0 1-6.511 1.843 23.569 23.569 0 0 1-2.826-.164 17.738 17.738 0 0 1-2.252-.491 14.931 14.931 0 0 0 1.433.573 11.651 11.651 0 0 0 1.884.491c.614.082 1.024.164 1.229.164h.287l.041.287c.041.45.082.86.082 1.31v1.065a10.126 10.126 0 0 1-.737 3.89 9.058 9.058 0 0 1-2.089 3.112 9.7 9.7 0 0 1-3.235 2.048 13.331 13.331 0 0 1-4.3.695zm1.966-49.961a8.893 8.893 0 0 0-3.276.7 11.057 11.057 0 0 0-3.03 1.884 9.774 9.774 0 0 0-2.211 2.785 6.638 6.638 0 0 0-.86 3.276 10.572 10.572 0 0 0 .655 3.768 22.074 22.074 0 0 0 1.6 3.44l.123.2-.123.164a13.748 13.748 0 0 0-2.007 3.358 36.61 36.61 0 0 0-1.6 4.177 32.949 32.949 0 0 0-1.065 4.3 23.356 23.356 0 0 0-.369 3.89 40.8 40.8 0 0 0 .45 5.692 20.966 20.966 0 0 0 1.6 5.651 11.513 11.513 0 0 0 3.153 4.3 7.59 7.59 0 0 0 5.078 1.679 10.909 10.909 0 0 0 3.972-.7 8.536 8.536 0 0 0 3.03-1.925 8.959 8.959 0 0 0 2.662-6.552v-1.06a6.941 6.941 0 0 0-.041-.942c-.246-.041-.614-.082-1.065-.164a14.221 14.221 0 0 1-1.966-.532c-.7-.246-1.351-.532-1.966-.819a3.018 3.018 0 0 1-1.351-1.188l-.409-.778.819.328a15.844 15.844 0 0 0 4.013 1.147 22.283 22.283 0 0 0 2.744.164 11.416 11.416 0 0 0 6.184-1.761 18.964 18.964 0 0 0 5.037-4.546 22.584 22.584 0 0 0 3.358-6.184 19.657 19.657 0 0 0 1.229-6.757 27.556 27.556 0 0 0-.573-5.16 20.779 20.779 0 0 0-1.884-5.283 12.348 12.348 0 0 0-3.317-4.054 7.617 7.617 0 0 0-4.914-1.6 5.992 5.992 0 0 0-1.8.246 9.491 9.491 0 0 0-1.433.573c-.41.246-.819.45-1.106.655a4.289 4.289 0 0 0-.45.328 7 7 0 0 1 .7 1.351 10.82 10.82 0 0 1 .614 2.58l-.614.123a5.751 5.751 0 0 0-1.188-2.048 15.528 15.528 0 0 0-2.334-2.293 13.544 13.544 0 0 0-2.948-1.8 9.974 9.974 0 0 0-3.121-.613zm9.214 22.032l-.7-.9a13.687 13.687 0 0 0-1.147-1.31 54.966 54.966 0 0 0-1.556-1.515c-.573-.491-1.147-.983-1.72-1.392a12.771 12.771 0 0 0-1.6-1.024l.123-.614a8.064 8.064 0 0 0 4.177-1.106 5.582 5.582 0 0 0 2.5-3.194l.614.123a19.772 19.772 0 0 1-1.843 7.453 7.618 7.618 0 0 1 .573 1.024 4.153 4.153 0 0 1 .45 1.31zm-5.487-6.184a8.305 8.305 0 0 1 .737.532c.573.45 1.188.942 1.761 1.433.532.491 1.065.983 1.556 1.515-.123-.2-.246-.41-.369-.573l-.123-.164.082-.164a18.445 18.445 0 0 0 1.679-5.61 5.779 5.779 0 0 1-1.966 1.884 7.809 7.809 0 0 1-3.358 1.147z"/><path fill="#fff" d="M91.322 16.585c-8.641 0-15.684 6.757-15.684 15.029 0 8.313 7.044 15.029 15.684 15.029s15.684-6.757 15.684-15.029c.042-8.272-7.002-15.029-15.684-15.029zm1.843 16.79a4.054 4.054 0 1 1 4.054-4.054 4.063 4.063 0 0 1-4.054 4.054z"/><path fill="#636565" d="M91.322 47.012c-8.846 0-16.012-6.88-16.012-15.357s7.166-15.357 16.012-15.357 16.012 6.88 16.012 15.357c0 8.436-7.167 15.357-16.012 15.357zm0-30.1c-8.477 0-15.357 6.593-15.357 14.742 0 8.108 6.88 14.742 15.357 14.742s15.357-6.593 15.357-14.742c.041-8.149-6.88-14.742-15.357-14.742zm1.843 16.749a4.341 4.341 0 1 1 4.345-4.34 4.343 4.343 0 0 1-4.345 4.34zm0-8.067a3.727 3.727 0 1 0 3.727 3.727 3.74 3.74 0 0 0-3.727-3.723z"/><path fill="#fff" d="M62.738 16.299c-9.624 0-17.445 7.494-17.445 16.749 0 9.214 7.822 16.749 17.445 16.749s17.445-7.494 17.445-16.749-7.821-16.749-17.445-16.749zm2.048 18.633a4.5 4.5 0 1 1 4.5-4.5 4.492 4.492 0 0 1-4.5 4.5z"/><path fill="#636565" d="M62.738 50.084c-9.787 0-17.773-7.658-17.773-17.036 0-9.419 7.986-17.036 17.773-17.036s17.773 7.658 17.773 17.036-7.986 17.036-17.773 17.036zm0-33.457c-9.46 0-17.159 7.371-17.159 16.421s7.7 16.421 17.159 16.421 17.159-7.371 17.159-16.421c0-9.091-7.699-16.422-17.159-16.422zm2.048 18.633a4.832 4.832 0 1 1 4.832-4.832 4.841 4.841 0 0 1-4.833 4.831zm0-9.009a4.177 4.177 0 1 0 4.177 4.177 4.195 4.195 0 0 0-4.178-4.178z"/><path fill="#fff" d="M50.125 49.674a8.346 8.346 0 0 1 .819 3.645 9.32 9.32 0 0 1-1.269 4.668 15.548 15.548 0 0 1-2.908 3.768 32.556 32.556 0 0 1-5.447 3.276 13.81 13.81 0 0 1-6.061 1.392 6.484 6.484 0 0 1-2.17-.41 8.736 8.736 0 0 1-2.293-1.188 10.384 10.384 0 0 1-2.007-1.8 6.624 6.624 0 0 1-1.31-2.252 6.933 6.933 0 0 1-3.317 1.925 16.346 16.346 0 0 1-3.768.41 10.306 10.306 0 0 1-5.078-1.31 15.279 15.279 0 0 1-4.218-3.44 23.2 23.2 0 0 1-3.317-4.873 36.528 36.528 0 0 1-2.416-5.692 39.325 39.325 0 0 1-1.434-5.859 31.689 31.689 0 0 1-.491-5.283 21.3 21.3 0 0 1 4.177-12.572 15.867 15.867 0 0 1 4.3-4.013 8.944 8.944 0 0 1 4.873-1.515 4.936 4.936 0 0 1 1.638.287 3.927 3.927 0 0 1 1.433.737 2.183 2.183 0 0 0-.655-.942 3.987 3.987 0 0 0-.983-.614 5.813 5.813 0 0 0-2.211-.491 4.717 4.717 0 0 1 1.843-2.621 17.484 17.484 0 0 1 3.768-2.375 27.285 27.285 0 0 1 4.873-1.758 20.764 20.764 0 0 1 5.119-.7 22.151 22.151 0 0 1 6.307.9 18.977 18.977 0 0 1 5.651 2.7 14.536 14.536 0 0 1 4.054 4.464 12.009 12.009 0 0 1 1.556 6.143 2.234 2.234 0 0 1-.942 1.6 12.594 12.594 0 0 1-2.252 1.433 20 20 0 0 1-2.7 1.188c-.942.328-1.72.614-2.375.778a13.076 13.076 0 0 0-5.16 1.065 29.287 29.287 0 0 0-4.628 2.457 4.615 4.615 0 0 1-1.31.2 4.174 4.174 0 0 1-2.092-.528c-.655-.369-1.351-.737-2.048-1.106.164.532.369 1.229.532 2.007s.287 1.515.41 2.211.2 1.31.246 1.843.082.819.082.86c0 .737-.041 1.6-.082 2.539a23.3 23.3 0 0 1-.287 2.908 12.966 12.966 0 0 1-.7 2.826 6.407 6.407 0 0 1-1.31 2.252 8.863 8.863 0 0 1 3.235-.7 7.3 7.3 0 0 1 1.679.164c.532.123 1.065.246 1.638.369s1.188.287 1.843.45a16.175 16.175 0 0 0 2.378.377 14.743 14.743 0 0 1-5.2-3.2 9.4 9.4 0 0 1-1.761-2.416 6.56 6.56 0 0 1-.7-2.989 7.914 7.914 0 0 1 1.561-4.914 13.252 13.252 0 0 1 3.849-3.358 19.158 19.158 0 0 1 4.951-1.923 21.333 21.333 0 0 1 4.791-.614 24.621 24.621 0 0 1 5 .573 17.938 17.938 0 0 1 4.833 1.841 10.728 10.728 0 0 1 3.645 3.4 8.97 8.97 0 0 1 1.431 5.241 7.975 7.975 0 0 1-.491 2.785 8.963 8.963 0 0 1-1.351 2.457 6.994 6.994 0 0 1-2.048 1.761 5.256 5.256 0 0 1-2.58.655 1.531 1.531 0 0 1-1.269-.532 16.063 16.063 0 0 0-1.761-1.6 16.347 16.347 0 0 1 1.885 3.033z"/><path fill="#636565" d="M35.259 66.787a7.967 7.967 0 0 1-2.252-.41 9.362 9.362 0 0 1-2.375-1.229 12.441 12.441 0 0 1-2.048-1.843 7.185 7.185 0 0 1-1.188-1.918 6.78 6.78 0 0 1-3.153 1.679 16.7 16.7 0 0 1-3.808.41 10.524 10.524 0 0 1-5.242-1.351 15.934 15.934 0 0 1-4.3-3.522 25.79 25.79 0 0 1-3.4-4.955 32.463 32.463 0 0 1-2.416-5.774 40.05 40.05 0 0 1-1.474-5.9 32.229 32.229 0 0 1-.491-5.364 20.561 20.561 0 0 1 1.147-6.88 21.469 21.469 0 0 1 3.071-5.856 16.546 16.546 0 0 1 4.382-4.1 9.529 9.529 0 0 1 5.037-1.556 6.118 6.118 0 0 1 1.638.246 1.226 1.226 0 0 0-.328-.164 4.678 4.678 0 0 0-1.065-.369 4.59 4.59 0 0 0-.983-.123h-.41l.082-.369a5.314 5.314 0 0 1 1.929-2.779 18.233 18.233 0 0 1 3.849-2.416 28.187 28.187 0 0 1 4.951-1.757 21.4 21.4 0 0 1 5.2-.7 22.922 22.922 0 0 1 6.388.9 17.368 17.368 0 0 1 5.733 2.785 14.281 14.281 0 0 1 4.136 4.587 12.235 12.235 0 0 1 1.6 6.307 2.446 2.446 0 0 1-1.065 1.843 11.075 11.075 0 0 1-2.292 1.478 27.854 27.854 0 0 1-2.744 1.229 22.473 22.473 0 0 1-2.416.778h-.082a13.337 13.337 0 0 0-5.037 1.024 29.876 29.876 0 0 0-4.546 2.416l-.082.041a4.581 4.581 0 0 1-3.645-.369l-1.348-.741a11.536 11.536 0 0 1 .287 1.269c.164.778.287 1.515.41 2.211s.2 1.31.246 1.843.082.86.082.9c0 .737-.041 1.556-.082 2.58a23.946 23.946 0 0 1-.287 2.948 13.328 13.328 0 0 1-.7 2.867 12.31 12.31 0 0 1-.7 1.474 7.822 7.822 0 0 1 4.1-.164 55.9 55.9 0 0 0 1.679.369l1.843.45c-.2-.123-.41-.2-.614-.328a14.948 14.948 0 0 1-2.5-1.925 9.043 9.043 0 0 1-1.8-2.5 6.752 6.752 0 0 1-.737-3.153 8.206 8.206 0 0 1 1.6-5.119 13.247 13.247 0 0 1 3.931-3.44 17.913 17.913 0 0 1 5.033-1.96 21.721 21.721 0 0 1 4.873-.614 25.721 25.721 0 0 1 5.078.573 18.007 18.007 0 0 1 4.958 1.882 11.067 11.067 0 0 1 3.768 3.522 9.542 9.542 0 0 1 1.515 5.406 8.849 8.849 0 0 1-.491 2.908 9.555 9.555 0 0 1-1.392 2.538 6.687 6.687 0 0 1-2.17 1.843 5.809 5.809 0 0 1-2.744.7 1.884 1.884 0 0 1-1.433-.532c.164.287.328.573.491.9a8.4 8.4 0 0 1 .86 3.808 9.969 9.969 0 0 1-1.31 4.832A15.282 15.282 0 0 1 47.012 62a30.9 30.9 0 0 1-5.528 3.317 14.034 14.034 0 0 1-6.225 1.47zm-7.617-6.548l.164.491a6.746 6.746 0 0 0 1.229 2.17 10.925 10.925 0 0 0 1.925 1.72 10.344 10.344 0 0 0 2.211 1.147 7.219 7.219 0 0 0 2.048.41 13.423 13.423 0 0 0 5.937-1.39 31.618 31.618 0 0 0 5.365-3.235 13.926 13.926 0 0 0 2.826-3.686 9.216 9.216 0 0 0 1.229-4.5 8.37 8.37 0 0 0-.778-3.522 21.882 21.882 0 0 0-1.761-2.908l.45-.45a22.826 22.826 0 0 1 1.8 1.638 1.245 1.245 0 0 0 1.024.41 4.93 4.93 0 0 0 2.416-.614 5.971 5.971 0 0 0 1.966-1.679 9.539 9.539 0 0 0 1.31-2.375 7.427 7.427 0 0 0 .45-2.662 8.589 8.589 0 0 0-1.392-5.037 10.611 10.611 0 0 0-3.563-3.317 17.912 17.912 0 0 0-4.75-1.843 23.864 23.864 0 0 0-4.914-.573 20.667 20.667 0 0 0-4.709.614 18.512 18.512 0 0 0-4.873 1.884 13.059 13.059 0 0 0-3.768 3.235 7.516 7.516 0 0 0-1.472 4.702 6.033 6.033 0 0 0 .655 2.867 10.573 10.573 0 0 0 1.679 2.334 11.862 11.862 0 0 0 2.375 1.843 13.4 13.4 0 0 0 2.7 1.269l-.123.614a15.946 15.946 0 0 1-2.416-.369l-1.843-.45c-.573-.123-1.106-.246-1.638-.369a8.253 8.253 0 0 0-4.75.491l-.369-.491a5.717 5.717 0 0 0 1.23-2.129 12.2 12.2 0 0 0 .655-2.744c.123-.983.246-1.925.287-2.908s.082-1.8.082-2.539c0-.041-.041-.328-.082-.819-.041-.532-.123-1.106-.246-1.8s-.246-1.433-.41-2.17q-.246-1.167-.491-1.966l-.246-.737.7.369c.7.369 1.351.737 2.048 1.106a3.976 3.976 0 0 0 3.112.328 38.053 38.053 0 0 1 4.628-2.457 14.352 14.352 0 0 1 5.324-1.065c.614-.164 1.392-.45 2.293-.778a17.48 17.48 0 0 0 2.662-1.188 14.279 14.279 0 0 0 2.17-1.392 1.885 1.885 0 0 0 .819-1.351 11.388 11.388 0 0 0-1.519-5.981 14.5 14.5 0 0 0-3.972-4.382 17.725 17.725 0 0 0-5.528-2.662 23.108 23.108 0 0 0-6.225-.9 20.137 20.137 0 0 0-5.037.7 27.986 27.986 0 0 0-4.832 1.72 17.082 17.082 0 0 0-3.727 2.334 5.1 5.1 0 0 0-1.6 2.089c.246.041.45.082.737.123a5.811 5.811 0 0 1 1.188.41 4.644 4.644 0 0 1 1.065.655 2.77 2.77 0 0 1 .737 1.065l-.492.363a3.613 3.613 0 0 0-1.31-.7 5.8 5.8 0 0 0-1.556-.246 8.709 8.709 0 0 0-4.709 1.474 15.892 15.892 0 0 0-4.218 3.931 20.879 20.879 0 0 0-2.987 5.697 19.961 19.961 0 0 0-1.106 6.634 30.85 30.85 0 0 0 .491 5.242 40.1 40.1 0 0 0 1.433 5.815A34.341 34.341 0 0 0 8.025 53.4a24.4 24.4 0 0 0 3.276 4.832 15.231 15.231 0 0 0 4.137 3.355 9.814 9.814 0 0 0 4.955 1.27 15.647 15.647 0 0 0 3.686-.41 6.415 6.415 0 0 0 3.194-1.843zM63.638 2.867c1.474 0 1.515.942 1.515 1.351a10.218 10.218 0 0 1-3.727 6.962 12.747 12.747 0 0 1-5.856 2.375 1.1 1.1 0 0 1-1.106-1.188c0-.737.328-.819 1.392-1.065 2.416-.573 4.668-1.433 6.061-4.218a7.616 7.616 0 0 0 .655-1.843c0-.246-.123-.246-.45-.246H58.15a14.994 14.994 0 0 1-2.252 2.293 1.879 1.879 0 0 1-1.024.41 1.2 1.2 0 0 1-1.146-1.146c0-.45.082-.491.983-1.188a10.531 10.531 0 0 0 2.7-3.317c.41-.819.614-1.147 1.31-1.147.532 0 1.229.287 1.229.86a2.078 2.078 0 0 1-.41 1.147h4.1zm8.231 5.528c-.369 0-1.27 0-1.27-1.147 0-1.106.737-1.188 1.27-1.188h10.156c.369 0 1.269 0 1.269 1.147s-.778 1.188-1.269 1.188zm28.421 1.556c.45.532.614.737.614 1.106a1.428 1.428 0 0 1-1.351 1.392c-.41 0-.7-.2-1.515-1.147-.9-1.065-1.6-2.048-4.013-5.324-.328-.45-.819-1.147-1.147-1.147-.246 0-.41.123-.86.86-1.31 2.048-1.679 2.621-2.048 3.112a1.045 1.045 0 0 1-.86.45 1.46 1.46 0 0 1-1.392-1.351c0-.45.164-.655.737-1.351a24.257 24.257 0 0 0 2.048-2.7c.655-.942 1.229-1.638 2.293-1.638.573 0 1.229.041 2.375 1.556 2.7 3.481 2.949 3.849 3.645 4.587z"/><path fill="#636565" d="M64.662 1.924a1.474 1.474 0 1 0-1.474 1.474 1.5 1.5 0 0 0 1.474-1.474zm3.726 0a1.474 1.474 0 1 0-1.474 1.474 1.468 1.468 0 0 0 1.474-1.474zM99.389 0a2.457 2.457 0 1 0 2.457 2.457A2.464 2.464 0 0 0 99.389 0zm0 3.4a.927.927 0 0 1-.942-.942.942.942 0 1 1 1.884 0 .927.927 0 0 1-.942.942z"/></svg>