<svg xmlns="http://www.w3.org/2000/svg" viewBox="0 0 260 68.38"><linearGradient id="a" x1=".499" x2=".499" y1="1" y2="-.001" gradientUnits="objectBoundingBox"><stop offset="0" stop-color="#ff0d00"/><stop offset="1" stop-color="#ff2a00"/></linearGradient><path fill="none" d="M0 0h260v68.38H0z"/><path d="M78.988 20.852v21.892h8.424v5.3H72.696V20.852zm35.568 3.168a14.626 14.626 0 0 1 0 20.748 14.626 14.626 0 0 1-10.66 4.056 15.317 15.317 0 0 1-10.764-4.056 14.069 14.069 0 0 1-4.316-10.24 15.372 15.372 0 0 1 4.264-10.452 14.767 14.767 0 0 1 10.764-4.056 15.024 15.024 0 0 1 10.712 4zm-16.74 4.268a8.413 8.413 0 0 0-2.444 6.24 8.348 8.348 0 0 0 2.5 6.188 8.011 8.011 0 0 0 5.928 2.288 8.537 8.537 0 0 0 6.136-2.34 8.162 8.162 0 0 0 2.392-6.136 8.623 8.623 0 0 0-2.392-6.188 8.885 8.885 0 0 0-6.084-2.34 7.88 7.88 0 0 0-6.036 2.288zm31.82-7.436v21.892h8.424v5.3h-14.716V20.852zm20.28 0v27.2h-6.292v-27.2zm16.38 0c2.34 0 4.992.312 7.124 2.236a8.3 8.3 0 0 1 2.652 6.6 8.591 8.591 0 0 1-2.34 6.4 9.311 9.311 0 0 1-6.916 2.392h-3.848v9.572h-6.292v-27.2zm-3.328 12.532h2.236a4.771 4.771 0 0 0 3.38-1.04 3.8 3.8 0 0 0 1.04-2.7 3.553 3.553 0 0 0-1.04-2.652 4.955 4.955 0 0 0-3.484-1.04h-2.132zm41.34-9.364a14.625 14.625 0 0 1 0 20.748 14.626 14.626 0 0 1-10.66 4.056 15.317 15.317 0 0 1-10.764-4.056 14.069 14.069 0 0 1-4.316-10.24 15.372 15.372 0 0 1 4.264-10.452 16.321 16.321 0 0 1 21.476-.056zm-16.692 4.264a8.413 8.413 0 0 0-2.448 6.244 8.349 8.349 0 0 0 2.5 6.188 8.011 8.011 0 0 0 5.928 2.288 8.537 8.537 0 0 0 6.136-2.34 8.162 8.162 0 0 0 2.392-6.136 8.623 8.623 0 0 0-2.392-6.188 8.885 8.885 0 0 0-6.084-2.34 7.805 7.805 0 0 0-6.032 2.288zm34.424-7.432c2.34 0 4.992.312 7.124 2.236a8.3 8.3 0 0 1 2.652 6.6 8.591 8.591 0 0 1-2.34 6.4 9.311 9.311 0 0 1-6.916 2.392h-3.848v9.572h-6.292v-27.2zm-3.328 12.532h2.236a4.771 4.771 0 0 0 3.38-1.04 3.8 3.8 0 0 0 1.04-2.7 3.553 3.553 0 0 0-1.04-2.652 4.955 4.955 0 0 0-3.484-1.04h-2.132zm20.176 7.904a3.692 3.692 0 1 1-3.692 3.692 3.641 3.641 0 0 1 3.692-3.692zm-3.016-2.028V20.852h6.032v18.46h-6.032z" fill="#ff2a00"/><path fill="url(#a)" d="M71.649 56.613A5.181 5.181 0 0 1 69 61.189l-11.235 6.448a8.216 8.216 0 0 1-8.32 0l-11.232-6.448a5.3 5.3 0 0 1-2.6-4.576v-.988a.657.657 0 0 1 .988-.572 8.092 8.092 0 0 0 4.16 1.2 7.675 7.675 0 0 0 4.68-1.56.859.859 0 0 1 1.2.26 7.956 7.956 0 0 0 14.04-.1.848.848 0 0 1 1.04-.364 7.777 7.777 0 0 0 3.328.676c2.86 0 6.6-2.912 6.864-6.864.26-4.94-3.484-7.956-7.8-7.956-11.7 0-16.952 10.92-24.076 12.584-4.628 1.092-8.06-2.34-6.708-9.308 2.652-14.2 17.056-26.676 22.828-25.22 4.108 1.04-.832 8.476 2.756 9.62C76.641 33.837 77.369 49.645 71.7 54.325z" transform="translate(-15.854 -8.773)"/><path fill="#fff" d="M17.42 34.788a2.61 2.61 0 0 0 .1-.624 2.61 2.61 0 0 1-.1.624z"/><path fill="#fff" d="M23.243 47.268a8.607 8.607 0 0 0 1.664.156 11.471 11.471 0 0 0 1.924-.208 8.682 8.682 0 0 0 2.808-1.304l.312-.156a.8.8 0 0 1 .832.416 7.927 7.927 0 0 0 13.468.78 5.624 5.624 0 0 0 .572-.936.913.913 0 0 1 .208-.26 1.137 1.137 0 0 1 .26-.156.66.66 0 0 1 .312-.052c.1 0 .208.052.312.052a7.777 7.777 0 0 0 3.328.676c2.86 0 6.6-2.912 6.864-6.864a7.14 7.14 0 0 0-3.38-6.708 7.379 7.379 0 0 0-2.08-.884l-.78-.156a8.073 8.073 0 0 0-1.612-.156 17.383 17.383 0 0 0-5.044.728l-.936.312a22.035 22.035 0 0 0-4.16 2.028 53.753 53.753 0 0 0-5.668 4.264c-.416.364-.884.728-1.3 1.092a30.41 30.41 0 0 1-2.548 1.98 12.753 12.753 0 0 1-4.472 2.184c-4.628 1.092-8.06-2.34-6.708-9.308-2.08 9.1 2.86 11.18 3.328 11.44a7.492 7.492 0 0 0 2.496 1.04z"/></svg>