<svg xmlns="http://www.w3.org/2000/svg" viewBox="0 0 161.917 34.572"><g data-name="グループ化 305"><path d="M.491 19.204a1.835 1.835 0 0 0 .081-.324c0-.081-.04-.081-.121-.2s-.081-.081-.121-.2 0-.081-.081-.162-.2-.121-.2-.243.04-.081 0-.243-.081-.2 0-.324a.684.684 0 0 0 .121-.243.559.559 0 0 1 .121-.162.622.622 0 0 0 .243-.162c.04-.081.121-.162.2-.121s.162.2.243.162.081-.121.162-.162a.243.243 0 0 1 .162-.04.437.437 0 0 0 .283-.121c.081-.081.283-.162.324-.081s.121.162.2.081.162-.243.243-.283c.121-.04.324.04.4 0 .121-.04.243 0 .283-.121a.911.911 0 0 1 .2-.2c.04-.04.121 0 .121-.121s-.04-.2.04-.283.2-.121.283-.2c.121-.04.081-.04.162-.121.081-.121.162-.04.2-.162s.081-.081.081-.2a.436.436 0 0 1 .094-.336c.081-.081.121 0 .121-.162v-.243a.9.9 0 0 1 .04-.364c.04-.121.081-.04.04-.2s-.081-.2-.04-.364a1 1 0 0 1 .04-.324c.04-.162.162-.121 0-.283-.121-.162 0-.081-.121-.243-.081-.2-.121-.162-.162-.283a.653.653 0 0 1-.121-.364.436.436 0 0 1 .081-.283c.081-.162.162-.2.162-.283s-.121-.04-.121-.2c0-.121-.081-.243.04-.445.121-.243.2-.364.283-.364a.252.252 0 0 1 .243.162c.04.121.081.162.162.121s.162-.162.283-.2a.955.955 0 0 1 .485-.04c.121.04.081.081.324.121a1.454 1.454 0 0 0 .445.081c.243 0 .243-.121.445-.162s.283.04.4.04c.121.04.162-.04.364-.162s.2-.2.445-.081.121.04.364.121c.283.121.283.162.364.162a.321.321 0 0 0 .324-.04c.2-.121.283-.243.526-.162s.283 0 .2.283c-.081.324-.162.243 0 .364.121.121.081.121.04.283-.081.162-.04.526-.162.728a.63.63 0 0 0-.121.485c.04.283.04.364.081.566s.121.243.04.445-.2.647-.081.526a3.573 3.573 0 0 1 .526-.445c.283-.2.162-.243.445-.4s.4-.2.485-.324c.121-.121.121 0 .162-.121s-.04-.2.2-.243a.772.772 0 0 0 .4-.162.882.882 0 0 1 .2-.162c.081-.04.121-.2.324-.243.2 0 .243-.121.364-.081s.121 0 .162-.081.162-.2.2-.283c.081-.081.081-.162.121-.121s.2.081.243 0-.04-.04.121-.081.04-.2.324-.162c.243.04.2.081.324 0s.364-.485.485-.485c.162 0 .121.2.243.121a1.143 1.143 0 0 1 .445-.2 1.43 1.43 0 0 0 .445-.162c.081-.04.2-.2.364-.2s.364-.121.485-.04c.081.04.121.243.324.2.162-.04.081-.081.243-.081a2.279 2.279 0 0 0 .526 0c.121-.04.324-.162.485-.121s.121-.04.324-.081c.2 0 .243-.081.445.04a2.355 2.355 0 0 1 .445.2.565.565 0 0 0 .364.121 1.978 1.978 0 0 1 .769.2c.2.121.2.243.364.283s.2 0 .324.081a1.245 1.245 0 0 0 .364.162c.081 0 .162.081.283.162s.04.162.243.162a.341.341 0 0 1 .283.081c.121.081.121.04.243.162s.121.324.2.324.121 0 .121.121c0 .162 0 .162.162.2s.2.121.324.283c.121.121.081 0 .2.121s.121.081.121.2.162.283.2.4c0 .121 0 .081.121.162s.283.162.283.243c.04.081 0 .2.121.2s.162.081.162.121a1.058 1.058 0 0 0 .121.324c.04.04 0-.04.2-.04.243 0 .485.162.526.04 0-.121-.04-.081.04-.2a.85.85 0 0 0 .2-.283c.121-.2.081-.081.2-.243s.081-.2.243-.364.04-.121.243-.2.364-.081.445-.243.081-.243.2-.324a1.291 1.291 0 0 0 .283-.243c.2-.121.243-.081.364-.243s.121-.121.2-.243.121-.121.324-.283a.772.772 0 0 0 .324-.283.706.706 0 0 1 .445-.364c.283-.04.243.04.364-.081s.081-.162.243-.243.243-.121.324-.04c.04.081.04.081.121 0s0-.04.162-.081.2 0 .364-.162c.2-.162.243-.283.485-.2.2.081.2.081.364.04.121-.04.2 0 .364-.081s.162-.162.364-.121c.162.04.121.04.364-.04a1 1 0 0 1 .485-.04c.243.04.283 0 .485.04.2.081.2.2.324.04s.243 0 .283-.081-.04-.2.162-.2.324.081.445.04a1.291 1.291 0 0 1 .647.081c.162.081.04-.04.243.121.243.162.162.2.4.243a1.518 1.518 0 0 0 .4.04 1.359 1.359 0 0 1 .566.2c.121.121 0 .162.243.2s.243 0 .324.04a1.541 1.541 0 0 1 .526.324c.081.121.081.04.2.2s.04.2.243.243c.162.04.162 0 .243.121s.081 0 .2.2-.081.364.162.364c.2 0 .162-.04.283.081a1.23 1.23 0 0 0 .283.2c.121.081 0 0 .162.283.121.243.04.243.162.4.162.162.081.2.162.283s.162-.04.243.243.243.324.243.485a.433.433 0 0 1 0 .324.863.863 0 0 0 0 .324c.04.121-.121.04.081.243a3.092 3.092 0 0 1 .445.647 2.9 2.9 0 0 1 .04.526c0 .081-.162.162-.081.283s.162.162.162.283.162.2.081.364c-.04.162-.121 0-.04.283.04.243.081.283.04.4-.04.081-.04.081 0 .2s.04.162.081.324.081.04.04.283c0 .243.04.283-.04.4s-.04.121-.121.4-.121.243 0 .4a1.7 1.7 0 0 1 .162.647 1.8 1.8 0 0 1-.081.526c-.04.121-.081.121-.04.2 0 .081-.04.04 0 .162a.47.47 0 0 1 0 .4c-.081.162-.081.243-.04.324.04.04.121 0 .121.162s-.04 0 .04.162.121.121.081.243-.04.324-.121.4c-.04.081-.04-.04-.04.162s-.081.283-.04.4c0 .121.04-.04 0 .2-.04.2-.081.2 0 .324.04.162.081.2.04.364s-.121 0-.04.2.121.162.121.283v.324c0 .2.04.283-.04.364a.391.391 0 0 0-.081.324c.04.162.04 0 .04.2s.081.324 0 .4-.081-.04-.121.243-.04.2.04.364.283.243.283.526a2.866 2.866 0 0 1-.04.607c-.04.2-.081.324-.121.485-.04.121-.081 0-.04.324a1.632 1.632 0 0 1 0 .445c0 .283-.162.243-.121.485s.04.243.121.364.121.081.04.324-.121.162-.121.324-.121.283.04.445c.121.162.121.081.081.283-.04.162-.081.04 0 .283a1.781 1.781 0 0 1 .081.4 1.376 1.376 0 0 1-.04.4c-.04.2 0 .162.04.283s.2.324.162.445-.121.04-.162.283c-.081.2-.2.647-.445.607s-.324-.121-.364-.2c-.081-.121 0-.121-.162-.2s-.162-.04-.283-.04-.162-.081-.283 0-.162.162-.283.162c-.081 0-.162-.081-.283-.04-.121.081-.081 0-.162 0-.121 0-.04-.121-.2 0s-.081.162-.364.121-.324-.121-.4-.121-.162-.162-.283-.121a.684.684 0 0 1-.243.121c-.162.04.2.162-.283.121-.445-.04-.445-.121-.607-.121a.653.653 0 0 1-.364-.121c-.162-.04-.283 0-.364-.2s-.04-.2-.121-.324-.121-.081-.121-.2-.04-.121-.04-.243c0-.162.081-.081.04-.243s-.081-.162 0-.243.121-.162.162-.2.2-.04.081-.162a1.12 1.12 0 0 1-.2-.324v-.364c0-.164-.121-.04-.04-.283.121-.243.121-.081.121-.243s0-.081.081-.162c.081-.121.162 0 .121-.2a1.676 1.676 0 0 1-.04-.4c.04-.121-.121-.2-.081-.4 0-.2.04-.121-.04-.243-.04-.121-.162-.081-.081-.324.04-.243.081-.121.081-.283s-.081-.121-.04-.283.2-.121.121-.324a.544.544 0 0 1-.044-.315c0-.162-.081.04 0-.283a1.092 1.092 0 0 0 .04-.485 1.639 1.639 0 0 1 0-.445 1.258 1.258 0 0 1 .04-.445c.081-.121.081-.081.081-.283s.081-.2.04-.4c-.04-.162-.121-.121-.121-.243.04-.081.121-.121.121-.243s.04.081 0-.2a1.64 1.64 0 0 0-.121-.4c-.04-.162.081 0 0-.243-.08-.298-.12-.052-.08-.298.04-.2.04-.121.081-.324s0-.081.04-.324.121-.162.081-.324-.243-.04-.121-.324c.081-.283.04-.243.121-.324s.162-.121.121-.283.081-.2-.081-.283-.283-.162-.243-.283.2-.162.121-.324-.2-.243-.162-.364c0-.121.081-.121.121-.364.081-.243.121-.283.081-.4a1.468 1.468 0 0 0-.121-.283c-.081-.162-.283-.121-.2-.243s.162-.121.162-.324a3.9 3.9 0 0 1 0-.688c0-.2.081-.121.04-.324a3.919 3.919 0 0 1-.121-.445c-.04-.121-.162-.243-.243-.4-.04-.2 0-.162-.081-.283a1.148 1.148 0 0 0-.243-.364.726.726 0 0 1-.283-.364 1.557 1.557 0 0 0-.324-.445.429.429 0 0 1-.162-.243c-.04-.121 0 0-.121-.162-.121-.121-.162-.081-.243-.162s-.121-.081-.121-.162c-.04-.081-.04-.04-.121-.121s.081 0-.162-.162-.2-.081-.324-.243c-.081-.121.081-.162-.121-.162s-.121.04-.243 0a.891.891 0 0 1-.324-.04c-.121-.04-.081-.081-.162-.081-.121 0-.04.04-.2 0a.884.884 0 0 1-.2-.121c0 .04 0 0-.121.04l-.162.081c-.121.04-.121.081-.283.081-.162-.04-.162 0-.324-.081-.162-.04-.081-.081-.283-.081s-.2-.121-.283-.081 0 0-.121.121-.121.121-.324.162c-.2.081-.2.081-.243.081-.081 0-.04-.04-.081-.081s0-.081-.121-.081-.243 0-.283.081a1.007 1.007 0 0 1-.283.2c-.2.081-.162.121-.364.2-.162.081-.04.121-.243.121h-.283c-.04 0-.04-.121-.081 0a.652.652 0 0 1-.162.283c-.081.081-.121.04-.162.081s-.04.081-.04.162-.081.162-.2.243-.04.081-.243.162-.162.121-.283.121-.283 0-.283.04c-.04.04-.081.081-.081.121s-.04.04-.162.162-.081.121-.2.243-.2.121-.243.283c-.04.121 0 .081-.162.162s-.243-.081-.283.121a2.988 2.988 0 0 0-.081.485c0 .2.04.121 0 .283s-.04.243-.081.4-.081.283-.121.4a1.029 1.029 0 0 0-.081.283c0 .081.121.162.04.324s-.162.04-.121.2c0 .162-.081.081 0 .283s.162.162.162.364-.081.2-.04.324.081.081.04.243c-.04.121.081.04 0 .2-.04.162.04.243-.2.364-.2.121-.081.162 0 .283a.719.719 0 0 1 .162.4c0 .162-.121.324-.121.4s0 0 .081.2a.936.936 0 0 1 .081.364 1 1 0 0 0-.04.324c-.04.081-.04-.081 0 .121s.081.243.04.364a1.029 1.029 0 0 0-.081.283c0 .081.081.162.081.364-.04.2-.081.04-.04.283 0 .243.121.2.04.364s-.2.121-.162.243c.04.162.121.081.121.2a.876.876 0 0 1 .081.485c-.04.2-.081.081-.04.243s.081.121.081.283v.243c0 .04-.081.121-.081.2s-.04-.081.04.121c.04.2.081.162.04.364s-.04.364-.081.485a.346.346 0 0 0 0 .283c.04.121.121.2.121.243a1.07 1.07 0 0 1 0 .364c-.04.162-.081.121-.081.243s0 .2.04.243a.307.307 0 0 1 .04.283c-.04.121-.081.04-.081.243s-.081.121.04.243a.67.67 0 0 1 .2.485c0 .2-.081.2 0 .324s-.04.081-.04.243v.324a1.12 1.12 0 0 1-.04.364 1.247 1.247 0 0 0-.04.4c0 .2.04.121.04.364v.4c0 .121.04.243.04.364a1 1 0 0 1-.04.364c-.04.081.04.2-.2.324s-.324.364-.445.121a1.137 1.137 0 0 0-.324-.324.205.205 0 0 0-.2.04c-.081.04-.121.04-.324.04-.162-.04-.162-.081-.283-.04-.081.04.04.081-.243.081-.243 0-.162-.04-.4-.04-.2 0-.243-.081-.364 0s-.081.162-.162.2-.04.121-.364.121c-.324-.04-.243-.081-.4-.121-.324-.081-.324-.121-.4-.04-.121.04-.283-.04-.364.081a.477.477 0 0 1-.2.2c-.081.081.04.121-.2.04-.243-.04-.162.081-.364-.162-.2-.283-.283-.121-.324-.364-.04-.2-.081-.162-.04-.283s.04 0 .081-.243a.891.891 0 0 1 .04-.324c0-.2.162-.081.081-.324-.081-.283-.162-.324-.121-.445s.121 0 .121-.121c-.04-.121 0-.121.04-.283s.121-.04.081-.364a7.9 7.9 0 0 1-.081-.931c0-.283.121-.607.121-.769s0 .04-.081-.2a.8.8 0 0 1-.081-.445c0-.243-.081-.2-.04-.4 0-.243.081-.243.081-.324a.926.926 0 0 0-.04-.445 1 1 0 0 1-.162-.445 1.2 1.2 0 0 1 .081-.485c.081-.243.283-.364.2-.485-.04-.162-.162-.162-.121-.324s.081-.121.081-.243-.081-.2-.121-.445a2.861 2.861 0 0 0-.081-.485.623.623 0 0 1 .081-.445.489.489 0 0 0 .121-.364c0-.121-.04-.364-.04-.566a.966.966 0 0 0-.113-.32c-.2-.162-.2-.081-.2-.324v-.364c0-.283 0-.283.081-.4.04-.121.081-.04.081-.4s.04-.324 0-.485-.081-.04-.081-.364c-.04-.324 0-.243-.04-.445s-.081-.121-.04-.283c.081-.162.121-.2.081-.364a2.5 2.5 0 0 1-.04-.607c0-.283.04-.243.04-.526a1.528 1.528 0 0 0-.04-.485 1.05 1.05 0 0 0-.162-.4c-.121-.162.04-.081-.04-.243-.121-.162-.121-.04-.121-.243 0-.162.121-.364-.081-.526-.162-.121-.2-.121-.283-.243s-.04 0-.081-.2c-.04-.243.04-.162-.04-.364a.933.933 0 0 0-.243-.364 2.277 2.277 0 0 0-.566-.4c-.162-.121-.04-.121-.2-.283s.121-.04-.243-.162a4.472 4.472 0 0 1-.526-.162c-.162-.121-.04-.081-.283-.243s-.162-.2-.4-.243c-.283-.04-.445-.121-.526-.121s-.243-.04-.364-.04 0-.04-.243-.081-.243-.121-.445-.04c-.2.121-.162.162-.364.121s-.364-.081-.4-.081c-.081 0 .04-.04-.2.121-.243.121-.283.243-.4.243a1.181 1.181 0 0 0-.364.081c-.121.04-.121.081-.243.121-.121 0-.2-.04-.2.04-.04.081.04.04-.081.243s-.243.445-.4.485a.637.637 0 0 1-.526.162c-.243-.04-.04-.04-.283.081s-.364.243-.4.243-.121-.121-.2.04 0 .283-.121.364-.121.081-.283.2-.283.081-.324.162c-.04.04.081.04-.162.243-.243.162-.162.162-.364.2s-.243.081-.243.121.162.283 0 .364-.2.121-.283.121c-.081.04-.2.04-.121.162.081.162.4.04.324.2a.933.933 0 0 1-.243.364c-.081.04-.121.04-.081.121a.345.345 0 0 1 .04.364c-.081.162-.121.121-.121.283s.04.081.081.2c.04.162.121.162 0 .364a.437.437 0 0 0-.081.364c0 .162-.04.162 0 .324s.121.162.121.4c0 .2-.121.4-.081.566a.789.789 0 0 0 .04.324c.04.121 0 .364.04.526 0 .162-.121.04.04.243.162.162.243.121.162.283s-.121.04-.162.283a1.573 1.573 0 0 0-.081.607c0 .2-.04.2 0 .324 0 .121.04.526.081.809a3.174 3.174 0 0 1 .081.566 8.465 8.465 0 0 1-.04 1.052c-.04.2-.04.081 0 .324a3.365 3.365 0 0 1 .081.526 5.975 5.975 0 0 1 .04.85c-.04.162-.081 0-.081.324a2.211 2.211 0 0 0 .081.485.688.688 0 0 0 .04.283c.04.121-.081.162.04.243.121.121.162.04.162.162a2.866 2.866 0 0 1 .04.607c0 .162-.081.2-.121.364s-.162.243-.121.485c0 .243.04.162.04.283a1.072 1.072 0 0 1 .121.566 1 1 0 0 0-.04.324c0 .2-.04.04-.081.283a3.137 3.137 0 0 1-.04.364c0 .162.081.121.04.283a3.5 3.5 0 0 0 .081.4.739.739 0 0 1-.081.364c-.081.2.121.324-.2.243a1.616 1.616 0 0 0-.526-.081c-.2 0-.324.081-.526.04a1.691 1.691 0 0 1-.4-.162c-.243-.04-.445-.081-.526-.081s-.121.121-.364.081a1.2 1.2 0 0 0-.4.081.826.826 0 0 1-.364.081.568.568 0 0 0-.162-.162c-.121-.081-.243-.2-.324-.121a1.259 1.259 0 0 1-.243.162 1.869 1.869 0 0 1-.283.283c-.081.04 0 .162-.2.121s-.324-.04-.364-.081c-.04-.081-.162-.081-.283-.121-.121-.081-.2-.04-.243-.243a1.437 1.437 0 0 1-.081-.4c0-.2-.04-.283 0-.4s.121 0 .121-.2-.04.04-.04-.243v-.364c.04-.121.121-.04.081-.162a3.022 3.022 0 0 1-.127-.46c-.04-.2-.04-.364 0-.364.04-.04.121-.04.081-.162 0-.121-.04 0-.04-.2v-.364c0-.121 0 0 .081-.162s.121-.121.081-.243v-.526a1 1 0 0 0-.04-.364 1.565 1.565 0 0 1-.04-.364c0-.162-.04-.162.04-.243a.488.488 0 0 0 .121-.324c0-.162-.04-.283 0-.364s.121-.04 0-.162-.121 0-.162-.243c-.04-.2 0-.243-.04-.4s-.162-.045-.082-.329a1.424 1.424 0 0 0 .081-.485 1.518 1.518 0 0 1-.04-.4c.04-.081.121-.324.2-.283s.081-.04.04-.121c-.081-.081-.121-.121-.121-.364s.081-.2 0-.364.04-.162.04-.243c0-.121-.081-.121 0-.2.04-.081.243-.081.2-.2s0-.283-.04-.4.081.04-.081-.2-.121-.2-.081-.324a.688.688 0 0 1 .04-.283c.04-.121.081-.04.04-.324s-.04-.364 0-.445c.04-.121.162 0 .162-.2-.04-.2 0-.081-.04-.2-.04-.162-.04-.081-.081-.2a1.326 1.326 0 0 1 0-.4c.04-.2.162-.04 0-.243-.121-.2 0-.283-.2-.283s-.121.081-.283-.04-.121-.162-.243-.162a.367.367 0 0 0-.283.121 1.259 1.259 0 0 1-.243.162c-.162.081-.121.121-.364.162-.2.04-.243.121-.364.081-.121 0-.121 0-.162.04s-.081.2-.162.2-.162-.04-.2.081c-.081.081-.081.121-.162.2-.121.081-.121.121-.283.121a3.022 3.022 0 0 0-.445.081c-.04 0-.081.121-.04-.04s.162-.121 0-.243-.2-.121-.243-.2a.434.434 0 0 1-.081-.243c0-.081-.081-.121-.121-.243a.438.438 0 0 1-.04-.243c0-.081-.081-.04 0-.283s.162-.162.081-.324c-.081-.121-.162-.121-.2-.283-.164-.106-.281-.146-.205-.389z" data-name="パス 834"/><path d="M53.531 33.89c.081 0 .081.081.243.081.2 0 .121-.04.243-.04a3.468 3.468 0 0 0 .526.121.537.537 0 0 0 .4-.121c.121-.081.162 0 .243-.121s.121 0 .243-.081c.162-.081.081.081.283.2a.93.93 0 0 0 .566.081 2.388 2.388 0 0 0 .566-.081c.162-.04.283-.081.4-.121s.2.081.485.081a1.234 1.234 0 0 0 .647-.121c.283-.081.081-.121.04-.243a2.839 2.839 0 0 0-.243-.364c-.121-.081-.162-.081 0-.2s.081-.2.162-.4a.612.612 0 0 0-.04-.485c-.04-.04 0-.243-.04-.4v-.4c0-.2-.243-.283-.364-.445-.121-.121-.04-.162.081-.2a.429.429 0 0 0 .243-.162c.121-.081.081-.2.121-.445a.955.955 0 0 0-.04-.485v-.526c0-.162-.04-.121-.04-.243s-.04-.324-.04-.364-.04-.162-.04-.243a1.092 1.092 0 0 1 0-.364c0-.121.04-.121.04-.243a.513.513 0 0 1 .04-.243c0-.081-.04-.243-.04-.364s-.121-.364-.121-.485a.762.762 0 0 1-.081-.324v-.324a1.5 1.5 0 0 1 .081-.364 1.293 1.293 0 0 0 .04-.283c0-.04-.081-.121-.121-.162-.04-.081 0-.121.04-.2.081-.081.081-.2.081-.364s-.04-.162-.081-.243a.52.52 0 0 1-.04-.283c-.04-.162.081-.121.162-.243s.04-.2.04-.364c.04-.162 0-.121-.081-.324a.612.612 0 0 1-.081-.324.342.342 0 0 1 0-.283.427.427 0 0 0 0-.243c0-.04-.04-.121-.081-.283-.04-.121 0-.121.081-.2.081-.121 0-.121 0-.283a1.2 1.2 0 0 1 .081-.566c.04-.081 0-.121-.04-.243a1.248 1.248 0 0 1 .04-.364c.04-.121 0-.162 0-.324a2.582 2.582 0 0 0-.081-.283c-.04-.121.04-.121.081-.162a.181.181 0 0 0 0-.2c-.04-.081.04-.04.081-.2a.43.43 0 0 0-.04-.324c-.04-.081 0-.162 0-.243a.887.887 0 0 0 .121-.324 1.393 1.393 0 0 0 .04-.364.436.436 0 0 0-.081-.283c-.04-.162-.121-.121-.2-.283-.121-.162-.04-.4-.04-.526.04-.081 0-.121-.04-.324a.79.79 0 0 1-.04-.283v-.485c0-.324-.081-.162.081-.324a.746.746 0 0 0 .162-.526.9.9 0 0 0-.162-.526c-.081-.121-.04-.121 0-.283a1 1 0 0 0 .04-.364c-.04-.2-.04-.324-.081-.364a1.053 1.053 0 0 0-.121-.283c-.04-.162.081-.121.121-.243a1.568 1.568 0 0 0 .121-.445c.04-.243-.2-.607-.2-.647a.592.592 0 0 1 .2-.324c.162-.162.121-.162.162-.364a.8.8 0 0 0-.04-.445c-.04-.162-.081-.2-.121-.4s-.283-.081-.4-.121q-.182-.121-.243 0c-.04.121-.2.081-.364.121a.841.841 0 0 1-.445.04c-.2 0-.2-.081-.324-.081s-.2.04-.283 0c-.121-.04-.162-.121-.283-.2-.121-.04-.121 0-.243.081s-.243.04-.4.04c-.121 0-.2-.081-.364-.081a.489.489 0 0 0-.364.121c-.162.081-.162-.04-.324-.081a1.912 1.912 0 0 1-.485-.283c-.162-.121-.283.081-.364.121s-.162-.04-.243-.081a.18.18 0 0 0-.243.121c-.04.121-.121-.04-.324.081s-.2.121-.243.364a3.785 3.785 0 0 0 0 .688c0 .364.04.121.121.364.081.2.081.2.121.324.04.162.081.081.162.2s-.04.121-.04.283c0 .121-.04.04-.121.243-.081.162.081.2.121.4s.04.081.081.243-.04.081-.2.324c-.121.2-.04.04.04.243.04.2-.04.121-.04.364s.081.2.121.324 0 .081.04.243c0 .162-.04.162-.081.243s-.04.04-.04.162-.04.081-.081.2 0 .04.121.2c.121.2.04.04.04.2s0 .081.121.2c.081.121 0 .04.04.283s0 .121-.081.283a.6.6 0 0 0-.04.243c-.04.121.04.121.081.243s-.04.121-.04.2.04.081.04.243 0 .04-.081.243a.49.49 0 0 0-.04.4c.04.162.04.081.04.243a1.394 1.394 0 0 1-.04.364c-.04.243 0 .121 0 .283a.78.78 0 0 0 .121.4.492.492 0 0 1 .081.364.684.684 0 0 1-.081.364 1.257 1.257 0 0 0-.04.445v.526a1.393 1.393 0 0 1 .04.364c0 .162 0 .04.121.162.081.121.04.04 0 .162a.513.513 0 0 0-.04.243 1.25 1.25 0 0 0 .081.324c0 .162-.04.081-.081.2a1.667 1.667 0 0 0-.081.364c-.04.2 0 .162 0 .445v.324a1 1 0 0 1-.04.364c-.04.2.04.324.121.607.121.283-.081.283-.121.364a.63.63 0 0 0-.121.364 1.434 1.434 0 0 0 .121.445c.04.2-.04.2-.081.364-.04.121 0 .121.081.243s.04.081.04.2c0 .162 0 .081.081.2s0 .121-.04.2c-.081.081 0 .081.081.2.04.121.04.081 0 .243 0 .162-.04.162-.121.364-.04.2.081.243.081.283a.4.4 0 0 1-.081.324c-.121.162 0 .243 0 .4v.29c0 .162.04.162.04.283.04.121.081.081 0 .243s.04.162.081.364.081.081.081.283v.327c0 .162 0 .081.081.243a.708.708 0 0 1 .04.2c0 .081-.081.081 0 .283s.04.121-.081.283-.04.243-.04.324v.2a.863.863 0 0 0 0 .324c.04.162 0 .121-.04.243a2.553 2.553 0 0 1-.162.364c-.04.162 0 .121 0 .2a3.136 3.136 0 0 0-.04.364c0 .162.04.121.04.243s.121.121.2.2a.315.315 0 0 0 .283.121.8.8 0 0 0 .283-.081c-.083.169.038.007.119.048z" data-name="パス 835"/><path d="M53.288 1.039c.2-.2.2-.04.2-.243 0-.162-.04-.324.081-.364a1.919 1.919 0 0 1 .485 0c.162 0 .243.04.243-.04s.04-.2.162-.121.121.081.2.04.2-.04.324-.081.324-.162.445-.081q.182.182.243.121c.04-.04.081-.2.162-.2s.162-.121.324-.04a.772.772 0 0 1 .324.121 1.061 1.061 0 0 0 .364.2c.162.081.243 0 .324.162.081.121.162.121.2.243a.814.814 0 0 1 .081.243c.04.2.04.2.121.283.081.04.243.04.283.121s.121.081.162.243a1.78 1.78 0 0 1 .081.4 3.588 3.588 0 0 0 .121.566 1.676 1.676 0 0 1 .04.4c-.04.081-.162 0-.121.243a.673.673 0 0 1-.04.445c-.04.081 0 .243 0 .324s0 .283-.121.283h-.2c-.04 0-.121 0-.081.04.04.081.283.04.283.162s0 .324-.081.364-.283.04-.324.081-.04.081-.081.2-.04.121-.121.162-.121.121-.162.283c-.04.121-.081.121-.2.2-.121.04-.2.121-.283.081s-.121-.081-.162-.04a1.331 1.331 0 0 0-.243.121c-.121.081-.081.081-.162.081s-.162-.04-.243 0a1.164 1.164 0 0 0-.243.162.6.6 0 0 1-.364.162.789.789 0 0 1-.324-.04 1.2 1.2 0 0 0-.4-.081c-.162-.04-.081-.121-.324-.121-.243-.04-.162.04-.4-.081s-.324-.243-.445-.283-.04-.081-.2-.081c-.2 0-.283.162-.364-.04a1.971 1.971 0 0 0-.121-.283c-.081-.162-.121-.081-.121-.243s.081-.04-.04-.324a2.332 2.332 0 0 0-.2-.364c-.04-.162-.081-.121-.04-.324 0-.2.121-.121.121-.283s-.04.04-.04-.283.081-.324.04-.445-.121-.081-.081-.283a.387.387 0 0 1 .081-.283c.04-.081.081-.04.121-.324s-.04-.324 0-.485a.369.369 0 0 1 .121-.324c.121-.121.283-.121.364-.162s.191-.069.231-.19z" data-name="パス 836"/><path d="M68.743 21.227a4.2 4.2 0 0 1-.4-.162c-.081-.04-.04 0-.162-.162a1.164 1.164 0 0 1-.162-.243c-.04-.081-.04-.081-.04-.283.04-.2.081-.243.081-.324.04-.121.081-.162 0-.2-.04-.04-.121 0-.162-.2 0-.2-.04-.162-.04-.445-.04-.283.04-.121-.04-.283a.436.436 0 0 1-.081-.283c0-.121-.121-.162-.162-.283s-.081-.081-.121-.283-.04-.2 0-.283.121-.081.081-.162a1.3 1.3 0 0 1-.121-.2c-.04-.081-.2-.2-.04-.445s.2-.243.364-.243a1.192 1.192 0 0 0 .526-.2 1.092 1.092 0 0 1 .364 0c.081 0 .283-.2.445-.2.162-.04.445.04.485 0 .04 0 .121-.121.243-.243a1.091 1.091 0 0 1 .324-.283c.121-.04.243 0 .324-.121a2.94 2.94 0 0 1 .324-.364c.081-.081.162-.121.2-.243.04-.081 0-.162.081-.243s.081 0 .121-.162 0-.04.04-.243c0-.2 0-.2.081-.283s.2 0 .121-.283c-.04-.324-.162-.324-.081-.607a1.88 1.88 0 0 1 .121-.364c.081-.243.2-.324.2-.445v-.485a1.721 1.721 0 0 1-.081-.445v-.324c.04-.04.081 0 .081-.162s.121-.2-.04-.2c-.121 0-.121-.04-.121-.2 0-.121-.081-.2.04-.283a.646.646 0 0 1 .4-.2 1.2 1.2 0 0 1 .526.081c.121.081.243.162.283.121.081-.04.121-.162.243-.162a1.437 1.437 0 0 1 .4.081.689.689 0 0 0 .283-.04.346.346 0 0 1 .283 0 .6.6 0 0 0 .364.04.712.712 0 0 1 .243-.04.806.806 0 0 1 .324.081c.162.081.2.081.324 0a.573.573 0 0 1 .445-.04c.081.04.243.162.364.081a.52.52 0 0 1 .283-.04c.2 0 .364-.121.566-.081s.445-.04.445.121a3.066 3.066 0 0 1-.121.647c-.04.121.04.243-.081.243-.121.04-.2-.04-.162.081 0 .121.081.121.04.283 0 .121-.04.162 0 .283a1.006 1.006 0 0 1 .04.324c.04.121.081.04.081.162s.04.324-.04.445-.04.081-.04.243 0 .566.081.485.04-.2.2-.324l.364-.364a.823.823 0 0 1 .364-.243c.243-.081.364-.081.4-.162s.2-.081.243-.243 0-.2.2-.243a2.475 2.475 0 0 0 .485-.2c.2-.081.324-.121.485-.2s.364-.081.364-.2 0-.364.121-.445a1.053 1.053 0 0 1 .566-.364 1.839 1.839 0 0 1 .566.04c.081-.04.081-.121.243-.081a.661.661 0 0 0 .283 0c.04 0 .121-.081.2-.2a1.041 1.041 0 0 1 .566-.324c.283-.081.364-.081.445-.04s.121.081.2.04a1.376 1.376 0 0 1 .566-.324.636.636 0 0 1 .486.121c.081.04.121-.121.364-.121s.283-.081.4 0a.556.556 0 0 0 .324.2c.162.04.121 0 .324.04.2 0 .526-.162.647-.04.162.121.2.162.324.162a1.23 1.23 0 0 1 .647.04 3.744 3.744 0 0 0 .4.2c.2.081.324 0 .485.121s.243.243.4.283a3.24 3.24 0 0 1 .688.324c.243.162.364.121.445.243a1.344 1.344 0 0 0 .324.445 2.347 2.347 0 0 1 .486.4c.162.2.081.2.243.324s.243.2.243.243a1.254 1.254 0 0 1 .081.283c0 .121-.081.121.081.283s.121 0 .243.2c.081.2.243.283.324.445a3.651 3.651 0 0 0 .283.445c.121.243.04.162.2.364s.243.162.243.243a1.1 1.1 0 0 0 0 .364 1.467 1.467 0 0 0 .121.283c.081.121.162.283.2.324.04.081.121.162.081.283 0 .121-.121.2-.081.324a.424.424 0 0 0 .121.243c.04.081.04.04.04.243a1.258 1.258 0 0 1-.04.445c-.04.081.081.04.081.2a1.241 1.241 0 0 1-.04.526c-.081.243-.081.243-.04.324s.081.081.2.243a1.867 1.867 0 0 1 .283.4.2.2 0 0 1-.04.283c-.121.081-.283.243-.364.283a.288.288 0 0 0-.121.243c0 .081.081.162.081.2a1.819 1.819 0 0 0 .081.324.75.75 0 0 1 .081.283.9.9 0 0 1-.04.364c-.04.04-.081.081-.04.162s.162.243.162.324c-.04.121-.121.243-.121.283a1.752 1.752 0 0 0-.04.2c0 .081.081.243.04.364s-.081.121-.162.2-.283.04-.162.2c.121.2.2.121.121.283a3.606 3.606 0 0 0-.081.445c0 .04.2.081.2.162.04.081.04.081 0 .243-.04.121-.04.2.04.2a.179.179 0 0 1 .121.243 1.665 1.665 0 0 1-.121.324c-.081.2-.04.243-.121.4s-.121.162-.121.243c.04.081.04.081 0 .364s-.081.364 0 .445.081.04.121.121a1.393 1.393 0 0 1-.04.364 1.376 1.376 0 0 0-.04.4c-.04.162-.04.243-.081.364-.081.121-.162.324-.121.4s.243.121.243.121a.189.189 0 0 1 .081.2c-.04.121-.081.081-.081.2s.081.121.081.283a.52.52 0 0 1-.04.283c-.04.081-.081.2-.04.243s.121 0 .162.081-.121.485-.121.607c0 .081-.081.081-.081.2s-.04.04 0 .2a2.25 2.25 0 0 0 .162.324 6 6 0 0 0-.04.931c0 .2.04.121.04.324a1.138 1.138 0 0 1-.04.445c-.04.04-.162 0-.04.121s.162.121.2.2c0 .081-.081.283 0 .4s0 .162-.04.2-.121 0-.121.081a.6.6 0 0 1-.121.283c-.04.04-.081.04.04.081.162.04.324.04.324.162s0 .364-.243.4c-.2.04-.364.081-.485-.04s-.121-.121-.162-.2c-.081-.081.04-.121-.121-.121a1.509 1.509 0 0 1-.485.081c-.283 0-.4.04-.566-.04a1.2 1.2 0 0 0-.4-.081c-.2 0-.243.081-.4.081-.121 0-.081-.04-.283 0-.162.04-.162 0-.364.04s-.2.04-.324 0a.952.952 0 0 0-.324-.081c-.121 0-.121.04-.324.04s-.243.081-.364.04-.2-.121-.324-.081a1.12 1.12 0 0 1-.364.04c-.121 0-.324-.04-.324-.2a.52.52 0 0 0-.04-.283.248.248 0 0 1 .04-.243c.081-.04.081-.081.081-.162s.04 0 .04-.162.04-.162-.04-.243-.04-.162-.04-.364-.04-.121 0-.283a.564.564 0 0 0 0-.445c-.081-.121-.2-.121-.2-.283s-.04-.081.04-.283.121-.2.121-.283.121-.121 0-.243-.243-.121-.2-.243c.081-.121.121-.162.121-.2.04-.04.243-.243.162-.4s-.2-.121-.081-.283.2-.121.121-.324-.121-.324-.162-.4-.04-.04-.04-.364v-.485c-.04-.121-.081-.121-.04-.243.04-.162.121-.04.04-.243-.121-.2-.243-.162-.2-.4a.952.952 0 0 1 .162-.485c.04-.081.121-.121.04-.243a.457.457 0 0 1-.04-.324.768.768 0 0 0 .121-.364.763.763 0 0 1-.04-.445c.04-.243 0-.162-.04-.4a1.014 1.014 0 0 1 .04-.4c.081-.121.162-.04.121-.283a1.781 1.781 0 0 0-.081-.4 2.49 2.49 0 0 1-.121-.728 1.382 1.382 0 0 1 .081-.607c.081-.2.2-.121.121-.324a3.451 3.451 0 0 1-.162-.607.68.68 0 0 1 .081-.445c.121-.162.162-.2.121-.364s-.081-.364-.121-.485a.641.641 0 0 1-.04-.607c.121-.162.121-.2.081-.283a.666.666 0 0 1-.04-.4.513.513 0 0 0 .04-.243.7.7 0 0 0-.04-.4c-.081-.121 0-.162-.162-.324-.162-.121-.2-.2-.283-.2-.081-.04-.162-.081-.121-.2.081-.121.324-.445.162-.485s-.162-.04-.162-.2.04-.243-.04-.324-.121.04-.2-.121-.04-.243-.162-.283-.162-.162-.2-.243-.081-.081-.162-.121-.121.04-.121-.121.04-.2-.04-.243c-.04-.081 0 0-.121-.162-.121-.121-.121-.162-.2-.162a1.753 1.753 0 0 0-.2-.04c-.081 0 .162-.04-.121-.04s-.2.121-.4-.04c-.162-.2-.2-.243-.283-.2s.162 0-.162.04-.364.081-.486 0-.162-.2-.283-.243-.243-.2-.324-.2-.324-.081-.4 0c-.121.081.04.081-.2.121a3.067 3.067 0 0 1-.85.04.628.628 0 0 0-.4.04c-.081.04-.324.04-.445.081s-.04-.04-.243.081a1.84 1.84 0 0 1-.445.121c-.081.04-.162.04-.2.081s-.121.324-.243.4c-.121.04-.2.04-.364.081s-.121-.162-.2.121-.04.364-.121.4c-.121.04-.243-.04-.283.081-.081.121-.2.324-.283.445a.271.271 0 0 1-.283.162c-.121 0-.283-.04-.364 0a1.511 1.511 0 0 0-.283.243 4.028 4.028 0 0 1-.4.445c-.121.081-.121.121-.2.162-.081 0-.162-.04-.121.04.04.121.081.162.04.283a3.754 3.754 0 0 1-.162.526c-.081.162-.162-.04-.243.162a.544.544 0 0 0-.081.364c0 .2.081.324.081.445 0 .162.081.2.04.4v.566c0 .162 0 .081-.04.2s-.04-.04-.04.162-.04.162 0 .364a1.687 1.687 0 0 0 .081.243 2.4 2.4 0 0 1-.04.445c-.04.283-.081.2 0 .4a1.848 1.848 0 0 1 .04.647c-.04.121-.162-.081-.121.243.081.324.081.364.121.485s.121.2 0 .243-.081 0-.162.121-.2.4-.081.324.324-.2.283-.04-.04.364-.081.566.04.121-.04.364c-.081.283-.2.364-.121.485.04.121.04.162.121.2.121.04.2-.081.2.081s.081.2.04.364c-.04.121-.081.121-.081.243-.04.121-.081.162-.04.283a1.434 1.434 0 0 1 .121.445c-.04.162-.04.121-.081.283s-.121.283-.081.364a1.266 1.266 0 0 1 .2.4c.04.121.081.121-.04.162-.121 0-.2.081-.162.081.04.04.081.283.121.243.04-.081.081-.121.081.04a.9.9 0 0 1-.121.4c-.04.162-.081.2 0 .243.081.081.2.081.121.2-.04.121-.121.121-.121.162s-.081.081-.04.2.2.04.162.162-.04.081-.162.243c-.081.162-.243.324 0 .324.2 0 .324-.04.324.04s0-.04-.04.162-.081.324-.162.364c-.04.04-.121.081-.081.162 0 .121.121.04.081.243-.081.162-.121.04-.121.2s-.04.243.04.324.081 0 .121.121c0 .121 0 .04.04.2a1.181 1.181 0 0 1 .081.364c0 .162-.04.2-.04.364a.232.232 0 0 0 .081.283.232.232 0 0 1 .081.283c0 .162.04.121.081.283 0 .162.04.243-.121.283s-.324.121-.485.04.04-.162-.243-.121-.283-.162-.445 0-.121.243-.364.243-.324.162-.485-.04c-.162-.162-.081-.2-.283-.243a.729.729 0 0 0-.4.04.805.805 0 0 1-.526.04 1.07 1.07 0 0 1-.364 0c-.243-.04-.121-.081-.324-.04-.2 0-.121.081-.324.121a1.092 1.092 0 0 1-.486.04c-.121-.04-.04-.2-.324-.121s-.324.121-.445.081a.7.7 0 0 1-.283-.162c-.2-.121-.283-.081-.2-.2a1.972 1.972 0 0 1 .121-.283c0-.121.162-.2.162-.324 0-.162-.04-.162 0-.324.04-.121.081-.081 0-.243a.487.487 0 0 1-.081-.324c0-.162-.04-.121 0-.283.081-.162 0-.2 0-.445a1.127 1.127 0 0 1 .04-.4c.04-.121 0-.081 0-.4a.9.9 0 0 1 .081-.485 2.054 2.054 0 0 0-.081-.364.61.61 0 0 1-.04-.566c.121-.324-.04-.243.04-.445a.729.729 0 0 0 .081-.4c.04-.2.2-.2.04-.364-.121-.162-.162-.121-.2-.162s-.081-.121-.04-.324a2.137 2.137 0 0 0 .04-.485c-.04-.162-.162-.243-.081-.4.121-.162.2 0 .121-.283s-.121-.526-.162-.607a2.525 2.525 0 0 1 .081-.688 1.228 1.228 0 0 0 .121-.445c0-.162.121-.2.04-.364-.04-.162-.121-.121-.121-.243s.081-.243.081-.445c.04-.2 0-.243-.121-.445-.081-.2-.283-.162-.243-.445a3.3 3.3 0 0 0 .04-.566c.04-.2.162-.121.121-.283-.04-.2-.04-.081-.121-.2s-.243-.2-.2-.445.121-.364.121-.485c0-.162-.081-.526-.243-.324-.121.2-.121.324-.243.2s-.2-.162-.324-.121c-.121.081-.081.04-.283.162-.2.081-.162.04-.324.04-.121 0-.243-.04-.324.04a.71.71 0 0 0-.162.2c-.081.081-.121.162-.162.2-.04 0-.162 0-.2.04.303.011.141.092-.061.052z" data-name="パス 837"/><path d="M102.242 18.759s.162-.243.081-.324-.162-.2-.243-.283a.966.966 0 0 1-.081-.364c0-.121-.283-.2-.2-.4.081-.162.121-.162.04-.283s-.283-.364-.081-.364.485.081.647-.081c.162-.2.2-.324.364-.243.121.081.081.121.324.081s.162-.162.647-.243c.445-.081.526-.081.647-.162.121-.121.4-.162.485-.283a1.89 1.89 0 0 0 .2-.4c.081-.121.485-.4.485-.485v-.162c0-.121-.04-.243 0-.324s.081-.04.2-.243.081-.162.162-.243.121-.081.121-.2a.571.571 0 0 0 .04-.364c-.04-.121 0-.243-.081-.4-.04-.2-.04 0-.04-.445s-.081-.647 0-.809c.121-.162-.04-.162-.081-.162s-.162-.081-.121-.162.2-.162.243-.283.162-.121.04-.243-.121-.121-.121-.2-.2-.2-.121-.324.243-.324.364-.324.243-.081.324.04a.477.477 0 0 0 .2.2c.081.04.121.081.2 0 .121-.081.081-.081.243-.121.162 0 .121-.04.324 0a2.825 2.825 0 0 0 .485.121c.121-.04.283-.121.4-.162a.955.955 0 0 1 .486-.04 2.787 2.787 0 0 0 .324.121 1.376 1.376 0 0 0 .4.04 1.065 1.065 0 0 1 .486.04c.243.081.2.081.364.04a3.757 3.757 0 0 1 .526-.162 1.075 1.075 0 0 1 .607.04c.283.121.283.081.243.162a.444.444 0 0 0-.081.364 1.017 1.017 0 0 1-.081.607c-.121.162-.2.121-.2.283a2.237 2.237 0 0 0-.04.364 2.221 2.221 0 0 0-.04.688c0 .162-.04.607.04.526s-.04-.2.324-.2.364.04.445-.04a1.091 1.091 0 0 1 .324-.283 1.412 1.412 0 0 1 .364-.243c.162-.081.324-.081.4-.2.081-.081.081-.243.2-.324a3.411 3.411 0 0 1 .566-.243c.081-.04.162.04.243-.081s.121-.04.283-.2.2-.283.364-.364a3.5 3.5 0 0 1 .4-.283c.162-.04.04-.081.283-.081s.324.04.364-.04a1.281 1.281 0 0 1 .2-.243c.04 0 .243-.081.364-.04s.2.081.243.04a.877.877 0 0 1 .283-.243 1.015 1.015 0 0 1 .4-.081c.2 0 .283.081.4.04.121-.081.04.04.2-.121s.2-.2.324-.243c.162-.04.081-.121.324-.04a3.726 3.726 0 0 0 .364.121.967.967 0 0 0 .526.04c.364-.04.4-.2.445-.121s0 .162.2.162.04-.081.364-.081a1.276 1.276 0 0 1 .769.04c.4.121.486 0 .647.2s.081.2.243.283c.162.04.243.04.283.081a3.229 3.229 0 0 1 .647.2c.324.162.243.081.4.243s.081 0 .364.2.283.121.324.243.04.243.2.324.324.081.4.162a7.8 7.8 0 0 1 .647.607c.162.2.121.283.243.4s.162.121.162.243-.121.081 0 .2.121.162.2.243.4.324.445.485a1.375 1.375 0 0 0 .04.4c.04.162.324.809.4 1.011s.121.121.121.4c.04.283.04.324.081.566a2.04 2.04 0 0 1 .04.85c-.081.2-.121.243-.081.324.04.04.243.081.243.243s-.162.2-.162.324.081.121.04.283c-.04.2-.283.2-.162.324.081.162.121.121.2.243s-.081.283.04.445.081.2 0 .243a.2.2 0 0 0-.081.243c.04.162-.243.162-.04.364.243.2.162.243.162.364s.121.526-.04.728-.121.243-.081.364c.04.081-.04.162-.04.283s.243.162.162.243-.162.162-.162.2c.04.04 0 .2.121.243s0 .162-.04.283-.162.162-.121.243a.342.342 0 0 0 .081.243c.081.121.04.081.081.2s.081.081.081.2a.513.513 0 0 0-.04.243c0 .081-.121.364-.04.485a3.069 3.069 0 0 1 .162.445c.04.081.04.121-.04.243-.04.121 0 .2-.121.364a.254.254 0 0 0-.04.324c.04.081.2.162.2.283 0 .081.081.2.04.324a3.079 3.079 0 0 0-.162.445.332.332 0 0 0-.04.283 1.969 1.969 0 0 1 .121.283 1.256 1.256 0 0 0 .081.283.79.79 0 0 1 .04.283c0 .04-.04.364-.04.4 0 .081-.04.04 0 .243.04.162.081.162.04.243-.04.121.04.364 0 .4a.427.427 0 0 0 0 .243.688.688 0 0 1 .04.283c-.04.162-.121.162-.081.4a4.213 4.213 0 0 0 .04.445 1.766 1.766 0 0 1 .2.607v.445c0 .2.081.2 0 .445a2.284 2.284 0 0 1-.081.4c-.04.081-.04-.04 0 .162s.081.243.04.364c0 .081 0 .121.121.243a1.9 1.9 0 0 1 .364.485c0 .081 0 .081-.121.121s-.2 0-.2.121c0 .081 0 .283-.324.324s-.324.121-.607.04c-.283-.121-.364-.2-.486-.2a3.225 3.225 0 0 1-.445.04.988.988 0 0 1-.526-.081c-.04-.04-.081-.04-.283 0s-.162.121-.4 0-.121-.2-.364-.2a2.583 2.583 0 0 0-.566 0c-.121 0-.283-.04-.324 0a.72.72 0 0 1-.445.121 1.205 1.205 0 0 0-.526.04c-.283.04-.647-.081-.607-.324a1.227 1.227 0 0 1 .2-.4c.04-.121.081-.162 0-.283a1.365 1.365 0 0 1-.162-.485 1.491 1.491 0 0 1 .162-.364c.081-.243.162-.2.081-.324s-.162 0-.121-.283.04-.445.121-.526c.081-.121.121-.121.04-.283-.121-.162.04-.121-.121-.243a.644.644 0 0 1-.2-.4c0-.121.081-.081.04-.324a.8.8 0 0 1 .04-.566c.081-.081.04-.081.2-.162.121-.081.283.04.162-.2a.528.528 0 0 1-.081-.526c.04-.121.04 0 .04-.162s-.04-.121-.04-.324-.081-.243-.162-.4-.081-.081-.081-.243-.04 0-.04-.243c0-.283.081-.243.121-.364.04-.162 0-.081.121-.283s.2-.2.081-.324-.283-.162-.243-.283.081-.04.081-.121c0-.121-.081-.04-.081-.162 0-.081-.04-.121.081-.243.121-.162.162-.243.162-.324 0-.04.081-.081-.04-.4s-.162-.283-.121-.485a1.031 1.031 0 0 1 .081-.526c.081-.121.121-.121.04-.243s-.121-.04-.081-.2a1.06 1.06 0 0 0 .04-.607.593.593 0 0 1-.081-.445c0-.162.04-.324.04-.4a2.181 2.181 0 0 1-.04-.324c.04-.162.081-.162.081-.324s0-.2-.081-.283c-.081-.04-.081-.162-.04-.283a.749.749 0 0 0 .081-.283.3.3 0 0 0-.081-.243.388.388 0 0 1-.081-.364c0-.162-.081-.243-.081-.4a1.014 1.014 0 0 1 .04-.4c.04-.081.081-.04.04-.243s-.04-.243-.162-.324a.462.462 0 0 1-.121-.243c-.04-.081 0-.162-.04-.324a2.572 2.572 0 0 1-.081-.283c-.04-.2 0-.485-.04-.566-.081-.121-.162-.081-.283-.2-.121-.081-.162-.081-.2-.243a1.989 1.989 0 0 0-.162-.4.68.68 0 0 1-.081-.445c0-.081-.04-.081-.2-.162a1.187 1.187 0 0 0-.4-.121c-.2-.04-.2 0-.364-.162-.2-.162-.121-.162-.2-.283-.081-.081-.121-.162-.243-.121a.541.541 0 0 1-.364-.04c-.121-.04-.2-.162-.4-.162-.243 0-.121.081-.445-.04a2.364 2.364 0 0 0-.526-.2 3.387 3.387 0 0 0-.4.081c-.162 0-.162-.081-.445 0a4.471 4.471 0 0 0-.526.162c-.081.04-.2.04-.283.081a1.3 1.3 0 0 0-.2.121c-.162.121-.243.364-.283.2s.243-.283-.04-.243c-.283 0-.4.081-.486.243s-.121.2-.243.243-.324.162-.566.243c-.2.121-.162 0-.324.121s-.243.081-.445.2-.121-.04-.283.162a3.216 3.216 0 0 1-.526.566c-.283.283-.324.243-.364.4a.613.613 0 0 1-.162.324c-.121.162-.121.121-.162.2s.04.2-.121.243c-.121.04-.4-.081-.364.162.081.243.243.243.162.445-.04.2-.283.324-.324.485s.04.283 0 .4v.526a2.306 2.306 0 0 1-.04.526.69.69 0 0 0 0 .4 1.312 1.312 0 0 1 0 .688c-.04.121.081.243.04.364 0 .121-.2.283-.2.485s.243.728.2.89a2.793 2.793 0 0 0-.121.324 3.272 3.272 0 0 0-.04.647 1.815 1.815 0 0 1 .04.485c0 .243-.081.2-.04.364a.5.5 0 0 1 .081.283c.04.04.04.162.081.4 0 .2.121.243-.04.445-.121.2-.243.162-.2.4s0 .283.081.364a2.009 2.009 0 0 1 .081.728c-.04.162-.162-.04-.121.243s.162.526.162.607a5.6 5.6 0 0 1 .04 1.173c-.081.121-.2.04-.162.283.04.283.04.243.081.324s-.04.162 0 .485c0 .324-.081.364 0 .485s.243.081.2.283c-.04.243-.243.283-.243.485s-.162.364.04.526c.2.2.243-.081.243.364s-.162.566-.081.728.121-.04.121.283c0 .283.04.526-.283.526s-.243-.04-.688-.04-.121-.162-.607-.081a7.587 7.587 0 0 1-.85.04c-.283 0-.283-.04-.526-.04s-.647.04-.647-.081.243-.243-.283-.081-.607 0-.728.121c-.162.081-.04.162-.283.162s-.647.04-.809-.2-.283-.162-.162-.364c.121-.162.243-.2.283-.283s.081-.081 0-.243-.2-.162-.121-.283c.081-.162.121 0 .081-.243s-.121-.2-.04-.324.04-.121.121-.324.121 0 .081-.283c-.04-.243-.081-.2-.121-.364s0-.2.04-.364c.081-.162.04-.162-.04-.283s-.162-.121-.081-.243.2-.081.121-.283a2.793 2.793 0 0 0-.121-.324c-.04-.121-.162-.283 0-.364.162-.121.04-.243 0-.283s-.081-.081-.081-.4a4.771 4.771 0 0 1 .081-.89 1.288 1.288 0 0 0 0-.4c-.04-.243-.04-.283.04-.4s.081-.081.121-.243 0-.2-.04-.4-.081-.243-.04-.364a.762.762 0 0 0 .081-.324c0-.162.04.081 0-.283a3.468 3.468 0 0 0-.121-.526c-.081-.243-.04-.04-.04-.364a1.3 1.3 0 0 1 .04-.566c.081-.283.162-.283.162-.485a1 1 0 0 0-.04-.364 1.72 1.72 0 0 0-.081-.445c-.04-.2 0-.162 0-.364 0-.162.081-.2 0-.364s-.162-.081-.121-.283c.04-.162.081-.121-.04-.283s-.324-.162-.243-.324.243-.243 0-.283-.4-.04-.4-.2c0-.121-.162.04-.2.081s-.121 0-.243.121-.081.2-.243.243c-.121.081-.162.162-.324.121a.547.547 0 0 0-.364 0c-.081.04.04.081-.121.121a1.667 1.667 0 0 0-.364.081.539.539 0 0 1-.2.121.4.4 0 0 1-.4-.081c-.081-.081-.162-.081-.081-.243a.612.612 0 0 0 .081-.324.44.44 0 0 0-.04-.2 1.879 1.879 0 0 0-.121-.364c-.04-.081-.081-.121-.081-.2.04-.081.162-.121.081-.243s-.04-.121-.162-.243c-.058-.337-.301-.62-.22-.863z" data-name="パス 838"/><path d="M161.836 21.469c-.04-.081.081-.081.081-.364a1.442 1.442 0 0 0-.243-.607 2.166 2.166 0 0 1 0-.526c-.04-.2.04-.162.081-.4a2.113 2.113 0 0 0-.162-.85c-.081-.2-.04-.243 0-.485 0-.243-.081-.2-.121-.283-.04-.04-.04-.162-.04-.324s-.081-.2-.243-.445-.081-.121-.081-.243a1.187 1.187 0 0 0-.121-.4 3.209 3.209 0 0 1-.162-.364c-.04-.162-.04-.283-.081-.4-.04-.162-.121-.081-.2-.162-.04-.121 0-.081-.2-.243-.243-.162-.121-.2.04-.243.2-.04 0-.243-.04-.485 0-.243-.081-.243-.162-.4-.121-.162-.121-.081-.324-.283a2.466 2.466 0 0 0-.486-.364c-.121-.081-.2-.121-.243-.283a3.556 3.556 0 0 0-.283-.526c-.121-.2-.324-.364-.4-.485s-.243-.162-.4-.324c-.2-.2-.121-.162-.2-.324a1.538 1.538 0 0 0-.445-.445 2.3 2.3 0 0 0-.809-.283c-.4-.121-.243.04-.445.04-.2.04-.162-.121-.364-.364a3.553 3.553 0 0 0-.607-.485c-.243-.162-.324-.04-.486-.081a2.938 2.938 0 0 1-.566-.243c-.2-.121-.2.121-.364 0-.121-.121-.364-.081-.607-.2-.283-.162-.283.081-.4.121s-.283.04-.647-.2-.324-.162-.526-.081c-.162.081-.162.04-.324.081-.162.081-.283.162-.485.04a1.449 1.449 0 0 0-.445-.162c-.243-.081-.2.121-.243.121a.806.806 0 0 0-.4-.04 8.079 8.079 0 0 0-.85.162c-.081.04-.2 0-.4-.04s-.364.162-.486.2-.243 0-.324.04a1.211 1.211 0 0 1-.4.162.729.729 0 0 0-.4.04 1.347 1.347 0 0 1-.607.2c-.162 0-.2.121-.485.2a2.109 2.109 0 0 0-.607.243c-.162.121-.485.364-.485.485s-.2.081-.4.121a.678.678 0 0 0-.364.283.472.472 0 0 1-.243.243l-.162.162c-.04.04-.121-.04-.243 0s-.243.283-.4.445a1.648 1.648 0 0 0-.566.485c-.121.2-.566.607-.607.688s-.162.081-.283.283a4.52 4.52 0 0 0-.4.647 1.73 1.73 0 0 0-.121.688c0 .121-.081.121-.162.283a3.392 3.392 0 0 0-.162.485c-.04.081-.2.162-.526.485a1.116 1.116 0 0 0-.243.769 2.447 2.447 0 0 0 0 .769c.04.243-.081.2-.121.566a1 1 0 0 1-.162.445.72.72 0 0 1-.445.324c-.2.04-.162-.081-.243-.162s-.2.121-.486 0c-.324-.081-.243 0-.4 0-.2 0-.243-.121-.364-.2-.121-.04-.243.04-.4.04-.121 0-.081-.04-.243-.2s-.243-.2-.364-.2-.324.162-.445.4 0 .4.081.607c.081.243 0 .081-.081.243a2.137 2.137 0 0 0-.121.485c-.04.2 0 .081.081.243.121.162.04.162-.04.324s0 0-.04.283 0 .2.081.4-.081.162-.2.283 0 .04.04.162.081.121.04.243a.437.437 0 0 0 0 .445c.121.162.324.445.324.445a.679.679 0 0 0 .526.162 3.034 3.034 0 0 0 .485-.04 1.4 1.4 0 0 0 .486-.04c.162-.04.2.04.324.162a.777.777 0 0 0 .486.162c.162 0 .081-.04.364-.081s.121.081.283.283c.2.2 0 .162-.04.324s0 .162.04.364c.081.243.121.243.162.4.081.162.04.162.081.283s.081.081.121.324c.04.283-.04.121.081.283.121.121.162.364.364.445s0 .243 0 .324a.908.908 0 0 0-.04.4c0 .243.283.4.364.485.121.081.121.081.324.4.162.324 0 .121 0 .324 0 .162.081.2.2.445a2.4 2.4 0 0 1 .2.485.61.61 0 0 0 .324.162c.121 0 .162.162.2.2a1.454 1.454 0 0 1 .2.364 1.663 1.663 0 0 1 .081.364c.04.2.162.121.324.2a1.457 1.457 0 0 1 .2.162c.04.04.081.2.162.364s.081.162.2.243a1 1 0 0 0 .4.162c.243.04.121.04.243.2s.04.243.162.4a.559.559 0 0 0 .445.243c.162 0 .162-.081.486.243.283.324.081.2.243.243a3.915 3.915 0 0 0 .486.081c.283.04.081.121.364.121a1.517 1.517 0 0 1 .445.04c.243.04.243.121.324.243s.2.121.364.121a.633.633 0 0 1 .4.121c.2.081.081.081.283.162s.04.121.283.2c.243.121.324-.081.486-.121s.2.081.445.243.162.2.4.243a1.258 1.258 0 0 0 .445-.04c.121-.04.324 0 .607-.04a.656.656 0 0 1 .526.081 3.951 3.951 0 0 0 .769.04c.283 0 .364-.04.769-.04a3.3 3.3 0 0 1 .364-.04c.2 0 .2-.04.4-.04.162-.04.2 0 .364-.04.121-.04.283 0 .4-.04a6.969 6.969 0 0 0 .809-.04 3.042 3.042 0 0 0 .607-.121c.162 0 .283-.162.364-.243s.162.04.4.04a1.814 1.814 0 0 0 .485-.04c.2-.04.324-.081.364-.162.081-.081.081-.121.4-.081.283.04.445-.121.728-.2.243-.04.2-.121.324-.2.081-.081.2.081.243.162s.081.04.2-.283c.162-.324.162-.04.324-.2a2.738 2.738 0 0 1 .647-.243c.324-.162.364-.081.607-.121s.162-.2.324-.364c.121-.162.2.04.2.081-.04.081.243.081.445-.121a.848.848 0 0 0 .162-.809c-.081-.243 0-.2.081-.324s-.121-.2-.2-.324c-.04-.162.121-.2.162-.485s.04-.526.081-.688c.081-.162 0-.121 0-.324 0-.162.04-.162.121-.364s.081-.243.04-.324a.626.626 0 0 1-.081-.324 1.2 1.2 0 0 0 .081-.4c.04-.2-.121-.162-.2-.243s-.121-.081-.486-.04-.162.121-.283.243-.2.162-.243.243-.081.2-.243.2c-.121 0-.121.121-.324.2a3.212 3.212 0 0 0-.364.162.4.4 0 0 0-.2.2s-.4.081-.647.121-.243.243-.566.283c-.364.081-.324.2-.364.283s-.081 0-.486 0-.364.081-.566.121-.283.121-.566.2c-.243.121-.283.162-.445.081s-.364 0-.526 0-.283.121-.486.2a1.58 1.58 0 0 1-.688-.081c-.4-.081-.2 0-.364.121s-.283 0-.486-.121c-.243-.081-.688.121-.971.121s-.243 0-.364-.04-.121-.081-.324-.162a1.247 1.247 0 0 0-.566-.04h-.324c-.2 0-.121-.04-.283-.081s-.162-.081-.283-.2-.2-.121-.526-.2c-.324-.121-.121.081-.243.081s-.121 0-.364-.121-.243-.081-.485-.2a1.937 1.937 0 0 0-.445-.2c-.162-.081-.2-.121-.566-.283-.324-.162-.283-.2-.324-.445-.081-.2-.121-.121-.162-.243a1.419 1.419 0 0 1-.2-.324c-.04-.121-.243-.162-.4-.324-.121-.121-.081-.2-.2-.283a.5.5 0 0 1-.243-.364 1.057 1.057 0 0 0-.121-.324.652.652 0 0 1-.162-.283c-.121-.2-.081-.081-.121-.324a5.958 5.958 0 0 0-.283-.688 1.766 1.766 0 0 0-.364-.526c-.121-.2.081-.2.2-.364s.162-.081.2-.121a1.436 1.436 0 0 0 .283.04 1.734 1.734 0 0 0 .485-.081 1.452 1.452 0 0 1 .445 0h.566c.283 0 .283 0 .364-.081s.081.04.324 0h.4c.283 0 .2.04.445.081.283.04.162 0 .485-.04s.162 0 .04.081.081.04.526.04h.243l.121.04c.283.081.081.04.445.04s.4-.162.526-.2a.649.649 0 0 1 .486 0c.243.081.283.121.445.162s.283-.081.4-.162c.081-.081.364.081.526.121s.243-.081.4-.081a2.584 2.584 0 0 1 .566 0c.283 0 .2 0 .485-.121.243-.121.2-.04.485-.081s.2 0 .364.04a2.488 2.488 0 0 0 .445.121c.162 0 .162-.081.526-.121s.2-.081.485-.121c.283-.081.2 0 .445.04s.283-.04.566-.081.162-.04.324-.2.2.081.4.081a.627.627 0 0 0 .324-.081c.121 0 .324-.04.566-.04.243-.04.243.04.566.04a1.286 1.286 0 0 0 .566-.081c.243-.081.243.04.485 0a2.147 2.147 0 0 0 .445-.121c.121-.04.2.04.364.04.121 0 .121-.04.283-.121s.081-.445.081-.607c-.04-.162.081-.2.081-.324a2.33 2.33 0 0 0-.086-.404zm-5.785-1.78c-.121.04-.283 0-.445.081-.2.081-.162.121-.2.121s-.2-.081-.243-.081c0 .04-.162.081-.364.121-.162.081-.2.121-.283.162s-.162 0-.2.04a.076.076 0 0 1-.121 0c-.04 0-.081-.081-.2-.04-.121 0-.243-.121-.324-.081s0-.04-.2.04-.364 0-.445.04a1.437 1.437 0 0 0-.364.162c-.04.081 0 .081-.2.081a.7.7 0 0 1-.324-.04c-.121-.04-.162-.121-.364-.121h-.364c-.2.04-.121.04-.283 0s-.2-.081-.243 0 0 .162-.121.121c-.081-.04-.162-.121-.283-.04a1.211 1.211 0 0 1-.324.162c-.081 0-.081.081-.2 0-.162-.081-.2-.162-.243-.162s0-.162-.121-.162-.081-.04-.283-.04c-.243 0-.283.04-.364 0-.121-.04-.04 0-.2.081a2.488 2.488 0 0 1-.445.121.75.75 0 0 1-.283.081c-.121 0-.364-.04-.4 0-.081 0-.081 0-.121.04s-.081.04-.162 0c-.081 0-.121-.04-.162 0-.081.04-.081.081-.162 0-.121-.04-.162-.121-.283-.081a.443.443 0 0 1-.324 0c-.121-.04 0-.121-.243-.162-.243 0-.243-.081-.526-.081s-.162-.04-.364 0c-.526.04-.526-.04-.526-.04a.4.4 0 0 0-.04-.283.363.363 0 0 1-.081-.364c.04-.2 0-.243.081-.324.04-.081.243-.324.243-.4s-.081-.04 0-.243c.081-.162.081-.2.04-.283 0-.081-.04-.121-.04-.243s-.04-.243 0-.324.04-.081.283-.283c.243-.162.162-.162.283-.283s.081-.162.121-.243a.868.868 0 0 0 .162-.283c.04-.121.04-.162.162-.243s.162-.081.283-.162c.081-.081.2-.2.2-.243a1.417 1.417 0 0 1 .081-.4c.081-.283 0-.2.162-.364.162-.121.162-.2.324-.243s.526-.162.607-.324c.081-.121.2-.2.243-.283a3.647 3.647 0 0 1 .4-.364c.121-.081.121-.121.2-.081s.283.081.324 0 .081-.2.162-.121a.232.232 0 0 0 .283.081c.162-.04 0-.081.324-.081s.324 0 .486-.081c.121-.081.364-.324.364-.2 0 .081-.041.162.081.121.121 0 .2-.081.364-.162a.317.317 0 0 1 .324-.04 1.2 1.2 0 0 0 .4.081c.2.04.121 0 .2-.04a.443.443 0 0 1 .324 0c.121.04.121-.04.283.081a3.916 3.916 0 0 1 .364.283 1.67 1.67 0 0 0 .607.283c.121 0 .283.04.324.162s.121.081.324.324a1.04 1.04 0 0 0 .4.364c.121.081.364.121.4.162.04.081 0 .081.081.162l.2.2c.081.081.121.081.162.2a5.41 5.41 0 0 0 .243.485c.04.081.283.121.283.243.04.121.04.04.04.283a1.406 1.406 0 0 0 .081.526.6.6 0 0 1 .121.283c0 .121.283.445 0 .445s-.162.121-.04.283.2.283.162.364 0 .243-.081.324a.565.565 0 0 0-.121.364.387.387 0 0 0 .081.283c-.038.157.164.238.043.278z" data-name="パス 839"/></g></svg>