<svg xmlns="http://www.w3.org/2000/svg" viewBox="0 0 213.06 56.304"><g transform="translate(.025 .01)"><path d="M101.505 33.337c-2.184-2.45-5.379-3.675-9.64-3.675H81.692a.979.979 0 0 0-1.012 1.012v24.554a1.048 1.048 0 0 0 1.012 1.012h10.173a12.642 12.642 0 0 0 9.374-3.622c2.344-2.4 3.515-5.7 3.515-9.8a14.117 14.117 0 0 0-3.249-9.481zm-5.166 15.606a6.385 6.385 0 0 1-4.847 1.971h-4.048a.477.477 0 0 1-.479-.479V35.414a.477.477 0 0 1 .479-.479h4.314a5.7 5.7 0 0 1 4.847 2.184 9.229 9.229 0 0 1 1.651 5.646c0 2.822-.639 4.846-1.917 6.178zm20.613-12.57a9.961 9.961 0 1 0 10.12 9.96 9.947 9.947 0 0 0-10.12-9.96zm.053 14.647a4.7 4.7 0 1 1 4.314-4.687 4.457 4.457 0 0 1-4.314 4.687zm36.697-14.647c2.5 0 4.314.746 5.433 2.29a9.344 9.344 0 0 1 1.7 5.646v10.919a1.011 1.011 0 0 1-1.012 1.012h-4.474a1.011 1.011 0 0 1-1.012-1.012V44.473a2.8 2.8 0 0 0-.639-2.024 2.406 2.406 0 0 0-1.758-.692 4.935 4.935 0 0 0-1.811.426 3.09 3.09 0 0 0-1.864 2.823l.053 10.28a1.011 1.011 0 0 1-1.012 1.012h-4.474a1.011 1.011 0 0 1-1.012-1.012V44.473a2.8 2.8 0 0 0-.639-2.024 2.406 2.406 0 0 0-1.758-.692 4.065 4.065 0 0 0-1.651.373 2.855 2.855 0 0 0-1.758 2.663v10.488a1.011 1.011 0 0 1-1.012 1.012h-4.421a1.011 1.011 0 0 1-1.012-1.012v-17.9a1.011 1.011 0 0 1 1.012-1.012h4.421a1.011 1.011 0 0 1 1.012 1.012v.426a4.038 4.038 0 0 1 1.278-.639 9.547 9.547 0 0 1 3.888-.746 7.26 7.26 0 0 1 3.355.692 6.1 6.1 0 0 1 2.239 1.759 13.387 13.387 0 0 1 3.036-1.651 9.155 9.155 0 0 1 3.892-.849zm23.915 2.184a7.96 7.96 0 0 0-5.859-2.184 17.366 17.366 0 0 0-4.208.586 20.2 20.2 0 0 0-2.716.905 1.057 1.057 0 0 0-.586 1.278l1.065 2.77a.947.947 0 0 0 1.278.586 15.926 15.926 0 0 1 1.545-.479 11.407 11.407 0 0 1 2.5-.373 2.833 2.833 0 0 1 1.811.692 2.971 2.971 0 0 1 .852 1.438h-2.77a8.756 8.756 0 0 0-5.326 1.491 5.258 5.258 0 0 0-2.024 4.527 6.265 6.265 0 0 0 1.758 4.634 7.3 7.3 0 0 0 5.326 1.758 4.523 4.523 0 0 0 3.036-1.118v.105a1.011 1.011 0 0 0 1.012 1.012h4.474a1.011 1.011 0 0 0 1.012-1.012v-11.4a6.937 6.937 0 0 0-2.18-5.216zm-4.367 11.132a1.425 1.425 0 0 1-.639 1.225 6.459 6.459 0 0 1-.852.533 3.149 3.149 0 0 1-1.491.32 1.438 1.438 0 0 1-1.172-.533 1.778 1.778 0 0 1-.479-1.225 2.275 2.275 0 0 1 .533-1.545 1.824 1.824 0 0 1 1.438-.639h2.237a.477.477 0 0 1 .479.479v1.385zm16.457-10.759v16.351a1.011 1.011 0 0 1-1.012 1.012h-4.421a1.011 1.011 0 0 1-1.012-1.012V38.93a1.011 1.011 0 0 1 1.012-1.012h4.421a1.011 1.011 0 0 1 1.012 1.012zm15.925-2.557c2.663 0 4.527.746 5.646 2.29a9.344 9.344 0 0 1 1.7 5.646v10.919a1.011 1.011 0 0 1-1.012 1.012h-4.421a1.011 1.011 0 0 1-1.012-1.012V44.473a2.613 2.613 0 0 0-.746-2.024 2.807 2.807 0 0 0-1.917-.692 6 6 0 0 0-1.917.426 3.123 3.123 0 0 0-1.971 2.876v10.222a1.011 1.011 0 0 1-1.012 1.012h-4.421a1.011 1.011 0 0 1-1.012-1.012v-17.9a1.011 1.011 0 0 1 1.012-1.012h4.421a1.011 1.011 0 0 1 1.012 1.012v.479s.692-.32 1.545-.692a13.04 13.04 0 0 1 4.105-.795zm-19.176-.264a3.25 3.25 0 1 0 0-6.5 3.25 3.25 0 1 0 0 6.5zM91.279 20.874l-4.421-7.563a.329.329 0 0 0-.373-.107.285.285 0 0 0-.16.213v10.919a.9.9 0 0 1-.905.905h-3.888a.9.9 0 0 1-.905-.905V2.392a.9.9 0 0 1 .905-.905h4.314a.85.85 0 0 1 .746.426l5.7 9.321a.493.493 0 0 0 .639.16l.16-.16 5.7-9.321a.85.85 0 0 1 .746-.426h4.314a.9.9 0 0 1 .905.905v21.944a.9.9 0 0 1-.905.905h-3.888a.9.9 0 0 1-.905-.905V13.418a.252.252 0 0 0-.266-.266c-.107 0-.213.053-.213.16l-4.527 7.616a.85.85 0 0 1-.746.426h-1.225a1.042 1.042 0 0 1-.802-.48zm67.802 0l-4.421-7.563a.329.329 0 0 0-.373-.107.285.285 0 0 0-.16.213v10.919a.9.9 0 0 1-.905.905h-3.888a.9.9 0 0 1-.905-.905V2.392a.9.9 0 0 1 .905-.905h4.314a.85.85 0 0 1 .746.426l5.7 9.321a.493.493 0 0 0 .639.16l.16-.16 5.7-9.321a.85.85 0 0 1 .746-.426h4.314a.9.9 0 0 1 .905.905v21.944a.9.9 0 0 1-.905.905h-3.888a.9.9 0 0 1-.905-.905V13.418a.252.252 0 0 0-.266-.266c-.107 0-.213.053-.213.16l-4.527 7.616a.85.85 0 0 1-.746.426h-1.225a1.042 1.042 0 0 1-.802-.48zm-44.579 4.367c-2.344 0-4.048-.746-5.007-2.077a8.424 8.424 0 0 1-1.438-5.007V8.57a.9.9 0 0 1 .905-.905h3.941a.9.9 0 0 1 .905.905v9.481a2.638 2.638 0 0 0 .586 1.811 2.127 2.127 0 0 0 1.651.639 3.8 3.8 0 0 0 1.545-.373 2.552 2.552 0 0 0 1.651-2.45V8.57a.9.9 0 0 1 .905-.905h3.941a.9.9 0 0 1 .905.905v15.819a.9.9 0 0 1-.905.905h-3.94a.9.9 0 0 1-.905-.905v-.373s-.213.107-1.225.479a10.313 10.313 0 0 1-3.515.746zm67.802 0c-2.344 0-4.048-.746-5.007-2.077a8.424 8.424 0 0 1-1.438-5.007V8.57a.9.9 0 0 1 .905-.905h3.941a.9.9 0 0 1 .905.905v9.481a2.639 2.639 0 0 0 .586 1.811 2.127 2.127 0 0 0 1.651.639 3.8 3.8 0 0 0 1.545-.373 2.552 2.552 0 0 0 1.651-2.45V8.57a.9.9 0 0 1 .905-.905h3.941a.9.9 0 0 1 .905.905v15.819a.9.9 0 0 1-.905.905h-3.94a.9.9 0 0 1-.905-.905v-.373s-.213.107-1.225.479a10.313 10.313 0 0 1-3.515.746zm-47.563 0c-2.344 0-4.048-.746-5.007-2.077a8.424 8.424 0 0 1-1.438-5.007V8.57a.9.9 0 0 1 .905-.905h3.941a.9.9 0 0 1 .905.905v9.481a2.639 2.639 0 0 0 .586 1.811 2.127 2.127 0 0 0 1.651.639 3.8 3.8 0 0 0 1.545-.373 2.552 2.552 0 0 0 1.651-2.45V8.57a.9.9 0 0 1 .905-.905h3.941a.9.9 0 0 1 .905.905v15.819a.9.9 0 0 1-.905.905h-3.94a.9.9 0 0 1-.905-.905v-.373s-.213.107-1.225.479a10.313 10.313 0 0 1-3.515.746zm67.802 0c-2.344 0-4.048-.746-5.007-2.077a8.424 8.424 0 0 1-1.438-5.007V8.57a.9.9 0 0 1 .905-.905h3.941a.9.9 0 0 1 .905.905v9.481a2.639 2.639 0 0 0 .586 1.811 2.127 2.127 0 0 0 1.651.639 3.8 3.8 0 0 0 1.545-.373 2.552 2.552 0 0 0 1.651-2.45V8.57a.9.9 0 0 1 .905-.905h3.941a.9.9 0 0 1 .905.905v15.819a.9.9 0 0 1-.905.905h-3.94a.9.9 0 0 1-.905-.905v-.373s-.213.107-1.225.479a10.313 10.313 0 0 1-3.515.746z" fill="#2b2b2b"/><path fill="#00bda6" d="M47.658 46.546a9.313 9.313 0 0 0 9.694 9.694 9.386 9.386 0 0 0 9.748-9.694V9.849c0-8.788-9.268-12.623-15.659-7.67l-16.619 12.73a1.9 1.9 0 0 1-2.61 0L15.7 2.179A9.738 9.738 0 1 0 3.77 17.572l23.861 18.322a9.18 9.18 0 0 0 11.824 0c3.782-2.929 5.965-4.581 6.5-5.007a1.029 1.029 0 0 1 1.758.852v14.807z"/><circle cx="9.948" cy="46.28" r="9.96" fill="#2b2b2b"/></g></svg>