<svg xmlns="http://www.w3.org/2000/svg" viewBox="0 0 128.985 106.8"><path d="M119.537 75.779L98.771 11.9l14.478-10.384L112.153 0 0 80.777l128.985.032v-5.03z"/><path fill="#fff" d="M64.75 72.909c-6.224 0-11.286-7.062-11.286-15.736s5.063-15.736 11.286-15.736 11.286 7.062 11.286 15.736c0 8.642-5.063 15.736-11.286 15.736m26.862-6.223c-6.481 0-11.77-7.417-11.77-16.542s5.288-16.542 11.77-16.542 11.77 7.417 11.77 16.542-5.288 16.542-11.77 16.542"/><path d="M67.169 45.048c-2.483 0-4.514 2.773-4.514 6.191s2.032 6.191 4.514 6.191 4.514-2.773 4.514-6.191-2.032-6.191-4.514-6.191m26.442-8.384c-2.58 0-4.708 2.87-4.708 6.449 0 3.547 2.1 6.449 4.708 6.449 2.58 0 4.708-2.87 4.708-6.449-.032-3.547-2.128-6.449-4.708-6.449m-14.026 63.364c0 1.612-1.483 2.386-2.87 2.386-1.419 0-2.9-.774-2.9-2.386V87.097h-4.646v13.092c0 4.192 3.676 6.611 7.578 6.611s7.578-2.418 7.578-6.611V87.097h-4.708v12.931zm-61.592-5.353c-1.741-.193-3.16-.484-3.063-1.935.161-2.451 5.353-2.547 5.353.032h4.676c.1-8.32-14.9-8.352-14.737-.032.064 4.192 2.9 5.546 7 5.966 1.935.194 3.515.419 3.515 1.774 0 2.322-6.03 2.225-6.03-.226H9.965c-.1 8.481 15.607 8.416 15.607.226 0-4.74-3.741-5.385-7.578-5.8m22.185 5.348c0 1.612-1.483 2.386-2.87 2.386-1.419 0-2.9-.774-2.9-2.386V87.097h-4.678v13.092c0 4.192 3.676 6.611 7.578 6.611s7.578-2.418 7.578-6.611V87.097h-4.708zm24.218-12.931H49.982v4.353h7.062l-7.771 14.7h15.188v-4.353h-7.868zm33.31 0h-8.352v19.025h4.869v-5.611h2.515l3.257 5.611h5.772l-4.063-6.74c4.869-3.257 3.483-12.254-4-12.286m0 9.061h-3.483v-4.708c1.129 0 2.354-.032 3.483 0 2.805.032 2.644 4.708 0 4.708m21.768-4.803v-4.257h-9.48v4.257h2.322v10.512h-2.322v4.289h9.48v-4.289h-2.322V91.354z"/></svg>