<svg xmlns="http://www.w3.org/2000/svg" viewBox="0 0 279.371 47.861"><g fill="#2d2d2d"><path d="M114.398 22.35h18.788v4.261h-18.788zm46.167 0h18.788v4.261h-18.788zm75.921 0h18.788v4.261h-18.788zm-126.07-1.815a1.172 1.172 0 0 0-.279-.908 1.518 1.518 0 0 0-1.118-.349H87.158v4.051h19.137v.419c-.07 5.448-3.841 8.8-9.988 9.569v4.191c9.569-1.607 14.109-6.985 14.109-16.973zm-20.255-9.08h16.344v3.911H90.161zm47.565 0v4.191l18.928 2.933v-4.124zm-.489 18.579v4.261l20.395 3.213v-4.261zm2.445-9.01v4.33l14.947 2.1v-4.33zM81.64 30.103c.489-2.864 1.118-6.146 1.467-9.359a1.421 1.421 0 0 0-.21-1.118 1.538 1.538 0 0 0-1.118-.349h-11.8l1.534-7.753h-4.191l-1.537 7.753h-6.914v3.981h6.076l-3.212 14.318h4.191l3.213-14.318h9.569s-.838 5.8-1.467 8.8a1.7 1.7 0 0 1-1.746 1.606h-2.236v3.841h3.492c2.165 0 3.562-.21 4.121-3.772.279-1.116.489-2.303.768-3.63zm104.278-18.648h4.47v14.598h-4.47zm14.602 0v14.388c0 5.727-3.632 7.543-10.826 7.543h-.07v4.051h.07c7.4 0 14.947-1.118 14.947-11.664V11.455zm65.301 0h-4.191l.07 25.982v.07h4.121V25.564l13.55 2.165v-4.121l-13.55-2.165zm-35.831-1.118a4.891 4.891 0 1 0 5.029 4.889 4.935 4.935 0 0 0-5.029-4.889zm0 7.264a2.375 2.375 0 1 1 2.375-2.375 2.355 2.355 0 0 1-2.375 2.375z"/><path d="M217.488 33.526c-2.235 0-2.724-1.048-2.724-2.165v-5.029l13.9-2.235v-4.051l-13.9 2.3V11.455h-4.051V31.71c0 2.584 1.187 5.727 6.775 5.727h12.013v-3.911z"/></g><path fill="#ffb476" d="M49.093 10.268L33.729.978a8.29 8.29 0 0 0-5.1-.908 28.353 28.353 0 0 1 1.467 8.8 23.99 23.99 0 0 1-.279 3.911l11.455 6.984 7.823-4.749c2.094-1.326 2.094-3.417-.002-4.748z"/><path fill="#00cae5" d="M25.975 24.306l11.035 6.705 7.543-4.61c2.165-1.327 2.165-3.422 0-4.68l-3.278-2.025-7.543 4.61a8.046 8.046 0 0 1-7.757 0z"/><path fill="#ff8431" d="M25.556 24.027l.419.279a8.44 8.44 0 0 0 7.753 0l7.543-4.61-11.454-6.984a26.146 26.146 0 0 1-4.261 11.315z"/><path fill="#1853b5" d="M21.435 35.76l-5.029-3.073a27.8 27.8 0 0 1-13.9 3.772c-.7 0-1.467-.07-2.165-.07a4.136 4.136 0 0 0 1.257 1.187l15.366 9.289a8.046 8.046 0 0 0 7.753 0l15.366-9.289c2.165-1.327 2.165-3.422 0-4.68l-3.073-1.885-7.823 4.749a8.439 8.439 0 0 1-7.752 0z"/><path fill="#00a9ad" d="M25.975 24.306l-.419-.279a27.162 27.162 0 0 1-9.15 8.661l5.029 3.073a8.046 8.046 0 0 0 7.753 0l7.818-4.75z"/><path fill="#ffec47" d="M10.61 10.267c-2.165 1.327-2.165 3.422 0 4.68l3.283 2.025 7.543-4.61a8.046 8.046 0 0 1 7.753 0l.629.349a23.991 23.991 0 0 0 .278-3.911A26.446 26.446 0 0 0 28.629 0a6.3 6.3 0 0 0-2.654.908z"/><path fill="#b7fc5e" d="M24.648 23.542l-10.756-6.5-7.752 4.68c-2.165 1.327-2.165 3.422 0 4.68l3 1.816 7.823-4.749a8.1 8.1 0 0 1 7.685.073z"/><path fill="#f2d34e" d="M21.435 12.432l-7.543 4.61 10.756 6.5.908.559a27.5 27.5 0 0 0 4.261-11.245l-.629-.349a7.865 7.865 0 0 0-7.753-.075z"/><path fill="#0f8dc3" d="M16.476 32.687l-7.334-4.47-7.543 4.61c-1.61.978-1.956 2.374-1.258 3.562.7.07 1.467.07 2.165.07a27.864 27.864 0 0 0 13.97-3.772z"/><path fill="#8fc617" d="M16.895 23.537l-7.823 4.75 7.334 4.47a28.514 28.514 0 0 0 9.15-8.661l-.908-.559a8.046 8.046 0 0 0-7.753 0z"/></svg>