<svg xmlns="http://www.w3.org/2000/svg" viewBox="0 0 209 36.157"><path fill="#040000" d="M202.158 36.1h-6.9V0H209v29.208a6.846 6.846 0 0 1-6.845 6.9"/><path fill="#00a0e9" d="M0 29.26a6.964 6.964 0 0 1 2.038-4.912 6.7 6.7 0 0 1 4.911-1.983h6.845v13.792H0z"/><path fill="#040000" d="M95.199 19.8h16.3V6.009h-16.3V0H81.405v27.431a8.641 8.641 0 0 0 8.621 8.674h21.37V22.311h-16.25l.052-2.508z"/><path fill="#00a0e9" d="M70.225 6.009h-5.121v13.794h13.742v-5.12a8.641 8.641 0 0 0-8.621-8.674"/><path fill="#040000" d="M184.129 6.009h-37.672V36.1h13.793V19.8h2.456v16.3H176.5V19.8h2.456v16.3h13.846V14.682a8.652 8.652 0 0 0-8.673-8.674m-146.4 0h-7.633V0H16.25v36.1h13.794V19.8H32.5v16.3h13.741V14.682a8.585 8.585 0 0 0-8.517-8.674M62.65 22.311V6.009h-5.175a8.641 8.641 0 0 0-8.625 8.673v11.025A10.391 10.391 0 0 0 59.25 36.1h19.648V22.311z"/><path fill="#00a0e9" d="M135.328 6.009h-5.121v13.794h13.742v-5.12a8.641 8.641 0 0 0-8.621-8.674"/><path fill="#040000" d="M127.699 22.309v-16.3h-5.173a8.452 8.452 0 0 0-6.113 2.56 8.616 8.616 0 0 0-2.508 6.114v11.026a10.391 10.391 0 0 0 10.4 10.4h19.7v-13.8z"/></svg>