<svg xmlns="http://www.w3.org/2000/svg" xmlns:xlink="http://www.w3.org/1999/xlink" viewBox="0 0 628 114"><defs><clipPath id="a"><rect x="28.1978" y="28.3258" width="571.3396" height="56.6613" style="fill:none"/></clipPath></defs><rect width="628" height="114" rx="8.1935" style="fill:#fff"/><g style="clip-path:url(#a)"><path d="M166.7976,80.5314h3.7649a.667.667,0,0,0,.5207-.2968L186.64,54.7678l8.4593,29.1368a.475.475,0,0,0,.44.3338h16.33a.2336.2336,0,0,0,.2439-.3188l-17.22-54.5236a.51.51,0,0,0-.4538-.3318h-6.13a.6858.6858,0,0,0-.5337.2968L166.7976,61.8729,145.8263,29.361a.6977.6977,0,0,0-.5367-.2968H139.159a.51.51,0,0,0-.4527.3318L121.4879,83.92a.2321.2321,0,0,0,.2439.3188h16.3249a.4718.4718,0,0,0,.4417-.3338l8.46-29.1368L162.516,80.2346a.6594.6594,0,0,0,.5217.2968Z" style="fill:#005bac"/><path d="M122.23,53.3786v-.013a.3551.3551,0,0,0-.3428-.2738H75.3739a4.457,4.457,0,0,0,0,8.914h27.64c-3.2921,8.6981-14.4289,15.09-27.64,15.09-15.8172,0-28.633-9.15-28.633-20.44s12.8158-20.45,28.633-20.45c8.6392,0,16.3748,2.7325,21.6259,7.0591a.1916.1916,0,0,1,.054.0479.3282.3282,0,0,0,.1919.046H116.253a.3481.3481,0,0,0,.3488-.3438.3127.3127,0,0,0-.0819-.2139c-.011-.0229-.025-.0229-.028-.0359-8.0955-8.6282-23.4719-14.437-41.118-14.437-26.0544,0-47.1756,12.6809-47.1756,28.3272,0,15.6512,21.1212,28.3312,47.1756,28.3312,26.0474,0,47.1656-12.68,47.1656-28.3312a17.6326,17.6326,0,0,0-.31-3.2772" style="fill:#005bac"/><path d="M258.2245,28.327c-26.0495,0-47.1657,12.6819-47.1657,28.33,0,15.6512,21.1162,28.3291,47.1657,28.3291,26.0524,0,47.1766-12.6779,47.1766-28.3291,0-15.6483-21.1242-28.33-47.1766-28.33m0,48.77c-15.8062,0-28.627-9.1509-28.627-20.44s12.8208-20.4526,28.627-20.4526c15.8181,0,28.6409,9.1629,28.6409,20.4526s-12.8228,20.44-28.6409,20.44" style="fill:#005bac"/><path d="M504.2661,83.36a.807.807,0,0,0,.8136.8775h9.8525a.9675.9675,0,0,0,.9464-.8775l1.6931-22.5585a.809.809,0,0,0-.8166-.8784h-9.8495a.9688.9688,0,0,0-.9494.8784Z" style="fill:#393c41"/><path d="M561.2782,59.9228a.8047.8047,0,0,0-.8135.8775l1.709,22.56a.967.967,0,0,0,.9475.8775h9.85c.4858,0,1.4063-.3948,1.37-.8775L572.0761,60.8a.9682.9682,0,0,0-.9494-.8775Z" style="fill:#393c41"/><path d="M571.75,48.7494a.8838.8838,0,0,0,.88-.8805V38.3882a.8845.8845,0,0,0-.88-.88H545.41a.88.88,0,0,1-.88-.88V29.9439a.8845.8845,0,0,0-.88-.88h-9.4827a.883.883,0,0,0-.88.88v6.6843a.8823.8823,0,0,1-.88.88H506.2525a.8834.8834,0,0,0-.8815.88v9.4807a.8828.8828,0,0,0,.8815.8805h26.1534a.8825.8825,0,0,1,.88.88V83.358a.8829.8829,0,0,0,.88.88h9.4827a.8844.8844,0,0,0,.88-.88V49.63a.8806.8806,0,0,1,.88-.88Z" style="fill:#393c41"/><path d="M320.0039,67.6236a.5959.5959,0,0,0,0,.8385l7.109,7.11a.5972.5972,0,0,0,.84,0L353.7261,49.8a.5935.5935,0,0,1,.84,0l33.66,33.7212a.5943.5943,0,0,0,.8385,0l7.11-7.11a.5978.5978,0,0,0,0-.8385L354.5736,33.8944a.5943.5943,0,0,0-.8385-.002Z" style="fill:#393c41"/><path d="M414.9645,83.6488a.5126.5126,0,0,0,.5208.5886h10.9208a.6858.6858,0,0,0,.6637-.5886l5.9066-49.1056a.5132.5132,0,0,0-.5216-.5886H421.5329a.6874.6874,0,0,0-.6637.5886Z" style="fill:#393c41"/><path d="M459.2054,33.9544a.5142.5142,0,0,0-.5217.5887L464.6423,83.65a.69.69,0,0,0,.6647.59h10.9209a.517.517,0,0,0,.5237-.59l-5.9607-49.1065a.6894.6894,0,0,0-.6646-.5887Z" style="fill:#393c41"/><rect x="578.1291" y="28.3264" width="8.4393" height="14.7377" rx="0.8805" style="fill:#1f7acc"/><rect x="591.0975" y="28.3264" width="8.4402" height="14.7377" rx="0.8805" style="fill:#1f7acc"/><path d="M389.0289,44.936a8.3049,8.3049,0,1,0-8.3064-8.3043,8.3042,8.3042,0,0,0,8.3064,8.3043" style="fill:#1f7acc"/><path d="M486.814,28.3267a8.3049,8.3049,0,1,0,8.3043,8.3044,8.3053,8.3053,0,0,0-8.3043-8.3044" style="fill:#1f7acc"/></g><rect x="28.1978" y="28.3258" width="571.3406" height="56.6613" style="fill:none"/></svg>