<svg xmlns="http://www.w3.org/2000/svg" xmlns:xlink="http://www.w3.org/1999/xlink" viewBox="0 0 933.09 265.7"><defs><style>.cls-1{fill:#fff;}.cls-2{fill:url(#新規グラデーションスウォッチ_3);}.cls-3{fill:url(#新規グラデーションスウォッチ_3-2);}.cls-4{fill:url(#新規グラデーションスウォッチ_3-3);}.cls-5{fill:url(#新規グラデーションスウォッチ_3-4);}.cls-6{fill:url(#新規グラデーションスウォッチ_3-5);}.cls-7{fill:url(#新規グラデーションスウォッチ_3-6);}.cls-8{fill:url(#新規グラデーションスウォッチ_3-7);}.cls-9{fill:url(#新規グラデーションスウォッチ_3-8);}.cls-10{fill:url(#新規グラデーションスウォッチ_3-9);}.cls-11{fill:url(#新規グラデーションスウォッチ_3-10);}.cls-12{fill:url(#新規グラデーションスウォッチ_3-11);}.cls-13{fill:url(#新規グラデーションスウォッチ_3-12);}.cls-14{fill:url(#新規グラデーションスウォッチ_3-13);}.cls-15{fill:url(#新規グラデーションスウォッチ_3-14);}.cls-16{fill:url(#新規グラデーションスウォッチ_3-15);}.cls-17{fill:url(#新規グラデーションスウォッチ_3-16);}.cls-18{fill:url(#新規グラデーションスウォッチ_3-17);}.cls-19,.cls-21{fill:#2b2b2b;}.cls-19{fill-rule:evenodd;}.cls-20{fill:#00bda6;}</style><linearGradient id="新規グラデーションスウォッチ_3" x1="82.24" y1="34.88" x2="98.73" y2="34.88" gradientUnits="userSpaceOnUse"><stop offset="0" stop-color="#ff0d00"/><stop offset="1" stop-color="#ff2a00"/></linearGradient><linearGradient id="新規グラデーションスウォッチ_3-2" x1="100.31" y1="34.88" x2="133.91" y2="34.88" xlink:href="#新規グラデーションスウォッチ_3"/><linearGradient id="新規グラデーションスウォッチ_3-3" x1="138.96" y1="34.88" x2="155.45" y2="34.88" xlink:href="#新規グラデーションスウォッチ_3"/><linearGradient id="新規グラデーションスウォッチ_3-4" x1="161.7" y1="34.88" x2="168.74" y2="34.88" xlink:href="#新規グラデーションスウォッチ_3"/><linearGradient id="新規グラデーションスウォッチ_3-5" x1="176.29" y1="34.88" x2="197.99" y2="34.88" xlink:href="#新規グラデーションスウォッチ_3"/><linearGradient id="新規グラデーションスウォッチ_3-6" x1="200.85" y1="34.88" x2="234.45" y2="34.88" xlink:href="#新規グラデーションスウォッチ_3"/><linearGradient id="新規グラデーションスウォッチ_3-7" x1="238.71" y1="34.88" x2="260.41" y2="34.88" xlink:href="#新規グラデーションスウォッチ_3"/><linearGradient id="新規グラデーションスウォッチ_3-8" x1="264.18" y1="35.24" x2="272.49" y2="35.24" xlink:href="#新規グラデーションスウォッチ_3"/><linearGradient id="新規グラデーションスウォッチ_3-9" x1="82.43" y1="70.02" x2="101.84" y2="70.02" xlink:href="#新規グラデーションスウォッチ_3"/><linearGradient id="新規グラデーションスウォッチ_3-10" x1="106.6" y1="69.77" x2="128.25" y2="69.77" xlink:href="#新規グラデーションスウォッチ_3"/><linearGradient id="新規グラデーションスウォッチ_3-11" x1="132.01" y1="69.09" x2="153.79" y2="69.09" xlink:href="#新規グラデーションスウォッチ_3"/><linearGradient id="新規グラデーションスウォッチ_3-12" x1="156.69" y1="69.96" x2="180.81" y2="69.96" xlink:href="#新規グラデーションスウォッチ_3"/><linearGradient id="新規グラデーションスウォッチ_3-13" x1="183.84" y1="69.45" x2="206" y2="69.45" xlink:href="#新規グラデーションスウォッチ_3"/><linearGradient id="新規グラデーションスウォッチ_3-14" x1="210.42" y1="69.14" x2="227.43" y2="69.14" xlink:href="#新規グラデーションスウォッチ_3"/><linearGradient id="新規グラデーションスウォッチ_3-15" x1="230.55" y1="68.47" x2="255.23" y2="68.47" xlink:href="#新規グラデーションスウォッチ_3"/><linearGradient id="新規グラデーションスウォッチ_3-16" x1="257.65" y1="69.14" x2="274.66" y2="69.14" xlink:href="#新規グラデーションスウォッチ_3"/><linearGradient id="新規グラデーションスウォッチ_3-17" x1="33.93" y1="9.05" x2="33.93" y2="90.3" xlink:href="#新規グラデーションスウォッチ_3"/></defs><g id="レイヤー_2" data-name="レイヤー 2"><g id="レイヤー_1-2" data-name="レイヤー 1"><path d="M191.41,192.46a2.85,2.85,0,0,0,.19-.63c0-.17,0-.14-.2-.39s-.14-.15-.2-.4,0-.17-.14-.34-.39-.27-.39-.48.07-.15,0-.44-.15-.38,0-.6a4.16,4.16,0,0,0,.24-.44.64.64,0,0,1,.26-.32.69.69,0,0,0,.26-.25c.09-.14.22-.3.37-.2s.3.37.45.29.19-.22.35-.29a.45.45,0,0,1,.33-.07.58.58,0,0,0,.5-.25c.15-.18.58-.31.65-.15s.26.34.4.15.28-.49.49-.57.6,0,.81,0,.44,0,.58-.23a1.29,1.29,0,0,1,.39-.39c.11-.07.26,0,.25-.27s-.07-.39.07-.52.35-.21.51-.36a1,1,0,0,0,.27-.27c.16-.19.28-.07.36-.32s.13-.12.16-.38,0-.46.12-.61.21,0,.24-.29,0-.12,0-.48a3,3,0,0,1,.1-.7c.07-.25.15-.05.09-.39a1.59,1.59,0,0,1-.1-.66c0-.31,0-.26.06-.59s.3-.24,0-.55,0-.13-.21-.5a3.49,3.49,0,0,0-.34-.55,1,1,0,0,1-.23-.67,1.56,1.56,0,0,1,.15-.52c.13-.33.34-.37.34-.52s-.19-.11-.23-.36a1,1,0,0,1,.06-.87c.23-.44.38-.71.57-.68s.39.05.47.31.18.33.35.23.34-.31.53-.4a1.5,1.5,0,0,1,.9-.07c.27.07.18.16.6.23a3.88,3.88,0,0,0,.88.13c.48,0,.45-.21.82-.28a1.8,1.8,0,0,1,.81.1c.26.05.29-.06.67-.28s.43-.41.89-.19a4.76,4.76,0,0,0,.73.25c.53.19.57.27.66.27a.67.67,0,0,0,.64-.05c.41-.2.54-.49,1-.31s.53,0,.36.55-.29.49,0,.7.17.2,0,.54-.07,1-.32,1.36a1,1,0,0,0-.21.91,5.82,5.82,0,0,0,.16,1.07c.09.36.26.47.11.84s-.37,1.27-.14,1a6.47,6.47,0,0,1,1-.88c.53-.39.31-.45.82-.76a4.89,4.89,0,0,0,1-.65c.21-.22.22,0,.31-.25s-.07-.4.4-.46.69-.19.76-.3a1.09,1.09,0,0,1,.41-.3c.18-.11.24-.42.59-.44s.5-.26.7-.17.26,0,.31-.13a2.13,2.13,0,0,1,.42-.52c.15-.16.12-.31.23-.22s.39.14.46,0-.09-.09.22-.19.11-.39.6-.31.38.14.61,0,.67-.94,1-.92.23.42.45.25a1.61,1.61,0,0,1,.82-.36,2.07,2.07,0,0,0,.87-.35,1.22,1.22,0,0,1,.73-.35c.34,0,.71-.21.9-.11s.27.45.59.35.12-.15.45-.15a4.19,4.19,0,0,0,1,0,1.88,1.88,0,0,1,.9-.24c.28,0,.26-.11.65-.12s.46-.11.83.06.62.27.89.41a1.31,1.31,0,0,0,.73.22,4.09,4.09,0,0,1,1.46.35c.37.21.39.48.67.52a1.48,1.48,0,0,1,.65.13,2.52,2.52,0,0,0,.74.32c.17,0,.32.15.52.29s.11.3.44.33a.84.84,0,0,1,.53.16,2.24,2.24,0,0,1,.5.33c.26.25.22.63.38.65s.24,0,.27.27,0,.32.3.4.39.27.58.54.16,0,.36.26.2.16.2.4.35.57.37.8,0,.17.26.34.52.28.56.44,0,.37.26.39a.39.39,0,0,1,.34.25c0,.09.14.54.23.59s0-.06.42,0,1,.28,1,.07-.11-.16.1-.38a1.38,1.38,0,0,0,.38-.52c.22-.4.18-.12.39-.44s.17-.4.47-.69.08-.2.45-.38.72-.14.88-.43.15-.44.42-.6.2-.17.57-.44.48-.17.7-.47a3.21,3.21,0,0,1,.37-.44,2,2,0,0,1,.61-.51,1.84,1.84,0,0,0,.62-.55,1.36,1.36,0,0,1,.86-.67c.52-.1.44.07.69-.18s.14-.3.45-.43.49-.2.6-.05.05.12.21,0,0-.12.31-.17.36,0,.73-.27.47-.57.89-.4.43.17.69.07.41,0,.73-.18.34-.3.68-.21.26,0,.74-.05a1.57,1.57,0,0,1,.91-.07c.47.08.55,0,.91.1s.41.36.62,0,.45,0,.52-.17-.07-.42.33-.38.65.14.83.06a2.66,2.66,0,0,1,1.21.14c.28.12,0-.08.47.22s.3.36.77.43a3.92,3.92,0,0,0,.81.06,1.77,1.77,0,0,1,1.05.4c.26.2,0,.32.45.4s.46,0,.63.08a2.5,2.5,0,0,1,1,.6c.18.26.15.06.42.37s.1.36.45.46.29,0,.48.25.12,0,.36.36-.13.73.28.71.33-.1.56.13a1.64,1.64,0,0,0,.53.38c.24.13,0,0,.3.51s.06.5.34.78.16.38.29.57.33-.05.5.46.44.62.49.94a1.79,1.79,0,0,1,0,.6,1.42,1.42,0,0,0,0,.62c.06.24-.21,0,.14.45a3.67,3.67,0,0,1,.82,1.26,2.88,2.88,0,0,1,.08,1c0,.14-.28.34-.16.56s.27.32.29.54.29.4.18.68-.2,0-.09.51.13.57.05.76-.06.14,0,.39.07.32.14.63.12.1.09.56.06.55-.08.81a4.13,4.13,0,0,0-.27.75c-.19.54-.21.46,0,.78a2.7,2.7,0,0,1,.35,1.23,3,3,0,0,1-.19,1c-.08.23-.11.24-.09.38s-.06.08,0,.32a1,1,0,0,1,0,.78c-.15.28-.14.49,0,.58s.21,0,.21.28-.06,0,.11.35.19.23.12.49a4.73,4.73,0,0,1-.2.74c-.1.14-.11,0-.08.32s-.14.56-.11.75.07,0,0,.36-.12.36,0,.65a.76.76,0,0,1,.05.67c-.1.28-.25,0-.1.38s.25.3.26.55,0,.21,0,.58,0,.55-.06.69a.7.7,0,0,0-.16.6c.07.31.07,0,.1.41s.15.62,0,.79-.16-.09-.23.43-.09.36.09.66.52.49.54,1a5.12,5.12,0,0,1-.06,1.15c-.05.38-.16.64-.21.91s-.12,0-.07.59a4,4,0,0,1,0,.86c0,.52-.34.44-.26.91a1.67,1.67,0,0,0,.23.7c.13.27.27.12.11.59s-.21.31-.2.65-.2.52.05.83.25.17.19.51-.16,0,0,.55a1.79,1.79,0,0,1,.13.76,2.35,2.35,0,0,1,0,.76c0,.41,0,.29.1.53s.39.62.29.84-.2.11-.33.51-.42,1.27-.86,1.19-.61-.21-.73-.41,0-.27-.3-.42a.7.7,0,0,0-.53-.09c-.24,0-.29-.14-.56,0s-.34.32-.51.31-.29-.18-.52,0-.12,0-.34,0-.11-.22-.41,0-.13.31-.67.22a4.39,4.39,0,0,1-.79-.26c-.15,0-.3-.34-.56-.19a1.35,1.35,0,0,1-.5.23c-.3.08.37.28-.5.2a7.56,7.56,0,0,1-1.14-.23,3.1,3.1,0,0,1-.69-.19c-.32-.09-.55,0-.7-.38s-.07-.38-.21-.6-.26-.17-.26-.41,0-.21,0-.5.14-.13.08-.43-.11-.28,0-.43a1.48,1.48,0,0,1,.32-.36c.1,0,.35-.06.18-.28a2.14,2.14,0,0,1-.35-.59,1,1,0,0,1-.13-.66c0-.3-.23-.08,0-.55s.23-.16.24-.47,0-.12.12-.33.32,0,.27-.42a2,2,0,0,1-.06-.77c.06-.25-.19-.37-.16-.76s.05-.23-.05-.49-.28-.15-.17-.63.18-.27.16-.55-.14-.26-.05-.58.38-.24.23-.59a1.38,1.38,0,0,1-.17-.69c0-.33-.13.07,0-.52a1.51,1.51,0,0,0,.05-.9,4.31,4.31,0,0,1,0-.88c0-.43,0-.64.11-.86s.16-.14.17-.52.14-.41.1-.74-.24-.27-.2-.44.24-.25.26-.5.1.13,0-.41a3.17,3.17,0,0,0-.2-.74c-.08-.28.13,0,0-.5s-.25-.11-.19-.52a3.55,3.55,0,0,1,.17-.64c.1-.4,0-.18.09-.65s.25-.3.17-.59-.43-.1-.27-.61.07-.46.21-.63.33-.21.25-.54.14-.38-.19-.54-.52-.3-.44-.54.4-.31.25-.59-.37-.49-.35-.7.13-.2.27-.69.25-.53.18-.76a2.68,2.68,0,0,0-.24-.52c-.15-.32-.56-.21-.41-.47s.35-.2.35-.6-.05-.89,0-1.29.17-.22.05-.61-.14-.62-.23-.84a3.53,3.53,0,0,1-.44-.79c-.1-.35,0-.32-.12-.57a2,2,0,0,0-.49-.69c-.17-.14-.23-.09-.51-.72a1.76,1.76,0,0,0-.61-.82,1.08,1.08,0,0,1-.32-.49c-.11-.24,0,0-.24-.27s-.28-.12-.45-.31-.2-.14-.25-.28-.08-.08-.26-.22.14,0-.32-.28-.42-.18-.59-.43.13-.33-.25-.32-.2.05-.5,0-.33,0-.58,0-.13-.14-.35-.14-.09.11-.39,0a1.67,1.67,0,0,1-.37-.22c-.2-.11-.24-.22-.4-.17a1.77,1.77,0,0,1-.35.12c-.21,0-.24.16-.57.12a2.2,2.2,0,0,1-.63-.12c-.32-.1-.13-.16-.51-.14s-.41-.23-.56-.12a2.61,2.61,0,0,0-.27.21,1.27,1.27,0,0,1-.6.35c-.39.14-.36.19-.49.17s-.1-.1-.17-.18,0-.17-.25-.13-.45,0-.56.17-.19.18-.54.36-.35.2-.67.35-.1.21-.43.22a2.12,2.12,0,0,1-.58,0c-.08,0-.09-.21-.14,0a1.18,1.18,0,0,1-.3.55c-.13.14-.27.07-.34.16s0,.18-.06.31a1,1,0,0,1-.37.47c-.21.16-.1.15-.47.32s-.31.21-.52.23-.51,0-.55.09-.14.18-.16.23a1.42,1.42,0,0,1-.28.35c-.24.24-.13.21-.36.44s-.4.26-.5.52,0,.16-.33.31-.47-.19-.55.24a5.12,5.12,0,0,0-.15,1c0,.37.05.26,0,.55s-.07.48-.14.77a6.55,6.55,0,0,1-.27.79,1.1,1.1,0,0,0-.15.52c0,.15.21.29.06.62s-.28.08-.27.38-.12.19,0,.56.28.29.28.67-.14.38-.07.59.14.18,0,.43.13.07,0,.39.06.47-.37.67-.15.33,0,.57.31.44.27.76a7.73,7.73,0,0,1-.23.76c0,.14,0,0,.12.41s.18.56.14.72a5,5,0,0,1-.11.64c-.06.12-.11-.14,0,.21s.16.47.06.72a1.46,1.46,0,0,0-.18.54c0,.15.16.29.12.69s-.12,0-.09.52.27.42.09.71-.36.19-.3.49.19.15.24.4a2.42,2.42,0,0,1,.16.9c-.05.39-.16.15-.05.47s.15.27.17.56a1,1,0,0,1,0,.43,3.8,3.8,0,0,0-.19.4c0,.13,0-.14.06.24s.15.34.06.71a9.14,9.14,0,0,1-.17.94.49.49,0,0,0,0,.51c.08.23.22.39.22.47a2,2,0,0,1,0,.74c-.08.29-.17.23-.18.44a.9.9,0,0,0,.06.48.65.65,0,0,1,.07.51c-.06.22-.14.06-.17.43s-.13.23.07.44a1.33,1.33,0,0,1,.37.93c0,.39-.14.37,0,.61s0,.16-.05.48,0,.32,0,.6a3,3,0,0,1-.1.71,4.32,4.32,0,0,0-.09.8c0,.38.07.21.07.74a4.94,4.94,0,0,0,0,.76c0,.23,0,.5.05.71a1.56,1.56,0,0,1,0,.69c-.07.14,0,.42-.38.62s-.6.66-.88.28-.5-.58-.61-.61a.43.43,0,0,0-.38.07c-.16.11-.27.1-.58.05s-.35-.14-.52-.06,0,.15-.44.17-.35-.08-.75-.08-.49-.18-.73,0-.13.32-.31.38-.08.25-.68.19-.43-.13-.75-.22-.32-.14-.53,0-.55-.08-.74.15-.19.29-.36.41.08.2-.42.1-.31.18-.73-.33-.55-.26-.62-.68-.14-.31-.09-.54.11,0,.11-.46a4.21,4.21,0,0,1,.05-.62c0-.42.29-.12.13-.64s-.34-.64-.23-.87.26,0,.22-.27,0-.22,0-.5.19-.09.13-.72-.16-1.27-.16-1.79.21-1.14.21-1.47,0,.08-.11-.39a2.1,2.1,0,0,1-.16-.82c0-.5-.12-.36-.1-.81s.16-.46.19-.64a1.37,1.37,0,0,0-.1-.83,1.91,1.91,0,0,1-.22-1.77c.16-.43.52-.67.42-1s-.3-.33-.24-.64.19-.22.16-.46a5.51,5.51,0,0,1-.2-.87,4.85,4.85,0,0,0-.14-.92,1.12,1.12,0,0,1,.17-.89,1,1,0,0,0,.23-.66c0-.24-.06-.74-.07-1.07a1.18,1.18,0,0,0-.19-.67c-.14-.25-.09-.1-.09-.58s0-.09,0-.66,0-.55.14-.76.18-.1.18-.77a7.55,7.55,0,0,0,0-.89c0-.28-.14-.06-.18-.71s0-.43-.09-.84-.16-.25,0-.54.23-.36.19-.66a5.24,5.24,0,0,1-.07-1.17,6.57,6.57,0,0,0,.05-1,4.18,4.18,0,0,0-.08-.89,2,2,0,0,0-.28-.78c-.19-.3.1-.17-.1-.46s-.2-.11-.23-.45.2-.72-.12-1-.43-.24-.57-.49-.1,0-.17-.42.09-.32-.09-.66a7,7,0,0,0-.43-.72,12,12,0,0,0-1.08-.81c-.29-.19,0-.24-.38-.53s.21-.07-.49-.32-.71-.13-1-.32-.09-.12-.57-.46-.29-.36-.8-.46-.87-.26-1-.26-.48-.06-.68-.05,0,0-.47-.14-.46-.25-.88,0-.35.28-.73.23-.67-.18-.8-.16.08,0-.35.21-.54.44-.79.47a2.68,2.68,0,0,0-.73.18c-.26.11-.25.18-.49.19s-.35-.09-.39.08.09.09-.14.5-.45.82-.76.92a1.78,1.78,0,0,1-.93.1c-.46,0-.08-.07-.51.18s-.68.47-.77.43-.21-.24-.35.09,0,.55-.26.68a3.82,3.82,0,0,0-.51.42c-.29.23-.53.18-.63.28s.18.08-.32.43-.28.31-.68.41-.47.15-.47.22.32.56,0,.7a5.31,5.31,0,0,1-.55.26c-.16.05-.42.05-.26.34s.81.07.64.37a2.47,2.47,0,0,1-.5.72c-.18.1-.22.09-.18.24a.8.8,0,0,1,.08.68c-.13.33-.22.25-.2.53s.09.13.19.42.23.32,0,.68a.89.89,0,0,0-.18.67,1.6,1.6,0,0,0,0,.62c.07.33.24.34.2.75s-.19.76-.17,1.09a5,5,0,0,0,.05.64,7.47,7.47,0,0,1,0,1c0,.28-.23.1,0,.44s.46.27.33.57-.2.11-.33.52a3.92,3.92,0,0,0-.19,1.18,5.27,5.27,0,0,0,0,.63c0,.26.08,1,.13,1.56a6.9,6.9,0,0,1,.12,1,17.35,17.35,0,0,1-.07,2c-.08.39-.07.14,0,.64a5.15,5.15,0,0,1,.18,1,12.47,12.47,0,0,1,.07,1.61c-.08.32-.15,0-.13.58a5.64,5.64,0,0,0,.19,1,1.18,1.18,0,0,0,.1.5c.07.21-.16.31.08.5s.33.07.35.29a8.05,8.05,0,0,1,.1,1.2,3.18,3.18,0,0,1-.23.74c-.08.32-.3.49-.27.94a1.16,1.16,0,0,0,.11.52,2.21,2.21,0,0,1,.2,1.09,1.71,1.71,0,0,0-.09.58c0,.36-.11.1-.12.53s-.06.43-.05.72.12.22.1.53a3,3,0,0,0,.14.78,1.27,1.27,0,0,1-.14.72c-.17.37.24.65-.42.48a2.54,2.54,0,0,0-1-.17c-.38,0-.61.17-1,.08s-.36-.18-.81-.3a4.07,4.07,0,0,0-1-.11c-.13,0-.24.19-.66.17a1.47,1.47,0,0,0-.79.19,1.17,1.17,0,0,1-.73.1c-.11-.06-.09-.18-.3-.32s-.46-.35-.59-.24-.24.13-.43.34a2.31,2.31,0,0,1-.55.51c-.18.09,0,.29-.41.22s-.64,0-.74-.18-.29-.14-.54-.27-.39-.08-.46-.48a2.79,2.79,0,0,1-.14-.76c0-.37-.09-.53,0-.78s.24,0,.23-.4-.07.1-.1-.46,0-.46,0-.68.22-.09.18-.33-.05-.43-.12-.84-.06-.68,0-.72a.3.3,0,0,0,.18-.29c0-.19-.11,0-.09-.39a5.38,5.38,0,0,0,0-.73c0-.22,0,0,.12-.33s.2-.21.19-.5,0-.55,0-1a1.27,1.27,0,0,0-.09-.66c-.13-.36-.17-.23-.15-.57s0-.35,0-.44a.84.84,0,0,0,.2-.64c0-.34-.06-.51,0-.66s.22-.07,0-.31-.24,0-.33-.45a3.85,3.85,0,0,1-.08-.76c0-.33-.3-.1-.13-.64a1.53,1.53,0,0,0,.13-.91,2.22,2.22,0,0,1,0-.8c0-.18.22-.61.4-.56s.17-.05,0-.22a.86.86,0,0,1-.21-.73c0-.49.11-.36,0-.7s.05-.28.05-.49-.12-.22,0-.38.45-.14.38-.38,0-.54-.09-.81.12,0-.16-.42-.22-.38-.18-.65,0-.28.05-.52.17-.08.11-.59-.11-.67,0-.86.35,0,.28-.4,0-.12-.05-.41-.09-.12-.12-.36a2,2,0,0,1,0-.81c.07-.4.29-.06,0-.44s0-.55-.37-.51-.25.13-.53-.07-.27-.34-.49-.32a1.16,1.16,0,0,0-.55.23,2.92,2.92,0,0,1-.47.31c-.3.15-.26.24-.66.34s-.46.21-.7.18-.27,0-.33.05-.12.38-.31.37-.29-.06-.42.12-.14.26-.34.39-.23.23-.56.21a2.75,2.75,0,0,0-.84.16s-.13.24-.09-.06.29-.22,0-.45-.4-.22-.47-.4a3.14,3.14,0,0,1-.18-.44,1.94,1.94,0,0,0-.21-.44,1.67,1.67,0,0,1-.1-.43c0-.17-.16-.06,0-.52s.35-.35.17-.59-.29-.26-.38-.5S191.25,193,191.41,192.46Z"/><path d="M293,220.64c.11,0,.13.12.49.12s.19-.09.46-.07a4.26,4.26,0,0,0,1,.2,1.4,1.4,0,0,0,.79-.22c.23-.12.3,0,.49-.24s.19,0,.48-.18.12.14.55.35a1.7,1.7,0,0,0,1.06.13,6.53,6.53,0,0,0,1.07-.13c.35-.08.53-.18.79-.22s.38.14.95.14a2.68,2.68,0,0,0,1.22-.2c.53-.18.17-.26.05-.49a2.57,2.57,0,0,0-.48-.73c-.19-.18-.32-.18,0-.38s.19-.39.33-.81a1.42,1.42,0,0,0,0-.92,5.14,5.14,0,0,1-.06-.77c0-.33,0-.4,0-.76s-.44-.56-.69-.83-.05-.31.15-.4A1.77,1.77,0,0,0,302,214c.21-.17.18-.42.24-.85a3.42,3.42,0,0,0,0-.93c0-.32,0-.66,0-1s-.09-.22-.1-.48-.07-.64-.07-.72-.05-.32-.05-.5-.05-.47,0-.69a3.5,3.5,0,0,1,.07-.45c0-.22,0-.26.05-.44s-.07-.45-.07-.71a4.47,4.47,0,0,0-.26-.94,1.54,1.54,0,0,1-.13-.58c0-.26,0-.37,0-.62a4.29,4.29,0,0,1,.16-.73,1.78,1.78,0,0,0,.05-.58c0-.09-.14-.21-.19-.35s0-.19.11-.37a1.47,1.47,0,0,0,.14-.68.67.67,0,0,0-.12-.5,1.57,1.57,0,0,1-.09-.55c0-.35.15-.25.29-.47s.07-.39.11-.69,0-.2-.14-.62a2.36,2.36,0,0,1-.17-.6.85.85,0,0,1,0-.52,1.18,1.18,0,0,0,0-.49c0-.09-.09-.26-.14-.51s0-.2.15-.42,0-.26,0-.57a2.44,2.44,0,0,1,.12-1c.09-.13,0-.2,0-.44a2,2,0,0,1,.1-.68,1.46,1.46,0,0,0,0-.65,1.35,1.35,0,0,0-.15-.52c-.09-.2,0-.24.14-.29s.05-.25,0-.39.07-.1.15-.35a.78.78,0,0,0-.05-.59.71.71,0,0,1,0-.43,2,2,0,0,0,.23-.65,3.7,3.7,0,0,0,.08-.7,1.58,1.58,0,0,0-.12-.58c-.11-.3-.2-.21-.4-.5a1.38,1.38,0,0,1-.05-1c.05-.18,0-.21-.07-.6a2.06,2.06,0,0,1-.11-.53,7.49,7.49,0,0,1,0-.91c0-.62-.13-.33.14-.64a1.34,1.34,0,0,0,.31-1,1.63,1.63,0,0,0-.29-1c-.13-.21-.1-.21,0-.54a1.37,1.37,0,0,0,0-.7c-.06-.35-.1-.63-.13-.73s-.11-.23-.21-.54.13-.22.23-.45a3.84,3.84,0,0,0,.24-.82c.1-.49-.38-1.16-.38-1.23a1.2,1.2,0,0,1,.38-.63c.32-.32.22-.33.33-.7s0-.51-.09-.82a6.47,6.47,0,0,0-.26-.78c-.11-.37-.51-.14-.78-.26s-.41-.18-.5,0-.42.13-.66.23a1.84,1.84,0,0,1-.88.1,2.49,2.49,0,0,1-.62-.18,5.23,5.23,0,0,1-.56,0c-.19,0-.32-.26-.55-.35s-.21,0-.46.17a1.28,1.28,0,0,1-.75.06c-.27,0-.4-.12-.66-.14a.89.89,0,0,0-.65.21c-.29.19-.29,0-.63-.16a3.53,3.53,0,0,1-.94-.5c-.28-.22-.54.12-.73.21s-.32,0-.45-.14-.4,0-.48.22-.22-.08-.64.13-.41.25-.49.66a6,6,0,0,0,0,1.31c0,.69.1.25.25.67a3.52,3.52,0,0,1,.2.64c.07.28.18.13.34.36s0,.26-.05.53-.08.1-.2.43.16.43.23.81.08.16.17.47-.09.19-.36.58,0,.1,0,.47-.11.23-.08.67.18.4.27.62,0,.13.07.47-.06.3-.12.47a.54.54,0,0,0-.07.35c0,.26-.07.15-.18.42s0,.06.2.42.07.09.07.38,0,.13.21.36,0,.11.08.54,0,.21-.13.56-.05.23-.11.49.05.21.14.43-.07.2-.09.38.06.15.08.48,0,.1-.14.49a1.11,1.11,0,0,0-.1.8,1.59,1.59,0,0,1,.08.45c0,.3,0,.27-.09.73s0,.21,0,.53a1.73,1.73,0,0,0,.23.78,1.12,1.12,0,0,1,.17.71,1.55,1.55,0,0,1-.12.73,3.34,3.34,0,0,0-.05.83,5.88,5.88,0,0,0,0,1,3.7,3.7,0,0,1,.08.7c0,.33,0,.08.19.31s.07.08,0,.28a.69.69,0,0,0-.08.45c0,.22.09.31.12.65s-.08.12-.14.38-.06.25-.12.67a2.58,2.58,0,0,0,0,.83,2.09,2.09,0,0,1,0,.59,2.87,2.87,0,0,1-.11.74,1.94,1.94,0,0,0,.24,1.15c.19.51-.15.53-.21.72a1.88,1.88,0,0,0-.27.67c0,.36.13.52.24.87s-.07.4-.18.66,0,.21.15.47.06.12,0,.42,0,.18.19.37,0,.25-.11.41,0,.12.12.37,0,.13,0,.46-.1.34-.21.72.12.47.12.58a.77.77,0,0,1-.18.6c-.24.31,0,.49,0,.8s0,.24,0,.55a1.2,1.2,0,0,0,.11.53c0,.21.14.17,0,.49s.06.3.12.66.15.15.12.58a3.74,3.74,0,0,0,0,.61c0,.32,0,.17.13.45s.11.28.09.41a.59.59,0,0,0,0,.52c.15.37.09.21-.14.54a.6.6,0,0,0-.06.62,1.72,1.72,0,0,1,0,.37,1.44,1.44,0,0,0,0,.64c.09.34,0,.26-.1.49s-.19.41-.29.73,0,.24,0,.41a3.55,3.55,0,0,0-.08.67c0,.34.05.2.07.46s.22.25.39.42a.69.69,0,0,0,.52.24.78.78,0,0,0,.52-.19C292.53,220.81,292.8,220.55,293,220.64Z"/><path d="M292.52,157.7c.35-.38.4-.11.39-.45s0-.63.15-.67a6,6,0,0,1,.9,0c.32,0,.44.11.49-.06s0-.34.28-.2.26.19.41.08.39-.08.66-.19.59-.34.87-.14.39.34.47.25.19-.39.34-.39.31-.22.59-.12.39.06.59.28a2,2,0,0,0,.67.41c.28.15.43,0,.61.28s.3.26.41.49.06.09.12.44.11.42.26.53.43.09.54.26.23.18.29.44a5.92,5.92,0,0,1,.18.8,10.19,10.19,0,0,0,.24,1.09,1.42,1.42,0,0,1,0,.74c-.06.13-.29,0-.23.47a1.23,1.23,0,0,1-.07.84c-.09.16,0,.49,0,.65s0,.53-.21.56a.82.82,0,0,1-.37,0c-.06,0-.24,0-.15.11s.53.05.56.3,0,.62-.19.68-.58.07-.63.16a1.05,1.05,0,0,0-.14.37c0,.2-.08.24-.27.34s-.21.27-.32.53-.14.27-.39.36-.38.27-.53.16-.2-.19-.32-.1-.21.07-.44.22-.15.17-.34.15-.33-.12-.46,0-.18.11-.43.29a1,1,0,0,1-.68.28,1.87,1.87,0,0,1-.6,0l-.74-.18c-.28-.05-.17-.21-.65-.26s-.31.09-.76-.16-.6-.44-.82-.54-.05-.14-.42-.15-.55.31-.69,0-.06-.22-.2-.56-.2-.18-.22-.48.12-.06-.08-.59-.27-.41-.35-.72-.13-.24-.09-.59.26-.25.25-.55-.07.09-.08-.54.12-.61,0-.88-.2-.15-.17-.52a1.07,1.07,0,0,1,.17-.55c.09-.19.17-.07.24-.62a8,8,0,0,0,0-.92c0-.26,0-.37.21-.58s.54-.24.68-.34A1.44,1.44,0,0,0,292.52,157.7Z"/><path d="M322.07,196.38a5.09,5.09,0,0,1-.79-.33c-.16-.1-.06,0-.3-.29s-.27-.32-.32-.49a.75.75,0,0,1-.05-.56c.07-.37.15-.44.19-.64s.13-.31,0-.41-.26,0-.3-.35,0-.34-.1-.84.09-.23-.07-.57-.18-.29-.17-.53-.2-.31-.31-.56-.17-.16-.21-.55-.08-.35,0-.53.27-.13.13-.34a3.44,3.44,0,0,1-.23-.36.65.65,0,0,1-.05-.86c.32-.48.42-.48.7-.45s.8-.27,1-.35.51,0,.68,0,.55-.35.86-.39.82.06.92,0,.26-.21.44-.46a1.43,1.43,0,0,1,.65-.52c.27-.11.48,0,.62-.22a5.71,5.71,0,0,1,.63-.74,1.47,1.47,0,0,0,.39-.46c.08-.19,0-.31.15-.48s.19,0,.24-.34a1.67,1.67,0,0,0,.07-.47c0-.41,0-.42.14-.58s.35,0,.27-.56-.31-.61-.17-1.14a2.11,2.11,0,0,1,.24-.71c.19-.43.39-.59.4-.85a6.15,6.15,0,0,0,0-.95c-.05-.31-.15-.51-.19-.88s0-.51,0-.62.17,0,.18-.28.22-.4,0-.42-.2-.1-.2-.37-.12-.39.07-.58a1.34,1.34,0,0,1,.74-.39,1.88,1.88,0,0,1,1,.12c.27.16.44.33.57.26s.24-.3.43-.34a3.56,3.56,0,0,1,.79.15,1.06,1.06,0,0,0,.53-.06.79.79,0,0,1,.55,0,1.2,1.2,0,0,0,.67.11,1.64,1.64,0,0,1,.43,0,1.91,1.91,0,0,1,.62.14c.29.14.39.14.58,0a1,1,0,0,1,.83-.1c.13.08.46.28.68.19a1,1,0,0,1,.52-.1c.38,0,.69-.23,1.07-.18s.85-.1.86.22a4.75,4.75,0,0,1-.22,1.23c-.07.22.08.43-.12.5s-.36-.08-.33.18.13.27.09.51-.11.31,0,.53a2.18,2.18,0,0,1,.12.65c0,.2.12.07.13.32s.08.63-.07.83-.08.16-.06.44,0,1.11.13.92.1-.39.35-.62.39-.41.68-.71.2-.23.66-.42.7-.16.81-.29.37-.14.49-.47,0-.38.4-.5.56-.24.94-.39.61-.21.95-.35.68-.15.71-.41,0-.68.22-.85a1.9,1.9,0,0,1,1.07-.67,7,7,0,0,1,1.06.07c.12,0,.19-.24.43-.19a1.21,1.21,0,0,0,.51,0,.8.8,0,0,0,.39-.41,1.81,1.81,0,0,1,1.06-.63c.55-.16.69-.16.87,0s.23.19.38.08a2.06,2.06,0,0,1,1.06-.61,1.42,1.42,0,0,1,1,.25c.13.06.23-.21.68-.24s.56-.18.79,0a1,1,0,0,0,.65.35,3,3,0,0,0,.6.07c.4,0,1-.34,1.27-.11s.38.31.59.34a2.52,2.52,0,0,1,1.22.07,4.85,4.85,0,0,0,.8.39c.42.15.59,0,.91.21s.5.46.77.56a8.8,8.8,0,0,1,1.35.59c.49.29.67.26.86.5s.22.57.63.88a4.82,4.82,0,0,1,1,.78c.32.39.17.35.48.6a2.26,2.26,0,0,1,.5.44,1.28,1.28,0,0,1,.19.53c0,.25-.14.2.16.53s.24,0,.42.41.48.54.65.88.27.4.54.87.1.32.41.69.46.34.46.49a2.77,2.77,0,0,0,0,.72,1.73,1.73,0,0,0,.27.52c.19.26.31.5.41.65a.72.72,0,0,1,.18.55c0,.27-.21.35-.12.64a1.85,1.85,0,0,0,.25.5c.05.12.11.07.1.44a3.44,3.44,0,0,1-.07.88c-.07.19.13.07.13.37a2.73,2.73,0,0,1,0,1c-.14.46-.18.46-.11.62s.18.2.39.5a7.54,7.54,0,0,1,.52.76c.09.18.16.32-.07.51a5,5,0,0,1-.69.51.53.53,0,0,0-.22.44c0,.13.16.34.17.41a5.28,5.28,0,0,0,.18.62,1.16,1.16,0,0,1,.12.54,2.06,2.06,0,0,1-.08.68c0,.06-.18.19-.08.31a1,1,0,0,1,.29.65,2.27,2.27,0,0,1-.28.53,1.29,1.29,0,0,0-.06.42,2,2,0,0,1,0,.71c-.06.21-.19.21-.32.35s-.52,0-.31.41.35.24.27.56a3,3,0,0,0-.12.85c0,.09.35.15.41.32s.11.17,0,.44-.06.35.07.39a.33.33,0,0,1,.22.45,2.22,2.22,0,0,1-.22.6c-.17.35-.06.43-.24.74s-.25.32-.2.48.08.12,0,.66-.17.71,0,.88.19.09.21.26a1.78,1.78,0,0,1-.07.71c-.09.34-.05.48-.11.79a2,2,0,0,1-.17.7c-.12.2-.29.58-.2.74s.43.28.43.28a.31.31,0,0,1,.12.37c-.09.23-.15.14-.12.37s.18.19.19.51a1.24,1.24,0,0,1-.09.55c-.06.16-.17.36-.09.44s.27,0,.31.11-.2,1-.2,1.14-.13.16-.15.36-.09.07,0,.38.32.51.28.62a15.89,15.89,0,0,0-.1,1.77c0,.38.1.2.09.59a2.47,2.47,0,0,1-.09.87c-.08.11-.29,0-.09.22s.34.24.35.4-.14.52,0,.76,0,.29-.09.36-.21,0-.22.18a1.68,1.68,0,0,1-.19.55c0,.06-.17.08.11.15s.63.09.61.31,0,.68-.44.75-.73.18-.92-.06-.2-.21-.32-.37.11-.27-.27-.21a3.55,3.55,0,0,1-.95.12,3.1,3.1,0,0,1-1.07,0,1.75,1.75,0,0,0-.8-.12c-.41,0-.49.15-.74.16s-.17-.05-.52,0-.34,0-.7.08a.88.88,0,0,1-.63,0,1.57,1.57,0,0,0-.62-.13c-.22,0-.22,0-.6.08s-.45.12-.72,0-.39-.25-.62-.18a1.83,1.83,0,0,1-.66.1c-.2,0-.59-.09-.61-.42a2,2,0,0,0-.09-.57.47.47,0,0,1,.1-.5c.14-.11.17-.15.18-.31s.08,0,.11-.3,0-.32-.07-.44-.1-.32-.06-.72-.07-.26,0-.55.17-.62,0-.82-.37-.26-.37-.55-.09-.14.09-.56.25-.42.26-.56.23-.21,0-.48-.5-.23-.37-.44a3.86,3.86,0,0,1,.27-.43c.08-.08.48-.49.3-.77s-.36-.23-.13-.52.42-.22.27-.6a5.28,5.28,0,0,0-.35-.78c-.09-.15-.06-.1,0-.66a2.9,2.9,0,0,0,0-1c-.06-.23-.16-.2-.05-.48s.27-.08.05-.5-.44-.33-.41-.8a2.28,2.28,0,0,1,.32-.95c.06-.14.2-.27.1-.5a.93.93,0,0,1-.11-.58c.05-.17.26-.39.22-.71a1.91,1.91,0,0,1-.08-.84c.07-.47,0-.32,0-.81s0-.55.11-.77.33-.08.23-.54a3.18,3.18,0,0,0-.18-.74,4.49,4.49,0,0,1-.27-1.37,2.76,2.76,0,0,1,.16-1.2c.17-.35.36-.19.21-.6s-.32-1.08-.33-1.13a1.2,1.2,0,0,1,.13-.85c.24-.3.3-.39.25-.71a3.84,3.84,0,0,0-.26-.92c-.12-.25-.34-.86-.09-1.14s.27-.37.18-.55a1.3,1.3,0,0,1-.06-.78,1,1,0,0,0,.08-.43,1.32,1.32,0,0,0-.06-.75c-.16-.25,0-.33-.29-.6a1.53,1.53,0,0,0-.56-.4c-.13,0-.34-.12-.2-.36s.58-.88.29-.95-.31-.09-.34-.37.07-.44-.09-.59-.22,0-.38-.24-.09-.47-.29-.53-.3-.31-.4-.44-.14-.12-.33-.21-.27.1-.25-.24.06-.37,0-.5,0,0-.26-.29-.27-.32-.38-.34a1.52,1.52,0,0,0-.39-.06c-.13,0,.3-.06-.21-.08s-.4.25-.74-.1-.39-.43-.54-.39.3,0-.33.05-.74.12-1,0-.29-.37-.52-.46-.44-.41-.64-.42-.59-.13-.78,0,.1.15-.37.21a7.09,7.09,0,0,1-1.6.11,1.32,1.32,0,0,0-.78.05c-.15.07-.61.06-.88.17s0,0-.49.17a2.61,2.61,0,0,1-.84.2,1.15,1.15,0,0,0-.37.18c-.05.07-.25.64-.48.75a2.88,2.88,0,0,1-.67.12c-.32.06-.24-.28-.42.27s0,.7-.26.79-.43,0-.57.17-.39.62-.57.86a.59.59,0,0,1-.51.31c-.24,0-.51-.07-.67,0a4.59,4.59,0,0,0-.55.44c-.19.16-.53.72-.75.89s-.27.27-.41.3-.34-.11-.27.09a.9.9,0,0,1,.07.56,3.48,3.48,0,0,1-.34,1c-.17.3-.33,0-.48.31a1.24,1.24,0,0,0-.15.7c0,.35.18.61.19.88a4.14,4.14,0,0,1,.1.8c0,.38,0,.76,0,1.09s0,.19-.06.4-.1-.1-.08.3-.05.35,0,.66.11.21.12.5a2.93,2.93,0,0,1-.07.84c-.08.57-.13.37,0,.76a2.94,2.94,0,0,1,.08,1.26c-.08.25-.33-.18-.21.46a8.69,8.69,0,0,0,.21.95c.07.25.2.38,0,.46s-.16,0-.32.24-.35.74-.11.62.58-.39.51-.08-.08.67-.13,1.07.1.2-.06.72-.36.7-.26.92.05.3.24.36.37-.16.39.17.13.4.08.67-.11.22-.18.46-.16.3-.07.54a1.94,1.94,0,0,1,.21.85,3.55,3.55,0,0,1-.15.58c-.09.3-.27.53-.12.71a2.17,2.17,0,0,1,.36.79c.05.23.19.27-.06.3s-.36.12-.29.19.14.56.23.44.14-.19.15.1a2.18,2.18,0,0,1-.21.77c-.11.34-.13.36,0,.49s.37.14.26.35-.2.22-.2.31-.13.14-.05.38.36.1.29.34-.1.15-.28.49-.43.65,0,.64.58-.08.61.07,0-.09-.11.3a1.77,1.77,0,0,1-.28.73c-.1.1-.19.15-.19.34s.26.1.12.44-.22,0-.23.4-.1.45,0,.59.18,0,.21.24a2,2,0,0,0,0,.39,4.09,4.09,0,0,1,.17.71,1.77,1.77,0,0,1-.11.68.49.49,0,0,0,.12.52.6.6,0,0,1,.16.53c0,.28.1.21.13.54s.06.46-.25.51-.62.25-.89.08.05-.3-.46-.24-.55-.3-.83,0-.24.43-.68.44-.65.29-.93,0-.15-.43-.51-.45a1.25,1.25,0,0,0-.74.08,2,2,0,0,1-1,.11c-.34,0-.2.1-.67,0s-.21-.12-.64-.1-.19.14-.62.21-.68.18-.91.11-.05-.36-.58-.21-.61.23-.85.18-.2-.08-.55-.29-.51-.12-.4-.42.19-.29.21-.56.3-.38.3-.65a1.46,1.46,0,0,1,0-.59c.09-.27.14-.14,0-.48a1.07,1.07,0,0,1-.13-.62c0-.35-.11-.28,0-.57s0-.41,0-.82a3,3,0,0,1,.07-.77,3.18,3.18,0,0,0,0-.74,3.11,3.11,0,0,1,.12-.93,2.86,2.86,0,0,0-.13-.66,1.34,1.34,0,0,1-.06-1.1c.22-.62-.07-.5.09-.87a2,2,0,0,0,.18-.76c.06-.36.36-.42.11-.7a4.26,4.26,0,0,0-.38-.34.71.71,0,0,1-.06-.64,1.73,1.73,0,0,0,.05-.89c-.05-.34-.34-.43-.12-.75s.38,0,.26-.56-.25-1-.28-1.19a3.64,3.64,0,0,1,.15-1.31,2.06,2.06,0,0,0,.22-.85c0-.31.2-.38.11-.68s-.22-.27-.23-.49a7.92,7.92,0,0,1,.18-.86,1.1,1.1,0,0,0-.19-.83c-.19-.36-.53-.33-.45-.85s0-.74.11-1.1.32-.22.27-.57-.08-.18-.23-.4-.48-.38-.37-.82a8.74,8.74,0,0,0,.24-1c0-.28-.18-1-.44-.66s-.24.63-.5.38-.42-.34-.63-.22a2.9,2.9,0,0,1-.51.27c-.39.18-.33.06-.58.06s-.49-.06-.6.07a3.71,3.71,0,0,0-.33.4c-.14.18-.23.32-.34.35s-.33,0-.43.08A1,1,0,0,1,322.07,196.38Z"/><path d="M386.23,191.59s.34-.44.19-.61a5.16,5.16,0,0,1-.44-.57,1.5,1.5,0,0,1-.13-.66c0-.22-.53-.42-.41-.74s.24-.34.07-.54-.51-.73-.15-.73.89.17,1.21-.19.43-.62.66-.45.14.25.63.17.34-.33,1.21-.49,1-.12,1.26-.34.77-.29.92-.53a6.23,6.23,0,0,0,.41-.76c.12-.23.93-.77,1-.91a.73.73,0,0,0,0-.32,2.25,2.25,0,0,1,0-.64c.07-.16.17-.09.38-.44a3.84,3.84,0,0,1,.28-.48c.14-.18.21-.18.28-.4a1.25,1.25,0,0,0,.08-.68c-.07-.2,0-.44-.12-.81s-.1,0-.07-.85-.18-1.21,0-1.55,0-.34-.13-.32-.31-.12-.21-.29.36-.32.44-.56.31-.22.1-.45-.25-.26-.25-.43-.39-.37-.25-.64.45-.59.67-.61.46-.13.65.09.21.3.38.37.21.13.43,0,.15-.19.47-.2.27-.09.59,0a2.81,2.81,0,0,0,1,.22,5.09,5.09,0,0,0,.78-.34,1.7,1.7,0,0,1,.9-.1c.25.06.34.12.64.22a2,2,0,0,0,.76.05,1.92,1.92,0,0,1,.91,0c.43.16.36.18.73.09a8.78,8.78,0,0,1,1-.34,2.11,2.11,0,0,1,1.18.1c.51.22.55.13.47.31a1.22,1.22,0,0,0-.19.7,1.66,1.66,0,0,1-.19,1.14c-.25.29-.35.2-.42.55s0,0-.11.66a6,6,0,0,0-.11,1.35c0,.29-.09,1.16.1,1s-.06-.42.64-.42.72.09.85-.12a2.36,2.36,0,0,1,.58-.51,5,5,0,0,1,.72-.48c.31-.16.59-.19.78-.38s.16-.45.42-.63a6.09,6.09,0,0,1,1.06-.47c.17-.07.31.05.46-.17s.21-.1.51-.39.41-.56.66-.69.46-.42.77-.51.1-.18.54-.17.63.06.7-.11a1.1,1.1,0,0,1,.41-.44,1.37,1.37,0,0,1,.69-.12c.26.06.37.14.49.07s.31-.35.54-.44a1.62,1.62,0,0,1,.8-.14c.38,0,.5.19.74.05s.06.07.37-.25.36-.35.66-.44.13-.21.62-.06.36.17.67.23a1.78,1.78,0,0,0,1,.06c.67-.1.78-.42.89-.25s0,.28.37.3.1-.14.7-.2A2.63,2.63,0,0,1,423,174c.8.24.9,0,1.21.38s.14.41.45.52.43.08.56.15a7.76,7.76,0,0,1,1.2.41c.6.29.47.15.81.46s.18,0,.72.41.55.22.59.44a.71.71,0,0,0,.41.6,7.26,7.26,0,0,1,.78.3A10.58,10.58,0,0,1,431,178.9c.3.39.27.53.47.77s.3.27.31.49-.24.14,0,.38a3,3,0,0,1,.38.44c.12.14.81.59.82.93a2.2,2.2,0,0,0,.07.74c.09.28.65,1.57.78,1.92s.21.22.27.79.09.62.15,1.08a4.65,4.65,0,0,1,.07,1.65c-.14.4-.21.5-.12.6s.44.15.45.43-.29.35-.29.63.14.2.09.55-.51.36-.34.66.27.26.41.49-.17.55,0,.85.13.37,0,.44a.38.38,0,0,0-.17.45c0,.29-.5.3-.07.7s.31.48.34.68.22,1-.08,1.43-.25.5-.19.68-.09.3-.09.52.47.28.32.43-.34.27-.29.38,0,.38.25.43,0,.34,0,.54-.28.33-.27.49a.75.75,0,0,0,.15.44,2.3,2.3,0,0,1,.16.37c.1.21.17.14.12.38s-.11.27-.11.44-.23.7-.1.92a7.15,7.15,0,0,1,.31.86.44.44,0,0,1,0,.45c-.12.21,0,.42-.24.67a.48.48,0,0,0-.1.58c.07.14.35.34.38.52s.19.39.07.65-.25.68-.33.86a.64.64,0,0,0-.05.53c.06.24.19.24.26.55a2.53,2.53,0,0,0,.13.58,1.41,1.41,0,0,1,.09.55c0,.09,0,.66-.08.79a.6.6,0,0,0,0,.43c.07.31.16.28.09.48a5.16,5.16,0,0,0,0,.81.54.54,0,0,0,0,.44c.09.31.11.26,0,.55s-.27.34-.19.8,0,.71,0,.84a4.16,4.16,0,0,1,.38,1.15,6.07,6.07,0,0,1,0,.85c0,.35.13.39,0,.83s-.07.56-.18.74-.07-.1,0,.3a1.71,1.71,0,0,1,.1.68c0,.19,0,.25.23.43a3.23,3.23,0,0,1,.68.91c0,.13,0,.16-.2.24s-.41,0-.41.21,0,.54-.58.59-.6.27-1.15.05-.67-.41-.94-.39a4.94,4.94,0,0,1-.83.06,2.73,2.73,0,0,1-1-.13c-.11,0-.15-.11-.54,0s-.28.24-.77,0-.24-.34-.71-.37a6.82,6.82,0,0,0-1.08,0,6.25,6.25,0,0,0-.64,0,1.64,1.64,0,0,1-.85.26,5.16,5.16,0,0,0-1,0c-.57.09-1.26-.19-1.17-.6a3.2,3.2,0,0,1,.37-.8c.08-.22.2-.28,0-.52a2,2,0,0,1-.3-.9c0-.12.12-.26.31-.71s.31-.38.18-.6-.33,0-.27-.54.05-.82.22-1,.26-.22.05-.53.05-.2-.22-.46a1.14,1.14,0,0,1-.39-.79c0-.23.16-.17.11-.63s-.07-.93.09-1.08a1.11,1.11,0,0,1,.36-.29c.25-.15.58.09.28-.35a.93.93,0,0,1-.16-1c.1-.25.07,0,.05-.32s-.07-.26-.09-.61-.16-.45-.28-.74-.16-.17-.14-.46-.05,0,0-.5.12-.43.21-.73a1.06,1.06,0,0,1,.23-.53c.22-.36.39-.35.12-.61s-.56-.33-.45-.54.19-.07.19-.27-.18-.11-.19-.3-.08-.21.14-.49.34-.48.32-.58a1,1,0,0,0-.06-.78c-.22-.61-.3-.51-.27-1a2.45,2.45,0,0,1,.15-1c.14-.26.25-.24.09-.44s-.23-.05-.16-.4a2.61,2.61,0,0,0,.11-1.16,1.73,1.73,0,0,1-.18-.86c0-.33.09-.63.11-.78s-.09-.25,0-.59.15-.31.12-.61,0-.39-.15-.5a.47.47,0,0,1,0-.54,1,1,0,0,0,.13-.58.63.63,0,0,0-.13-.44,1.1,1.1,0,0,1-.19-.68c0-.29-.15-.49-.18-.78a2,2,0,0,1,.06-.79c.06-.13.16-.09.06-.49s-.1-.47-.28-.65a1.05,1.05,0,0,1-.27-.46,3.68,3.68,0,0,1-.1-.61c-.07-.28-.12-.18-.18-.56s0-.9-.11-1.11-.31-.19-.55-.35a.81.81,0,0,1-.42-.45,2.79,2.79,0,0,0-.31-.74,1.35,1.35,0,0,1-.17-.87c0-.16,0-.13-.36-.33a1.8,1.8,0,0,0-.76-.26,1.06,1.06,0,0,1-.72-.33c-.36-.31-.22-.33-.41-.51s-.21-.32-.5-.26a1.43,1.43,0,0,1-.7-.07c-.21,0-.35-.28-.8-.29s-.26.17-.82-.07a4.67,4.67,0,0,0-1-.4c-.16,0-.41.11-.74.14s-.32-.14-.85,0a9,9,0,0,0-1,.32,1.48,1.48,0,0,0-.51.18,3.38,3.38,0,0,0-.4.27c-.29.22-.43.7-.51.4s.44-.51-.07-.48-.77.16-.91.49-.2.4-.47.49a10.54,10.54,0,0,0-1.08.48c-.41.21-.31,0-.65.23s-.48.15-.89.36-.25-.1-.55.33a6.66,6.66,0,0,1-1,1.07c-.54.53-.63.48-.71.76a1,1,0,0,1-.33.59,1.58,1.58,0,0,0-.3.36c-.09.14,0,.37-.2.47s-.82-.14-.67.32.44.44.33.82-.56.59-.61.9a6.06,6.06,0,0,0,0,.78,5.87,5.87,0,0,0,0,1,2.84,2.84,0,0,1,0,1,1.17,1.17,0,0,0,0,.78,2.69,2.69,0,0,1,0,1.29c-.1.26.13.47.11.72s-.38.53-.36.91.47,1.42.41,1.69-.13.34-.2.65a3.94,3.94,0,0,0-.06,1.2,3.79,3.79,0,0,1,.08.93c0,.43-.18.34-.05.68a2.88,2.88,0,0,0,.19.52,2.15,2.15,0,0,1,.14.76c0,.41.21.44,0,.83s-.49.28-.42.76,0,.51.13.69a3.16,3.16,0,0,1,.13,1.37c-.09.3-.29-.1-.24.43a10.56,10.56,0,0,0,.34,1.19,9.21,9.21,0,0,1,.08,2.23c-.16.26-.4.07-.34.58s.07.44.18.61,0,.32,0,.95-.17.69,0,.9.48.13.38.57-.48.55-.46.93-.32.68.05,1,.47-.16.45.67-.3,1.12-.16,1.44.25-.05.27.53.08,1-.57,1-.46-.09-1.34-.07-.22-.29-1.13-.15a9.67,9.67,0,0,1-1.6.06c-.53,0-.53-.09-1-.06s-1.23.09-1.26-.14.49-.46-.53-.12-1.14,0-1.43.2-.08.34-.58.34-1.24.09-1.53-.36-.57-.34-.3-.67.49-.39.57-.52.18-.19,0-.48-.37-.29-.24-.58.21,0,.13-.46-.21-.35-.06-.58a2.72,2.72,0,0,0,.23-.66c.14-.38.23,0,.15-.51s-.14-.34-.24-.68,0-.39.12-.68.1-.29-.05-.52-.28-.26-.12-.49.35-.18.24-.53a2.12,2.12,0,0,0-.27-.6c-.11-.22-.33-.51,0-.73a.28.28,0,0,0,0-.51c-.12-.07-.14-.16-.18-.78s.16-1.43.12-1.66.1-.29,0-.77-.07-.51.07-.74.17-.18.27-.5,0-.36-.06-.78-.14-.43-.08-.66a1.66,1.66,0,0,0,.14-.61c0-.29.09.15,0-.56a8,8,0,0,0-.21-1c-.12-.49-.09-.06-.08-.67a2.72,2.72,0,0,1,.08-1c.14-.55.28-.51.3-.91a2.75,2.75,0,0,0,0-.71c0-.36-.09-.49-.14-.87a1.84,1.84,0,0,1,0-.67c0-.33.13-.39,0-.71s-.29-.17-.25-.51.17-.26-.05-.54-.62-.29-.48-.58.43-.46,0-.53-.76-.09-.77-.36-.3.09-.37.19-.23,0-.45.22-.17.36-.42.49-.34.29-.66.22-.55-.1-.67,0,.06.14-.25.22-.66.11-.71.19a1.39,1.39,0,0,1-.41.27c-.11,0-.62.07-.79-.13s-.32-.18-.19-.47a1.26,1.26,0,0,0,.16-.6,1,1,0,0,0-.11-.4,5.11,5.11,0,0,0-.25-.73c-.09-.14-.19-.23-.14-.42s.3-.22.17-.45,0-.25-.29-.43A1.4,1.4,0,0,1,386.23,191.59Z"/><path d="M500.35,196.8c-.05-.19.14-.17.14-.69A2.27,2.27,0,0,0,500,195c-.1-.18,0-.57,0-1s.08-.3.13-.79a4.78,4.78,0,0,0-.28-1.61,2,2,0,0,1,0-.89c0-.46-.18-.43-.23-.53a1.58,1.58,0,0,1-.1-.62c0-.34-.19-.37-.49-.83s-.17-.2-.17-.44a2.06,2.06,0,0,0-.24-.76,3.79,3.79,0,0,1-.31-.73c-.08-.29,0-.51-.13-.81s-.25-.12-.35-.32,0-.15-.43-.49-.27-.36.1-.44,0-.49,0-.95-.13-.49-.33-.77-.22-.16-.6-.56a3.19,3.19,0,0,0-.93-.7,1,1,0,0,1-.49-.52,10,10,0,0,0-.52-1c-.25-.41-.64-.69-.76-.9s-.46-.28-.81-.64a1,1,0,0,1-.39-.62c-.12-.33-.49-.51-.88-.85s-.81-.29-1.56-.54-.49,0-.87.1-.31-.25-.71-.68a4.67,4.67,0,0,0-1.21-.92c-.48-.29-.62-.07-.92-.12a2.86,2.86,0,0,1-1.05-.48c-.42-.27-.41.21-.66,0s-.66-.12-1.19-.43-.52.16-.74.21-.52.1-1.25-.36-.64-.29-1-.13a5.83,5.83,0,0,1-.61.18c-.32.12-.52.29-.89.09a7.18,7.18,0,0,0-.87-.34c-.44-.19-.35.22-.45.24a1.92,1.92,0,0,0-.81-.09,10.92,10.92,0,0,0-1.61.29c-.15.08-.42,0-.8-.09s-.69.34-.89.41-.46,0-.63.08a2.14,2.14,0,0,1-.79.31c-.24,0-.49-.07-.76.08a3.23,3.23,0,0,1-1.15.41c-.34,0-.37.25-1,.35a2.16,2.16,0,0,0-1.14.48c-.32.23-.91.66-.91.91s-.42.12-.76.22a1.19,1.19,0,0,0-.71.56,2.06,2.06,0,0,1-.46.47l-.3.31c-.09.08-.26-.11-.47,0s-.44.57-.82.83a3,3,0,0,0-1.06.94,11,11,0,0,1-1.15,1.3c-.1.17-.3.14-.52.53s-.53.68-.8,1.22a2.65,2.65,0,0,0-.22,1.3c0,.22-.15.27-.32.54a3.79,3.79,0,0,0-.3.93c-.06.17-.43.29-1,1a1.86,1.86,0,0,0-.47,1.47,5.86,5.86,0,0,0,0,1.51c.07.45-.12.39-.24,1.06a1.91,1.91,0,0,1-.3.86,1.27,1.27,0,0,1-.88.59c-.36.09-.29-.15-.48-.33s-.37.2-1,0-.44,0-.79,0-.48-.27-.73-.35-.49.07-.74.07-.19-.05-.48-.39a1,1,0,0,0-.72-.41c-.26,0-.61.31-.85.8s0,.74.14,1.2,0,.12-.14.45a5.39,5.39,0,0,0-.27.95c-.08.36,0,.14.19.47s.1.29-.05.61,0,0-.09.58,0,.4.14.79-.12.34-.36.54,0,.1.09.31.15.2.05.45-.27.53,0,.87.63.86.63.86a1.36,1.36,0,0,0,1,.34c.34,0,.26,0,.95-.06a2.65,2.65,0,0,0,.91-.1c.34-.08.36.07.64.31a1.58,1.58,0,0,0,.95.3c.34,0,.15-.07.66-.15s.2.19.56.56,0,.32-.09.62,0,.29.1.73a5.74,5.74,0,0,0,.34.76c.14.32.05.32.16.54a1.44,1.44,0,0,1,.25.64c.1.51-.09.27.15.54s.32.68.73.85,0,.44,0,.64a2,2,0,0,0-.05.75c0,.49.51.79.71.94s.27.17.61.8,0,.27,0,.59.12.4.4.84a3.85,3.85,0,0,1,.39.93,1.13,1.13,0,0,0,.63.34c.25,0,.32.34.42.41a1.91,1.91,0,0,1,.36.66c.06.2.08.27.18.66s.32.22.63.42a4.55,4.55,0,0,1,.4.3,2.13,2.13,0,0,1,.31.66c.12.31.15.31.42.49a1.28,1.28,0,0,0,.74.29c.49.1.27.07.49.41s.09.49.29.77a1,1,0,0,0,.88.44c.34,0,.34-.13.9.48s.17.38.49.43.4.11.94.19.19.2.68.2a5,5,0,0,1,.88.09c.46.05.47.24.66.45a.77.77,0,0,0,.67.26,1.43,1.43,0,0,1,.75.2c.37.17.18.15.57.29s.09.2.56.42.64-.15,1-.25.39.18.83.49.32.4.78.44a1.58,1.58,0,0,0,.85-.07,10.37,10.37,0,0,1,1.18-.08,1.44,1.44,0,0,1,1,.11,5.49,5.49,0,0,0,1.44.07c.52,0,.67,0,1.5-.1s.37,0,.73-.07a4.54,4.54,0,0,0,.74-.1c.34-.05.42,0,.66-.07a3.46,3.46,0,0,1,.81-.05c.31,0,.85,0,1.54-.05a9.24,9.24,0,0,0,1.17-.2,1.79,1.79,0,0,0,.72-.46c.19-.13.29.07.75.05a4.16,4.16,0,0,0,.91-.08,1.52,1.52,0,0,0,.73-.31c.13-.11.18-.23.76-.18s.88-.27,1.37-.36.4-.23.59-.4.4.17.49.34.12.05.4-.58.32-.1.61-.35.63-.21,1.24-.49.67-.12,1.13-.22.34-.41.59-.71.42.05.37.17.46.15.88-.26a1.69,1.69,0,0,0,.34-1.59c-.14-.47,0-.4.17-.61s-.27-.35-.37-.64.22-.39.3-.91a10.82,10.82,0,0,1,.17-1.32c.12-.34,0-.27,0-.61s.1-.3.27-.71.13-.45.05-.64a.87.87,0,0,1-.14-.61c.05-.27.12-.44.19-.81s-.2-.29-.36-.46-.25-.17-.94-.1-.29.22-.51.44-.39.29-.46.46a.53.53,0,0,1-.44.39c-.27,0-.25.25-.62.42s-.39.13-.69.29a1,1,0,0,0-.43.35s-.79.15-1.27.22-.45.44-1.11.56-.61.42-.71.56-.19,0-.95,0a2.69,2.69,0,0,0-1.06.2,7.6,7.6,0,0,0-1.05.41c-.49.2-.58.32-.88.18a2.25,2.25,0,0,0-1,0c-.3,0-.5.27-.91.38s-.56,0-1.32-.14-.4,0-.71.24-.51,0-1-.21-1.32.24-1.86.24-.46,0-.73-.07-.25-.15-.61-.32-.55-.07-1.08-.05a5.11,5.11,0,0,1-.64,0c-.41,0-.25-.05-.58-.14s-.3-.15-.57-.37-.37-.22-1-.42-.27.18-.49.18-.2,0-.68-.25-.47-.14-.91-.39a6.46,6.46,0,0,0-.86-.42c-.31-.14-.42-.22-1-.54s-.51-.43-.64-.83-.2-.22-.34-.46a6.17,6.17,0,0,1-.39-.61c-.1-.22-.47-.33-.74-.59s-.12-.35-.39-.54a1,1,0,0,1-.46-.68,1.83,1.83,0,0,0-.27-.64c-.2-.34-.13-.13-.34-.5a1.24,1.24,0,0,1-.23-.63c-.12-.49-.43-1-.51-1.28a5.7,5.7,0,0,0-.66-1c-.27-.42.15-.37.39-.71s.3-.17.39-.2.25,0,.5,0a5.91,5.91,0,0,0,.92-.12c.69-.1.57,0,.88,0s.49,0,1.06,0,.56,0,.73-.15.18.05.61,0,.28,0,.81,0,.35.06.86.11.29,0,.91-.08.29,0,.07.14.12,0,1,.08a2.28,2.28,0,0,0,.49,0s0,0,.23.07a2,2,0,0,0,.85.06,1.41,1.41,0,0,0,1-.37,1.25,1.25,0,0,1,.94,0,6.38,6.38,0,0,0,.83.32c.32.08.58-.17.76-.29s.7.17,1,.22.46-.11.76-.17a7.59,7.59,0,0,1,1.08,0,1.39,1.39,0,0,0,.9-.2c.47-.2.39-.08,1-.13a1.23,1.23,0,0,1,.71.06,4.65,4.65,0,0,0,.88.24c.29,0,.29-.12,1-.2a3.82,3.82,0,0,0,.93-.24c.51-.12.42,0,.88.05s.52-.07,1.1-.17.3-.1.59-.39.42.16.77.16a2.8,2.8,0,0,0,.65-.12c.23,0,.59,0,1.08-.1a9.48,9.48,0,0,1,1.1.06,2,2,0,0,0,1.05-.18c.49-.17.45.08.93,0a4.36,4.36,0,0,0,.88-.24c.27-.1.42.09.67.09s.27-.06.58-.24.16-.85.11-1.18.14-.39.16-.61A5.22,5.22,0,0,0,500.35,196.8Zm-11.07-3.38c-.23.1-.5,0-.86.12s-.29.23-.42.23-.41-.17-.44-.12a4.37,4.37,0,0,1-.66.28c-.32.13-.41.23-.54.28s-.34,0-.42,0a.23.23,0,0,1-.22,0,.71.71,0,0,0-.43-.09c-.27,0-.47-.2-.59-.15s0-.08-.37.07-.68,0-.85.07-.57.15-.66.3,0,.19-.37.19a1.37,1.37,0,0,1-.62-.11c-.22-.06-.32-.27-.68-.27a3.69,3.69,0,0,0-.73,0,1.1,1.1,0,0,1-.57,0c-.34,0-.42-.17-.49,0s0,.3-.2.22-.32-.24-.51-.07a1.24,1.24,0,0,1-.59.29c-.15,0-.14.17-.42,0a3.55,3.55,0,0,0-.48-.3c-.05,0,0-.29-.23-.3a1.8,1.8,0,0,0-.58-.09c-.46,0-.52.08-.73,0s-.06,0-.38.13-.63.15-.87.25-.31.19-.52.17a4.45,4.45,0,0,0-.81,0c-.13,0-.13,0-.24,0s-.13.07-.3,0-.21-.07-.33,0-.13.12-.33,0-.29-.22-.57-.15a1,1,0,0,1-.65,0c-.27-.07,0-.28-.45-.3s-.44-.13-1-.16a2.6,2.6,0,0,0-.71,0c-1,.05-1-.1-1-.1a.92.92,0,0,0-.11-.57.78.78,0,0,1-.18-.68c.05-.37,0-.49.12-.62a2.77,2.77,0,0,0,.44-.75c0-.15-.14-.1,0-.44s.13-.4.1-.54a1,1,0,0,1-.07-.49c0-.27-.07-.47,0-.59s.05-.17.52-.51.31-.3.53-.5.16-.34.25-.44a1.51,1.51,0,0,0,.3-.53c.07-.23.09-.34.31-.45a2,2,0,0,0,.51-.29,1.79,1.79,0,0,0,.37-.48,3.11,3.11,0,0,1,.18-.81c.19-.55,0-.42.34-.66s.32-.38.61-.49a2.94,2.94,0,0,0,1.17-.59,2.8,2.8,0,0,1,.49-.52,5,5,0,0,1,.76-.66c.18-.1.27-.22.38-.14s.55.16.61,0,.16-.36.29-.2a.5.5,0,0,0,.58.18c.33-.07,0-.17.64-.18s.62,0,.89-.19.71-.59.71-.41-.08.31.17.27a1.62,1.62,0,0,0,.66-.32.66.66,0,0,1,.63-.1,4.22,4.22,0,0,0,.74.19c.36.05.22,0,.41-.07a.84.84,0,0,1,.61,0c.23.09.23-.06.54.14s.52.37.71.51a4.15,4.15,0,0,0,1.13.52c.24,0,.57,0,.64.29s.27.15.61.59a2.91,2.91,0,0,0,.76.71c.25.18.68.2.76.34s0,.13.14.32a2.57,2.57,0,0,0,.39.35c.18.15.27.12.32.37a8,8,0,0,0,.49,1c.07.18.5.24.57.47s.09.1.07.56a2.79,2.79,0,0,0,.13,1,1.72,1.72,0,0,1,.24.56c0,.22.54.84,0,.88s-.29.22-.09.55.41.56.34.71,0,.44-.17.65a.83.83,0,0,0-.2.67c0,.29.05.48.17.56S489.52,193.32,489.28,193.42Z"/><polygon points="729.92 224.4 702.28 139.4 721.54 125.58 720.09 123.57 570.83 231.07 742.48 231.09 742.48 224.4 729.92 224.4"/><path class="cls-1" d="M657,220.58c-8.27,0-15-9.41-15-21s6.73-21,15-21,15,9.4,15,21-6.73,21-15,21"/><path class="cls-1" d="M692.75,212.3c-8.63,0-15.65-9.87-15.65-22s7-22,15.65-22,15.65,9.87,15.65,22-7,22-15.65,22"/><path d="M660.23,183.51c-3.31,0-6,3.69-6,8.26s2.68,8.26,6,8.26,6-3.7,6-8.26-2.69-8.26-6-8.26"/><path d="M695.39,172.37c-3.45,0-6.25,3.84-6.25,8.57s2.8,8.57,6.25,8.57,6.25-3.84,6.25-8.57-2.8-8.57-6.25-8.57"/><path d="M676.73,256.7c0,2.13-2,3.17-3.84,3.17s-3.87-1-3.87-3.17V239.5h-6.19v17.41c0,5.57,4.89,8.79,10.06,8.79s10.1-3.22,10.1-8.79V239.5h-6.26Z"/><path d="M594.78,249.57c-2.31-.26-4.21-.63-4.07-2.57.23-3.27,7.12-3.38,7.12,0h6.23c.15-11.08-19.81-11.12-19.59,0,.07,5.58,3.88,7.36,9.32,7.92,2.56.27,4.69.57,4.7,2.37,0,3.07-8,2.95-8-.31H584.1c-.14,11.3,20.77,11.2,20.77.31,0-6.3-5-7.17-10.09-7.72"/><path d="M624.31,256.7c0,2.13-2,3.17-3.84,3.17s-3.87-1-3.87-3.17V239.5h-6.19v17.41c0,5.57,4.88,8.79,10.06,8.79s10.1-3.22,10.1-8.79V239.5h-6.26Z"/><polygon points="656.51 239.5 637.33 239.5 637.33 245.29 646.74 245.29 636.38 264.84 656.62 264.84 656.62 259.05 646.12 259.05 656.51 239.5"/><path d="M700.88,239.5H689.76v25.34h6.48v-7.46h3.37l4.34,7.46h7.69l-5.4-9c6.4-4.34,4.59-16.33-5.36-16.36m0,12.05h-4.64v-6.26c1.52,0,3.12,0,4.64,0,3.69,0,3.51,6.26,0,6.26"/><polygon points="729.83 245.14 729.83 239.5 717.22 239.5 717.22 245.14 720.32 245.14 720.32 259.15 717.22 259.15 717.22 264.84 729.83 264.84 729.83 259.15 726.72 259.15 726.72 245.14 729.83 245.14"/><path class="cls-2" d="M89.27,19.65V44.17h9.46v5.94H82.24V19.65Z"/><path class="cls-3" d="M129.1,23.24a16,16,0,0,1,4.81,11.66,16,16,0,0,1-4.81,11.57A16.48,16.48,0,0,1,117.16,51a17,17,0,0,1-12-4.54A15.77,15.77,0,0,1,100.31,35a17.24,17.24,0,0,1,4.77-11.71c2.08-2.08,5.92-4.53,12.08-4.53A16.49,16.49,0,0,1,129.1,23.24ZM110.35,28a9.45,9.45,0,0,0-2.73,7,9.2,9.2,0,0,0,2.83,6.94,9.07,9.07,0,0,0,6.61,2.55,9.39,9.39,0,0,0,6.86-2.64,9.28,9.28,0,0,0,2.68-6.9A9.77,9.77,0,0,0,123.92,28a9.94,9.94,0,0,0-6.81-2.64A9.48,9.48,0,0,0,110.35,28Z"/><path class="cls-4" d="M146,19.65V44.17h9.46v5.94H139V19.65Z"/><path class="cls-5" d="M168.74,19.65V50.11h-7V19.65Z"/><path class="cls-6" d="M187,19.65c2.65,0,5.57.36,8,2.51a9.38,9.38,0,0,1,3,7.4,9.82,9.82,0,0,1-2.6,7.17c-2.42,2.47-5.62,2.69-7.77,2.69h-4.29V50.11h-7V19.65Zm-3.7,14h2.51a5.41,5.41,0,0,0,3.79-1.14,4.24,4.24,0,0,0,1.14-3,4,4,0,0,0-1.14-3,5.51,5.51,0,0,0-3.93-1.14h-2.37Z"/><path class="cls-7" d="M229.64,23.24a16,16,0,0,1,4.81,11.66,16,16,0,0,1-4.81,11.57A16.48,16.48,0,0,1,217.7,51a17,17,0,0,1-12-4.54A15.77,15.77,0,0,1,200.85,35a17.24,17.24,0,0,1,4.77-11.71c2.08-2.08,5.92-4.53,12.08-4.53A16.49,16.49,0,0,1,229.64,23.24ZM210.89,28a9.45,9.45,0,0,0-2.73,7A9.2,9.2,0,0,0,211,41.89a9.07,9.07,0,0,0,6.61,2.55,9.39,9.39,0,0,0,6.86-2.64,9.28,9.28,0,0,0,2.68-6.9A9.77,9.77,0,0,0,224.46,28a9.94,9.94,0,0,0-6.81-2.64A9.48,9.48,0,0,0,210.89,28Z"/><path class="cls-8" d="M249.44,19.65c2.65,0,5.58.36,8,2.51a9.38,9.38,0,0,1,3,7.4,9.77,9.77,0,0,1-2.61,7.17c-2.42,2.47-5.62,2.69-7.76,2.69h-4.3V50.11h-7V19.65Zm-3.7,14h2.52a5.41,5.41,0,0,0,3.79-1.14,4.24,4.24,0,0,0,1.14-3,4,4,0,0,0-1.14-3,5.51,5.51,0,0,0-3.93-1.14h-2.38Z"/><path class="cls-9" d="M268.33,42.53a4.16,4.16,0,1,1-4.15,4.16A4.12,4.12,0,0,1,268.33,42.53ZM265,40.29V19.65h6.76V40.29Z"/><path class="cls-10" d="M82.43,78.2a3.82,3.82,0,0,0,.38-1.89V62.51a16.69,16.69,0,0,0-.33-3.21h4.84A19.81,19.81,0,0,0,87,62.51v13a29.86,29.86,0,0,0,12.61-8.28l2.19,3.52c-3.59,4.2-8.91,7.18-14.72,9.22a6.78,6.78,0,0,0-1.76.81Z"/><path class="cls-11" d="M116.13,73a24.68,24.68,0,0,0,9.73-10.19l2.39,4.36a27.6,27.6,0,0,1-9.91,9.65,27,27,0,0,1-9.11,3.36l-2.63-4.07A26.27,26.27,0,0,0,116.13,73Zm.56-8.07-3.16,3.23a53.22,53.22,0,0,0-6.39-5.58l2.93-3.13A52.29,52.29,0,0,1,116.69,64.88Z"/><path class="cls-12" d="M153.79,62.86a14.07,14.07,0,0,0-1,2.12,28.9,28.9,0,0,1-4.17,8.28,24,24,0,0,1-9.33,7.61l-3.56-3.16a20.79,20.79,0,0,0,7.77-4.91c-1.23-.89-2.7-1.91-4.31-2.88l2.62-3c1.56.86,3,1.78,4.34,2.64a18.12,18.12,0,0,0,2.16-4.91h-6.5a28.18,28.18,0,0,1-6.36,6.75L132,68.9a24.66,24.66,0,0,0,7.67-8.79,12.54,12.54,0,0,0,1-2.8l4.56,1.4c-.51.92-.94,1.71-1.32,2.5h4.43a7.76,7.76,0,0,0,2.52-.36Z"/><path class="cls-13" d="M156.69,77.59a10.86,10.86,0,0,0,4.13-5.79c.71-2.08.74-6.52.74-9.7a10.21,10.21,0,0,0-.28-2.62h4.53a20.49,20.49,0,0,0-.2,2.57c0,3.13-.08,8.2-.74,10.77a15.26,15.26,0,0,1-4.56,7.49Zm11.72.73a9.5,9.5,0,0,0,.23-2.11V61.85a13.28,13.28,0,0,0-.23-2.37H173a15.63,15.63,0,0,0-.2,2.39V74.15a14.3,14.3,0,0,0,5.65-4.87l2.37,3.42a29.36,29.36,0,0,1-8.61,6.9,7.9,7.9,0,0,0-1.22.84Z"/><path class="cls-14" d="M203,63.27a18.77,18.77,0,0,0,3-.18v4c-.71-.07-1.61-.07-3-.07h-1.27v.61c0,5.88-1.86,10.08-8.1,12.81l-3.11-3.06c5-1.63,7.26-4,7.26-9.65V67h-5.52v2.75c0,1.19.07,2.19.12,2.82h-4.2a23.74,23.74,0,0,0,.15-2.82V67h-1.65c-1.33,0-2.09,0-2.83.1V63a18.55,18.55,0,0,0,2.83.23h1.65V61.21a19.33,19.33,0,0,0-.18-2.5h4.28a21.2,21.2,0,0,0-.17,2.52v2h5.52V60.93a16.61,16.61,0,0,0-.15-2.47h4.28a19.53,19.53,0,0,0-.18,2.47v2.34Z"/><path class="cls-15" d="M210.42,71.56V66.73l.57,0c.74.06,2.34.13,3.3.13h10.23c.65,0,1.34-.05,1.89-.1l1-.07v4.81l-.56,0-.67,0c-.52,0-1.16-.07-1.68-.07H214.29c-1.1,0-2.54,0-3.3.11Z"/><path class="cls-16" d="M236.92,61l4.51.94c-.23.82-.59,2.35-.69,2.93a61.88,61.88,0,0,1-2.09,7.49,35.17,35.17,0,0,1-3.74,7.44L230.55,78a31,31,0,0,0,4-7.15A37.37,37.37,0,0,0,236.92,61Zm6.52,1,4.12-1.33c1.1,2,2.91,6.19,3.8,8.51s2.19,6.34,2.9,9l-4.61,1.5a80.13,80.13,0,0,0-2.52-9.11A70.14,70.14,0,0,0,243.44,62Zm8.63-.18-2.42,1a32.32,32.32,0,0,0-2-3.54l2.4-1C250.72,59.27,251.61,60.93,252.07,61.82Zm3.16-1.25-2.39,1a27.94,27.94,0,0,0-2-3.51l2.61-1A31.25,31.25,0,0,1,255.23,60.57Z"/><path class="cls-17" d="M257.65,71.56V66.73l.58,0c.73.06,2.33.13,3.29.13h10.24c.64,0,1.33-.05,1.89-.1l1-.07v4.81l-.55,0-.68,0c-.51,0-1.15-.07-1.67-.07H261.52c-1.09,0-2.53,0-3.29.11Z"/><path class="cls-18" d="M62.44,70.72a8.51,8.51,0,0,1-4.27,7.39l-18,10.4a13.35,13.35,0,0,1-13.34,0l-18-10.4a8.53,8.53,0,0,1-4.27-7.39V69.11a1,1,0,0,1,1.58-.9,12.74,12.74,0,0,0,14.26-.59,1.29,1.29,0,0,1,1.88.44,12.77,12.77,0,0,0,22.54-.22,1.27,1.27,0,0,1,1.68-.56,12.35,12.35,0,0,0,5.36,1.12c4.63,0,10.63-4.7,11-11.07.45-7.9-5.58-12.76-12.56-12.76-18.77,0-27.23,17.51-38.66,20.19C4.2,66.49-1.27,61,.82,49.79,5.09,26.94,28.26,6.89,37.48,9.24c6.64,1.69-1.37,13.58,4.4,15.48C70.41,34.09,71.51,59.45,62.44,67Z"/><path class="cls-1" d="M12.85,70.11a12.72,12.72,0,0,0,6.74-1.93c.28-.18.55-.36.81-.56a1.32,1.32,0,0,1,.77-.24,1.28,1.28,0,0,1,1.11.68,12.77,12.77,0,0,0,22.54-.22,2.39,2.39,0,0,1,.13-.21A1.27,1.27,0,0,1,46,67.16a1.41,1.41,0,0,1,.48.12,12.35,12.35,0,0,0,5.36,1.12c4.63,0,10.63-4.7,11-11.07.45-7.9-5.58-12.76-12.56-12.76-15.54,0-24,12-33,17.66l-1,.61c-.51.29-1,.56-1.53.8-.35.16-.69.31-1,.45s-.7.26-1.05.37-.7.21-1.06.3C4.2,66.49-1.27,61,.82,49.79c-3.36,14.62,4.63,18,5.32,18.42A12.74,12.74,0,0,0,12.85,70.11Z"/><path class="cls-19" d="M465,40.81l-5.42-9.27a.33.33,0,0,0-.46-.12.34.34,0,0,0-.16.29V45a1.09,1.09,0,0,1-1.09,1.09h-4.77A1.08,1.08,0,0,1,452,45V18.25a1.08,1.08,0,0,1,1.08-1.09h5.25a1.07,1.07,0,0,1,.92.52l7,11.36a.56.56,0,0,0,.77.18.62.62,0,0,0,.18-.18l7-11.36a1.08,1.08,0,0,1,.92-.52h5.25a1.08,1.08,0,0,1,1.08,1.09V45a1.08,1.08,0,0,1-1.08,1.09h-4.77A1.08,1.08,0,0,1,474.48,45V31.69a.34.34,0,0,0-.34-.34.32.32,0,0,0-.29.17l-5.53,9.29a1.07,1.07,0,0,1-.92.52h-1.49A1.1,1.1,0,0,1,465,40.81Zm82.76,0-5.42-9.27a.33.33,0,0,0-.46-.12.34.34,0,0,0-.16.29V45a1.09,1.09,0,0,1-1.09,1.09h-4.77A1.09,1.09,0,0,1,534.76,45V18.25a1.09,1.09,0,0,1,1.08-1.09h5.25a1.07,1.07,0,0,1,.92.52L549,29a.56.56,0,0,0,.77.18.62.62,0,0,0,.18-.18l7-11.36a1.1,1.1,0,0,1,.92-.52h5.25a1.08,1.08,0,0,1,1.08,1.09V45a1.08,1.08,0,0,1-1.08,1.09h-4.77A1.08,1.08,0,0,1,557.24,45V31.69a.34.34,0,0,0-.34-.34.32.32,0,0,0-.29.17l-5.53,9.29a1.07,1.07,0,0,1-.92.52h-1.49A1.1,1.1,0,0,1,547.74,40.81Zm-54.41,5.32c-2.85,0-4.92-.91-6.11-2.56a10.14,10.14,0,0,1-1.78-6.12V25.74a1.08,1.08,0,0,1,1.08-1.08h4.83a1.08,1.08,0,0,1,1.09,1.08V37.28a3.1,3.1,0,0,0,.72,2.21,2.65,2.65,0,0,0,2,.77,5.34,5.34,0,0,0,1.91-.43,3.16,3.16,0,0,0,2-3V25.74a1.08,1.08,0,0,1,1.09-1.08h4.83a1.08,1.08,0,0,1,1.08,1.08V45a1.09,1.09,0,0,1-1.08,1.09h-4.83A1.09,1.09,0,0,1,499.13,45v-.43s-.25.11-1.5.58A12.58,12.58,0,0,1,493.33,46.13Zm82.77,0c-2.86,0-4.93-.91-6.12-2.56a10.14,10.14,0,0,1-1.78-6.12V25.74a1.08,1.08,0,0,1,1.08-1.08h4.83a1.08,1.08,0,0,1,1.09,1.08V37.28a3.1,3.1,0,0,0,.72,2.21,2.66,2.66,0,0,0,2,.77,5.34,5.34,0,0,0,1.91-.43,3.16,3.16,0,0,0,2-3V25.74A1.08,1.08,0,0,1,583,24.66h4.83a1.08,1.08,0,0,1,1.08,1.08V45a1.09,1.09,0,0,1-1.08,1.09H583A1.09,1.09,0,0,1,581.89,45v-.43s-.25.11-1.5.58A12.53,12.53,0,0,1,576.1,46.13Zm-58.05,0c-2.85,0-4.93-.91-6.11-2.56a10.14,10.14,0,0,1-1.78-6.12V25.74a1.08,1.08,0,0,1,1.08-1.08h4.83a1.08,1.08,0,0,1,1.08,1.08V37.28a3.1,3.1,0,0,0,.72,2.21,2.67,2.67,0,0,0,2,.77,5.38,5.38,0,0,0,1.91-.43,3.18,3.18,0,0,0,2-3V25.74a1.08,1.08,0,0,1,1.08-1.08h4.83a1.08,1.08,0,0,1,1.09,1.08V45a1.09,1.09,0,0,1-1.09,1.09h-4.83A1.09,1.09,0,0,1,523.85,45v-.43s-.25.11-1.5.58A12.58,12.58,0,0,1,518.05,46.13Zm82.76,0c-2.85,0-4.93-.91-6.11-2.56a10.14,10.14,0,0,1-1.78-6.12V25.74A1.08,1.08,0,0,1,594,24.66h4.83a1.08,1.08,0,0,1,1.08,1.08V37.28a3.1,3.1,0,0,0,.72,2.21,2.67,2.67,0,0,0,2,.77,5.38,5.38,0,0,0,1.91-.43,3.18,3.18,0,0,0,2-3V25.74a1.08,1.08,0,0,1,1.08-1.08h4.83a1.08,1.08,0,0,1,1.09,1.08V45a1.09,1.09,0,0,1-1.09,1.09h-4.83A1.09,1.09,0,0,1,606.61,45v-.43s-.25.11-1.5.58A12.58,12.58,0,0,1,600.81,46.13ZM465.68,84H453.25A1.24,1.24,0,0,1,452,82.73v-30a1.24,1.24,0,0,1,1.25-1.22h12.43c5.19,0,9.12,1.51,11.76,4.51a16.77,16.77,0,0,1,4,11.52q0,7.53-4.31,12T465.68,84ZM465.56,58h-5.28a.56.56,0,0,0-.56.56V76.9a.56.56,0,0,0,.56.56h4.92a8,8,0,0,0,5.95-2.4q2.33-2.41,2.32-7.54a11.08,11.08,0,0,0-2-6.88A7,7,0,0,0,465.56,58Zm30.78,26A12.14,12.14,0,1,1,508.7,71.81,12.14,12.14,0,0,1,496.34,84Zm.06-6.38a5.72,5.72,0,1,0-5.26-5.7A5.46,5.46,0,0,0,496.4,77.57Zm44.75-17.86q4.59,0,6.65,2.78a11.33,11.33,0,0,1,2.06,6.91V82.75A1.23,1.23,0,0,1,548.64,84h-5.45A1.22,1.22,0,0,1,542,82.75V69.6a3.62,3.62,0,0,0-.79-2.5,2.74,2.74,0,0,0-2.13-.86,5.72,5.72,0,0,0-2.23.52,3.76,3.76,0,0,0-2.25,3.47l.07,12.51A1.23,1.23,0,0,1,533.43,84H528a1.22,1.22,0,0,1-1.22-1.23V69.6a3.62,3.62,0,0,0-.79-2.5,2.74,2.74,0,0,0-2.13-.86,5.33,5.33,0,0,0-2,.45,3.49,3.49,0,0,0-2.15,3.22V82.75A1.23,1.23,0,0,1,518.46,84h-5.41a1.23,1.23,0,0,1-1.22-1.23V60.93a1.22,1.22,0,0,1,1.22-1.22h5.41a1.22,1.22,0,0,1,1.22,1.22v.49a6.05,6.05,0,0,1,1.55-.78,12.21,12.21,0,0,1,4.76-.93,9.29,9.29,0,0,1,4.07.81,7.81,7.81,0,0,1,2.72,2.16,17,17,0,0,1,3.69-2A12.1,12.1,0,0,1,541.15,59.71Zm22.08,0a9.77,9.77,0,0,1,7.14,2.65A8.29,8.29,0,0,1,573,68.77v14A1.23,1.23,0,0,1,571.78,84h-5.44a1.22,1.22,0,0,1-1.22-1.23v-.12A5.71,5.71,0,0,1,561.4,84c-2.9,0-5.11-.7-6.52-2.14a7.73,7.73,0,0,1-2.13-5.67,6.39,6.39,0,0,1,2.49-5.55,10.77,10.77,0,0,1,6.49-1.8h3.39a3.46,3.46,0,0,0-1-1.76,3.28,3.28,0,0,0-2.21-.84,11,11,0,0,0-3.08.44c-.52.13-1.15.32-1.89.58a1.21,1.21,0,0,1-1.55-.74l-1.3-3.41a1.23,1.23,0,0,1,.71-1.56,26.39,26.39,0,0,1,3.32-1.09A21.65,21.65,0,0,1,563.23,59.71Zm1.26,14h-2.77a2.13,2.13,0,0,0-1.72.78,2.82,2.82,0,0,0-.66,1.88,2.21,2.21,0,0,0,.58,1.51,1.89,1.89,0,0,0,1.43.64,3.66,3.66,0,0,0,1.85-.4c.27-.15.63-.37,1.07-.67A1.82,1.82,0,0,0,565,76v-1.7A.56.56,0,0,0,564.49,73.72Zm19.39-12.13a1.22,1.22,0,0,1,1.22,1.22V82.74A1.22,1.22,0,0,1,583.88,84h-5.39a1.22,1.22,0,0,1-1.22-1.22V62.81a1.22,1.22,0,0,1,1.22-1.22ZM581.17,51.5a4,4,0,1,1-4,4A4,4,0,0,1,581.17,51.5Zm23.43,8.21c3.23,0,5.53.93,6.92,2.78a11.21,11.21,0,0,1,2.09,6.91V82.75A1.23,1.23,0,0,1,612.38,84H607a1.23,1.23,0,0,1-1.22-1.23V69.6a3.31,3.31,0,0,0-.89-2.5,3.23,3.23,0,0,0-2.37-.86,6.52,6.52,0,0,0-2.34.52,3.79,3.79,0,0,0-2.4,3.52V82.75A1.23,1.23,0,0,1,596.53,84h-5.41a1.22,1.22,0,0,1-1.22-1.23V60.93a1.22,1.22,0,0,1,1.22-1.22h5.41a1.22,1.22,0,0,1,1.22,1.22v.61l1.89-.85A14.49,14.49,0,0,1,604.6,59.71Z"/><path class="cls-20" d="M412.43,72.13a11.85,11.85,0,1,0,23.69,0V27.4c0-10.7-11.28-15.38-19.07-9.39L396.79,33.59a2.36,2.36,0,0,1-3.21,0L373.32,18a11.84,11.84,0,1,0-14.44,18.77L388,59.15a11.21,11.21,0,0,0,14.45,0q6.91-5.32,7.9-6.07a1.25,1.25,0,0,1,2.12,1Z"/><circle class="cls-21" cx="366.39" cy="71.8" r="12.13"/><path d="M829.42,40.51v30.4H837V58.25a.3.3,0,0,1,.06-.18.27.27,0,0,1,.2-.06h3.19a.84.84,0,0,1,.68.41l7,12.49H857L848.4,57.16a8.49,8.49,0,0,0,5.06-3.06,9.68,9.68,0,0,0,1.91-6,10.36,10.36,0,0,0-1-4.9A8.55,8.55,0,0,0,851.45,40a12.14,12.14,0,0,0-4.14-1.65,23.56,23.56,0,0,0-4.91-.49H832A2.45,2.45,0,0,0,829.42,40.51ZM837,44.77c0-.09,0-.27.27-.27h4.91a15,15,0,0,1,2,.14,5.43,5.43,0,0,1,1.71.48,3.11,3.11,0,0,1,1.17,1,3,3,0,0,1,.45,1.74,3.56,3.56,0,0,1-.51,2,3.11,3.11,0,0,1-1.31,1,6.4,6.4,0,0,1-1.88.38c-.73.05-1.42.07-2.07.07h-4.43a.36.36,0,0,1-.23-.06.24.24,0,0,1,0-.15Z"/><path d="M917.77,44.73h15.32V37.87H912.38a2,2,0,0,0-2,2V69.18a1.86,1.86,0,0,0,.52,1.27,1.68,1.68,0,0,0,1.24.46h21v-7H917.84a.32.32,0,0,1-.36-.29v-5.9c0-.14,0-.32.35-.32h14.49v-6.6H917.84c-.2,0-.36,0-.36-.37V45.05C917.48,44.84,917.57,44.73,917.77,44.73Z"/><path d="M901.39,37.87h-5.85a2.94,2.94,0,0,0-2.4,1.9l-6.33,12.8-6.28-12.76A2.94,2.94,0,0,0,878,37.87h-5.52A2,2,0,0,0,870.42,40V70.91h7.34V48.09L883.51,60c.07.13.71,1.28,1.61,1.28h3.11a2,2,0,0,0,1.55-1.12L895.85,48V70.91h7.49V39.81A1.89,1.89,0,0,0,901.39,37.87Z"/><path d="M807.73,36.83c-9.37,0-15.92,7.22-15.92,17.56,0,10.5,6.4,17.56,15.92,17.56s15.93-7.22,15.93-17.56C823.66,44.22,817,36.83,807.73,36.83Zm0,6.87c5.44,0,7.87,5.39,7.87,10.72,0,4.95-2.06,10.73-7.87,10.73-7.09,0-7.86-7.5-7.86-10.73C799.87,49.48,801.93,43.7,807.73,43.7Z"/><path d="M775.33,63.2c-.29,0-.38-.13-.39-.35v-25h-8.15v30.3a3.18,3.18,0,0,0,.79,2.12,2.28,2.28,0,0,0,1.65.62h19.32V63.2Z"/><path d="M745,36.83c-9.37,0-15.92,7.22-15.92,17.56,0,10.5,6.4,17.56,15.92,17.56s15.93-7.22,15.93-17.56C760.91,44.22,754.21,36.83,745,36.83Zm0,6.87c5.44,0,7.87,5.39,7.87,10.72,0,4.95-2.06,10.73-7.87,10.73-7.09,0-7.86-7.5-7.86-10.73C737.12,49.48,739.18,43.7,745,43.7Z"/><path d="M724.81,70.73l-.22-7a18.7,18.7,0,0,1-6.88,1.17,8.62,8.62,0,0,1-3.59-.75A8.81,8.81,0,0,1,711.21,62a10,10,0,0,1-2-3.22,12.64,12.64,0,0,1-.72-4.35,14.06,14.06,0,0,1,.72-4.56,9.79,9.79,0,0,1,2-3.23,9,9,0,0,1,3-2.11,11.55,11.55,0,0,1,3.75-.76,17,17,0,0,1,6.63,1.11l.23-7a22.34,22.34,0,0,0-6.59-1.07,22,22,0,0,0-7,1.22,17.29,17.29,0,0,0-5.93,3.53,16.06,16.06,0,0,0-3.9,5.58,19.65,19.65,0,0,0,0,14.57,16,16,0,0,0,3.9,5.58,17.31,17.31,0,0,0,5.93,3.54,22.06,22.06,0,0,0,7,1.21A17.25,17.25,0,0,0,724.81,70.73Z"/><path d="M915.83,16.27,816.53,0,719.29,16.28a2.36,2.36,0,0,0-1.82,2.44V29l7.41,0V22.69a.34.34,0,0,1,.28-.33L816.53,7,910,22.36a.31.31,0,0,1,.28.33v6.25l7.4,0V18.72A2.38,2.38,0,0,0,915.83,16.27Z"/><path d="M910.62,86.45c-.12,1.91-1.09,9.18-9.37,9.46v3.4C912.57,98.68,913.86,89,914,86.64a2.88,2.88,0,0,0,.59.06,3.48,3.48,0,1,0-3.42-4H897.66V86H910.1C910.74,86,910.62,86.45,910.62,86.45Zm4-1.89a1.34,1.34,0,1,1,1.34-1.33A1.34,1.34,0,0,1,914.6,84.56Z"/><path d="M892.21,88.63s.17,10.08-10.65,10.71V96.49c8.13-.48,7.83-7.87,7.83-7.87V86.25h2.82Z"/><polygon points="880.8 91 877.95 91 877.38 86.25 880.22 86.25 880.8 91"/><polygon points="885.31 91 882.47 91 882.18 86.25 885.01 86.25 885.31 91"/><path d="M869.46,86.25h-9.24v2.84h7.58c.78,0,.85.08.85.72v1.71h-7.59v2.4h7.59v2.44h-8.43v2.83h11.45v-11C871.67,86.34,871.51,86.25,869.46,86.25Z"/><polygon points="837.58 80.58 837.58 84.03 844.7 85.38 844.7 81.92 837.58 80.58"/><polygon points="836.47 86.46 836.47 89.91 843.59 91.26 843.59 87.8 836.47 86.46"/><path d="M851,86.25h3.42S853,98.58,837.58,99.31v-3.4s9.47.54,13.42-9.66"/><rect x="811.84" y="87.72" width="17.54" height="3.42"/><polygon points="804.87 82.85 804.87 86.29 791.64 83.81 791.64 80.37 804.87 82.85"/><polygon points="803.87 89.37 792.46 87.25 792.46 90.41 803.87 92.53 803.87 89.37"/><polygon points="790.42 93.06 790.42 96.59 805.24 99.35 805.24 95.81 790.42 93.06"/><rect x="765.38" y="87.72" width="17.54" height="3.42"/><rect x="743.49" y="80.37" width="13.66" height="3.43"/><path d="M745.76,99.35V95.91s6.35.06,8.65-5.63a.43.43,0,0,0-.47-.51h-12.4V86.35H758a.94.94,0,0,1,1,1S758,98.71,745.76,99.35Z"/><path d="M731.3,87.55v6.91A1.26,1.26,0,0,1,730,95.75h-1.69v3.44h2.33a4.53,4.53,0,0,0,4.33-4.63v-10c0-1.14-.81-1.13-.81-1.13H726.5v-3h-3.43v3h-6V86.8h6s.18,5.59-6,9.11v3.43a14,14,0,0,0,9.4-12.54h4.2S731.3,86.73,731.3,87.55Z"/></g></g></svg>